{"canvas_config": {"height": 1080, "ratio": "original", "width": 1920}, "color_space": 0, "config": {"adjust_max_index": 1, "attachment_info": [], "combination_max_index": 1, "export_range": null, "extract_audio_last_index": 1, "lyrics_recognition_id": "", "lyrics_sync": true, "lyrics_taskinfo": [], "maintrack_adsorb": true, "material_save_mode": 0, "original_sound_last_index": 1, "record_audio_last_index": 1, "sticker_max_index": 1, "subtitle_recognition_id": "", "subtitle_sync": true, "subtitle_taskinfo": [], "system_font_list": [], "video_mute": false, "zoom_info_params": null}, "cover": null, "create_time": 0, "duration": 1420033333, "extra_info": null, "fps": 30.0, "free_render_index_mode_on": false, "group_container": null, "id": "8590BAED-AFBD-4118-94E7-83CE69B3B431", "keyframe_graph_list": [], "keyframes": {"adjusts": [], "audios": [], "effects": [], "filters": [], "handwrites": [], "stickers": [], "texts": [], "videos": []}, "last_modified_platform": {"app_id": 359289, "app_source": "cc", "app_version": "3.3.0", "device_id": "4a567a4c527a02c88a73108dbbd5c405", "hard_disk_id": "14720abd58ddc4df6270f1486d88f4bc", "mac_address": "810a522ebfb81dfbca5ac07e6e2f2b25,119f4d8e397bd74d97089e91d2804547", "os": "windows", "os_version": "10.0.22621"}, "materials": {"audio_balances": [], "audio_effects": [], "audio_fades": [], "audio_track_indexes": [], "audios": [{"app_id": 0, "category_id": "", "category_name": "local", "check_flag": 1, "effect_id": "", "formula_id": "", "intensifies_path": "", "is_ai_clone_tone": false, "is_ugc": false, "query": "", "request_id": "", "resource_id": "", "search_id": "", "source_platform": 0, "team_id": "", "text_id": "", "tone_category_id": "", "tone_category_name": "", "tone_effect_id": "", "tone_effect_name": "", "tone_second_category_id": "", "tone_second_category_name": "", "tone_speaker": "", "tone_type": "", "type": "extract_music", "video_id": "", "wave_points": [], "duration": 3600000, "id": "A38350AE-60BF-E70E-8B21-B4A5594F5EE5", "name": "40.mp3", "path": "//wsl.localhost/Ubuntu/home/juki/github/cuddly-journey/output/40.mp3"}, {"app_id": 0, "category_id": "", "category_name": "local", "check_flag": 1, "effect_id": "", "formula_id": "", "intensifies_path": "", "is_ai_clone_tone": false, "is_ugc": false, "query": "", "request_id": "", "resource_id": "", "search_id": "", "source_platform": 0, "team_id": "", "text_id": "", "tone_category_id": "", "tone_category_name": "", "tone_effect_id": "", "tone_effect_name": "", "tone_second_category_id": "", "tone_second_category_name": "", "tone_speaker": "", "tone_type": "", "type": "extract_music", "video_id": "", "wave_points": [], "duration": 1872000, "id": "5C9726ED-4CC0-6E7A-BC5F-E890879EE979", "name": "250.mp3", "path": "//wsl.localhost/Ubuntu/home/juki/github/cuddly-journey/output/250.mp3"}, {"app_id": 0, "category_id": "", "category_name": "local", "check_flag": 1, "effect_id": "", "formula_id": "", "intensifies_path": "", "is_ai_clone_tone": false, "is_ugc": false, "query": "", "request_id": "", "resource_id": "", "search_id": "", "source_platform": 0, "team_id": "", "text_id": "", "tone_category_id": "", "tone_category_name": "", "tone_effect_id": "", "tone_effect_name": "", "tone_second_category_id": "", "tone_second_category_name": "", "tone_speaker": "", "tone_type": "", "type": "extract_music", "video_id": "", "wave_points": [], "duration": 1992000, "id": "B6860F58-D63B-8ADB-399A-9E66E1F3C005", "name": "85.mp3", "path": "//wsl.localhost/Ubuntu/home/juki/github/cuddly-journey/output/85.mp3"}, {"app_id": 0, "category_id": "", "category_name": "local", "check_flag": 1, "effect_id": "", "formula_id": "", "intensifies_path": "", "is_ai_clone_tone": false, "is_ugc": false, "query": "", "request_id": "", "resource_id": "", "search_id": "", "source_platform": 0, "team_id": "", "text_id": "", "tone_category_id": "", "tone_category_name": "", "tone_effect_id": "", "tone_effect_name": "", "tone_second_category_id": "", "tone_second_category_name": "", "tone_speaker": "", "tone_type": "", "type": "extract_music", "video_id": "", "wave_points": [], "duration": 2064000, "id": "95613971-1F9D-C060-B112-244653794BB1", "name": "155.mp3", "path": "//wsl.localhost/Ubuntu/home/juki/github/cuddly-journey/output/155.mp3"}, {"app_id": 0, "category_id": "", "category_name": "local", "check_flag": 1, "effect_id": "", "formula_id": "", "intensifies_path": "", "is_ai_clone_tone": false, "is_ugc": false, "query": "", "request_id": "", "resource_id": "", "search_id": "", "source_platform": 0, "team_id": "", "text_id": "", "tone_category_id": "", "tone_category_name": "", "tone_effect_id": "", "tone_effect_name": "", "tone_second_category_id": "", "tone_second_category_name": "", "tone_speaker": "", "tone_type": "", "type": "extract_music", "video_id": "", "wave_points": [], "duration": 3024000, "id": "671D6296-6251-50ED-58E0-391EE3D80A21", "name": "307.mp3", "path": "//wsl.localhost/Ubuntu/home/juki/github/cuddly-journey/output/307.mp3"}, {"app_id": 0, "category_id": "", "category_name": "local", "check_flag": 1, "effect_id": "", "formula_id": "", "intensifies_path": "", "is_ai_clone_tone": false, "is_ugc": false, "query": "", "request_id": "", "resource_id": "", "search_id": "", "source_platform": 0, "team_id": "", "text_id": "", "tone_category_id": "", "tone_category_name": "", "tone_effect_id": "", "tone_effect_name": "", "tone_second_category_id": "", "tone_second_category_name": "", "tone_speaker": "", "tone_type": "", "type": "extract_music", "video_id": "", "wave_points": [], "duration": 1776000, "id": "71A81BDC-FC1A-9CD6-5B63-1589ACA93F8B", "name": "304.mp3", "path": "//wsl.localhost/Ubuntu/home/juki/github/cuddly-journey/output/304.mp3"}, {"app_id": 0, "category_id": "", "category_name": "local", "check_flag": 1, "effect_id": "", "formula_id": "", "intensifies_path": "", "is_ai_clone_tone": false, "is_ugc": false, "query": "", "request_id": "", "resource_id": "", "search_id": "", "source_platform": 0, "team_id": "", "text_id": "", "tone_category_id": "", "tone_category_name": "", "tone_effect_id": "", "tone_effect_name": "", "tone_second_category_id": "", "tone_second_category_name": "", "tone_speaker": "", "tone_type": "", "type": "extract_music", "video_id": "", "wave_points": [], "duration": 3336000, "id": "16BD4119-9CA9-D91E-4B95-E8669D13369E", "name": "265.mp3", "path": "//wsl.localhost/Ubuntu/home/juki/github/cuddly-journey/output/265.mp3"}, {"app_id": 0, "category_id": "", "category_name": "local", "check_flag": 1, "effect_id": "", "formula_id": "", "intensifies_path": "", "is_ai_clone_tone": false, "is_ugc": false, "query": "", "request_id": "", "resource_id": "", "search_id": "", "source_platform": 0, "team_id": "", "text_id": "", "tone_category_id": "", "tone_category_name": "", "tone_effect_id": "", "tone_effect_name": "", "tone_second_category_id": "", "tone_second_category_name": "", "tone_speaker": "", "tone_type": "", "type": "extract_music", "video_id": "", "wave_points": [], "duration": 2184000, "id": "3A5CE2EE-9522-25ED-5F09-53DF8A20E093", "name": "68.mp3", "path": "//wsl.localhost/Ubuntu/home/juki/github/cuddly-journey/output/68.mp3"}, {"app_id": 0, "category_id": "", "category_name": "local", "check_flag": 1, "effect_id": "", "formula_id": "", "intensifies_path": "", "is_ai_clone_tone": false, "is_ugc": false, "query": "", "request_id": "", "resource_id": "", "search_id": "", "source_platform": 0, "team_id": "", "text_id": "", "tone_category_id": "", "tone_category_name": "", "tone_effect_id": "", "tone_effect_name": "", "tone_second_category_id": "", "tone_second_category_name": "", "tone_speaker": "", "tone_type": "", "type": "extract_music", "video_id": "", "wave_points": [], "duration": 1920000, "id": "8078715A-1A0B-8846-6F7E-B4C2E9A0B8B4", "name": "57.mp3", "path": "//wsl.localhost/Ubuntu/home/juki/github/cuddly-journey/output/57.mp3"}, {"app_id": 0, "category_id": "", "category_name": "local", "check_flag": 1, "effect_id": "", "formula_id": "", "intensifies_path": "", "is_ai_clone_tone": false, "is_ugc": false, "query": "", "request_id": "", "resource_id": "", "search_id": "", "source_platform": 0, "team_id": "", "text_id": "", "tone_category_id": "", "tone_category_name": "", "tone_effect_id": "", "tone_effect_name": "", "tone_second_category_id": "", "tone_second_category_name": "", "tone_speaker": "", "tone_type": "", "type": "extract_music", "video_id": "", "wave_points": [], "duration": 1944000, "id": "6A28008C-915D-C6A0-B6A0-F4A722709D9D", "name": "251.mp3", "path": "//wsl.localhost/Ubuntu/home/juki/github/cuddly-journey/output/251.mp3"}, {"app_id": 0, "category_id": "", "category_name": "local", "check_flag": 1, "effect_id": "", "formula_id": "", "intensifies_path": "", "is_ai_clone_tone": false, "is_ugc": false, "query": "", "request_id": "", "resource_id": "", "search_id": "", "source_platform": 0, "team_id": "", "text_id": "", "tone_category_id": "", "tone_category_name": "", "tone_effect_id": "", "tone_effect_name": "", "tone_second_category_id": "", "tone_second_category_name": "", "tone_speaker": "", "tone_type": "", "type": "extract_music", "video_id": "", "wave_points": [], "duration": 3336000, "id": "07C894A8-5B8D-190D-5F82-0C75CC5AFB1D", "name": "287.mp3", "path": "//wsl.localhost/Ubuntu/home/juki/github/cuddly-journey/output/287.mp3"}, {"app_id": 0, "category_id": "", "category_name": "local", "check_flag": 1, "effect_id": "", "formula_id": "", "intensifies_path": "", "is_ai_clone_tone": false, "is_ugc": false, "query": "", "request_id": "", "resource_id": "", "search_id": "", "source_platform": 0, "team_id": "", "text_id": "", "tone_category_id": "", "tone_category_name": "", "tone_effect_id": "", "tone_effect_name": "", "tone_second_category_id": "", "tone_second_category_name": "", "tone_speaker": "", "tone_type": "", "type": "extract_music", "video_id": "", "wave_points": [], "duration": 2112000, "id": "AA113A9A-C7E7-9C6D-8CC8-0FCEAE57052D", "name": "280.mp3", "path": "//wsl.localhost/Ubuntu/home/juki/github/cuddly-journey/output/280.mp3"}, {"app_id": 0, "category_id": "", "category_name": "local", "check_flag": 1, "effect_id": "", "formula_id": "", "intensifies_path": "", "is_ai_clone_tone": false, "is_ugc": false, "query": "", "request_id": "", "resource_id": "", "search_id": "", "source_platform": 0, "team_id": "", "text_id": "", "tone_category_id": "", "tone_category_name": "", "tone_effect_id": "", "tone_effect_name": "", "tone_second_category_id": "", "tone_second_category_name": "", "tone_speaker": "", "tone_type": "", "type": "extract_music", "video_id": "", "wave_points": [], "duration": 2328000, "id": "F249FE6F-C4B7-24B7-F4C3-8E9F44BFF458", "name": "274.mp3", "path": "//wsl.localhost/Ubuntu/home/juki/github/cuddly-journey/output/274.mp3"}, {"app_id": 0, "category_id": "", "category_name": "local", "check_flag": 1, "effect_id": "", "formula_id": "", "intensifies_path": "", "is_ai_clone_tone": false, "is_ugc": false, "query": "", "request_id": "", "resource_id": "", "search_id": "", "source_platform": 0, "team_id": "", "text_id": "", "tone_category_id": "", "tone_category_name": "", "tone_effect_id": "", "tone_effect_name": "", "tone_second_category_id": "", "tone_second_category_name": "", "tone_speaker": "", "tone_type": "", "type": "extract_music", "video_id": "", "wave_points": [], "duration": 2568000, "id": "7374163B-B12B-AED8-9D7D-F9894F5AA203", "name": "316.mp3", "path": "//wsl.localhost/Ubuntu/home/juki/github/cuddly-journey/output/316.mp3"}, {"app_id": 0, "category_id": "", "category_name": "local", "check_flag": 1, "effect_id": "", "formula_id": "", "intensifies_path": "", "is_ai_clone_tone": false, "is_ugc": false, "query": "", "request_id": "", "resource_id": "", "search_id": "", "source_platform": 0, "team_id": "", "text_id": "", "tone_category_id": "", "tone_category_name": "", "tone_effect_id": "", "tone_effect_name": "", "tone_second_category_id": "", "tone_second_category_name": "", "tone_speaker": "", "tone_type": "", "type": "extract_music", "video_id": "", "wave_points": [], "duration": 1920000, "id": "6F39626D-4B6A-AA28-523A-E3E30EF74390", "name": "5.mp3", "path": "//wsl.localhost/Ubuntu/home/juki/github/cuddly-journey/output/5.mp3"}, {"app_id": 0, "category_id": "", "category_name": "local", "check_flag": 1, "effect_id": "", "formula_id": "", "intensifies_path": "", "is_ai_clone_tone": false, "is_ugc": false, "query": "", "request_id": "", "resource_id": "", "search_id": "", "source_platform": 0, "team_id": "", "text_id": "", "tone_category_id": "", "tone_category_name": "", "tone_effect_id": "", "tone_effect_name": "", "tone_second_category_id": "", "tone_second_category_name": "", "tone_speaker": "", "tone_type": "", "type": "extract_music", "video_id": "", "wave_points": [], "duration": 3288000, "id": "B3A40D5C-9FF3-C0D5-9A7A-9D261168C459", "name": "233.mp3", "path": "//wsl.localhost/Ubuntu/home/juki/github/cuddly-journey/output/233.mp3"}, {"app_id": 0, "category_id": "", "category_name": "local", "check_flag": 1, "effect_id": "", "formula_id": "", "intensifies_path": "", "is_ai_clone_tone": false, "is_ugc": false, "query": "", "request_id": "", "resource_id": "", "search_id": "", "source_platform": 0, "team_id": "", "text_id": "", "tone_category_id": "", "tone_category_name": "", "tone_effect_id": "", "tone_effect_name": "", "tone_second_category_id": "", "tone_second_category_name": "", "tone_speaker": "", "tone_type": "", "type": "extract_music", "video_id": "", "wave_points": [], "duration": 4392000, "id": "2937D3DD-8C77-2EDC-36E7-5EBE0CA2100F", "name": "243.mp3", "path": "//wsl.localhost/Ubuntu/home/juki/github/cuddly-journey/output/243.mp3"}, {"app_id": 0, "category_id": "", "category_name": "local", "check_flag": 1, "effect_id": "", "formula_id": "", "intensifies_path": "", "is_ai_clone_tone": false, "is_ugc": false, "query": "", "request_id": "", "resource_id": "", "search_id": "", "source_platform": 0, "team_id": "", "text_id": "", "tone_category_id": "", "tone_category_name": "", "tone_effect_id": "", "tone_effect_name": "", "tone_second_category_id": "", "tone_second_category_name": "", "tone_speaker": "", "tone_type": "", "type": "extract_music", "video_id": "", "wave_points": [], "duration": 1632000, "id": "E38E2D16-6D13-3B3A-4F8D-4F6A394B10A1", "name": "371.mp3", "path": "//wsl.localhost/Ubuntu/home/juki/github/cuddly-journey/output/371.mp3"}, {"app_id": 0, "category_id": "", "category_name": "local", "check_flag": 1, "effect_id": "", "formula_id": "", "intensifies_path": "", "is_ai_clone_tone": false, "is_ugc": false, "query": "", "request_id": "", "resource_id": "", "search_id": "", "source_platform": 0, "team_id": "", "text_id": "", "tone_category_id": "", "tone_category_name": "", "tone_effect_id": "", "tone_effect_name": "", "tone_second_category_id": "", "tone_second_category_name": "", "tone_speaker": "", "tone_type": "", "type": "extract_music", "video_id": "", "wave_points": [], "duration": 2472000, "id": "0DDEEE0E-33A4-9B08-141F-42FB8CAFD48A", "name": "117.mp3", "path": "//wsl.localhost/Ubuntu/home/juki/github/cuddly-journey/output/117.mp3"}, {"app_id": 0, "category_id": "", "category_name": "local", "check_flag": 1, "effect_id": "", "formula_id": "", "intensifies_path": "", "is_ai_clone_tone": false, "is_ugc": false, "query": "", "request_id": "", "resource_id": "", "search_id": "", "source_platform": 0, "team_id": "", "text_id": "", "tone_category_id": "", "tone_category_name": "", "tone_effect_id": "", "tone_effect_name": "", "tone_second_category_id": "", "tone_second_category_name": "", "tone_speaker": "", "tone_type": "", "type": "extract_music", "video_id": "", "wave_points": [], "duration": 2832000, "id": "C30F6968-0D89-0DFD-DC80-9646382D22ED", "name": "55.mp3", "path": "//wsl.localhost/Ubuntu/home/juki/github/cuddly-journey/output/55.mp3"}, {"app_id": 0, "category_id": "", "category_name": "local", "check_flag": 1, "effect_id": "", "formula_id": "", "intensifies_path": "", "is_ai_clone_tone": false, "is_ugc": false, "query": "", "request_id": "", "resource_id": "", "search_id": "", "source_platform": 0, "team_id": "", "text_id": "", "tone_category_id": "", "tone_category_name": "", "tone_effect_id": "", "tone_effect_name": "", "tone_second_category_id": "", "tone_second_category_name": "", "tone_speaker": "", "tone_type": "", "type": "extract_music", "video_id": "", "wave_points": [], "duration": 1944000, "id": "F7525470-F84D-DAE8-D8A1-14DFCDE5B0F8", "name": "313.mp3", "path": "//wsl.localhost/Ubuntu/home/juki/github/cuddly-journey/output/313.mp3"}, {"app_id": 0, "category_id": "", "category_name": "local", "check_flag": 1, "effect_id": "", "formula_id": "", "intensifies_path": "", "is_ai_clone_tone": false, "is_ugc": false, "query": "", "request_id": "", "resource_id": "", "search_id": "", "source_platform": 0, "team_id": "", "text_id": "", "tone_category_id": "", "tone_category_name": "", "tone_effect_id": "", "tone_effect_name": "", "tone_second_category_id": "", "tone_second_category_name": "", "tone_speaker": "", "tone_type": "", "type": "extract_music", "video_id": "", "wave_points": [], "duration": 2088000, "id": "B8ACDD8B-35C2-1C1A-7D16-71B765FA5D60", "name": "273.mp3", "path": "//wsl.localhost/Ubuntu/home/juki/github/cuddly-journey/output/273.mp3"}, {"app_id": 0, "category_id": "", "category_name": "local", "check_flag": 1, "effect_id": "", "formula_id": "", "intensifies_path": "", "is_ai_clone_tone": false, "is_ugc": false, "query": "", "request_id": "", "resource_id": "", "search_id": "", "source_platform": 0, "team_id": "", "text_id": "", "tone_category_id": "", "tone_category_name": "", "tone_effect_id": "", "tone_effect_name": "", "tone_second_category_id": "", "tone_second_category_name": "", "tone_speaker": "", "tone_type": "", "type": "extract_music", "video_id": "", "wave_points": [], "duration": 3984000, "id": "88835DF8-503C-D757-8EE5-524862335B10", "name": "58.mp3", "path": "//wsl.localhost/Ubuntu/home/juki/github/cuddly-journey/output/58.mp3"}, {"app_id": 0, "category_id": "", "category_name": "local", "check_flag": 1, "effect_id": "", "formula_id": "", "intensifies_path": "", "is_ai_clone_tone": false, "is_ugc": false, "query": "", "request_id": "", "resource_id": "", "search_id": "", "source_platform": 0, "team_id": "", "text_id": "", "tone_category_id": "", "tone_category_name": "", "tone_effect_id": "", "tone_effect_name": "", "tone_second_category_id": "", "tone_second_category_name": "", "tone_speaker": "", "tone_type": "", "type": "extract_music", "video_id": "", "wave_points": [], "duration": 2232000, "id": "998DDDD6-F148-91A5-B0F8-50076D1ADE9A", "name": "221.mp3", "path": "//wsl.localhost/Ubuntu/home/juki/github/cuddly-journey/output/221.mp3"}, {"app_id": 0, "category_id": "", "category_name": "local", "check_flag": 1, "effect_id": "", "formula_id": "", "intensifies_path": "", "is_ai_clone_tone": false, "is_ugc": false, "query": "", "request_id": "", "resource_id": "", "search_id": "", "source_platform": 0, "team_id": "", "text_id": "", "tone_category_id": "", "tone_category_name": "", "tone_effect_id": "", "tone_effect_name": "", "tone_second_category_id": "", "tone_second_category_name": "", "tone_speaker": "", "tone_type": "", "type": "extract_music", "video_id": "", "wave_points": [], "duration": 1248000, "id": "6B84FCE6-279A-884D-B76E-AB3E25E8A2CD", "name": "322.mp3", "path": "//wsl.localhost/Ubuntu/home/juki/github/cuddly-journey/output/322.mp3"}, {"app_id": 0, "category_id": "", "category_name": "local", "check_flag": 1, "effect_id": "", "formula_id": "", "intensifies_path": "", "is_ai_clone_tone": false, "is_ugc": false, "query": "", "request_id": "", "resource_id": "", "search_id": "", "source_platform": 0, "team_id": "", "text_id": "", "tone_category_id": "", "tone_category_name": "", "tone_effect_id": "", "tone_effect_name": "", "tone_second_category_id": "", "tone_second_category_name": "", "tone_speaker": "", "tone_type": "", "type": "extract_music", "video_id": "", "wave_points": [], "duration": 1968000, "id": "B5202746-2239-6A6F-165E-6F626E30482B", "name": "216.mp3", "path": "//wsl.localhost/Ubuntu/home/juki/github/cuddly-journey/output/216.mp3"}, {"app_id": 0, "category_id": "", "category_name": "local", "check_flag": 1, "effect_id": "", "formula_id": "", "intensifies_path": "", "is_ai_clone_tone": false, "is_ugc": false, "query": "", "request_id": "", "resource_id": "", "search_id": "", "source_platform": 0, "team_id": "", "text_id": "", "tone_category_id": "", "tone_category_name": "", "tone_effect_id": "", "tone_effect_name": "", "tone_second_category_id": "", "tone_second_category_name": "", "tone_speaker": "", "tone_type": "", "type": "extract_music", "video_id": "", "wave_points": [], "duration": 3912000, "id": "AAFCF39D-B678-1EBE-A082-59F6A182467C", "name": "151.mp3", "path": "//wsl.localhost/Ubuntu/home/juki/github/cuddly-journey/output/151.mp3"}, {"app_id": 0, "category_id": "", "category_name": "local", "check_flag": 1, "effect_id": "", "formula_id": "", "intensifies_path": "", "is_ai_clone_tone": false, "is_ugc": false, "query": "", "request_id": "", "resource_id": "", "search_id": "", "source_platform": 0, "team_id": "", "text_id": "", "tone_category_id": "", "tone_category_name": "", "tone_effect_id": "", "tone_effect_name": "", "tone_second_category_id": "", "tone_second_category_name": "", "tone_speaker": "", "tone_type": "", "type": "extract_music", "video_id": "", "wave_points": [], "duration": 2328000, "id": "DE446090-7D5E-8F02-7938-04B22DE5B6B4", "name": "379.mp3", "path": "//wsl.localhost/Ubuntu/home/juki/github/cuddly-journey/output/379.mp3"}, {"app_id": 0, "category_id": "", "category_name": "local", "check_flag": 1, "effect_id": "", "formula_id": "", "intensifies_path": "", "is_ai_clone_tone": false, "is_ugc": false, "query": "", "request_id": "", "resource_id": "", "search_id": "", "source_platform": 0, "team_id": "", "text_id": "", "tone_category_id": "", "tone_category_name": "", "tone_effect_id": "", "tone_effect_name": "", "tone_second_category_id": "", "tone_second_category_name": "", "tone_speaker": "", "tone_type": "", "type": "extract_music", "video_id": "", "wave_points": [], "duration": 2376000, "id": "36BCCEA7-A0C1-CF96-213E-38F63BD824EE", "name": "59.mp3", "path": "//wsl.localhost/Ubuntu/home/juki/github/cuddly-journey/output/59.mp3"}, {"app_id": 0, "category_id": "", "category_name": "local", "check_flag": 1, "effect_id": "", "formula_id": "", "intensifies_path": "", "is_ai_clone_tone": false, "is_ugc": false, "query": "", "request_id": "", "resource_id": "", "search_id": "", "source_platform": 0, "team_id": "", "text_id": "", "tone_category_id": "", "tone_category_name": "", "tone_effect_id": "", "tone_effect_name": "", "tone_second_category_id": "", "tone_second_category_name": "", "tone_speaker": "", "tone_type": "", "type": "extract_music", "video_id": "", "wave_points": [], "duration": 2520000, "id": "C0F5A31E-B11B-EA98-386F-B3A70CDAEE20", "name": "9.mp3", "path": "//wsl.localhost/Ubuntu/home/juki/github/cuddly-journey/output/9.mp3"}, {"app_id": 0, "category_id": "", "category_name": "local", "check_flag": 1, "effect_id": "", "formula_id": "", "intensifies_path": "", "is_ai_clone_tone": false, "is_ugc": false, "query": "", "request_id": "", "resource_id": "", "search_id": "", "source_platform": 0, "team_id": "", "text_id": "", "tone_category_id": "", "tone_category_name": "", "tone_effect_id": "", "tone_effect_name": "", "tone_second_category_id": "", "tone_second_category_name": "", "tone_speaker": "", "tone_type": "", "type": "extract_music", "video_id": "", "wave_points": [], "duration": 3816000, "id": "A6E55387-8CE9-A60E-36AD-CD4F9E3AF265", "name": "342.mp3", "path": "//wsl.localhost/Ubuntu/home/juki/github/cuddly-journey/output/342.mp3"}, {"app_id": 0, "category_id": "", "category_name": "local", "check_flag": 1, "effect_id": "", "formula_id": "", "intensifies_path": "", "is_ai_clone_tone": false, "is_ugc": false, "query": "", "request_id": "", "resource_id": "", "search_id": "", "source_platform": 0, "team_id": "", "text_id": "", "tone_category_id": "", "tone_category_name": "", "tone_effect_id": "", "tone_effect_name": "", "tone_second_category_id": "", "tone_second_category_name": "", "tone_speaker": "", "tone_type": "", "type": "extract_music", "video_id": "", "wave_points": [], "duration": 2520000, "id": "BA8C877D-A4A8-1F45-39B9-97997D3774F3", "name": "302.mp3", "path": "//wsl.localhost/Ubuntu/home/juki/github/cuddly-journey/output/302.mp3"}, {"app_id": 0, "category_id": "", "category_name": "local", "check_flag": 1, "effect_id": "", "formula_id": "", "intensifies_path": "", "is_ai_clone_tone": false, "is_ugc": false, "query": "", "request_id": "", "resource_id": "", "search_id": "", "source_platform": 0, "team_id": "", "text_id": "", "tone_category_id": "", "tone_category_name": "", "tone_effect_id": "", "tone_effect_name": "", "tone_second_category_id": "", "tone_second_category_name": "", "tone_speaker": "", "tone_type": "", "type": "extract_music", "video_id": "", "wave_points": [], "duration": 1824000, "id": "F25F688C-5C88-AD4C-00D7-636122C1656F", "name": "94.mp3", "path": "//wsl.localhost/Ubuntu/home/juki/github/cuddly-journey/output/94.mp3"}, {"app_id": 0, "category_id": "", "category_name": "local", "check_flag": 1, "effect_id": "", "formula_id": "", "intensifies_path": "", "is_ai_clone_tone": false, "is_ugc": false, "query": "", "request_id": "", "resource_id": "", "search_id": "", "source_platform": 0, "team_id": "", "text_id": "", "tone_category_id": "", "tone_category_name": "", "tone_effect_id": "", "tone_effect_name": "", "tone_second_category_id": "", "tone_second_category_name": "", "tone_speaker": "", "tone_type": "", "type": "extract_music", "video_id": "", "wave_points": [], "duration": 2448000, "id": "A15B864D-6DFC-2489-B3BD-AD9BB7F6C707", "name": "103.mp3", "path": "//wsl.localhost/Ubuntu/home/juki/github/cuddly-journey/output/103.mp3"}, {"app_id": 0, "category_id": "", "category_name": "local", "check_flag": 1, "effect_id": "", "formula_id": "", "intensifies_path": "", "is_ai_clone_tone": false, "is_ugc": false, "query": "", "request_id": "", "resource_id": "", "search_id": "", "source_platform": 0, "team_id": "", "text_id": "", "tone_category_id": "", "tone_category_name": "", "tone_effect_id": "", "tone_effect_name": "", "tone_second_category_id": "", "tone_second_category_name": "", "tone_speaker": "", "tone_type": "", "type": "extract_music", "video_id": "", "wave_points": [], "duration": 2688000, "id": "B1C91B91-0835-4889-9C83-63B60E1800CB", "name": "181.mp3", "path": "//wsl.localhost/Ubuntu/home/juki/github/cuddly-journey/output/181.mp3"}, {"app_id": 0, "category_id": "", "category_name": "local", "check_flag": 1, "effect_id": "", "formula_id": "", "intensifies_path": "", "is_ai_clone_tone": false, "is_ugc": false, "query": "", "request_id": "", "resource_id": "", "search_id": "", "source_platform": 0, "team_id": "", "text_id": "", "tone_category_id": "", "tone_category_name": "", "tone_effect_id": "", "tone_effect_name": "", "tone_second_category_id": "", "tone_second_category_name": "", "tone_speaker": "", "tone_type": "", "type": "extract_music", "video_id": "", "wave_points": [], "duration": 1632000, "id": "A6920246-887E-93B4-D9D1-AEA5D660B176", "name": "337.mp3", "path": "//wsl.localhost/Ubuntu/home/juki/github/cuddly-journey/output/337.mp3"}, {"app_id": 0, "category_id": "", "category_name": "local", "check_flag": 1, "effect_id": "", "formula_id": "", "intensifies_path": "", "is_ai_clone_tone": false, "is_ugc": false, "query": "", "request_id": "", "resource_id": "", "search_id": "", "source_platform": 0, "team_id": "", "text_id": "", "tone_category_id": "", "tone_category_name": "", "tone_effect_id": "", "tone_effect_name": "", "tone_second_category_id": "", "tone_second_category_name": "", "tone_speaker": "", "tone_type": "", "type": "extract_music", "video_id": "", "wave_points": [], "duration": 2928000, "id": "C79E937C-C4D7-9B6E-4B82-3B241079F2A1", "name": "127.mp3", "path": "//wsl.localhost/Ubuntu/home/juki/github/cuddly-journey/output/127.mp3"}, {"app_id": 0, "category_id": "", "category_name": "local", "check_flag": 1, "effect_id": "", "formula_id": "", "intensifies_path": "", "is_ai_clone_tone": false, "is_ugc": false, "query": "", "request_id": "", "resource_id": "", "search_id": "", "source_platform": 0, "team_id": "", "text_id": "", "tone_category_id": "", "tone_category_name": "", "tone_effect_id": "", "tone_effect_name": "", "tone_second_category_id": "", "tone_second_category_name": "", "tone_speaker": "", "tone_type": "", "type": "extract_music", "video_id": "", "wave_points": [], "duration": 1896000, "id": "3E193F0D-0805-72AB-750C-AB75ADA0303E", "name": "167.mp3", "path": "//wsl.localhost/Ubuntu/home/juki/github/cuddly-journey/output/167.mp3"}, {"app_id": 0, "category_id": "", "category_name": "local", "check_flag": 1, "effect_id": "", "formula_id": "", "intensifies_path": "", "is_ai_clone_tone": false, "is_ugc": false, "query": "", "request_id": "", "resource_id": "", "search_id": "", "source_platform": 0, "team_id": "", "text_id": "", "tone_category_id": "", "tone_category_name": "", "tone_effect_id": "", "tone_effect_name": "", "tone_second_category_id": "", "tone_second_category_name": "", "tone_speaker": "", "tone_type": "", "type": "extract_music", "video_id": "", "wave_points": [], "duration": 1896000, "id": "80DE7982-348A-5A33-8FC8-08C4D8F26DE6", "name": "76.mp3", "path": "//wsl.localhost/Ubuntu/home/juki/github/cuddly-journey/output/76.mp3"}, {"app_id": 0, "category_id": "", "category_name": "local", "check_flag": 1, "effect_id": "", "formula_id": "", "intensifies_path": "", "is_ai_clone_tone": false, "is_ugc": false, "query": "", "request_id": "", "resource_id": "", "search_id": "", "source_platform": 0, "team_id": "", "text_id": "", "tone_category_id": "", "tone_category_name": "", "tone_effect_id": "", "tone_effect_name": "", "tone_second_category_id": "", "tone_second_category_name": "", "tone_speaker": "", "tone_type": "", "type": "extract_music", "video_id": "", "wave_points": [], "duration": 3960000, "id": "2786DD63-D839-E07B-D426-E41DFCCE57C4", "name": "71.mp3", "path": "//wsl.localhost/Ubuntu/home/juki/github/cuddly-journey/output/71.mp3"}, {"app_id": 0, "category_id": "", "category_name": "local", "check_flag": 1, "effect_id": "", "formula_id": "", "intensifies_path": "", "is_ai_clone_tone": false, "is_ugc": false, "query": "", "request_id": "", "resource_id": "", "search_id": "", "source_platform": 0, "team_id": "", "text_id": "", "tone_category_id": "", "tone_category_name": "", "tone_effect_id": "", "tone_effect_name": "", "tone_second_category_id": "", "tone_second_category_name": "", "tone_speaker": "", "tone_type": "", "type": "extract_music", "video_id": "", "wave_points": [], "duration": 2040000, "id": "64662B63-AB79-C670-D180-D3C5BB7F755C", "name": "81.mp3", "path": "//wsl.localhost/Ubuntu/home/juki/github/cuddly-journey/output/81.mp3"}, {"app_id": 0, "category_id": "", "category_name": "local", "check_flag": 1, "effect_id": "", "formula_id": "", "intensifies_path": "", "is_ai_clone_tone": false, "is_ugc": false, "query": "", "request_id": "", "resource_id": "", "search_id": "", "source_platform": 0, "team_id": "", "text_id": "", "tone_category_id": "", "tone_category_name": "", "tone_effect_id": "", "tone_effect_name": "", "tone_second_category_id": "", "tone_second_category_name": "", "tone_speaker": "", "tone_type": "", "type": "extract_music", "video_id": "", "wave_points": [], "duration": 2808000, "id": "7A504730-CCF1-F458-510B-C130C3637F0F", "name": "228.mp3", "path": "//wsl.localhost/Ubuntu/home/juki/github/cuddly-journey/output/228.mp3"}, {"app_id": 0, "category_id": "", "category_name": "local", "check_flag": 1, "effect_id": "", "formula_id": "", "intensifies_path": "", "is_ai_clone_tone": false, "is_ugc": false, "query": "", "request_id": "", "resource_id": "", "search_id": "", "source_platform": 0, "team_id": "", "text_id": "", "tone_category_id": "", "tone_category_name": "", "tone_effect_id": "", "tone_effect_name": "", "tone_second_category_id": "", "tone_second_category_name": "", "tone_speaker": "", "tone_type": "", "type": "extract_music", "video_id": "", "wave_points": [], "duration": 1656000, "id": "248B0AD4-C631-79E7-2162-5C7576D95989", "name": "109.mp3", "path": "//wsl.localhost/Ubuntu/home/juki/github/cuddly-journey/output/109.mp3"}, {"app_id": 0, "category_id": "", "category_name": "local", "check_flag": 1, "effect_id": "", "formula_id": "", "intensifies_path": "", "is_ai_clone_tone": false, "is_ugc": false, "query": "", "request_id": "", "resource_id": "", "search_id": "", "source_platform": 0, "team_id": "", "text_id": "", "tone_category_id": "", "tone_category_name": "", "tone_effect_id": "", "tone_effect_name": "", "tone_second_category_id": "", "tone_second_category_name": "", "tone_speaker": "", "tone_type": "", "type": "extract_music", "video_id": "", "wave_points": [], "duration": 2496000, "id": "EF34ADE0-9656-A8C2-728E-8E8F25728FAF", "name": "366.mp3", "path": "//wsl.localhost/Ubuntu/home/juki/github/cuddly-journey/output/366.mp3"}, {"app_id": 0, "category_id": "", "category_name": "local", "check_flag": 1, "effect_id": "", "formula_id": "", "intensifies_path": "", "is_ai_clone_tone": false, "is_ugc": false, "query": "", "request_id": "", "resource_id": "", "search_id": "", "source_platform": 0, "team_id": "", "text_id": "", "tone_category_id": "", "tone_category_name": "", "tone_effect_id": "", "tone_effect_name": "", "tone_second_category_id": "", "tone_second_category_name": "", "tone_speaker": "", "tone_type": "", "type": "extract_music", "video_id": "", "wave_points": [], "duration": 1656000, "id": "F6F1D267-7E15-D988-0696-23D622F828E3", "name": "79.mp3", "path": "//wsl.localhost/Ubuntu/home/juki/github/cuddly-journey/output/79.mp3"}, {"app_id": 0, "category_id": "", "category_name": "local", "check_flag": 1, "effect_id": "", "formula_id": "", "intensifies_path": "", "is_ai_clone_tone": false, "is_ugc": false, "query": "", "request_id": "", "resource_id": "", "search_id": "", "source_platform": 0, "team_id": "", "text_id": "", "tone_category_id": "", "tone_category_name": "", "tone_effect_id": "", "tone_effect_name": "", "tone_second_category_id": "", "tone_second_category_name": "", "tone_speaker": "", "tone_type": "", "type": "extract_music", "video_id": "", "wave_points": [], "duration": 1896000, "id": "2E577C29-827C-647A-76DA-C8B84554390F", "name": "28.mp3", "path": "//wsl.localhost/Ubuntu/home/juki/github/cuddly-journey/output/28.mp3"}, {"app_id": 0, "category_id": "", "category_name": "local", "check_flag": 1, "effect_id": "", "formula_id": "", "intensifies_path": "", "is_ai_clone_tone": false, "is_ugc": false, "query": "", "request_id": "", "resource_id": "", "search_id": "", "source_platform": 0, "team_id": "", "text_id": "", "tone_category_id": "", "tone_category_name": "", "tone_effect_id": "", "tone_effect_name": "", "tone_second_category_id": "", "tone_second_category_name": "", "tone_speaker": "", "tone_type": "", "type": "extract_music", "video_id": "", "wave_points": [], "duration": 3000000, "id": "AFDCAA19-7FE2-3BA7-26BC-A92C1978B37F", "name": "339.mp3", "path": "//wsl.localhost/Ubuntu/home/juki/github/cuddly-journey/output/339.mp3"}, {"app_id": 0, "category_id": "", "category_name": "local", "check_flag": 1, "effect_id": "", "formula_id": "", "intensifies_path": "", "is_ai_clone_tone": false, "is_ugc": false, "query": "", "request_id": "", "resource_id": "", "search_id": "", "source_platform": 0, "team_id": "", "text_id": "", "tone_category_id": "", "tone_category_name": "", "tone_effect_id": "", "tone_effect_name": "", "tone_second_category_id": "", "tone_second_category_name": "", "tone_speaker": "", "tone_type": "", "type": "extract_music", "video_id": "", "wave_points": [], "duration": 1488000, "id": "FCA6B9DB-A9C7-0175-C3FA-632EB9187D40", "name": "130.mp3", "path": "//wsl.localhost/Ubuntu/home/juki/github/cuddly-journey/output/130.mp3"}, {"app_id": 0, "category_id": "", "category_name": "local", "check_flag": 1, "effect_id": "", "formula_id": "", "intensifies_path": "", "is_ai_clone_tone": false, "is_ugc": false, "query": "", "request_id": "", "resource_id": "", "search_id": "", "source_platform": 0, "team_id": "", "text_id": "", "tone_category_id": "", "tone_category_name": "", "tone_effect_id": "", "tone_effect_name": "", "tone_second_category_id": "", "tone_second_category_name": "", "tone_speaker": "", "tone_type": "", "type": "extract_music", "video_id": "", "wave_points": [], "duration": 3744000, "id": "AA1F6B42-B0AA-3B7D-2F73-0B25F8933DB3", "name": "6.mp3", "path": "//wsl.localhost/Ubuntu/home/juki/github/cuddly-journey/output/6.mp3"}, {"app_id": 0, "category_id": "", "category_name": "local", "check_flag": 1, "effect_id": "", "formula_id": "", "intensifies_path": "", "is_ai_clone_tone": false, "is_ugc": false, "query": "", "request_id": "", "resource_id": "", "search_id": "", "source_platform": 0, "team_id": "", "text_id": "", "tone_category_id": "", "tone_category_name": "", "tone_effect_id": "", "tone_effect_name": "", "tone_second_category_id": "", "tone_second_category_name": "", "tone_speaker": "", "tone_type": "", "type": "extract_music", "video_id": "", "wave_points": [], "duration": 1464000, "id": "7F7B9FB1-E4CC-BF2A-7A6A-6E5A2555FA2C", "name": "244.mp3", "path": "//wsl.localhost/Ubuntu/home/juki/github/cuddly-journey/output/244.mp3"}, {"app_id": 0, "category_id": "", "category_name": "local", "check_flag": 1, "effect_id": "", "formula_id": "", "intensifies_path": "", "is_ai_clone_tone": false, "is_ugc": false, "query": "", "request_id": "", "resource_id": "", "search_id": "", "source_platform": 0, "team_id": "", "text_id": "", "tone_category_id": "", "tone_category_name": "", "tone_effect_id": "", "tone_effect_name": "", "tone_second_category_id": "", "tone_second_category_name": "", "tone_speaker": "", "tone_type": "", "type": "extract_music", "video_id": "", "wave_points": [], "duration": 1608000, "id": "575A9EB4-2CA4-F3AB-061B-D314999C3C12", "name": "14.mp3", "path": "//wsl.localhost/Ubuntu/home/juki/github/cuddly-journey/output/14.mp3"}, {"app_id": 0, "category_id": "", "category_name": "local", "check_flag": 1, "effect_id": "", "formula_id": "", "intensifies_path": "", "is_ai_clone_tone": false, "is_ugc": false, "query": "", "request_id": "", "resource_id": "", "search_id": "", "source_platform": 0, "team_id": "", "text_id": "", "tone_category_id": "", "tone_category_name": "", "tone_effect_id": "", "tone_effect_name": "", "tone_second_category_id": "", "tone_second_category_name": "", "tone_speaker": "", "tone_type": "", "type": "extract_music", "video_id": "", "wave_points": [], "duration": 1704000, "id": "4A8F732C-7755-4A63-269C-3AF9DD692A4E", "name": "136.mp3", "path": "//wsl.localhost/Ubuntu/home/juki/github/cuddly-journey/output/136.mp3"}, {"app_id": 0, "category_id": "", "category_name": "local", "check_flag": 1, "effect_id": "", "formula_id": "", "intensifies_path": "", "is_ai_clone_tone": false, "is_ugc": false, "query": "", "request_id": "", "resource_id": "", "search_id": "", "source_platform": 0, "team_id": "", "text_id": "", "tone_category_id": "", "tone_category_name": "", "tone_effect_id": "", "tone_effect_name": "", "tone_second_category_id": "", "tone_second_category_name": "", "tone_speaker": "", "tone_type": "", "type": "extract_music", "video_id": "", "wave_points": [], "duration": 4896000, "id": "254F28BC-04CE-281E-772E-8DBFF888D3F4", "name": "139.mp3", "path": "//wsl.localhost/Ubuntu/home/juki/github/cuddly-journey/output/139.mp3"}, {"app_id": 0, "category_id": "", "category_name": "local", "check_flag": 1, "effect_id": "", "formula_id": "", "intensifies_path": "", "is_ai_clone_tone": false, "is_ugc": false, "query": "", "request_id": "", "resource_id": "", "search_id": "", "source_platform": 0, "team_id": "", "text_id": "", "tone_category_id": "", "tone_category_name": "", "tone_effect_id": "", "tone_effect_name": "", "tone_second_category_id": "", "tone_second_category_name": "", "tone_speaker": "", "tone_type": "", "type": "extract_music", "video_id": "", "wave_points": [], "duration": 2520000, "id": "28A38B4C-B37F-7AB8-C76F-9EBD7D88FE29", "name": "340.mp3", "path": "//wsl.localhost/Ubuntu/home/juki/github/cuddly-journey/output/340.mp3"}, {"app_id": 0, "category_id": "", "category_name": "local", "check_flag": 1, "effect_id": "", "formula_id": "", "intensifies_path": "", "is_ai_clone_tone": false, "is_ugc": false, "query": "", "request_id": "", "resource_id": "", "search_id": "", "source_platform": 0, "team_id": "", "text_id": "", "tone_category_id": "", "tone_category_name": "", "tone_effect_id": "", "tone_effect_name": "", "tone_second_category_id": "", "tone_second_category_name": "", "tone_speaker": "", "tone_type": "", "type": "extract_music", "video_id": "", "wave_points": [], "duration": 3696000, "id": "5232A1B1-7750-C5EA-928C-9F5ADB8540CC", "name": "317.mp3", "path": "//wsl.localhost/Ubuntu/home/juki/github/cuddly-journey/output/317.mp3"}, {"app_id": 0, "category_id": "", "category_name": "local", "check_flag": 1, "effect_id": "", "formula_id": "", "intensifies_path": "", "is_ai_clone_tone": false, "is_ugc": false, "query": "", "request_id": "", "resource_id": "", "search_id": "", "source_platform": 0, "team_id": "", "text_id": "", "tone_category_id": "", "tone_category_name": "", "tone_effect_id": "", "tone_effect_name": "", "tone_second_category_id": "", "tone_second_category_name": "", "tone_speaker": "", "tone_type": "", "type": "extract_music", "video_id": "", "wave_points": [], "duration": 1512000, "id": "B9C88CC1-8063-64A6-2632-FD97561F7070", "name": "344.mp3", "path": "//wsl.localhost/Ubuntu/home/juki/github/cuddly-journey/output/344.mp3"}, {"app_id": 0, "category_id": "", "category_name": "local", "check_flag": 1, "effect_id": "", "formula_id": "", "intensifies_path": "", "is_ai_clone_tone": false, "is_ugc": false, "query": "", "request_id": "", "resource_id": "", "search_id": "", "source_platform": 0, "team_id": "", "text_id": "", "tone_category_id": "", "tone_category_name": "", "tone_effect_id": "", "tone_effect_name": "", "tone_second_category_id": "", "tone_second_category_name": "", "tone_speaker": "", "tone_type": "", "type": "extract_music", "video_id": "", "wave_points": [], "duration": 2112000, "id": "345ED447-AD2C-3EB8-DE26-740E3C403D85", "name": "188.mp3", "path": "//wsl.localhost/Ubuntu/home/juki/github/cuddly-journey/output/188.mp3"}, {"app_id": 0, "category_id": "", "category_name": "local", "check_flag": 1, "effect_id": "", "formula_id": "", "intensifies_path": "", "is_ai_clone_tone": false, "is_ugc": false, "query": "", "request_id": "", "resource_id": "", "search_id": "", "source_platform": 0, "team_id": "", "text_id": "", "tone_category_id": "", "tone_category_name": "", "tone_effect_id": "", "tone_effect_name": "", "tone_second_category_id": "", "tone_second_category_name": "", "tone_speaker": "", "tone_type": "", "type": "extract_music", "video_id": "", "wave_points": [], "duration": 2424000, "id": "4BA654F0-D230-0D88-27D9-5B9CB0027E9C", "name": "364.mp3", "path": "//wsl.localhost/Ubuntu/home/juki/github/cuddly-journey/output/364.mp3"}, {"app_id": 0, "category_id": "", "category_name": "local", "check_flag": 1, "effect_id": "", "formula_id": "", "intensifies_path": "", "is_ai_clone_tone": false, "is_ugc": false, "query": "", "request_id": "", "resource_id": "", "search_id": "", "source_platform": 0, "team_id": "", "text_id": "", "tone_category_id": "", "tone_category_name": "", "tone_effect_id": "", "tone_effect_name": "", "tone_second_category_id": "", "tone_second_category_name": "", "tone_speaker": "", "tone_type": "", "type": "extract_music", "video_id": "", "wave_points": [], "duration": 3384000, "id": "3F0CC135-EF25-FFBC-B8C6-A6B66B52FA25", "name": "213.mp3", "path": "//wsl.localhost/Ubuntu/home/juki/github/cuddly-journey/output/213.mp3"}, {"app_id": 0, "category_id": "", "category_name": "local", "check_flag": 1, "effect_id": "", "formula_id": "", "intensifies_path": "", "is_ai_clone_tone": false, "is_ugc": false, "query": "", "request_id": "", "resource_id": "", "search_id": "", "source_platform": 0, "team_id": "", "text_id": "", "tone_category_id": "", "tone_category_name": "", "tone_effect_id": "", "tone_effect_name": "", "tone_second_category_id": "", "tone_second_category_name": "", "tone_speaker": "", "tone_type": "", "type": "extract_music", "video_id": "", "wave_points": [], "duration": 3264000, "id": "756EC982-223F-E7EE-21E8-FA9E71805927", "name": "111.mp3", "path": "//wsl.localhost/Ubuntu/home/juki/github/cuddly-journey/output/111.mp3"}, {"app_id": 0, "category_id": "", "category_name": "local", "check_flag": 1, "effect_id": "", "formula_id": "", "intensifies_path": "", "is_ai_clone_tone": false, "is_ugc": false, "query": "", "request_id": "", "resource_id": "", "search_id": "", "source_platform": 0, "team_id": "", "text_id": "", "tone_category_id": "", "tone_category_name": "", "tone_effect_id": "", "tone_effect_name": "", "tone_second_category_id": "", "tone_second_category_name": "", "tone_speaker": "", "tone_type": "", "type": "extract_music", "video_id": "", "wave_points": [], "duration": 1512000, "id": "53483E3E-4A53-F979-C64E-C13C4E515777", "name": "198.mp3", "path": "//wsl.localhost/Ubuntu/home/juki/github/cuddly-journey/output/198.mp3"}, {"app_id": 0, "category_id": "", "category_name": "local", "check_flag": 1, "effect_id": "", "formula_id": "", "intensifies_path": "", "is_ai_clone_tone": false, "is_ugc": false, "query": "", "request_id": "", "resource_id": "", "search_id": "", "source_platform": 0, "team_id": "", "text_id": "", "tone_category_id": "", "tone_category_name": "", "tone_effect_id": "", "tone_effect_name": "", "tone_second_category_id": "", "tone_second_category_name": "", "tone_speaker": "", "tone_type": "", "type": "extract_music", "video_id": "", "wave_points": [], "duration": 3336000, "id": "1B49478D-C9D8-1728-2035-D6A25F9F35BC", "name": "149.mp3", "path": "//wsl.localhost/Ubuntu/home/juki/github/cuddly-journey/output/149.mp3"}, {"app_id": 0, "category_id": "", "category_name": "local", "check_flag": 1, "effect_id": "", "formula_id": "", "intensifies_path": "", "is_ai_clone_tone": false, "is_ugc": false, "query": "", "request_id": "", "resource_id": "", "search_id": "", "source_platform": 0, "team_id": "", "text_id": "", "tone_category_id": "", "tone_category_name": "", "tone_effect_id": "", "tone_effect_name": "", "tone_second_category_id": "", "tone_second_category_name": "", "tone_speaker": "", "tone_type": "", "type": "extract_music", "video_id": "", "wave_points": [], "duration": 2040000, "id": "33428C74-3335-EC68-547C-584C8E1ACA73", "name": "7.mp3", "path": "//wsl.localhost/Ubuntu/home/juki/github/cuddly-journey/output/7.mp3"}, {"app_id": 0, "category_id": "", "category_name": "local", "check_flag": 1, "effect_id": "", "formula_id": "", "intensifies_path": "", "is_ai_clone_tone": false, "is_ugc": false, "query": "", "request_id": "", "resource_id": "", "search_id": "", "source_platform": 0, "team_id": "", "text_id": "", "tone_category_id": "", "tone_category_name": "", "tone_effect_id": "", "tone_effect_name": "", "tone_second_category_id": "", "tone_second_category_name": "", "tone_speaker": "", "tone_type": "", "type": "extract_music", "video_id": "", "wave_points": [], "duration": 2352000, "id": "4D290C36-C4CE-70B8-164A-3BF1A39A4589", "name": "25.mp3", "path": "//wsl.localhost/Ubuntu/home/juki/github/cuddly-journey/output/25.mp3"}, {"app_id": 0, "category_id": "", "category_name": "local", "check_flag": 1, "effect_id": "", "formula_id": "", "intensifies_path": "", "is_ai_clone_tone": false, "is_ugc": false, "query": "", "request_id": "", "resource_id": "", "search_id": "", "source_platform": 0, "team_id": "", "text_id": "", "tone_category_id": "", "tone_category_name": "", "tone_effect_id": "", "tone_effect_name": "", "tone_second_category_id": "", "tone_second_category_name": "", "tone_speaker": "", "tone_type": "", "type": "extract_music", "video_id": "", "wave_points": [], "duration": 2640000, "id": "EF9F82A7-AD76-E1EF-0A9B-F3210B556A9D", "name": "253.mp3", "path": "//wsl.localhost/Ubuntu/home/juki/github/cuddly-journey/output/253.mp3"}, {"app_id": 0, "category_id": "", "category_name": "local", "check_flag": 1, "effect_id": "", "formula_id": "", "intensifies_path": "", "is_ai_clone_tone": false, "is_ugc": false, "query": "", "request_id": "", "resource_id": "", "search_id": "", "source_platform": 0, "team_id": "", "text_id": "", "tone_category_id": "", "tone_category_name": "", "tone_effect_id": "", "tone_effect_name": "", "tone_second_category_id": "", "tone_second_category_name": "", "tone_speaker": "", "tone_type": "", "type": "extract_music", "video_id": "", "wave_points": [], "duration": 3456000, "id": "078D1C3D-4B60-28AA-140A-19C1B690CB8A", "name": "351.mp3", "path": "//wsl.localhost/Ubuntu/home/juki/github/cuddly-journey/output/351.mp3"}, {"app_id": 0, "category_id": "", "category_name": "local", "check_flag": 1, "effect_id": "", "formula_id": "", "intensifies_path": "", "is_ai_clone_tone": false, "is_ugc": false, "query": "", "request_id": "", "resource_id": "", "search_id": "", "source_platform": 0, "team_id": "", "text_id": "", "tone_category_id": "", "tone_category_name": "", "tone_effect_id": "", "tone_effect_name": "", "tone_second_category_id": "", "tone_second_category_name": "", "tone_speaker": "", "tone_type": "", "type": "extract_music", "video_id": "", "wave_points": [], "duration": 1632000, "id": "D65DD1CE-D30A-927E-1957-CD64DB3699A6", "name": "332.mp3", "path": "//wsl.localhost/Ubuntu/home/juki/github/cuddly-journey/output/332.mp3"}, {"app_id": 0, "category_id": "", "category_name": "local", "check_flag": 1, "effect_id": "", "formula_id": "", "intensifies_path": "", "is_ai_clone_tone": false, "is_ugc": false, "query": "", "request_id": "", "resource_id": "", "search_id": "", "source_platform": 0, "team_id": "", "text_id": "", "tone_category_id": "", "tone_category_name": "", "tone_effect_id": "", "tone_effect_name": "", "tone_second_category_id": "", "tone_second_category_name": "", "tone_speaker": "", "tone_type": "", "type": "extract_music", "video_id": "", "wave_points": [], "duration": 3432000, "id": "BC8E289C-92CA-1E2F-5107-F051508A93C6", "name": "150.mp3", "path": "//wsl.localhost/Ubuntu/home/juki/github/cuddly-journey/output/150.mp3"}, {"app_id": 0, "category_id": "", "category_name": "local", "check_flag": 1, "effect_id": "", "formula_id": "", "intensifies_path": "", "is_ai_clone_tone": false, "is_ugc": false, "query": "", "request_id": "", "resource_id": "", "search_id": "", "source_platform": 0, "team_id": "", "text_id": "", "tone_category_id": "", "tone_category_name": "", "tone_effect_id": "", "tone_effect_name": "", "tone_second_category_id": "", "tone_second_category_name": "", "tone_speaker": "", "tone_type": "", "type": "extract_music", "video_id": "", "wave_points": [], "duration": 2328000, "id": "A48145C0-000C-19E9-122A-89D758E4AE9A", "name": "321.mp3", "path": "//wsl.localhost/Ubuntu/home/juki/github/cuddly-journey/output/321.mp3"}, {"app_id": 0, "category_id": "", "category_name": "local", "check_flag": 1, "effect_id": "", "formula_id": "", "intensifies_path": "", "is_ai_clone_tone": false, "is_ugc": false, "query": "", "request_id": "", "resource_id": "", "search_id": "", "source_platform": 0, "team_id": "", "text_id": "", "tone_category_id": "", "tone_category_name": "", "tone_effect_id": "", "tone_effect_name": "", "tone_second_category_id": "", "tone_second_category_name": "", "tone_speaker": "", "tone_type": "", "type": "extract_music", "video_id": "", "wave_points": [], "duration": 2472000, "id": "FD3DA0C6-A7C7-85B7-C98B-BDC203158989", "name": "343.mp3", "path": "//wsl.localhost/Ubuntu/home/juki/github/cuddly-journey/output/343.mp3"}, {"app_id": 0, "category_id": "", "category_name": "local", "check_flag": 1, "effect_id": "", "formula_id": "", "intensifies_path": "", "is_ai_clone_tone": false, "is_ugc": false, "query": "", "request_id": "", "resource_id": "", "search_id": "", "source_platform": 0, "team_id": "", "text_id": "", "tone_category_id": "", "tone_category_name": "", "tone_effect_id": "", "tone_effect_name": "", "tone_second_category_id": "", "tone_second_category_name": "", "tone_speaker": "", "tone_type": "", "type": "extract_music", "video_id": "", "wave_points": [], "duration": 2040000, "id": "708B7C2E-316E-987D-CD1C-EFC5558B42AA", "name": "236.mp3", "path": "//wsl.localhost/Ubuntu/home/juki/github/cuddly-journey/output/236.mp3"}, {"app_id": 0, "category_id": "", "category_name": "local", "check_flag": 1, "effect_id": "", "formula_id": "", "intensifies_path": "", "is_ai_clone_tone": false, "is_ugc": false, "query": "", "request_id": "", "resource_id": "", "search_id": "", "source_platform": 0, "team_id": "", "text_id": "", "tone_category_id": "", "tone_category_name": "", "tone_effect_id": "", "tone_effect_name": "", "tone_second_category_id": "", "tone_second_category_name": "", "tone_speaker": "", "tone_type": "", "type": "extract_music", "video_id": "", "wave_points": [], "duration": 3960000, "id": "936D52A3-19D0-D444-D941-13B64B135CCD", "name": "39.mp3", "path": "//wsl.localhost/Ubuntu/home/juki/github/cuddly-journey/output/39.mp3"}, {"app_id": 0, "category_id": "", "category_name": "local", "check_flag": 1, "effect_id": "", "formula_id": "", "intensifies_path": "", "is_ai_clone_tone": false, "is_ugc": false, "query": "", "request_id": "", "resource_id": "", "search_id": "", "source_platform": 0, "team_id": "", "text_id": "", "tone_category_id": "", "tone_category_name": "", "tone_effect_id": "", "tone_effect_name": "", "tone_second_category_id": "", "tone_second_category_name": "", "tone_speaker": "", "tone_type": "", "type": "extract_music", "video_id": "", "wave_points": [], "duration": 1392000, "id": "975FE9E9-1194-29C7-4755-1FBA792F1521", "name": "311.mp3", "path": "//wsl.localhost/Ubuntu/home/juki/github/cuddly-journey/output/311.mp3"}, {"app_id": 0, "category_id": "", "category_name": "local", "check_flag": 1, "effect_id": "", "formula_id": "", "intensifies_path": "", "is_ai_clone_tone": false, "is_ugc": false, "query": "", "request_id": "", "resource_id": "", "search_id": "", "source_platform": 0, "team_id": "", "text_id": "", "tone_category_id": "", "tone_category_name": "", "tone_effect_id": "", "tone_effect_name": "", "tone_second_category_id": "", "tone_second_category_name": "", "tone_speaker": "", "tone_type": "", "type": "extract_music", "video_id": "", "wave_points": [], "duration": 2208000, "id": "F57D9C7F-3032-0215-30F8-583E315E713B", "name": "247.mp3", "path": "//wsl.localhost/Ubuntu/home/juki/github/cuddly-journey/output/247.mp3"}, {"app_id": 0, "category_id": "", "category_name": "local", "check_flag": 1, "effect_id": "", "formula_id": "", "intensifies_path": "", "is_ai_clone_tone": false, "is_ugc": false, "query": "", "request_id": "", "resource_id": "", "search_id": "", "source_platform": 0, "team_id": "", "text_id": "", "tone_category_id": "", "tone_category_name": "", "tone_effect_id": "", "tone_effect_name": "", "tone_second_category_id": "", "tone_second_category_name": "", "tone_speaker": "", "tone_type": "", "type": "extract_music", "video_id": "", "wave_points": [], "duration": 2712000, "id": "4F110504-5F7B-48A6-861E-6424900A6973", "name": "1.mp3", "path": "//wsl.localhost/Ubuntu/home/juki/github/cuddly-journey/output/1.mp3"}, {"app_id": 0, "category_id": "", "category_name": "local", "check_flag": 1, "effect_id": "", "formula_id": "", "intensifies_path": "", "is_ai_clone_tone": false, "is_ugc": false, "query": "", "request_id": "", "resource_id": "", "search_id": "", "source_platform": 0, "team_id": "", "text_id": "", "tone_category_id": "", "tone_category_name": "", "tone_effect_id": "", "tone_effect_name": "", "tone_second_category_id": "", "tone_second_category_name": "", "tone_speaker": "", "tone_type": "", "type": "extract_music", "video_id": "", "wave_points": [], "duration": 1488000, "id": "FC265E25-F180-1070-5A97-E5AD977A7887", "name": "305.mp3", "path": "//wsl.localhost/Ubuntu/home/juki/github/cuddly-journey/output/305.mp3"}, {"app_id": 0, "category_id": "", "category_name": "local", "check_flag": 1, "effect_id": "", "formula_id": "", "intensifies_path": "", "is_ai_clone_tone": false, "is_ugc": false, "query": "", "request_id": "", "resource_id": "", "search_id": "", "source_platform": 0, "team_id": "", "text_id": "", "tone_category_id": "", "tone_category_name": "", "tone_effect_id": "", "tone_effect_name": "", "tone_second_category_id": "", "tone_second_category_name": "", "tone_speaker": "", "tone_type": "", "type": "extract_music", "video_id": "", "wave_points": [], "duration": 1872000, "id": "69059C01-A04C-3F78-3F6E-A9DC84450CBF", "name": "373.mp3", "path": "//wsl.localhost/Ubuntu/home/juki/github/cuddly-journey/output/373.mp3"}, {"app_id": 0, "category_id": "", "category_name": "local", "check_flag": 1, "effect_id": "", "formula_id": "", "intensifies_path": "", "is_ai_clone_tone": false, "is_ugc": false, "query": "", "request_id": "", "resource_id": "", "search_id": "", "source_platform": 0, "team_id": "", "text_id": "", "tone_category_id": "", "tone_category_name": "", "tone_effect_id": "", "tone_effect_name": "", "tone_second_category_id": "", "tone_second_category_name": "", "tone_speaker": "", "tone_type": "", "type": "extract_music", "video_id": "", "wave_points": [], "duration": 1344000, "id": "310C398F-69AF-A27E-83F3-B5F93426AA42", "name": "334.mp3", "path": "//wsl.localhost/Ubuntu/home/juki/github/cuddly-journey/output/334.mp3"}, {"app_id": 0, "category_id": "", "category_name": "local", "check_flag": 1, "effect_id": "", "formula_id": "", "intensifies_path": "", "is_ai_clone_tone": false, "is_ugc": false, "query": "", "request_id": "", "resource_id": "", "search_id": "", "source_platform": 0, "team_id": "", "text_id": "", "tone_category_id": "", "tone_category_name": "", "tone_effect_id": "", "tone_effect_name": "", "tone_second_category_id": "", "tone_second_category_name": "", "tone_speaker": "", "tone_type": "", "type": "extract_music", "video_id": "", "wave_points": [], "duration": 1992000, "id": "68860259-7E0B-6297-B64B-0D879C16A8EA", "name": "212.mp3", "path": "//wsl.localhost/Ubuntu/home/juki/github/cuddly-journey/output/212.mp3"}, {"app_id": 0, "category_id": "", "category_name": "local", "check_flag": 1, "effect_id": "", "formula_id": "", "intensifies_path": "", "is_ai_clone_tone": false, "is_ugc": false, "query": "", "request_id": "", "resource_id": "", "search_id": "", "source_platform": 0, "team_id": "", "text_id": "", "tone_category_id": "", "tone_category_name": "", "tone_effect_id": "", "tone_effect_name": "", "tone_second_category_id": "", "tone_second_category_name": "", "tone_speaker": "", "tone_type": "", "type": "extract_music", "video_id": "", "wave_points": [], "duration": 2928000, "id": "D0F20B0A-9071-B2B7-0922-25BE658B5863", "name": "222.mp3", "path": "//wsl.localhost/Ubuntu/home/juki/github/cuddly-journey/output/222.mp3"}, {"app_id": 0, "category_id": "", "category_name": "local", "check_flag": 1, "effect_id": "", "formula_id": "", "intensifies_path": "", "is_ai_clone_tone": false, "is_ugc": false, "query": "", "request_id": "", "resource_id": "", "search_id": "", "source_platform": 0, "team_id": "", "text_id": "", "tone_category_id": "", "tone_category_name": "", "tone_effect_id": "", "tone_effect_name": "", "tone_second_category_id": "", "tone_second_category_name": "", "tone_speaker": "", "tone_type": "", "type": "extract_music", "video_id": "", "wave_points": [], "duration": 1872000, "id": "6210307E-9497-23AE-E8DF-76AF7BFCCA67", "name": "293.mp3", "path": "//wsl.localhost/Ubuntu/home/juki/github/cuddly-journey/output/293.mp3"}, {"app_id": 0, "category_id": "", "category_name": "local", "check_flag": 1, "effect_id": "", "formula_id": "", "intensifies_path": "", "is_ai_clone_tone": false, "is_ugc": false, "query": "", "request_id": "", "resource_id": "", "search_id": "", "source_platform": 0, "team_id": "", "text_id": "", "tone_category_id": "", "tone_category_name": "", "tone_effect_id": "", "tone_effect_name": "", "tone_second_category_id": "", "tone_second_category_name": "", "tone_speaker": "", "tone_type": "", "type": "extract_music", "video_id": "", "wave_points": [], "duration": 3288000, "id": "56E30421-B46E-A6CA-B2B1-33DA929E29AF", "name": "96.mp3", "path": "//wsl.localhost/Ubuntu/home/juki/github/cuddly-journey/output/96.mp3"}, {"app_id": 0, "category_id": "", "category_name": "local", "check_flag": 1, "effect_id": "", "formula_id": "", "intensifies_path": "", "is_ai_clone_tone": false, "is_ugc": false, "query": "", "request_id": "", "resource_id": "", "search_id": "", "source_platform": 0, "team_id": "", "text_id": "", "tone_category_id": "", "tone_category_name": "", "tone_effect_id": "", "tone_effect_name": "", "tone_second_category_id": "", "tone_second_category_name": "", "tone_speaker": "", "tone_type": "", "type": "extract_music", "video_id": "", "wave_points": [], "duration": 1872000, "id": "63989C33-3711-6EAD-3BD8-A1EF5D7769F8", "name": "171.mp3", "path": "//wsl.localhost/Ubuntu/home/juki/github/cuddly-journey/output/171.mp3"}, {"app_id": 0, "category_id": "", "category_name": "local", "check_flag": 1, "effect_id": "", "formula_id": "", "intensifies_path": "", "is_ai_clone_tone": false, "is_ugc": false, "query": "", "request_id": "", "resource_id": "", "search_id": "", "source_platform": 0, "team_id": "", "text_id": "", "tone_category_id": "", "tone_category_name": "", "tone_effect_id": "", "tone_effect_name": "", "tone_second_category_id": "", "tone_second_category_name": "", "tone_speaker": "", "tone_type": "", "type": "extract_music", "video_id": "", "wave_points": [], "duration": 3936000, "id": "378B283C-2CEA-93AF-6C94-5062F1FF830D", "name": "210.mp3", "path": "//wsl.localhost/Ubuntu/home/juki/github/cuddly-journey/output/210.mp3"}, {"app_id": 0, "category_id": "", "category_name": "local", "check_flag": 1, "effect_id": "", "formula_id": "", "intensifies_path": "", "is_ai_clone_tone": false, "is_ugc": false, "query": "", "request_id": "", "resource_id": "", "search_id": "", "source_platform": 0, "team_id": "", "text_id": "", "tone_category_id": "", "tone_category_name": "", "tone_effect_id": "", "tone_effect_name": "", "tone_second_category_id": "", "tone_second_category_name": "", "tone_speaker": "", "tone_type": "", "type": "extract_music", "video_id": "", "wave_points": [], "duration": 3768000, "id": "767C61E1-2C9F-D28C-6010-00A88D1EFBA0", "name": "288.mp3", "path": "//wsl.localhost/Ubuntu/home/juki/github/cuddly-journey/output/288.mp3"}, {"app_id": 0, "category_id": "", "category_name": "local", "check_flag": 1, "effect_id": "", "formula_id": "", "intensifies_path": "", "is_ai_clone_tone": false, "is_ugc": false, "query": "", "request_id": "", "resource_id": "", "search_id": "", "source_platform": 0, "team_id": "", "text_id": "", "tone_category_id": "", "tone_category_name": "", "tone_effect_id": "", "tone_effect_name": "", "tone_second_category_id": "", "tone_second_category_name": "", "tone_speaker": "", "tone_type": "", "type": "extract_music", "video_id": "", "wave_points": [], "duration": 3192000, "id": "CD4D67C7-95D0-4439-4FDA-8CA6C86A7919", "name": "350.mp3", "path": "//wsl.localhost/Ubuntu/home/juki/github/cuddly-journey/output/350.mp3"}, {"app_id": 0, "category_id": "", "category_name": "local", "check_flag": 1, "effect_id": "", "formula_id": "", "intensifies_path": "", "is_ai_clone_tone": false, "is_ugc": false, "query": "", "request_id": "", "resource_id": "", "search_id": "", "source_platform": 0, "team_id": "", "text_id": "", "tone_category_id": "", "tone_category_name": "", "tone_effect_id": "", "tone_effect_name": "", "tone_second_category_id": "", "tone_second_category_name": "", "tone_speaker": "", "tone_type": "", "type": "extract_music", "video_id": "", "wave_points": [], "duration": 3240000, "id": "CAB0DF68-C636-5CA3-85D0-E78DB897D62B", "name": "91.mp3", "path": "//wsl.localhost/Ubuntu/home/juki/github/cuddly-journey/output/91.mp3"}, {"app_id": 0, "category_id": "", "category_name": "local", "check_flag": 1, "effect_id": "", "formula_id": "", "intensifies_path": "", "is_ai_clone_tone": false, "is_ugc": false, "query": "", "request_id": "", "resource_id": "", "search_id": "", "source_platform": 0, "team_id": "", "text_id": "", "tone_category_id": "", "tone_category_name": "", "tone_effect_id": "", "tone_effect_name": "", "tone_second_category_id": "", "tone_second_category_name": "", "tone_speaker": "", "tone_type": "", "type": "extract_music", "video_id": "", "wave_points": [], "duration": 2952000, "id": "1D7B85AA-03F9-969B-9B81-9D0A47F2EC8C", "name": "75.mp3", "path": "//wsl.localhost/Ubuntu/home/juki/github/cuddly-journey/output/75.mp3"}, {"app_id": 0, "category_id": "", "category_name": "local", "check_flag": 1, "effect_id": "", "formula_id": "", "intensifies_path": "", "is_ai_clone_tone": false, "is_ugc": false, "query": "", "request_id": "", "resource_id": "", "search_id": "", "source_platform": 0, "team_id": "", "text_id": "", "tone_category_id": "", "tone_category_name": "", "tone_effect_id": "", "tone_effect_name": "", "tone_second_category_id": "", "tone_second_category_name": "", "tone_speaker": "", "tone_type": "", "type": "extract_music", "video_id": "", "wave_points": [], "duration": 2280000, "id": "7BCA9B5C-DE26-9931-025E-B07A4A43646D", "name": "84.mp3", "path": "//wsl.localhost/Ubuntu/home/juki/github/cuddly-journey/output/84.mp3"}, {"app_id": 0, "category_id": "", "category_name": "local", "check_flag": 1, "effect_id": "", "formula_id": "", "intensifies_path": "", "is_ai_clone_tone": false, "is_ugc": false, "query": "", "request_id": "", "resource_id": "", "search_id": "", "source_platform": 0, "team_id": "", "text_id": "", "tone_category_id": "", "tone_category_name": "", "tone_effect_id": "", "tone_effect_name": "", "tone_second_category_id": "", "tone_second_category_name": "", "tone_speaker": "", "tone_type": "", "type": "extract_music", "video_id": "", "wave_points": [], "duration": 2424000, "id": "AD6F4F4D-9DB5-266B-883B-FBDF90E8049D", "name": "65.mp3", "path": "//wsl.localhost/Ubuntu/home/juki/github/cuddly-journey/output/65.mp3"}, {"app_id": 0, "category_id": "", "category_name": "local", "check_flag": 1, "effect_id": "", "formula_id": "", "intensifies_path": "", "is_ai_clone_tone": false, "is_ugc": false, "query": "", "request_id": "", "resource_id": "", "search_id": "", "source_platform": 0, "team_id": "", "text_id": "", "tone_category_id": "", "tone_category_name": "", "tone_effect_id": "", "tone_effect_name": "", "tone_second_category_id": "", "tone_second_category_name": "", "tone_speaker": "", "tone_type": "", "type": "extract_music", "video_id": "", "wave_points": [], "duration": 3096000, "id": "4F17BE42-C66A-FAEB-E6EA-B11F9B70975F", "name": "97.mp3", "path": "//wsl.localhost/Ubuntu/home/juki/github/cuddly-journey/output/97.mp3"}, {"app_id": 0, "category_id": "", "category_name": "local", "check_flag": 1, "effect_id": "", "formula_id": "", "intensifies_path": "", "is_ai_clone_tone": false, "is_ugc": false, "query": "", "request_id": "", "resource_id": "", "search_id": "", "source_platform": 0, "team_id": "", "text_id": "", "tone_category_id": "", "tone_category_name": "", "tone_effect_id": "", "tone_effect_name": "", "tone_second_category_id": "", "tone_second_category_name": "", "tone_speaker": "", "tone_type": "", "type": "extract_music", "video_id": "", "wave_points": [], "duration": 2376000, "id": "95DAAAAC-45A8-B598-3E84-46CA19C5A894", "name": "374.mp3", "path": "//wsl.localhost/Ubuntu/home/juki/github/cuddly-journey/output/374.mp3"}, {"app_id": 0, "category_id": "", "category_name": "local", "check_flag": 1, "effect_id": "", "formula_id": "", "intensifies_path": "", "is_ai_clone_tone": false, "is_ugc": false, "query": "", "request_id": "", "resource_id": "", "search_id": "", "source_platform": 0, "team_id": "", "text_id": "", "tone_category_id": "", "tone_category_name": "", "tone_effect_id": "", "tone_effect_name": "", "tone_second_category_id": "", "tone_second_category_name": "", "tone_speaker": "", "tone_type": "", "type": "extract_music", "video_id": "", "wave_points": [], "duration": 1512000, "id": "101E0548-7FA2-7416-D1FF-6397DCB79C9C", "name": "341.mp3", "path": "//wsl.localhost/Ubuntu/home/juki/github/cuddly-journey/output/341.mp3"}, {"app_id": 0, "category_id": "", "category_name": "local", "check_flag": 1, "effect_id": "", "formula_id": "", "intensifies_path": "", "is_ai_clone_tone": false, "is_ugc": false, "query": "", "request_id": "", "resource_id": "", "search_id": "", "source_platform": 0, "team_id": "", "text_id": "", "tone_category_id": "", "tone_category_name": "", "tone_effect_id": "", "tone_effect_name": "", "tone_second_category_id": "", "tone_second_category_name": "", "tone_speaker": "", "tone_type": "", "type": "extract_music", "video_id": "", "wave_points": [], "duration": 1248000, "id": "490C71EA-3709-654D-942E-6E445F016479", "name": "270.mp3", "path": "//wsl.localhost/Ubuntu/home/juki/github/cuddly-journey/output/270.mp3"}, {"app_id": 0, "category_id": "", "category_name": "local", "check_flag": 1, "effect_id": "", "formula_id": "", "intensifies_path": "", "is_ai_clone_tone": false, "is_ugc": false, "query": "", "request_id": "", "resource_id": "", "search_id": "", "source_platform": 0, "team_id": "", "text_id": "", "tone_category_id": "", "tone_category_name": "", "tone_effect_id": "", "tone_effect_name": "", "tone_second_category_id": "", "tone_second_category_name": "", "tone_speaker": "", "tone_type": "", "type": "extract_music", "video_id": "", "wave_points": [], "duration": 1416000, "id": "27E6D0F5-23A9-0B10-84DC-63C754D07A4F", "name": "377.mp3", "path": "//wsl.localhost/Ubuntu/home/juki/github/cuddly-journey/output/377.mp3"}, {"app_id": 0, "category_id": "", "category_name": "local", "check_flag": 1, "effect_id": "", "formula_id": "", "intensifies_path": "", "is_ai_clone_tone": false, "is_ugc": false, "query": "", "request_id": "", "resource_id": "", "search_id": "", "source_platform": 0, "team_id": "", "text_id": "", "tone_category_id": "", "tone_category_name": "", "tone_effect_id": "", "tone_effect_name": "", "tone_second_category_id": "", "tone_second_category_name": "", "tone_speaker": "", "tone_type": "", "type": "extract_music", "video_id": "", "wave_points": [], "duration": 2136000, "id": "D1A17869-C81B-B22A-8D7F-B49C9E06A641", "name": "194.mp3", "path": "//wsl.localhost/Ubuntu/home/juki/github/cuddly-journey/output/194.mp3"}, {"app_id": 0, "category_id": "", "category_name": "local", "check_flag": 1, "effect_id": "", "formula_id": "", "intensifies_path": "", "is_ai_clone_tone": false, "is_ugc": false, "query": "", "request_id": "", "resource_id": "", "search_id": "", "source_platform": 0, "team_id": "", "text_id": "", "tone_category_id": "", "tone_category_name": "", "tone_effect_id": "", "tone_effect_name": "", "tone_second_category_id": "", "tone_second_category_name": "", "tone_speaker": "", "tone_type": "", "type": "extract_music", "video_id": "", "wave_points": [], "duration": 1776000, "id": "DD296191-6BEC-F45E-630F-319772E7766D", "name": "283.mp3", "path": "//wsl.localhost/Ubuntu/home/juki/github/cuddly-journey/output/283.mp3"}, {"app_id": 0, "category_id": "", "category_name": "local", "check_flag": 1, "effect_id": "", "formula_id": "", "intensifies_path": "", "is_ai_clone_tone": false, "is_ugc": false, "query": "", "request_id": "", "resource_id": "", "search_id": "", "source_platform": 0, "team_id": "", "text_id": "", "tone_category_id": "", "tone_category_name": "", "tone_effect_id": "", "tone_effect_name": "", "tone_second_category_id": "", "tone_second_category_name": "", "tone_speaker": "", "tone_type": "", "type": "extract_music", "video_id": "", "wave_points": [], "duration": 2784000, "id": "7A2E05E0-C717-6EC1-BF98-FFC95A3FF828", "name": "353.mp3", "path": "//wsl.localhost/Ubuntu/home/juki/github/cuddly-journey/output/353.mp3"}, {"app_id": 0, "category_id": "", "category_name": "local", "check_flag": 1, "effect_id": "", "formula_id": "", "intensifies_path": "", "is_ai_clone_tone": false, "is_ugc": false, "query": "", "request_id": "", "resource_id": "", "search_id": "", "source_platform": 0, "team_id": "", "text_id": "", "tone_category_id": "", "tone_category_name": "", "tone_effect_id": "", "tone_effect_name": "", "tone_second_category_id": "", "tone_second_category_name": "", "tone_speaker": "", "tone_type": "", "type": "extract_music", "video_id": "", "wave_points": [], "duration": 1488000, "id": "47B1514A-D0D3-42E7-01C4-530A7314B347", "name": "268.mp3", "path": "//wsl.localhost/Ubuntu/home/juki/github/cuddly-journey/output/268.mp3"}, {"app_id": 0, "category_id": "", "category_name": "local", "check_flag": 1, "effect_id": "", "formula_id": "", "intensifies_path": "", "is_ai_clone_tone": false, "is_ugc": false, "query": "", "request_id": "", "resource_id": "", "search_id": "", "source_platform": 0, "team_id": "", "text_id": "", "tone_category_id": "", "tone_category_name": "", "tone_effect_id": "", "tone_effect_name": "", "tone_second_category_id": "", "tone_second_category_name": "", "tone_speaker": "", "tone_type": "", "type": "extract_music", "video_id": "", "wave_points": [], "duration": 2088000, "id": "EEF02AAD-C374-29F0-7E8F-443241EE4A9D", "name": "239.mp3", "path": "//wsl.localhost/Ubuntu/home/juki/github/cuddly-journey/output/239.mp3"}, {"app_id": 0, "category_id": "", "category_name": "local", "check_flag": 1, "effect_id": "", "formula_id": "", "intensifies_path": "", "is_ai_clone_tone": false, "is_ugc": false, "query": "", "request_id": "", "resource_id": "", "search_id": "", "source_platform": 0, "team_id": "", "text_id": "", "tone_category_id": "", "tone_category_name": "", "tone_effect_id": "", "tone_effect_name": "", "tone_second_category_id": "", "tone_second_category_name": "", "tone_speaker": "", "tone_type": "", "type": "extract_music", "video_id": "", "wave_points": [], "duration": 4200000, "id": "C4404198-1117-31E3-01F4-3971AF58275F", "name": "82.mp3", "path": "//wsl.localhost/Ubuntu/home/juki/github/cuddly-journey/output/82.mp3"}, {"app_id": 0, "category_id": "", "category_name": "local", "check_flag": 1, "effect_id": "", "formula_id": "", "intensifies_path": "", "is_ai_clone_tone": false, "is_ugc": false, "query": "", "request_id": "", "resource_id": "", "search_id": "", "source_platform": 0, "team_id": "", "text_id": "", "tone_category_id": "", "tone_category_name": "", "tone_effect_id": "", "tone_effect_name": "", "tone_second_category_id": "", "tone_second_category_name": "", "tone_speaker": "", "tone_type": "", "type": "extract_music", "video_id": "", "wave_points": [], "duration": 3696000, "id": "DCC30819-8015-21B3-395C-97D53D5854EF", "name": "362.mp3", "path": "//wsl.localhost/Ubuntu/home/juki/github/cuddly-journey/output/362.mp3"}, {"app_id": 0, "category_id": "", "category_name": "local", "check_flag": 1, "effect_id": "", "formula_id": "", "intensifies_path": "", "is_ai_clone_tone": false, "is_ugc": false, "query": "", "request_id": "", "resource_id": "", "search_id": "", "source_platform": 0, "team_id": "", "text_id": "", "tone_category_id": "", "tone_category_name": "", "tone_effect_id": "", "tone_effect_name": "", "tone_second_category_id": "", "tone_second_category_name": "", "tone_speaker": "", "tone_type": "", "type": "extract_music", "video_id": "", "wave_points": [], "duration": 3312000, "id": "2CFCAA94-0443-947D-B332-EB328B4FA542", "name": "215.mp3", "path": "//wsl.localhost/Ubuntu/home/juki/github/cuddly-journey/output/215.mp3"}, {"app_id": 0, "category_id": "", "category_name": "local", "check_flag": 1, "effect_id": "", "formula_id": "", "intensifies_path": "", "is_ai_clone_tone": false, "is_ugc": false, "query": "", "request_id": "", "resource_id": "", "search_id": "", "source_platform": 0, "team_id": "", "text_id": "", "tone_category_id": "", "tone_category_name": "", "tone_effect_id": "", "tone_effect_name": "", "tone_second_category_id": "", "tone_second_category_name": "", "tone_speaker": "", "tone_type": "", "type": "extract_music", "video_id": "", "wave_points": [], "duration": 2016000, "id": "BF9A8A42-E3C3-0896-4BD5-3829376CF05D", "name": "208.mp3", "path": "//wsl.localhost/Ubuntu/home/juki/github/cuddly-journey/output/208.mp3"}, {"app_id": 0, "category_id": "", "category_name": "local", "check_flag": 1, "effect_id": "", "formula_id": "", "intensifies_path": "", "is_ai_clone_tone": false, "is_ugc": false, "query": "", "request_id": "", "resource_id": "", "search_id": "", "source_platform": 0, "team_id": "", "text_id": "", "tone_category_id": "", "tone_category_name": "", "tone_effect_id": "", "tone_effect_name": "", "tone_second_category_id": "", "tone_second_category_name": "", "tone_speaker": "", "tone_type": "", "type": "extract_music", "video_id": "", "wave_points": [], "duration": 3000000, "id": "D203E21D-E839-8708-E3C8-C42252BAA9CB", "name": "169.mp3", "path": "//wsl.localhost/Ubuntu/home/juki/github/cuddly-journey/output/169.mp3"}, {"app_id": 0, "category_id": "", "category_name": "local", "check_flag": 1, "effect_id": "", "formula_id": "", "intensifies_path": "", "is_ai_clone_tone": false, "is_ugc": false, "query": "", "request_id": "", "resource_id": "", "search_id": "", "source_platform": 0, "team_id": "", "text_id": "", "tone_category_id": "", "tone_category_name": "", "tone_effect_id": "", "tone_effect_name": "", "tone_second_category_id": "", "tone_second_category_name": "", "tone_speaker": "", "tone_type": "", "type": "extract_music", "video_id": "", "wave_points": [], "duration": 3096000, "id": "824A0B5B-F176-45AA-2841-7FAA2461CEBB", "name": "264.mp3", "path": "//wsl.localhost/Ubuntu/home/juki/github/cuddly-journey/output/264.mp3"}, {"app_id": 0, "category_id": "", "category_name": "local", "check_flag": 1, "effect_id": "", "formula_id": "", "intensifies_path": "", "is_ai_clone_tone": false, "is_ugc": false, "query": "", "request_id": "", "resource_id": "", "search_id": "", "source_platform": 0, "team_id": "", "text_id": "", "tone_category_id": "", "tone_category_name": "", "tone_effect_id": "", "tone_effect_name": "", "tone_second_category_id": "", "tone_second_category_name": "", "tone_speaker": "", "tone_type": "", "type": "extract_music", "video_id": "", "wave_points": [], "duration": 2160000, "id": "576A2869-F174-948A-096D-721288D95217", "name": "320.mp3", "path": "//wsl.localhost/Ubuntu/home/juki/github/cuddly-journey/output/320.mp3"}, {"app_id": 0, "category_id": "", "category_name": "local", "check_flag": 1, "effect_id": "", "formula_id": "", "intensifies_path": "", "is_ai_clone_tone": false, "is_ugc": false, "query": "", "request_id": "", "resource_id": "", "search_id": "", "source_platform": 0, "team_id": "", "text_id": "", "tone_category_id": "", "tone_category_name": "", "tone_effect_id": "", "tone_effect_name": "", "tone_second_category_id": "", "tone_second_category_name": "", "tone_speaker": "", "tone_type": "", "type": "extract_music", "video_id": "", "wave_points": [], "duration": 1464000, "id": "266D7F7C-E80B-790E-3003-73BF1061529A", "name": "196.mp3", "path": "//wsl.localhost/Ubuntu/home/juki/github/cuddly-journey/output/196.mp3"}, {"app_id": 0, "category_id": "", "category_name": "local", "check_flag": 1, "effect_id": "", "formula_id": "", "intensifies_path": "", "is_ai_clone_tone": false, "is_ugc": false, "query": "", "request_id": "", "resource_id": "", "search_id": "", "source_platform": 0, "team_id": "", "text_id": "", "tone_category_id": "", "tone_category_name": "", "tone_effect_id": "", "tone_effect_name": "", "tone_second_category_id": "", "tone_second_category_name": "", "tone_speaker": "", "tone_type": "", "type": "extract_music", "video_id": "", "wave_points": [], "duration": 1344000, "id": "43040689-02DD-A3CF-854F-93FC55F4C6FC", "name": "26.mp3", "path": "//wsl.localhost/Ubuntu/home/juki/github/cuddly-journey/output/26.mp3"}, {"app_id": 0, "category_id": "", "category_name": "local", "check_flag": 1, "effect_id": "", "formula_id": "", "intensifies_path": "", "is_ai_clone_tone": false, "is_ugc": false, "query": "", "request_id": "", "resource_id": "", "search_id": "", "source_platform": 0, "team_id": "", "text_id": "", "tone_category_id": "", "tone_category_name": "", "tone_effect_id": "", "tone_effect_name": "", "tone_second_category_id": "", "tone_second_category_name": "", "tone_speaker": "", "tone_type": "", "type": "extract_music", "video_id": "", "wave_points": [], "duration": 2976000, "id": "0AC9A747-5EF4-CFA8-10C2-FC09AA28DE9D", "name": "205.mp3", "path": "//wsl.localhost/Ubuntu/home/juki/github/cuddly-journey/output/205.mp3"}, {"app_id": 0, "category_id": "", "category_name": "local", "check_flag": 1, "effect_id": "", "formula_id": "", "intensifies_path": "", "is_ai_clone_tone": false, "is_ugc": false, "query": "", "request_id": "", "resource_id": "", "search_id": "", "source_platform": 0, "team_id": "", "text_id": "", "tone_category_id": "", "tone_category_name": "", "tone_effect_id": "", "tone_effect_name": "", "tone_second_category_id": "", "tone_second_category_name": "", "tone_speaker": "", "tone_type": "", "type": "extract_music", "video_id": "", "wave_points": [], "duration": 3528000, "id": "4E5A6D8C-0794-0068-894F-B87564395D6C", "name": "365.mp3", "path": "//wsl.localhost/Ubuntu/home/juki/github/cuddly-journey/output/365.mp3"}, {"app_id": 0, "category_id": "", "category_name": "local", "check_flag": 1, "effect_id": "", "formula_id": "", "intensifies_path": "", "is_ai_clone_tone": false, "is_ugc": false, "query": "", "request_id": "", "resource_id": "", "search_id": "", "source_platform": 0, "team_id": "", "text_id": "", "tone_category_id": "", "tone_category_name": "", "tone_effect_id": "", "tone_effect_name": "", "tone_second_category_id": "", "tone_second_category_name": "", "tone_speaker": "", "tone_type": "", "type": "extract_music", "video_id": "", "wave_points": [], "duration": 3648000, "id": "3A300143-519B-6B34-CAFE-9571A7B96FDA", "name": "0.mp3", "path": "//wsl.localhost/Ubuntu/home/juki/github/cuddly-journey/output/0.mp3"}, {"app_id": 0, "category_id": "", "category_name": "local", "check_flag": 1, "effect_id": "", "formula_id": "", "intensifies_path": "", "is_ai_clone_tone": false, "is_ugc": false, "query": "", "request_id": "", "resource_id": "", "search_id": "", "source_platform": 0, "team_id": "", "text_id": "", "tone_category_id": "", "tone_category_name": "", "tone_effect_id": "", "tone_effect_name": "", "tone_second_category_id": "", "tone_second_category_name": "", "tone_speaker": "", "tone_type": "", "type": "extract_music", "video_id": "", "wave_points": [], "duration": 1488000, "id": "4047D689-654C-ED79-C5BA-0CF914980F9B", "name": "131.mp3", "path": "//wsl.localhost/Ubuntu/home/juki/github/cuddly-journey/output/131.mp3"}, {"app_id": 0, "category_id": "", "category_name": "local", "check_flag": 1, "effect_id": "", "formula_id": "", "intensifies_path": "", "is_ai_clone_tone": false, "is_ugc": false, "query": "", "request_id": "", "resource_id": "", "search_id": "", "source_platform": 0, "team_id": "", "text_id": "", "tone_category_id": "", "tone_category_name": "", "tone_effect_id": "", "tone_effect_name": "", "tone_second_category_id": "", "tone_second_category_name": "", "tone_speaker": "", "tone_type": "", "type": "extract_music", "video_id": "", "wave_points": [], "duration": 4344000, "id": "42950599-A5AD-B219-DF03-93AF5E9F4D06", "name": "19.mp3", "path": "//wsl.localhost/Ubuntu/home/juki/github/cuddly-journey/output/19.mp3"}, {"app_id": 0, "category_id": "", "category_name": "local", "check_flag": 1, "effect_id": "", "formula_id": "", "intensifies_path": "", "is_ai_clone_tone": false, "is_ugc": false, "query": "", "request_id": "", "resource_id": "", "search_id": "", "source_platform": 0, "team_id": "", "text_id": "", "tone_category_id": "", "tone_category_name": "", "tone_effect_id": "", "tone_effect_name": "", "tone_second_category_id": "", "tone_second_category_name": "", "tone_speaker": "", "tone_type": "", "type": "extract_music", "video_id": "", "wave_points": [], "duration": 2760000, "id": "5996AF99-46E4-8CDD-95DF-C98973186189", "name": "32.mp3", "path": "//wsl.localhost/Ubuntu/home/juki/github/cuddly-journey/output/32.mp3"}, {"app_id": 0, "category_id": "", "category_name": "local", "check_flag": 1, "effect_id": "", "formula_id": "", "intensifies_path": "", "is_ai_clone_tone": false, "is_ugc": false, "query": "", "request_id": "", "resource_id": "", "search_id": "", "source_platform": 0, "team_id": "", "text_id": "", "tone_category_id": "", "tone_category_name": "", "tone_effect_id": "", "tone_effect_name": "", "tone_second_category_id": "", "tone_second_category_name": "", "tone_speaker": "", "tone_type": "", "type": "extract_music", "video_id": "", "wave_points": [], "duration": 1272000, "id": "D665FC50-1C10-6573-BD6A-EB7E29B73F08", "name": "336.mp3", "path": "//wsl.localhost/Ubuntu/home/juki/github/cuddly-journey/output/336.mp3"}, {"app_id": 0, "category_id": "", "category_name": "local", "check_flag": 1, "effect_id": "", "formula_id": "", "intensifies_path": "", "is_ai_clone_tone": false, "is_ugc": false, "query": "", "request_id": "", "resource_id": "", "search_id": "", "source_platform": 0, "team_id": "", "text_id": "", "tone_category_id": "", "tone_category_name": "", "tone_effect_id": "", "tone_effect_name": "", "tone_second_category_id": "", "tone_second_category_name": "", "tone_speaker": "", "tone_type": "", "type": "extract_music", "video_id": "", "wave_points": [], "duration": 3024000, "id": "68AC888D-DF5D-FA0E-2848-945C22B6E2D7", "name": "333.mp3", "path": "//wsl.localhost/Ubuntu/home/juki/github/cuddly-journey/output/333.mp3"}, {"app_id": 0, "category_id": "", "category_name": "local", "check_flag": 1, "effect_id": "", "formula_id": "", "intensifies_path": "", "is_ai_clone_tone": false, "is_ugc": false, "query": "", "request_id": "", "resource_id": "", "search_id": "", "source_platform": 0, "team_id": "", "text_id": "", "tone_category_id": "", "tone_category_name": "", "tone_effect_id": "", "tone_effect_name": "", "tone_second_category_id": "", "tone_second_category_name": "", "tone_speaker": "", "tone_type": "", "type": "extract_music", "video_id": "", "wave_points": [], "duration": 2136000, "id": "53C5E5C7-AC4C-A6E3-7F49-BBF3EB6F8F59", "name": "43.mp3", "path": "//wsl.localhost/Ubuntu/home/juki/github/cuddly-journey/output/43.mp3"}, {"app_id": 0, "category_id": "", "category_name": "local", "check_flag": 1, "effect_id": "", "formula_id": "", "intensifies_path": "", "is_ai_clone_tone": false, "is_ugc": false, "query": "", "request_id": "", "resource_id": "", "search_id": "", "source_platform": 0, "team_id": "", "text_id": "", "tone_category_id": "", "tone_category_name": "", "tone_effect_id": "", "tone_effect_name": "", "tone_second_category_id": "", "tone_second_category_name": "", "tone_speaker": "", "tone_type": "", "type": "extract_music", "video_id": "", "wave_points": [], "duration": 3360000, "id": "73CF0806-8E5C-015A-FF49-E674B4AB0879", "name": "229.mp3", "path": "//wsl.localhost/Ubuntu/home/juki/github/cuddly-journey/output/229.mp3"}, {"app_id": 0, "category_id": "", "category_name": "local", "check_flag": 1, "effect_id": "", "formula_id": "", "intensifies_path": "", "is_ai_clone_tone": false, "is_ugc": false, "query": "", "request_id": "", "resource_id": "", "search_id": "", "source_platform": 0, "team_id": "", "text_id": "", "tone_category_id": "", "tone_category_name": "", "tone_effect_id": "", "tone_effect_name": "", "tone_second_category_id": "", "tone_second_category_name": "", "tone_speaker": "", "tone_type": "", "type": "extract_music", "video_id": "", "wave_points": [], "duration": 1152000, "id": "63DDE9AA-200B-4DBD-1C7D-51AFE2996DCF", "name": "35.mp3", "path": "//wsl.localhost/Ubuntu/home/juki/github/cuddly-journey/output/35.mp3"}, {"app_id": 0, "category_id": "", "category_name": "local", "check_flag": 1, "effect_id": "", "formula_id": "", "intensifies_path": "", "is_ai_clone_tone": false, "is_ugc": false, "query": "", "request_id": "", "resource_id": "", "search_id": "", "source_platform": 0, "team_id": "", "text_id": "", "tone_category_id": "", "tone_category_name": "", "tone_effect_id": "", "tone_effect_name": "", "tone_second_category_id": "", "tone_second_category_name": "", "tone_speaker": "", "tone_type": "", "type": "extract_music", "video_id": "", "wave_points": [], "duration": 4248000, "id": "D8E967DB-25D0-1F8D-0125-CE19EF4163E8", "name": "42.mp3", "path": "//wsl.localhost/Ubuntu/home/juki/github/cuddly-journey/output/42.mp3"}, {"app_id": 0, "category_id": "", "category_name": "local", "check_flag": 1, "effect_id": "", "formula_id": "", "intensifies_path": "", "is_ai_clone_tone": false, "is_ugc": false, "query": "", "request_id": "", "resource_id": "", "search_id": "", "source_platform": 0, "team_id": "", "text_id": "", "tone_category_id": "", "tone_category_name": "", "tone_effect_id": "", "tone_effect_name": "", "tone_second_category_id": "", "tone_second_category_name": "", "tone_speaker": "", "tone_type": "", "type": "extract_music", "video_id": "", "wave_points": [], "duration": 2712000, "id": "22D71124-D209-7E0F-F8F3-B3B2598FEDC9", "name": "121.mp3", "path": "//wsl.localhost/Ubuntu/home/juki/github/cuddly-journey/output/121.mp3"}, {"app_id": 0, "category_id": "", "category_name": "local", "check_flag": 1, "effect_id": "", "formula_id": "", "intensifies_path": "", "is_ai_clone_tone": false, "is_ugc": false, "query": "", "request_id": "", "resource_id": "", "search_id": "", "source_platform": 0, "team_id": "", "text_id": "", "tone_category_id": "", "tone_category_name": "", "tone_effect_id": "", "tone_effect_name": "", "tone_second_category_id": "", "tone_second_category_name": "", "tone_speaker": "", "tone_type": "", "type": "extract_music", "video_id": "", "wave_points": [], "duration": 2568000, "id": "2CC4FED1-ADAC-F1FF-91D5-98003DAB5935", "name": "185.mp3", "path": "//wsl.localhost/Ubuntu/home/juki/github/cuddly-journey/output/185.mp3"}, {"app_id": 0, "category_id": "", "category_name": "local", "check_flag": 1, "effect_id": "", "formula_id": "", "intensifies_path": "", "is_ai_clone_tone": false, "is_ugc": false, "query": "", "request_id": "", "resource_id": "", "search_id": "", "source_platform": 0, "team_id": "", "text_id": "", "tone_category_id": "", "tone_category_name": "", "tone_effect_id": "", "tone_effect_name": "", "tone_second_category_id": "", "tone_second_category_name": "", "tone_speaker": "", "tone_type": "", "type": "extract_music", "video_id": "", "wave_points": [], "duration": 3312000, "id": "A0F76028-82C6-18C8-AAE1-1573533459C2", "name": "193.mp3", "path": "//wsl.localhost/Ubuntu/home/juki/github/cuddly-journey/output/193.mp3"}, {"app_id": 0, "category_id": "", "category_name": "local", "check_flag": 1, "effect_id": "", "formula_id": "", "intensifies_path": "", "is_ai_clone_tone": false, "is_ugc": false, "query": "", "request_id": "", "resource_id": "", "search_id": "", "source_platform": 0, "team_id": "", "text_id": "", "tone_category_id": "", "tone_category_name": "", "tone_effect_id": "", "tone_effect_name": "", "tone_second_category_id": "", "tone_second_category_name": "", "tone_speaker": "", "tone_type": "", "type": "extract_music", "video_id": "", "wave_points": [], "duration": 1536000, "id": "D8C5601D-40E3-44C3-2B56-90BCE986E4CC", "name": "160.mp3", "path": "//wsl.localhost/Ubuntu/home/juki/github/cuddly-journey/output/160.mp3"}, {"app_id": 0, "category_id": "", "category_name": "local", "check_flag": 1, "effect_id": "", "formula_id": "", "intensifies_path": "", "is_ai_clone_tone": false, "is_ugc": false, "query": "", "request_id": "", "resource_id": "", "search_id": "", "source_platform": 0, "team_id": "", "text_id": "", "tone_category_id": "", "tone_category_name": "", "tone_effect_id": "", "tone_effect_name": "", "tone_second_category_id": "", "tone_second_category_name": "", "tone_speaker": "", "tone_type": "", "type": "extract_music", "video_id": "", "wave_points": [], "duration": 2304000, "id": "A9DC07F5-AFF4-CBC3-0EDF-E3395634F7B8", "name": "17.mp3", "path": "//wsl.localhost/Ubuntu/home/juki/github/cuddly-journey/output/17.mp3"}, {"app_id": 0, "category_id": "", "category_name": "local", "check_flag": 1, "effect_id": "", "formula_id": "", "intensifies_path": "", "is_ai_clone_tone": false, "is_ugc": false, "query": "", "request_id": "", "resource_id": "", "search_id": "", "source_platform": 0, "team_id": "", "text_id": "", "tone_category_id": "", "tone_category_name": "", "tone_effect_id": "", "tone_effect_name": "", "tone_second_category_id": "", "tone_second_category_name": "", "tone_speaker": "", "tone_type": "", "type": "extract_music", "video_id": "", "wave_points": [], "duration": 2712000, "id": "408CD64E-2537-F49C-0C16-6C94AA638A3A", "name": "328.mp3", "path": "//wsl.localhost/Ubuntu/home/juki/github/cuddly-journey/output/328.mp3"}, {"app_id": 0, "category_id": "", "category_name": "local", "check_flag": 1, "effect_id": "", "formula_id": "", "intensifies_path": "", "is_ai_clone_tone": false, "is_ugc": false, "query": "", "request_id": "", "resource_id": "", "search_id": "", "source_platform": 0, "team_id": "", "text_id": "", "tone_category_id": "", "tone_category_name": "", "tone_effect_id": "", "tone_effect_name": "", "tone_second_category_id": "", "tone_second_category_name": "", "tone_speaker": "", "tone_type": "", "type": "extract_music", "video_id": "", "wave_points": [], "duration": 1632000, "id": "6F61F076-6244-8B76-CADA-DFF17ED94395", "name": "191.mp3", "path": "//wsl.localhost/Ubuntu/home/juki/github/cuddly-journey/output/191.mp3"}, {"app_id": 0, "category_id": "", "category_name": "local", "check_flag": 1, "effect_id": "", "formula_id": "", "intensifies_path": "", "is_ai_clone_tone": false, "is_ugc": false, "query": "", "request_id": "", "resource_id": "", "search_id": "", "source_platform": 0, "team_id": "", "text_id": "", "tone_category_id": "", "tone_category_name": "", "tone_effect_id": "", "tone_effect_name": "", "tone_second_category_id": "", "tone_second_category_name": "", "tone_speaker": "", "tone_type": "", "type": "extract_music", "video_id": "", "wave_points": [], "duration": 1752000, "id": "49D3ED8F-28D5-7694-EA30-C55DA0ACF068", "name": "49.mp3", "path": "//wsl.localhost/Ubuntu/home/juki/github/cuddly-journey/output/49.mp3"}, {"app_id": 0, "category_id": "", "category_name": "local", "check_flag": 1, "effect_id": "", "formula_id": "", "intensifies_path": "", "is_ai_clone_tone": false, "is_ugc": false, "query": "", "request_id": "", "resource_id": "", "search_id": "", "source_platform": 0, "team_id": "", "text_id": "", "tone_category_id": "", "tone_category_name": "", "tone_effect_id": "", "tone_effect_name": "", "tone_second_category_id": "", "tone_second_category_name": "", "tone_speaker": "", "tone_type": "", "type": "extract_music", "video_id": "", "wave_points": [], "duration": 2256000, "id": "DFBB52DD-EA9A-DBA9-C266-8EF51903C5A7", "name": "284.mp3", "path": "//wsl.localhost/Ubuntu/home/juki/github/cuddly-journey/output/284.mp3"}, {"app_id": 0, "category_id": "", "category_name": "local", "check_flag": 1, "effect_id": "", "formula_id": "", "intensifies_path": "", "is_ai_clone_tone": false, "is_ugc": false, "query": "", "request_id": "", "resource_id": "", "search_id": "", "source_platform": 0, "team_id": "", "text_id": "", "tone_category_id": "", "tone_category_name": "", "tone_effect_id": "", "tone_effect_name": "", "tone_second_category_id": "", "tone_second_category_name": "", "tone_speaker": "", "tone_type": "", "type": "extract_music", "video_id": "", "wave_points": [], "duration": 2832000, "id": "0317B8C8-BB3B-CB74-E4FE-592F15759677", "name": "327.mp3", "path": "//wsl.localhost/Ubuntu/home/juki/github/cuddly-journey/output/327.mp3"}, {"app_id": 0, "category_id": "", "category_name": "local", "check_flag": 1, "effect_id": "", "formula_id": "", "intensifies_path": "", "is_ai_clone_tone": false, "is_ugc": false, "query": "", "request_id": "", "resource_id": "", "search_id": "", "source_platform": 0, "team_id": "", "text_id": "", "tone_category_id": "", "tone_category_name": "", "tone_effect_id": "", "tone_effect_name": "", "tone_second_category_id": "", "tone_second_category_name": "", "tone_speaker": "", "tone_type": "", "type": "extract_music", "video_id": "", "wave_points": [], "duration": 4320000, "id": "FF030577-46B3-E57A-B674-6D4D4996EE5D", "name": "230.mp3", "path": "//wsl.localhost/Ubuntu/home/juki/github/cuddly-journey/output/230.mp3"}, {"app_id": 0, "category_id": "", "category_name": "local", "check_flag": 1, "effect_id": "", "formula_id": "", "intensifies_path": "", "is_ai_clone_tone": false, "is_ugc": false, "query": "", "request_id": "", "resource_id": "", "search_id": "", "source_platform": 0, "team_id": "", "text_id": "", "tone_category_id": "", "tone_category_name": "", "tone_effect_id": "", "tone_effect_name": "", "tone_second_category_id": "", "tone_second_category_name": "", "tone_speaker": "", "tone_type": "", "type": "extract_music", "video_id": "", "wave_points": [], "duration": 3456000, "id": "08F16A69-EC13-415A-7548-79D8A028952A", "name": "46.mp3", "path": "//wsl.localhost/Ubuntu/home/juki/github/cuddly-journey/output/46.mp3"}, {"app_id": 0, "category_id": "", "category_name": "local", "check_flag": 1, "effect_id": "", "formula_id": "", "intensifies_path": "", "is_ai_clone_tone": false, "is_ugc": false, "query": "", "request_id": "", "resource_id": "", "search_id": "", "source_platform": 0, "team_id": "", "text_id": "", "tone_category_id": "", "tone_category_name": "", "tone_effect_id": "", "tone_effect_name": "", "tone_second_category_id": "", "tone_second_category_name": "", "tone_speaker": "", "tone_type": "", "type": "extract_music", "video_id": "", "wave_points": [], "duration": 1728000, "id": "909BC27B-72F2-DB72-01BC-AE57FB37E1A9", "name": "380.mp3", "path": "//wsl.localhost/Ubuntu/home/juki/github/cuddly-journey/output/380.mp3"}, {"app_id": 0, "category_id": "", "category_name": "local", "check_flag": 1, "effect_id": "", "formula_id": "", "intensifies_path": "", "is_ai_clone_tone": false, "is_ugc": false, "query": "", "request_id": "", "resource_id": "", "search_id": "", "source_platform": 0, "team_id": "", "text_id": "", "tone_category_id": "", "tone_category_name": "", "tone_effect_id": "", "tone_effect_name": "", "tone_second_category_id": "", "tone_second_category_name": "", "tone_speaker": "", "tone_type": "", "type": "extract_music", "video_id": "", "wave_points": [], "duration": 2448000, "id": "D62F1A3D-A0A7-A36C-DC52-CEDC8F126FBD", "name": "345.mp3", "path": "//wsl.localhost/Ubuntu/home/juki/github/cuddly-journey/output/345.mp3"}, {"app_id": 0, "category_id": "", "category_name": "local", "check_flag": 1, "effect_id": "", "formula_id": "", "intensifies_path": "", "is_ai_clone_tone": false, "is_ugc": false, "query": "", "request_id": "", "resource_id": "", "search_id": "", "source_platform": 0, "team_id": "", "text_id": "", "tone_category_id": "", "tone_category_name": "", "tone_effect_id": "", "tone_effect_name": "", "tone_second_category_id": "", "tone_second_category_name": "", "tone_speaker": "", "tone_type": "", "type": "extract_music", "video_id": "", "wave_points": [], "duration": 1920000, "id": "1D5F8658-F3A9-68EB-9202-CEF05D10D2F2", "name": "219.mp3", "path": "//wsl.localhost/Ubuntu/home/juki/github/cuddly-journey/output/219.mp3"}, {"app_id": 0, "category_id": "", "category_name": "local", "check_flag": 1, "effect_id": "", "formula_id": "", "intensifies_path": "", "is_ai_clone_tone": false, "is_ugc": false, "query": "", "request_id": "", "resource_id": "", "search_id": "", "source_platform": 0, "team_id": "", "text_id": "", "tone_category_id": "", "tone_category_name": "", "tone_effect_id": "", "tone_effect_name": "", "tone_second_category_id": "", "tone_second_category_name": "", "tone_speaker": "", "tone_type": "", "type": "extract_music", "video_id": "", "wave_points": [], "duration": 3384000, "id": "F1626567-2FAC-6EF5-FB8D-C85A67D27CDA", "name": "54.mp3", "path": "//wsl.localhost/Ubuntu/home/juki/github/cuddly-journey/output/54.mp3"}, {"app_id": 0, "category_id": "", "category_name": "local", "check_flag": 1, "effect_id": "", "formula_id": "", "intensifies_path": "", "is_ai_clone_tone": false, "is_ugc": false, "query": "", "request_id": "", "resource_id": "", "search_id": "", "source_platform": 0, "team_id": "", "text_id": "", "tone_category_id": "", "tone_category_name": "", "tone_effect_id": "", "tone_effect_name": "", "tone_second_category_id": "", "tone_second_category_name": "", "tone_speaker": "", "tone_type": "", "type": "extract_music", "video_id": "", "wave_points": [], "duration": 2664000, "id": "9861F48F-7C5E-325A-1707-9199FA6E55A0", "name": "245.mp3", "path": "//wsl.localhost/Ubuntu/home/juki/github/cuddly-journey/output/245.mp3"}, {"app_id": 0, "category_id": "", "category_name": "local", "check_flag": 1, "effect_id": "", "formula_id": "", "intensifies_path": "", "is_ai_clone_tone": false, "is_ugc": false, "query": "", "request_id": "", "resource_id": "", "search_id": "", "source_platform": 0, "team_id": "", "text_id": "", "tone_category_id": "", "tone_category_name": "", "tone_effect_id": "", "tone_effect_name": "", "tone_second_category_id": "", "tone_second_category_name": "", "tone_speaker": "", "tone_type": "", "type": "extract_music", "video_id": "", "wave_points": [], "duration": 5136000, "id": "C18504A5-EEAE-D6F6-1970-4A88DFF786FE", "name": "177.mp3", "path": "//wsl.localhost/Ubuntu/home/juki/github/cuddly-journey/output/177.mp3"}, {"app_id": 0, "category_id": "", "category_name": "local", "check_flag": 1, "effect_id": "", "formula_id": "", "intensifies_path": "", "is_ai_clone_tone": false, "is_ugc": false, "query": "", "request_id": "", "resource_id": "", "search_id": "", "source_platform": 0, "team_id": "", "text_id": "", "tone_category_id": "", "tone_category_name": "", "tone_effect_id": "", "tone_effect_name": "", "tone_second_category_id": "", "tone_second_category_name": "", "tone_speaker": "", "tone_type": "", "type": "extract_music", "video_id": "", "wave_points": [], "duration": 3648000, "id": "5F2F59E0-B666-88DA-E875-1028EAF737A9", "name": "226.mp3", "path": "//wsl.localhost/Ubuntu/home/juki/github/cuddly-journey/output/226.mp3"}, {"app_id": 0, "category_id": "", "category_name": "local", "check_flag": 1, "effect_id": "", "formula_id": "", "intensifies_path": "", "is_ai_clone_tone": false, "is_ugc": false, "query": "", "request_id": "", "resource_id": "", "search_id": "", "source_platform": 0, "team_id": "", "text_id": "", "tone_category_id": "", "tone_category_name": "", "tone_effect_id": "", "tone_effect_name": "", "tone_second_category_id": "", "tone_second_category_name": "", "tone_speaker": "", "tone_type": "", "type": "extract_music", "video_id": "", "wave_points": [], "duration": 2712000, "id": "00F3742C-4D15-A505-953C-629A1B3E1450", "name": "134.mp3", "path": "//wsl.localhost/Ubuntu/home/juki/github/cuddly-journey/output/134.mp3"}, {"app_id": 0, "category_id": "", "category_name": "local", "check_flag": 1, "effect_id": "", "formula_id": "", "intensifies_path": "", "is_ai_clone_tone": false, "is_ugc": false, "query": "", "request_id": "", "resource_id": "", "search_id": "", "source_platform": 0, "team_id": "", "text_id": "", "tone_category_id": "", "tone_category_name": "", "tone_effect_id": "", "tone_effect_name": "", "tone_second_category_id": "", "tone_second_category_name": "", "tone_speaker": "", "tone_type": "", "type": "extract_music", "video_id": "", "wave_points": [], "duration": 1800000, "id": "EAB5669A-2C13-1A88-1266-142EE74775BD", "name": "64.mp3", "path": "//wsl.localhost/Ubuntu/home/juki/github/cuddly-journey/output/64.mp3"}, {"app_id": 0, "category_id": "", "category_name": "local", "check_flag": 1, "effect_id": "", "formula_id": "", "intensifies_path": "", "is_ai_clone_tone": false, "is_ugc": false, "query": "", "request_id": "", "resource_id": "", "search_id": "", "source_platform": 0, "team_id": "", "text_id": "", "tone_category_id": "", "tone_category_name": "", "tone_effect_id": "", "tone_effect_name": "", "tone_second_category_id": "", "tone_second_category_name": "", "tone_speaker": "", "tone_type": "", "type": "extract_music", "video_id": "", "wave_points": [], "duration": 2112000, "id": "BC347BB8-844F-BC63-0665-DCF412420503", "name": "220.mp3", "path": "//wsl.localhost/Ubuntu/home/juki/github/cuddly-journey/output/220.mp3"}, {"app_id": 0, "category_id": "", "category_name": "local", "check_flag": 1, "effect_id": "", "formula_id": "", "intensifies_path": "", "is_ai_clone_tone": false, "is_ugc": false, "query": "", "request_id": "", "resource_id": "", "search_id": "", "source_platform": 0, "team_id": "", "text_id": "", "tone_category_id": "", "tone_category_name": "", "tone_effect_id": "", "tone_effect_name": "", "tone_second_category_id": "", "tone_second_category_name": "", "tone_speaker": "", "tone_type": "", "type": "extract_music", "video_id": "", "wave_points": [], "duration": 2952000, "id": "A39EBBEF-2288-BC09-A77C-302D8AF89EA9", "name": "126.mp3", "path": "//wsl.localhost/Ubuntu/home/juki/github/cuddly-journey/output/126.mp3"}, {"app_id": 0, "category_id": "", "category_name": "local", "check_flag": 1, "effect_id": "", "formula_id": "", "intensifies_path": "", "is_ai_clone_tone": false, "is_ugc": false, "query": "", "request_id": "", "resource_id": "", "search_id": "", "source_platform": 0, "team_id": "", "text_id": "", "tone_category_id": "", "tone_category_name": "", "tone_effect_id": "", "tone_effect_name": "", "tone_second_category_id": "", "tone_second_category_name": "", "tone_speaker": "", "tone_type": "", "type": "extract_music", "video_id": "", "wave_points": [], "duration": 2280000, "id": "C7CF13A9-9432-3605-F6A3-184A43B27BA0", "name": "129.mp3", "path": "//wsl.localhost/Ubuntu/home/juki/github/cuddly-journey/output/129.mp3"}, {"app_id": 0, "category_id": "", "category_name": "local", "check_flag": 1, "effect_id": "", "formula_id": "", "intensifies_path": "", "is_ai_clone_tone": false, "is_ugc": false, "query": "", "request_id": "", "resource_id": "", "search_id": "", "source_platform": 0, "team_id": "", "text_id": "", "tone_category_id": "", "tone_category_name": "", "tone_effect_id": "", "tone_effect_name": "", "tone_second_category_id": "", "tone_second_category_name": "", "tone_speaker": "", "tone_type": "", "type": "extract_music", "video_id": "", "wave_points": [], "duration": 1704000, "id": "5404783F-41FF-E336-26D7-02A19E603E7B", "name": "348.mp3", "path": "//wsl.localhost/Ubuntu/home/juki/github/cuddly-journey/output/348.mp3"}, {"app_id": 0, "category_id": "", "category_name": "local", "check_flag": 1, "effect_id": "", "formula_id": "", "intensifies_path": "", "is_ai_clone_tone": false, "is_ugc": false, "query": "", "request_id": "", "resource_id": "", "search_id": "", "source_platform": 0, "team_id": "", "text_id": "", "tone_category_id": "", "tone_category_name": "", "tone_effect_id": "", "tone_effect_name": "", "tone_second_category_id": "", "tone_second_category_name": "", "tone_speaker": "", "tone_type": "", "type": "extract_music", "video_id": "", "wave_points": [], "duration": 3552000, "id": "91CD0B78-9ECE-C5A2-35EF-C157F7FCD10F", "name": "23.mp3", "path": "//wsl.localhost/Ubuntu/home/juki/github/cuddly-journey/output/23.mp3"}, {"app_id": 0, "category_id": "", "category_name": "local", "check_flag": 1, "effect_id": "", "formula_id": "", "intensifies_path": "", "is_ai_clone_tone": false, "is_ugc": false, "query": "", "request_id": "", "resource_id": "", "search_id": "", "source_platform": 0, "team_id": "", "text_id": "", "tone_category_id": "", "tone_category_name": "", "tone_effect_id": "", "tone_effect_name": "", "tone_second_category_id": "", "tone_second_category_name": "", "tone_speaker": "", "tone_type": "", "type": "extract_music", "video_id": "", "wave_points": [], "duration": 1320000, "id": "17CE0D0D-5BB7-657A-3C90-1E34917B5003", "name": "267.mp3", "path": "//wsl.localhost/Ubuntu/home/juki/github/cuddly-journey/output/267.mp3"}, {"app_id": 0, "category_id": "", "category_name": "local", "check_flag": 1, "effect_id": "", "formula_id": "", "intensifies_path": "", "is_ai_clone_tone": false, "is_ugc": false, "query": "", "request_id": "", "resource_id": "", "search_id": "", "source_platform": 0, "team_id": "", "text_id": "", "tone_category_id": "", "tone_category_name": "", "tone_effect_id": "", "tone_effect_name": "", "tone_second_category_id": "", "tone_second_category_name": "", "tone_speaker": "", "tone_type": "", "type": "extract_music", "video_id": "", "wave_points": [], "duration": 1632000, "id": "EE86B773-4B31-0739-4F35-11F8D04E499D", "name": "50.mp3", "path": "//wsl.localhost/Ubuntu/home/juki/github/cuddly-journey/output/50.mp3"}, {"app_id": 0, "category_id": "", "category_name": "local", "check_flag": 1, "effect_id": "", "formula_id": "", "intensifies_path": "", "is_ai_clone_tone": false, "is_ugc": false, "query": "", "request_id": "", "resource_id": "", "search_id": "", "source_platform": 0, "team_id": "", "text_id": "", "tone_category_id": "", "tone_category_name": "", "tone_effect_id": "", "tone_effect_name": "", "tone_second_category_id": "", "tone_second_category_name": "", "tone_speaker": "", "tone_type": "", "type": "extract_music", "video_id": "", "wave_points": [], "duration": 3288000, "id": "62933F2A-00CF-0BCC-B3A9-B74F69ABEB08", "name": "357.mp3", "path": "//wsl.localhost/Ubuntu/home/juki/github/cuddly-journey/output/357.mp3"}, {"app_id": 0, "category_id": "", "category_name": "local", "check_flag": 1, "effect_id": "", "formula_id": "", "intensifies_path": "", "is_ai_clone_tone": false, "is_ugc": false, "query": "", "request_id": "", "resource_id": "", "search_id": "", "source_platform": 0, "team_id": "", "text_id": "", "tone_category_id": "", "tone_category_name": "", "tone_effect_id": "", "tone_effect_name": "", "tone_second_category_id": "", "tone_second_category_name": "", "tone_speaker": "", "tone_type": "", "type": "extract_music", "video_id": "", "wave_points": [], "duration": 2376000, "id": "E1C3BE65-6476-B08B-B806-A85BB72003A8", "name": "375.mp3", "path": "//wsl.localhost/Ubuntu/home/juki/github/cuddly-journey/output/375.mp3"}, {"app_id": 0, "category_id": "", "category_name": "local", "check_flag": 1, "effect_id": "", "formula_id": "", "intensifies_path": "", "is_ai_clone_tone": false, "is_ugc": false, "query": "", "request_id": "", "resource_id": "", "search_id": "", "source_platform": 0, "team_id": "", "text_id": "", "tone_category_id": "", "tone_category_name": "", "tone_effect_id": "", "tone_effect_name": "", "tone_second_category_id": "", "tone_second_category_name": "", "tone_speaker": "", "tone_type": "", "type": "extract_music", "video_id": "", "wave_points": [], "duration": 1608000, "id": "9854C9D0-BB80-055D-DEA3-7F151240C2BE", "name": "217.mp3", "path": "//wsl.localhost/Ubuntu/home/juki/github/cuddly-journey/output/217.mp3"}, {"app_id": 0, "category_id": "", "category_name": "local", "check_flag": 1, "effect_id": "", "formula_id": "", "intensifies_path": "", "is_ai_clone_tone": false, "is_ugc": false, "query": "", "request_id": "", "resource_id": "", "search_id": "", "source_platform": 0, "team_id": "", "text_id": "", "tone_category_id": "", "tone_category_name": "", "tone_effect_id": "", "tone_effect_name": "", "tone_second_category_id": "", "tone_second_category_name": "", "tone_speaker": "", "tone_type": "", "type": "extract_music", "video_id": "", "wave_points": [], "duration": 1632000, "id": "F88D346E-D38D-3BA5-2763-A716307186BE", "name": "52.mp3", "path": "//wsl.localhost/Ubuntu/home/juki/github/cuddly-journey/output/52.mp3"}, {"app_id": 0, "category_id": "", "category_name": "local", "check_flag": 1, "effect_id": "", "formula_id": "", "intensifies_path": "", "is_ai_clone_tone": false, "is_ugc": false, "query": "", "request_id": "", "resource_id": "", "search_id": "", "source_platform": 0, "team_id": "", "text_id": "", "tone_category_id": "", "tone_category_name": "", "tone_effect_id": "", "tone_effect_name": "", "tone_second_category_id": "", "tone_second_category_name": "", "tone_speaker": "", "tone_type": "", "type": "extract_music", "video_id": "", "wave_points": [], "duration": 2688000, "id": "0905F1AF-47CB-80EA-2FB9-0DCE902F9F4A", "name": "187.mp3", "path": "//wsl.localhost/Ubuntu/home/juki/github/cuddly-journey/output/187.mp3"}, {"app_id": 0, "category_id": "", "category_name": "local", "check_flag": 1, "effect_id": "", "formula_id": "", "intensifies_path": "", "is_ai_clone_tone": false, "is_ugc": false, "query": "", "request_id": "", "resource_id": "", "search_id": "", "source_platform": 0, "team_id": "", "text_id": "", "tone_category_id": "", "tone_category_name": "", "tone_effect_id": "", "tone_effect_name": "", "tone_second_category_id": "", "tone_second_category_name": "", "tone_speaker": "", "tone_type": "", "type": "extract_music", "video_id": "", "wave_points": [], "duration": 5376000, "id": "274CBCA6-CFF7-250A-0845-CFBE0DA4BEF1", "name": "101.mp3", "path": "//wsl.localhost/Ubuntu/home/juki/github/cuddly-journey/output/101.mp3"}, {"app_id": 0, "category_id": "", "category_name": "local", "check_flag": 1, "effect_id": "", "formula_id": "", "intensifies_path": "", "is_ai_clone_tone": false, "is_ugc": false, "query": "", "request_id": "", "resource_id": "", "search_id": "", "source_platform": 0, "team_id": "", "text_id": "", "tone_category_id": "", "tone_category_name": "", "tone_effect_id": "", "tone_effect_name": "", "tone_second_category_id": "", "tone_second_category_name": "", "tone_speaker": "", "tone_type": "", "type": "extract_music", "video_id": "", "wave_points": [], "duration": 2256000, "id": "5A14677E-AAE0-F496-FAA0-AB8CA7660D95", "name": "266.mp3", "path": "//wsl.localhost/Ubuntu/home/juki/github/cuddly-journey/output/266.mp3"}, {"app_id": 0, "category_id": "", "category_name": "local", "check_flag": 1, "effect_id": "", "formula_id": "", "intensifies_path": "", "is_ai_clone_tone": false, "is_ugc": false, "query": "", "request_id": "", "resource_id": "", "search_id": "", "source_platform": 0, "team_id": "", "text_id": "", "tone_category_id": "", "tone_category_name": "", "tone_effect_id": "", "tone_effect_name": "", "tone_second_category_id": "", "tone_second_category_name": "", "tone_speaker": "", "tone_type": "", "type": "extract_music", "video_id": "", "wave_points": [], "duration": 5232000, "id": "64C822BA-66AA-83CC-4F54-F184E6F78835", "name": "93.mp3", "path": "//wsl.localhost/Ubuntu/home/juki/github/cuddly-journey/output/93.mp3"}, {"app_id": 0, "category_id": "", "category_name": "local", "check_flag": 1, "effect_id": "", "formula_id": "", "intensifies_path": "", "is_ai_clone_tone": false, "is_ugc": false, "query": "", "request_id": "", "resource_id": "", "search_id": "", "source_platform": 0, "team_id": "", "text_id": "", "tone_category_id": "", "tone_category_name": "", "tone_effect_id": "", "tone_effect_name": "", "tone_second_category_id": "", "tone_second_category_name": "", "tone_speaker": "", "tone_type": "", "type": "extract_music", "video_id": "", "wave_points": [], "duration": 2760000, "id": "829F36A7-6585-648D-F886-99D05364CDED", "name": "106.mp3", "path": "//wsl.localhost/Ubuntu/home/juki/github/cuddly-journey/output/106.mp3"}, {"app_id": 0, "category_id": "", "category_name": "local", "check_flag": 1, "effect_id": "", "formula_id": "", "intensifies_path": "", "is_ai_clone_tone": false, "is_ugc": false, "query": "", "request_id": "", "resource_id": "", "search_id": "", "source_platform": 0, "team_id": "", "text_id": "", "tone_category_id": "", "tone_category_name": "", "tone_effect_id": "", "tone_effect_name": "", "tone_second_category_id": "", "tone_second_category_name": "", "tone_speaker": "", "tone_type": "", "type": "extract_music", "video_id": "", "wave_points": [], "duration": 2832000, "id": "E5DD103F-F089-103B-9664-DAA56F3F2DC9", "name": "99.mp3", "path": "//wsl.localhost/Ubuntu/home/juki/github/cuddly-journey/output/99.mp3"}, {"app_id": 0, "category_id": "", "category_name": "local", "check_flag": 1, "effect_id": "", "formula_id": "", "intensifies_path": "", "is_ai_clone_tone": false, "is_ugc": false, "query": "", "request_id": "", "resource_id": "", "search_id": "", "source_platform": 0, "team_id": "", "text_id": "", "tone_category_id": "", "tone_category_name": "", "tone_effect_id": "", "tone_effect_name": "", "tone_second_category_id": "", "tone_second_category_name": "", "tone_speaker": "", "tone_type": "", "type": "extract_music", "video_id": "", "wave_points": [], "duration": 3600000, "id": "AF7FFE52-0238-0F16-4B84-4AE81A71B1E1", "name": "286.mp3", "path": "//wsl.localhost/Ubuntu/home/juki/github/cuddly-journey/output/286.mp3"}, {"app_id": 0, "category_id": "", "category_name": "local", "check_flag": 1, "effect_id": "", "formula_id": "", "intensifies_path": "", "is_ai_clone_tone": false, "is_ugc": false, "query": "", "request_id": "", "resource_id": "", "search_id": "", "source_platform": 0, "team_id": "", "text_id": "", "tone_category_id": "", "tone_category_name": "", "tone_effect_id": "", "tone_effect_name": "", "tone_second_category_id": "", "tone_second_category_name": "", "tone_speaker": "", "tone_type": "", "type": "extract_music", "video_id": "", "wave_points": [], "duration": 3408000, "id": "8D879408-6BD6-50B6-DB29-B56654E9E7CE", "name": "138.mp3", "path": "//wsl.localhost/Ubuntu/home/juki/github/cuddly-journey/output/138.mp3"}, {"app_id": 0, "category_id": "", "category_name": "local", "check_flag": 1, "effect_id": "", "formula_id": "", "intensifies_path": "", "is_ai_clone_tone": false, "is_ugc": false, "query": "", "request_id": "", "resource_id": "", "search_id": "", "source_platform": 0, "team_id": "", "text_id": "", "tone_category_id": "", "tone_category_name": "", "tone_effect_id": "", "tone_effect_name": "", "tone_second_category_id": "", "tone_second_category_name": "", "tone_speaker": "", "tone_type": "", "type": "extract_music", "video_id": "", "wave_points": [], "duration": 4704000, "id": "BC46079E-4758-40BA-4DBE-E5ACA6114553", "name": "257.mp3", "path": "//wsl.localhost/Ubuntu/home/juki/github/cuddly-journey/output/257.mp3"}, {"app_id": 0, "category_id": "", "category_name": "local", "check_flag": 1, "effect_id": "", "formula_id": "", "intensifies_path": "", "is_ai_clone_tone": false, "is_ugc": false, "query": "", "request_id": "", "resource_id": "", "search_id": "", "source_platform": 0, "team_id": "", "text_id": "", "tone_category_id": "", "tone_category_name": "", "tone_effect_id": "", "tone_effect_name": "", "tone_second_category_id": "", "tone_second_category_name": "", "tone_speaker": "", "tone_type": "", "type": "extract_music", "video_id": "", "wave_points": [], "duration": 2712000, "id": "01DD397B-ED64-1031-305C-170A9C3FF587", "name": "319.mp3", "path": "//wsl.localhost/Ubuntu/home/juki/github/cuddly-journey/output/319.mp3"}, {"app_id": 0, "category_id": "", "category_name": "local", "check_flag": 1, "effect_id": "", "formula_id": "", "intensifies_path": "", "is_ai_clone_tone": false, "is_ugc": false, "query": "", "request_id": "", "resource_id": "", "search_id": "", "source_platform": 0, "team_id": "", "text_id": "", "tone_category_id": "", "tone_category_name": "", "tone_effect_id": "", "tone_effect_name": "", "tone_second_category_id": "", "tone_second_category_name": "", "tone_speaker": "", "tone_type": "", "type": "extract_music", "video_id": "", "wave_points": [], "duration": 3456000, "id": "18B1C98D-E44F-BEBB-DCB9-23D2162507A6", "name": "87.mp3", "path": "//wsl.localhost/Ubuntu/home/juki/github/cuddly-journey/output/87.mp3"}, {"app_id": 0, "category_id": "", "category_name": "local", "check_flag": 1, "effect_id": "", "formula_id": "", "intensifies_path": "", "is_ai_clone_tone": false, "is_ugc": false, "query": "", "request_id": "", "resource_id": "", "search_id": "", "source_platform": 0, "team_id": "", "text_id": "", "tone_category_id": "", "tone_category_name": "", "tone_effect_id": "", "tone_effect_name": "", "tone_second_category_id": "", "tone_second_category_name": "", "tone_speaker": "", "tone_type": "", "type": "extract_music", "video_id": "", "wave_points": [], "duration": 2784000, "id": "50594CDD-7E2B-39DF-FDED-86DDB22C399E", "name": "165.mp3", "path": "//wsl.localhost/Ubuntu/home/juki/github/cuddly-journey/output/165.mp3"}, {"app_id": 0, "category_id": "", "category_name": "local", "check_flag": 1, "effect_id": "", "formula_id": "", "intensifies_path": "", "is_ai_clone_tone": false, "is_ugc": false, "query": "", "request_id": "", "resource_id": "", "search_id": "", "source_platform": 0, "team_id": "", "text_id": "", "tone_category_id": "", "tone_category_name": "", "tone_effect_id": "", "tone_effect_name": "", "tone_second_category_id": "", "tone_second_category_name": "", "tone_speaker": "", "tone_type": "", "type": "extract_music", "video_id": "", "wave_points": [], "duration": 3480000, "id": "8629501A-2AC5-1C71-4EAE-6B3809A01649", "name": "186.mp3", "path": "//wsl.localhost/Ubuntu/home/juki/github/cuddly-journey/output/186.mp3"}, {"app_id": 0, "category_id": "", "category_name": "local", "check_flag": 1, "effect_id": "", "formula_id": "", "intensifies_path": "", "is_ai_clone_tone": false, "is_ugc": false, "query": "", "request_id": "", "resource_id": "", "search_id": "", "source_platform": 0, "team_id": "", "text_id": "", "tone_category_id": "", "tone_category_name": "", "tone_effect_id": "", "tone_effect_name": "", "tone_second_category_id": "", "tone_second_category_name": "", "tone_speaker": "", "tone_type": "", "type": "extract_music", "video_id": "", "wave_points": [], "duration": 3216000, "id": "A14FB0FE-7629-CA8D-FA4F-56C834477CB3", "name": "206.mp3", "path": "//wsl.localhost/Ubuntu/home/juki/github/cuddly-journey/output/206.mp3"}, {"app_id": 0, "category_id": "", "category_name": "local", "check_flag": 1, "effect_id": "", "formula_id": "", "intensifies_path": "", "is_ai_clone_tone": false, "is_ugc": false, "query": "", "request_id": "", "resource_id": "", "search_id": "", "source_platform": 0, "team_id": "", "text_id": "", "tone_category_id": "", "tone_category_name": "", "tone_effect_id": "", "tone_effect_name": "", "tone_second_category_id": "", "tone_second_category_name": "", "tone_speaker": "", "tone_type": "", "type": "extract_music", "video_id": "", "wave_points": [], "duration": 2760000, "id": "C3A552CC-66AE-962F-0815-D449F6F08ADB", "name": "89.mp3", "path": "//wsl.localhost/Ubuntu/home/juki/github/cuddly-journey/output/89.mp3"}, {"app_id": 0, "category_id": "", "category_name": "local", "check_flag": 1, "effect_id": "", "formula_id": "", "intensifies_path": "", "is_ai_clone_tone": false, "is_ugc": false, "query": "", "request_id": "", "resource_id": "", "search_id": "", "source_platform": 0, "team_id": "", "text_id": "", "tone_category_id": "", "tone_category_name": "", "tone_effect_id": "", "tone_effect_name": "", "tone_second_category_id": "", "tone_second_category_name": "", "tone_speaker": "", "tone_type": "", "type": "extract_music", "video_id": "", "wave_points": [], "duration": 2592000, "id": "813B07D7-C076-2D17-52A8-631F0D3BD7C9", "name": "309.mp3", "path": "//wsl.localhost/Ubuntu/home/juki/github/cuddly-journey/output/309.mp3"}, {"app_id": 0, "category_id": "", "category_name": "local", "check_flag": 1, "effect_id": "", "formula_id": "", "intensifies_path": "", "is_ai_clone_tone": false, "is_ugc": false, "query": "", "request_id": "", "resource_id": "", "search_id": "", "source_platform": 0, "team_id": "", "text_id": "", "tone_category_id": "", "tone_category_name": "", "tone_effect_id": "", "tone_effect_name": "", "tone_second_category_id": "", "tone_second_category_name": "", "tone_speaker": "", "tone_type": "", "type": "extract_music", "video_id": "", "wave_points": [], "duration": 3144000, "id": "C2F80BBB-C38B-6DC2-EBC2-34453B6D6003", "name": "123.mp3", "path": "//wsl.localhost/Ubuntu/home/juki/github/cuddly-journey/output/123.mp3"}, {"app_id": 0, "category_id": "", "category_name": "local", "check_flag": 1, "effect_id": "", "formula_id": "", "intensifies_path": "", "is_ai_clone_tone": false, "is_ugc": false, "query": "", "request_id": "", "resource_id": "", "search_id": "", "source_platform": 0, "team_id": "", "text_id": "", "tone_category_id": "", "tone_category_name": "", "tone_effect_id": "", "tone_effect_name": "", "tone_second_category_id": "", "tone_second_category_name": "", "tone_speaker": "", "tone_type": "", "type": "extract_music", "video_id": "", "wave_points": [], "duration": 1224000, "id": "D24FF132-9BD0-0078-C885-48ED2B0BE844", "name": "107.mp3", "path": "//wsl.localhost/Ubuntu/home/juki/github/cuddly-journey/output/107.mp3"}, {"app_id": 0, "category_id": "", "category_name": "local", "check_flag": 1, "effect_id": "", "formula_id": "", "intensifies_path": "", "is_ai_clone_tone": false, "is_ugc": false, "query": "", "request_id": "", "resource_id": "", "search_id": "", "source_platform": 0, "team_id": "", "text_id": "", "tone_category_id": "", "tone_category_name": "", "tone_effect_id": "", "tone_effect_name": "", "tone_second_category_id": "", "tone_second_category_name": "", "tone_speaker": "", "tone_type": "", "type": "extract_music", "video_id": "", "wave_points": [], "duration": 2448000, "id": "3A077F8D-FFAA-9B85-FAED-8C34FB0E0350", "name": "329.mp3", "path": "//wsl.localhost/Ubuntu/home/juki/github/cuddly-journey/output/329.mp3"}, {"app_id": 0, "category_id": "", "category_name": "local", "check_flag": 1, "effect_id": "", "formula_id": "", "intensifies_path": "", "is_ai_clone_tone": false, "is_ugc": false, "query": "", "request_id": "", "resource_id": "", "search_id": "", "source_platform": 0, "team_id": "", "text_id": "", "tone_category_id": "", "tone_category_name": "", "tone_effect_id": "", "tone_effect_name": "", "tone_second_category_id": "", "tone_second_category_name": "", "tone_speaker": "", "tone_type": "", "type": "extract_music", "video_id": "", "wave_points": [], "duration": 2832000, "id": "F58CFD3A-4175-1F19-75B9-47F420B92821", "name": "231.mp3", "path": "//wsl.localhost/Ubuntu/home/juki/github/cuddly-journey/output/231.mp3"}, {"app_id": 0, "category_id": "", "category_name": "local", "check_flag": 1, "effect_id": "", "formula_id": "", "intensifies_path": "", "is_ai_clone_tone": false, "is_ugc": false, "query": "", "request_id": "", "resource_id": "", "search_id": "", "source_platform": 0, "team_id": "", "text_id": "", "tone_category_id": "", "tone_category_name": "", "tone_effect_id": "", "tone_effect_name": "", "tone_second_category_id": "", "tone_second_category_name": "", "tone_speaker": "", "tone_type": "", "type": "extract_music", "video_id": "", "wave_points": [], "duration": 1848000, "id": "7991B322-AD60-49FC-BCFF-B3A4B5C4E426", "name": "202.mp3", "path": "//wsl.localhost/Ubuntu/home/juki/github/cuddly-journey/output/202.mp3"}, {"app_id": 0, "category_id": "", "category_name": "local", "check_flag": 1, "effect_id": "", "formula_id": "", "intensifies_path": "", "is_ai_clone_tone": false, "is_ugc": false, "query": "", "request_id": "", "resource_id": "", "search_id": "", "source_platform": 0, "team_id": "", "text_id": "", "tone_category_id": "", "tone_category_name": "", "tone_effect_id": "", "tone_effect_name": "", "tone_second_category_id": "", "tone_second_category_name": "", "tone_speaker": "", "tone_type": "", "type": "extract_music", "video_id": "", "wave_points": [], "duration": 3384000, "id": "73A3E977-1965-C21A-A8A4-7BB5B88F0AC8", "name": "246.mp3", "path": "//wsl.localhost/Ubuntu/home/juki/github/cuddly-journey/output/246.mp3"}, {"app_id": 0, "category_id": "", "category_name": "local", "check_flag": 1, "effect_id": "", "formula_id": "", "intensifies_path": "", "is_ai_clone_tone": false, "is_ugc": false, "query": "", "request_id": "", "resource_id": "", "search_id": "", "source_platform": 0, "team_id": "", "text_id": "", "tone_category_id": "", "tone_category_name": "", "tone_effect_id": "", "tone_effect_name": "", "tone_second_category_id": "", "tone_second_category_name": "", "tone_speaker": "", "tone_type": "", "type": "extract_music", "video_id": "", "wave_points": [], "duration": 1416000, "id": "C2C602BD-8035-F6FA-BA30-00A0DB4DA11B", "name": "263.mp3", "path": "//wsl.localhost/Ubuntu/home/juki/github/cuddly-journey/output/263.mp3"}, {"app_id": 0, "category_id": "", "category_name": "local", "check_flag": 1, "effect_id": "", "formula_id": "", "intensifies_path": "", "is_ai_clone_tone": false, "is_ugc": false, "query": "", "request_id": "", "resource_id": "", "search_id": "", "source_platform": 0, "team_id": "", "text_id": "", "tone_category_id": "", "tone_category_name": "", "tone_effect_id": "", "tone_effect_name": "", "tone_second_category_id": "", "tone_second_category_name": "", "tone_speaker": "", "tone_type": "", "type": "extract_music", "video_id": "", "wave_points": [], "duration": 1824000, "id": "87FADA08-DF2D-477D-721A-0F42386AE7B9", "name": "173.mp3", "path": "//wsl.localhost/Ubuntu/home/juki/github/cuddly-journey/output/173.mp3"}, {"app_id": 0, "category_id": "", "category_name": "local", "check_flag": 1, "effect_id": "", "formula_id": "", "intensifies_path": "", "is_ai_clone_tone": false, "is_ugc": false, "query": "", "request_id": "", "resource_id": "", "search_id": "", "source_platform": 0, "team_id": "", "text_id": "", "tone_category_id": "", "tone_category_name": "", "tone_effect_id": "", "tone_effect_name": "", "tone_second_category_id": "", "tone_second_category_name": "", "tone_speaker": "", "tone_type": "", "type": "extract_music", "video_id": "", "wave_points": [], "duration": 1296000, "id": "791A0226-4BCC-CDD7-072E-38F5536E6BE4", "name": "235.mp3", "path": "//wsl.localhost/Ubuntu/home/juki/github/cuddly-journey/output/235.mp3"}, {"app_id": 0, "category_id": "", "category_name": "local", "check_flag": 1, "effect_id": "", "formula_id": "", "intensifies_path": "", "is_ai_clone_tone": false, "is_ugc": false, "query": "", "request_id": "", "resource_id": "", "search_id": "", "source_platform": 0, "team_id": "", "text_id": "", "tone_category_id": "", "tone_category_name": "", "tone_effect_id": "", "tone_effect_name": "", "tone_second_category_id": "", "tone_second_category_name": "", "tone_speaker": "", "tone_type": "", "type": "extract_music", "video_id": "", "wave_points": [], "duration": 2376000, "id": "F700788C-53BD-F833-350C-3EA04EF78C8F", "name": "13.mp3", "path": "//wsl.localhost/Ubuntu/home/juki/github/cuddly-journey/output/13.mp3"}, {"app_id": 0, "category_id": "", "category_name": "local", "check_flag": 1, "effect_id": "", "formula_id": "", "intensifies_path": "", "is_ai_clone_tone": false, "is_ugc": false, "query": "", "request_id": "", "resource_id": "", "search_id": "", "source_platform": 0, "team_id": "", "text_id": "", "tone_category_id": "", "tone_category_name": "", "tone_effect_id": "", "tone_effect_name": "", "tone_second_category_id": "", "tone_second_category_name": "", "tone_speaker": "", "tone_type": "", "type": "extract_music", "video_id": "", "wave_points": [], "duration": 1872000, "id": "1F328536-B9D7-A5C9-84FD-2A73A397314A", "name": "335.mp3", "path": "//wsl.localhost/Ubuntu/home/juki/github/cuddly-journey/output/335.mp3"}, {"app_id": 0, "category_id": "", "category_name": "local", "check_flag": 1, "effect_id": "", "formula_id": "", "intensifies_path": "", "is_ai_clone_tone": false, "is_ugc": false, "query": "", "request_id": "", "resource_id": "", "search_id": "", "source_platform": 0, "team_id": "", "text_id": "", "tone_category_id": "", "tone_category_name": "", "tone_effect_id": "", "tone_effect_name": "", "tone_second_category_id": "", "tone_second_category_name": "", "tone_speaker": "", "tone_type": "", "type": "extract_music", "video_id": "", "wave_points": [], "duration": 2040000, "id": "DBEC525F-F9E3-82FF-2245-70CA9BF3B3BC", "name": "261.mp3", "path": "//wsl.localhost/Ubuntu/home/juki/github/cuddly-journey/output/261.mp3"}, {"app_id": 0, "category_id": "", "category_name": "local", "check_flag": 1, "effect_id": "", "formula_id": "", "intensifies_path": "", "is_ai_clone_tone": false, "is_ugc": false, "query": "", "request_id": "", "resource_id": "", "search_id": "", "source_platform": 0, "team_id": "", "text_id": "", "tone_category_id": "", "tone_category_name": "", "tone_effect_id": "", "tone_effect_name": "", "tone_second_category_id": "", "tone_second_category_name": "", "tone_speaker": "", "tone_type": "", "type": "extract_music", "video_id": "", "wave_points": [], "duration": 2664000, "id": "49C010AF-A616-76A1-E2A1-4229D49C3B7D", "name": "60.mp3", "path": "//wsl.localhost/Ubuntu/home/juki/github/cuddly-journey/output/60.mp3"}, {"app_id": 0, "category_id": "", "category_name": "local", "check_flag": 1, "effect_id": "", "formula_id": "", "intensifies_path": "", "is_ai_clone_tone": false, "is_ugc": false, "query": "", "request_id": "", "resource_id": "", "search_id": "", "source_platform": 0, "team_id": "", "text_id": "", "tone_category_id": "", "tone_category_name": "", "tone_effect_id": "", "tone_effect_name": "", "tone_second_category_id": "", "tone_second_category_name": "", "tone_speaker": "", "tone_type": "", "type": "extract_music", "video_id": "", "wave_points": [], "duration": 2640000, "id": "DAFBAB60-A279-C010-AC86-0D691A5D584D", "name": "3.mp3", "path": "//wsl.localhost/Ubuntu/home/juki/github/cuddly-journey/output/3.mp3"}, {"app_id": 0, "category_id": "", "category_name": "local", "check_flag": 1, "effect_id": "", "formula_id": "", "intensifies_path": "", "is_ai_clone_tone": false, "is_ugc": false, "query": "", "request_id": "", "resource_id": "", "search_id": "", "source_platform": 0, "team_id": "", "text_id": "", "tone_category_id": "", "tone_category_name": "", "tone_effect_id": "", "tone_effect_name": "", "tone_second_category_id": "", "tone_second_category_name": "", "tone_speaker": "", "tone_type": "", "type": "extract_music", "video_id": "", "wave_points": [], "duration": 3192000, "id": "C38DAF17-8DB6-235B-D7B4-A6F1917B81F2", "name": "18.mp3", "path": "//wsl.localhost/Ubuntu/home/juki/github/cuddly-journey/output/18.mp3"}, {"app_id": 0, "category_id": "", "category_name": "local", "check_flag": 1, "effect_id": "", "formula_id": "", "intensifies_path": "", "is_ai_clone_tone": false, "is_ugc": false, "query": "", "request_id": "", "resource_id": "", "search_id": "", "source_platform": 0, "team_id": "", "text_id": "", "tone_category_id": "", "tone_category_name": "", "tone_effect_id": "", "tone_effect_name": "", "tone_second_category_id": "", "tone_second_category_name": "", "tone_speaker": "", "tone_type": "", "type": "extract_music", "video_id": "", "wave_points": [], "duration": 3912000, "id": "6E41D64D-6886-CF7A-58D2-F29C1C30C051", "name": "352.mp3", "path": "//wsl.localhost/Ubuntu/home/juki/github/cuddly-journey/output/352.mp3"}, {"app_id": 0, "category_id": "", "category_name": "local", "check_flag": 1, "effect_id": "", "formula_id": "", "intensifies_path": "", "is_ai_clone_tone": false, "is_ugc": false, "query": "", "request_id": "", "resource_id": "", "search_id": "", "source_platform": 0, "team_id": "", "text_id": "", "tone_category_id": "", "tone_category_name": "", "tone_effect_id": "", "tone_effect_name": "", "tone_second_category_id": "", "tone_second_category_name": "", "tone_speaker": "", "tone_type": "", "type": "extract_music", "video_id": "", "wave_points": [], "duration": 3912000, "id": "8EF2C2CE-FECD-CCF4-A80B-395EC08919DE", "name": "142.mp3", "path": "//wsl.localhost/Ubuntu/home/juki/github/cuddly-journey/output/142.mp3"}, {"app_id": 0, "category_id": "", "category_name": "local", "check_flag": 1, "effect_id": "", "formula_id": "", "intensifies_path": "", "is_ai_clone_tone": false, "is_ugc": false, "query": "", "request_id": "", "resource_id": "", "search_id": "", "source_platform": 0, "team_id": "", "text_id": "", "tone_category_id": "", "tone_category_name": "", "tone_effect_id": "", "tone_effect_name": "", "tone_second_category_id": "", "tone_second_category_name": "", "tone_speaker": "", "tone_type": "", "type": "extract_music", "video_id": "", "wave_points": [], "duration": 1656000, "id": "1839F0EC-FE8E-0EB7-10B1-B913DEC81B5C", "name": "135.mp3", "path": "//wsl.localhost/Ubuntu/home/juki/github/cuddly-journey/output/135.mp3"}, {"app_id": 0, "category_id": "", "category_name": "local", "check_flag": 1, "effect_id": "", "formula_id": "", "intensifies_path": "", "is_ai_clone_tone": false, "is_ugc": false, "query": "", "request_id": "", "resource_id": "", "search_id": "", "source_platform": 0, "team_id": "", "text_id": "", "tone_category_id": "", "tone_category_name": "", "tone_effect_id": "", "tone_effect_name": "", "tone_second_category_id": "", "tone_second_category_name": "", "tone_speaker": "", "tone_type": "", "type": "extract_music", "video_id": "", "wave_points": [], "duration": 2568000, "id": "EB9EF13D-2483-8D37-6B7C-45BD3B2DB0B3", "name": "132.mp3", "path": "//wsl.localhost/Ubuntu/home/juki/github/cuddly-journey/output/132.mp3"}, {"app_id": 0, "category_id": "", "category_name": "local", "check_flag": 1, "effect_id": "", "formula_id": "", "intensifies_path": "", "is_ai_clone_tone": false, "is_ugc": false, "query": "", "request_id": "", "resource_id": "", "search_id": "", "source_platform": 0, "team_id": "", "text_id": "", "tone_category_id": "", "tone_category_name": "", "tone_effect_id": "", "tone_effect_name": "", "tone_second_category_id": "", "tone_second_category_name": "", "tone_speaker": "", "tone_type": "", "type": "extract_music", "video_id": "", "wave_points": [], "duration": 2064000, "id": "7854FD5E-80CF-EFC7-AFB5-30548D6EE29B", "name": "4.mp3", "path": "//wsl.localhost/Ubuntu/home/juki/github/cuddly-journey/output/4.mp3"}, {"app_id": 0, "category_id": "", "category_name": "local", "check_flag": 1, "effect_id": "", "formula_id": "", "intensifies_path": "", "is_ai_clone_tone": false, "is_ugc": false, "query": "", "request_id": "", "resource_id": "", "search_id": "", "source_platform": 0, "team_id": "", "text_id": "", "tone_category_id": "", "tone_category_name": "", "tone_effect_id": "", "tone_effect_name": "", "tone_second_category_id": "", "tone_second_category_name": "", "tone_speaker": "", "tone_type": "", "type": "extract_music", "video_id": "", "wave_points": [], "duration": 2064000, "id": "A69CD67B-9D48-2E86-ADB3-984446AC3287", "name": "360.mp3", "path": "//wsl.localhost/Ubuntu/home/juki/github/cuddly-journey/output/360.mp3"}, {"app_id": 0, "category_id": "", "category_name": "local", "check_flag": 1, "effect_id": "", "formula_id": "", "intensifies_path": "", "is_ai_clone_tone": false, "is_ugc": false, "query": "", "request_id": "", "resource_id": "", "search_id": "", "source_platform": 0, "team_id": "", "text_id": "", "tone_category_id": "", "tone_category_name": "", "tone_effect_id": "", "tone_effect_name": "", "tone_second_category_id": "", "tone_second_category_name": "", "tone_speaker": "", "tone_type": "", "type": "extract_music", "video_id": "", "wave_points": [], "duration": 2424000, "id": "B0C85B38-DFCD-1205-FD88-F5C8B6A1EAF5", "name": "166.mp3", "path": "//wsl.localhost/Ubuntu/home/juki/github/cuddly-journey/output/166.mp3"}, {"app_id": 0, "category_id": "", "category_name": "local", "check_flag": 1, "effect_id": "", "formula_id": "", "intensifies_path": "", "is_ai_clone_tone": false, "is_ugc": false, "query": "", "request_id": "", "resource_id": "", "search_id": "", "source_platform": 0, "team_id": "", "text_id": "", "tone_category_id": "", "tone_category_name": "", "tone_effect_id": "", "tone_effect_name": "", "tone_second_category_id": "", "tone_second_category_name": "", "tone_speaker": "", "tone_type": "", "type": "extract_music", "video_id": "", "wave_points": [], "duration": 3168000, "id": "DD55220C-AACC-7816-3753-888A5F472882", "name": "146.mp3", "path": "//wsl.localhost/Ubuntu/home/juki/github/cuddly-journey/output/146.mp3"}, {"app_id": 0, "category_id": "", "category_name": "local", "check_flag": 1, "effect_id": "", "formula_id": "", "intensifies_path": "", "is_ai_clone_tone": false, "is_ugc": false, "query": "", "request_id": "", "resource_id": "", "search_id": "", "source_platform": 0, "team_id": "", "text_id": "", "tone_category_id": "", "tone_category_name": "", "tone_effect_id": "", "tone_effect_name": "", "tone_second_category_id": "", "tone_second_category_name": "", "tone_speaker": "", "tone_type": "", "type": "extract_music", "video_id": "", "wave_points": [], "duration": 3504000, "id": "70F0CD3C-C1D0-D02E-E626-805B74F6463D", "name": "168.mp3", "path": "//wsl.localhost/Ubuntu/home/juki/github/cuddly-journey/output/168.mp3"}, {"app_id": 0, "category_id": "", "category_name": "local", "check_flag": 1, "effect_id": "", "formula_id": "", "intensifies_path": "", "is_ai_clone_tone": false, "is_ugc": false, "query": "", "request_id": "", "resource_id": "", "search_id": "", "source_platform": 0, "team_id": "", "text_id": "", "tone_category_id": "", "tone_category_name": "", "tone_effect_id": "", "tone_effect_name": "", "tone_second_category_id": "", "tone_second_category_name": "", "tone_speaker": "", "tone_type": "", "type": "extract_music", "video_id": "", "wave_points": [], "duration": 3240000, "id": "656FA986-0D98-6E10-05F6-FD09AEF8ABD8", "name": "183.mp3", "path": "//wsl.localhost/Ubuntu/home/juki/github/cuddly-journey/output/183.mp3"}, {"app_id": 0, "category_id": "", "category_name": "local", "check_flag": 1, "effect_id": "", "formula_id": "", "intensifies_path": "", "is_ai_clone_tone": false, "is_ugc": false, "query": "", "request_id": "", "resource_id": "", "search_id": "", "source_platform": 0, "team_id": "", "text_id": "", "tone_category_id": "", "tone_category_name": "", "tone_effect_id": "", "tone_effect_name": "", "tone_second_category_id": "", "tone_second_category_name": "", "tone_speaker": "", "tone_type": "", "type": "extract_music", "video_id": "", "wave_points": [], "duration": 1632000, "id": "44CEA3EE-4F32-843E-4A26-DE1E03838054", "name": "203.mp3", "path": "//wsl.localhost/Ubuntu/home/juki/github/cuddly-journey/output/203.mp3"}, {"app_id": 0, "category_id": "", "category_name": "local", "check_flag": 1, "effect_id": "", "formula_id": "", "intensifies_path": "", "is_ai_clone_tone": false, "is_ugc": false, "query": "", "request_id": "", "resource_id": "", "search_id": "", "source_platform": 0, "team_id": "", "text_id": "", "tone_category_id": "", "tone_category_name": "", "tone_effect_id": "", "tone_effect_name": "", "tone_second_category_id": "", "tone_second_category_name": "", "tone_speaker": "", "tone_type": "", "type": "extract_music", "video_id": "", "wave_points": [], "duration": 3312000, "id": "4E3E0D78-3356-F006-87B2-3819861A0652", "name": "163.mp3", "path": "//wsl.localhost/Ubuntu/home/juki/github/cuddly-journey/output/163.mp3"}, {"app_id": 0, "category_id": "", "category_name": "local", "check_flag": 1, "effect_id": "", "formula_id": "", "intensifies_path": "", "is_ai_clone_tone": false, "is_ugc": false, "query": "", "request_id": "", "resource_id": "", "search_id": "", "source_platform": 0, "team_id": "", "text_id": "", "tone_category_id": "", "tone_category_name": "", "tone_effect_id": "", "tone_effect_name": "", "tone_second_category_id": "", "tone_second_category_name": "", "tone_speaker": "", "tone_type": "", "type": "extract_music", "video_id": "", "wave_points": [], "duration": 4320000, "id": "D4D581D5-8DD9-5836-0BED-F1D30125F646", "name": "252.mp3", "path": "//wsl.localhost/Ubuntu/home/juki/github/cuddly-journey/output/252.mp3"}, {"app_id": 0, "category_id": "", "category_name": "local", "check_flag": 1, "effect_id": "", "formula_id": "", "intensifies_path": "", "is_ai_clone_tone": false, "is_ugc": false, "query": "", "request_id": "", "resource_id": "", "search_id": "", "source_platform": 0, "team_id": "", "text_id": "", "tone_category_id": "", "tone_category_name": "", "tone_effect_id": "", "tone_effect_name": "", "tone_second_category_id": "", "tone_second_category_name": "", "tone_speaker": "", "tone_type": "", "type": "extract_music", "video_id": "", "wave_points": [], "duration": 3120000, "id": "793E94AA-F36F-F8BB-E044-5D231292AB0E", "name": "11.mp3", "path": "//wsl.localhost/Ubuntu/home/juki/github/cuddly-journey/output/11.mp3"}, {"app_id": 0, "category_id": "", "category_name": "local", "check_flag": 1, "effect_id": "", "formula_id": "", "intensifies_path": "", "is_ai_clone_tone": false, "is_ugc": false, "query": "", "request_id": "", "resource_id": "", "search_id": "", "source_platform": 0, "team_id": "", "text_id": "", "tone_category_id": "", "tone_category_name": "", "tone_effect_id": "", "tone_effect_name": "", "tone_second_category_id": "", "tone_second_category_name": "", "tone_speaker": "", "tone_type": "", "type": "extract_music", "video_id": "", "wave_points": [], "duration": 2856000, "id": "E70A7B87-4C25-CA09-9F66-03033DAFC3DC", "name": "90.mp3", "path": "//wsl.localhost/Ubuntu/home/juki/github/cuddly-journey/output/90.mp3"}, {"app_id": 0, "category_id": "", "category_name": "local", "check_flag": 1, "effect_id": "", "formula_id": "", "intensifies_path": "", "is_ai_clone_tone": false, "is_ugc": false, "query": "", "request_id": "", "resource_id": "", "search_id": "", "source_platform": 0, "team_id": "", "text_id": "", "tone_category_id": "", "tone_category_name": "", "tone_effect_id": "", "tone_effect_name": "", "tone_second_category_id": "", "tone_second_category_name": "", "tone_speaker": "", "tone_type": "", "type": "extract_music", "video_id": "", "wave_points": [], "duration": 2376000, "id": "C897DF03-23F0-4375-BB36-E064FA229E1D", "name": "190.mp3", "path": "//wsl.localhost/Ubuntu/home/juki/github/cuddly-journey/output/190.mp3"}, {"app_id": 0, "category_id": "", "category_name": "local", "check_flag": 1, "effect_id": "", "formula_id": "", "intensifies_path": "", "is_ai_clone_tone": false, "is_ugc": false, "query": "", "request_id": "", "resource_id": "", "search_id": "", "source_platform": 0, "team_id": "", "text_id": "", "tone_category_id": "", "tone_category_name": "", "tone_effect_id": "", "tone_effect_name": "", "tone_second_category_id": "", "tone_second_category_name": "", "tone_speaker": "", "tone_type": "", "type": "extract_music", "video_id": "", "wave_points": [], "duration": 1824000, "id": "BF771B32-F8B3-2A16-E7CE-9F086B66C494", "name": "53.mp3", "path": "//wsl.localhost/Ubuntu/home/juki/github/cuddly-journey/output/53.mp3"}, {"app_id": 0, "category_id": "", "category_name": "local", "check_flag": 1, "effect_id": "", "formula_id": "", "intensifies_path": "", "is_ai_clone_tone": false, "is_ugc": false, "query": "", "request_id": "", "resource_id": "", "search_id": "", "source_platform": 0, "team_id": "", "text_id": "", "tone_category_id": "", "tone_category_name": "", "tone_effect_id": "", "tone_effect_name": "", "tone_second_category_id": "", "tone_second_category_name": "", "tone_speaker": "", "tone_type": "", "type": "extract_music", "video_id": "", "wave_points": [], "duration": 1824000, "id": "CF10BC41-B3F0-6782-4B28-9BE28D7F71A1", "name": "162.mp3", "path": "//wsl.localhost/Ubuntu/home/juki/github/cuddly-journey/output/162.mp3"}, {"app_id": 0, "category_id": "", "category_name": "local", "check_flag": 1, "effect_id": "", "formula_id": "", "intensifies_path": "", "is_ai_clone_tone": false, "is_ugc": false, "query": "", "request_id": "", "resource_id": "", "search_id": "", "source_platform": 0, "team_id": "", "text_id": "", "tone_category_id": "", "tone_category_name": "", "tone_effect_id": "", "tone_effect_name": "", "tone_second_category_id": "", "tone_second_category_name": "", "tone_speaker": "", "tone_type": "", "type": "extract_music", "video_id": "", "wave_points": [], "duration": 2616000, "id": "A60AB88C-298F-6695-A735-2FF4546344BC", "name": "295.mp3", "path": "//wsl.localhost/Ubuntu/home/juki/github/cuddly-journey/output/295.mp3"}, {"app_id": 0, "category_id": "", "category_name": "local", "check_flag": 1, "effect_id": "", "formula_id": "", "intensifies_path": "", "is_ai_clone_tone": false, "is_ugc": false, "query": "", "request_id": "", "resource_id": "", "search_id": "", "source_platform": 0, "team_id": "", "text_id": "", "tone_category_id": "", "tone_category_name": "", "tone_effect_id": "", "tone_effect_name": "", "tone_second_category_id": "", "tone_second_category_name": "", "tone_speaker": "", "tone_type": "", "type": "extract_music", "video_id": "", "wave_points": [], "duration": 3360000, "id": "368CD51A-CCF3-B44D-8A59-FF25FAC0A70F", "name": "47.mp3", "path": "//wsl.localhost/Ubuntu/home/juki/github/cuddly-journey/output/47.mp3"}, {"app_id": 0, "category_id": "", "category_name": "local", "check_flag": 1, "effect_id": "", "formula_id": "", "intensifies_path": "", "is_ai_clone_tone": false, "is_ugc": false, "query": "", "request_id": "", "resource_id": "", "search_id": "", "source_platform": 0, "team_id": "", "text_id": "", "tone_category_id": "", "tone_category_name": "", "tone_effect_id": "", "tone_effect_name": "", "tone_second_category_id": "", "tone_second_category_name": "", "tone_speaker": "", "tone_type": "", "type": "extract_music", "video_id": "", "wave_points": [], "duration": 1224000, "id": "5D09AAC9-EA19-C508-05C1-A38A7C74C79B", "name": "277.mp3", "path": "//wsl.localhost/Ubuntu/home/juki/github/cuddly-journey/output/277.mp3"}, {"app_id": 0, "category_id": "", "category_name": "local", "check_flag": 1, "effect_id": "", "formula_id": "", "intensifies_path": "", "is_ai_clone_tone": false, "is_ugc": false, "query": "", "request_id": "", "resource_id": "", "search_id": "", "source_platform": 0, "team_id": "", "text_id": "", "tone_category_id": "", "tone_category_name": "", "tone_effect_id": "", "tone_effect_name": "", "tone_second_category_id": "", "tone_second_category_name": "", "tone_speaker": "", "tone_type": "", "type": "extract_music", "video_id": "", "wave_points": [], "duration": 1632000, "id": "E30CEA57-1DA7-3446-AED4-30606F4CED81", "name": "31.mp3", "path": "//wsl.localhost/Ubuntu/home/juki/github/cuddly-journey/output/31.mp3"}, {"app_id": 0, "category_id": "", "category_name": "local", "check_flag": 1, "effect_id": "", "formula_id": "", "intensifies_path": "", "is_ai_clone_tone": false, "is_ugc": false, "query": "", "request_id": "", "resource_id": "", "search_id": "", "source_platform": 0, "team_id": "", "text_id": "", "tone_category_id": "", "tone_category_name": "", "tone_effect_id": "", "tone_effect_name": "", "tone_second_category_id": "", "tone_second_category_name": "", "tone_speaker": "", "tone_type": "", "type": "extract_music", "video_id": "", "wave_points": [], "duration": 4176000, "id": "9C09B467-2E36-752F-1E1A-8203F6B5CA42", "name": "115.mp3", "path": "//wsl.localhost/Ubuntu/home/juki/github/cuddly-journey/output/115.mp3"}, {"app_id": 0, "category_id": "", "category_name": "local", "check_flag": 1, "effect_id": "", "formula_id": "", "intensifies_path": "", "is_ai_clone_tone": false, "is_ugc": false, "query": "", "request_id": "", "resource_id": "", "search_id": "", "source_platform": 0, "team_id": "", "text_id": "", "tone_category_id": "", "tone_category_name": "", "tone_effect_id": "", "tone_effect_name": "", "tone_second_category_id": "", "tone_second_category_name": "", "tone_speaker": "", "tone_type": "", "type": "extract_music", "video_id": "", "wave_points": [], "duration": 1488000, "id": "6088ADE9-A9C3-9680-B321-336213D85A6B", "name": "156.mp3", "path": "//wsl.localhost/Ubuntu/home/juki/github/cuddly-journey/output/156.mp3"}, {"app_id": 0, "category_id": "", "category_name": "local", "check_flag": 1, "effect_id": "", "formula_id": "", "intensifies_path": "", "is_ai_clone_tone": false, "is_ugc": false, "query": "", "request_id": "", "resource_id": "", "search_id": "", "source_platform": 0, "team_id": "", "text_id": "", "tone_category_id": "", "tone_category_name": "", "tone_effect_id": "", "tone_effect_name": "", "tone_second_category_id": "", "tone_second_category_name": "", "tone_speaker": "", "tone_type": "", "type": "extract_music", "video_id": "", "wave_points": [], "duration": 3432000, "id": "CC355C52-607D-65DA-0C5A-0827AD16D24A", "name": "258.mp3", "path": "//wsl.localhost/Ubuntu/home/juki/github/cuddly-journey/output/258.mp3"}, {"app_id": 0, "category_id": "", "category_name": "local", "check_flag": 1, "effect_id": "", "formula_id": "", "intensifies_path": "", "is_ai_clone_tone": false, "is_ugc": false, "query": "", "request_id": "", "resource_id": "", "search_id": "", "source_platform": 0, "team_id": "", "text_id": "", "tone_category_id": "", "tone_category_name": "", "tone_effect_id": "", "tone_effect_name": "", "tone_second_category_id": "", "tone_second_category_name": "", "tone_speaker": "", "tone_type": "", "type": "extract_music", "video_id": "", "wave_points": [], "duration": 3192000, "id": "8B200E4E-9DB5-3C74-7906-C79BDDD6CB5E", "name": "67.mp3", "path": "//wsl.localhost/Ubuntu/home/juki/github/cuddly-journey/output/67.mp3"}, {"app_id": 0, "category_id": "", "category_name": "local", "check_flag": 1, "effect_id": "", "formula_id": "", "intensifies_path": "", "is_ai_clone_tone": false, "is_ugc": false, "query": "", "request_id": "", "resource_id": "", "search_id": "", "source_platform": 0, "team_id": "", "text_id": "", "tone_category_id": "", "tone_category_name": "", "tone_effect_id": "", "tone_effect_name": "", "tone_second_category_id": "", "tone_second_category_name": "", "tone_speaker": "", "tone_type": "", "type": "extract_music", "video_id": "", "wave_points": [], "duration": 3264000, "id": "82D8655A-BAF7-7073-699C-2B6B460340CE", "name": "120.mp3", "path": "//wsl.localhost/Ubuntu/home/juki/github/cuddly-journey/output/120.mp3"}, {"app_id": 0, "category_id": "", "category_name": "local", "check_flag": 1, "effect_id": "", "formula_id": "", "intensifies_path": "", "is_ai_clone_tone": false, "is_ugc": false, "query": "", "request_id": "", "resource_id": "", "search_id": "", "source_platform": 0, "team_id": "", "text_id": "", "tone_category_id": "", "tone_category_name": "", "tone_effect_id": "", "tone_effect_name": "", "tone_second_category_id": "", "tone_second_category_name": "", "tone_speaker": "", "tone_type": "", "type": "extract_music", "video_id": "", "wave_points": [], "duration": 2064000, "id": "DB578462-3DFA-89BE-88D2-C6636C07D26E", "name": "259.mp3", "path": "//wsl.localhost/Ubuntu/home/juki/github/cuddly-journey/output/259.mp3"}, {"app_id": 0, "category_id": "", "category_name": "local", "check_flag": 1, "effect_id": "", "formula_id": "", "intensifies_path": "", "is_ai_clone_tone": false, "is_ugc": false, "query": "", "request_id": "", "resource_id": "", "search_id": "", "source_platform": 0, "team_id": "", "text_id": "", "tone_category_id": "", "tone_category_name": "", "tone_effect_id": "", "tone_effect_name": "", "tone_second_category_id": "", "tone_second_category_name": "", "tone_speaker": "", "tone_type": "", "type": "extract_music", "video_id": "", "wave_points": [], "duration": 2592000, "id": "35F701B3-8A6B-C703-CFF7-AB09F3744762", "name": "178.mp3", "path": "//wsl.localhost/Ubuntu/home/juki/github/cuddly-journey/output/178.mp3"}, {"app_id": 0, "category_id": "", "category_name": "local", "check_flag": 1, "effect_id": "", "formula_id": "", "intensifies_path": "", "is_ai_clone_tone": false, "is_ugc": false, "query": "", "request_id": "", "resource_id": "", "search_id": "", "source_platform": 0, "team_id": "", "text_id": "", "tone_category_id": "", "tone_category_name": "", "tone_effect_id": "", "tone_effect_name": "", "tone_second_category_id": "", "tone_second_category_name": "", "tone_speaker": "", "tone_type": "", "type": "extract_music", "video_id": "", "wave_points": [], "duration": 2040000, "id": "542B8519-6C3C-8E2A-22AA-C5BA44512AEF", "name": "199.mp3", "path": "//wsl.localhost/Ubuntu/home/juki/github/cuddly-journey/output/199.mp3"}, {"app_id": 0, "category_id": "", "category_name": "local", "check_flag": 1, "effect_id": "", "formula_id": "", "intensifies_path": "", "is_ai_clone_tone": false, "is_ugc": false, "query": "", "request_id": "", "resource_id": "", "search_id": "", "source_platform": 0, "team_id": "", "text_id": "", "tone_category_id": "", "tone_category_name": "", "tone_effect_id": "", "tone_effect_name": "", "tone_second_category_id": "", "tone_second_category_name": "", "tone_speaker": "", "tone_type": "", "type": "extract_music", "video_id": "", "wave_points": [], "duration": 3312000, "id": "B8E01491-48F9-FE54-3FB4-3DCE2F9269DC", "name": "34.mp3", "path": "//wsl.localhost/Ubuntu/home/juki/github/cuddly-journey/output/34.mp3"}, {"app_id": 0, "category_id": "", "category_name": "local", "check_flag": 1, "effect_id": "", "formula_id": "", "intensifies_path": "", "is_ai_clone_tone": false, "is_ugc": false, "query": "", "request_id": "", "resource_id": "", "search_id": "", "source_platform": 0, "team_id": "", "text_id": "", "tone_category_id": "", "tone_category_name": "", "tone_effect_id": "", "tone_effect_name": "", "tone_second_category_id": "", "tone_second_category_name": "", "tone_speaker": "", "tone_type": "", "type": "extract_music", "video_id": "", "wave_points": [], "duration": 2376000, "id": "9A7404DF-C2CF-97C8-6B36-51D1C2CBA530", "name": "359.mp3", "path": "//wsl.localhost/Ubuntu/home/juki/github/cuddly-journey/output/359.mp3"}, {"app_id": 0, "category_id": "", "category_name": "local", "check_flag": 1, "effect_id": "", "formula_id": "", "intensifies_path": "", "is_ai_clone_tone": false, "is_ugc": false, "query": "", "request_id": "", "resource_id": "", "search_id": "", "source_platform": 0, "team_id": "", "text_id": "", "tone_category_id": "", "tone_category_name": "", "tone_effect_id": "", "tone_effect_name": "", "tone_second_category_id": "", "tone_second_category_name": "", "tone_speaker": "", "tone_type": "", "type": "extract_music", "video_id": "", "wave_points": [], "duration": 3168000, "id": "42802562-82ED-573A-2ED3-1FB8119B2345", "name": "299.mp3", "path": "//wsl.localhost/Ubuntu/home/juki/github/cuddly-journey/output/299.mp3"}, {"app_id": 0, "category_id": "", "category_name": "local", "check_flag": 1, "effect_id": "", "formula_id": "", "intensifies_path": "", "is_ai_clone_tone": false, "is_ugc": false, "query": "", "request_id": "", "resource_id": "", "search_id": "", "source_platform": 0, "team_id": "", "text_id": "", "tone_category_id": "", "tone_category_name": "", "tone_effect_id": "", "tone_effect_name": "", "tone_second_category_id": "", "tone_second_category_name": "", "tone_speaker": "", "tone_type": "", "type": "extract_music", "video_id": "", "wave_points": [], "duration": 2472000, "id": "AC433569-E293-5A35-CFBC-1D1EC81F8EC5", "name": "174.mp3", "path": "//wsl.localhost/Ubuntu/home/juki/github/cuddly-journey/output/174.mp3"}, {"app_id": 0, "category_id": "", "category_name": "local", "check_flag": 1, "effect_id": "", "formula_id": "", "intensifies_path": "", "is_ai_clone_tone": false, "is_ugc": false, "query": "", "request_id": "", "resource_id": "", "search_id": "", "source_platform": 0, "team_id": "", "text_id": "", "tone_category_id": "", "tone_category_name": "", "tone_effect_id": "", "tone_effect_name": "", "tone_second_category_id": "", "tone_second_category_name": "", "tone_speaker": "", "tone_type": "", "type": "extract_music", "video_id": "", "wave_points": [], "duration": 7296000, "id": "8247B88D-4BF5-EF6F-4C17-B7737228D1D1", "name": "44.mp3", "path": "//wsl.localhost/Ubuntu/home/juki/github/cuddly-journey/output/44.mp3"}, {"app_id": 0, "category_id": "", "category_name": "local", "check_flag": 1, "effect_id": "", "formula_id": "", "intensifies_path": "", "is_ai_clone_tone": false, "is_ugc": false, "query": "", "request_id": "", "resource_id": "", "search_id": "", "source_platform": 0, "team_id": "", "text_id": "", "tone_category_id": "", "tone_category_name": "", "tone_effect_id": "", "tone_effect_name": "", "tone_second_category_id": "", "tone_second_category_name": "", "tone_speaker": "", "tone_type": "", "type": "extract_music", "video_id": "", "wave_points": [], "duration": 3024000, "id": "8F7F37D5-84F5-812F-B662-DCBB82F7EEDF", "name": "279.mp3", "path": "//wsl.localhost/Ubuntu/home/juki/github/cuddly-journey/output/279.mp3"}, {"app_id": 0, "category_id": "", "category_name": "local", "check_flag": 1, "effect_id": "", "formula_id": "", "intensifies_path": "", "is_ai_clone_tone": false, "is_ugc": false, "query": "", "request_id": "", "resource_id": "", "search_id": "", "source_platform": 0, "team_id": "", "text_id": "", "tone_category_id": "", "tone_category_name": "", "tone_effect_id": "", "tone_effect_name": "", "tone_second_category_id": "", "tone_second_category_name": "", "tone_speaker": "", "tone_type": "", "type": "extract_music", "video_id": "", "wave_points": [], "duration": 1224000, "id": "4073F635-E15E-BF89-C3E5-EA53A0C94505", "name": "201.mp3", "path": "//wsl.localhost/Ubuntu/home/juki/github/cuddly-journey/output/201.mp3"}, {"app_id": 0, "category_id": "", "category_name": "local", "check_flag": 1, "effect_id": "", "formula_id": "", "intensifies_path": "", "is_ai_clone_tone": false, "is_ugc": false, "query": "", "request_id": "", "resource_id": "", "search_id": "", "source_platform": 0, "team_id": "", "text_id": "", "tone_category_id": "", "tone_category_name": "", "tone_effect_id": "", "tone_effect_name": "", "tone_second_category_id": "", "tone_second_category_name": "", "tone_speaker": "", "tone_type": "", "type": "extract_music", "video_id": "", "wave_points": [], "duration": 3792000, "id": "24287B4C-64A1-A240-667D-19953CB76B6B", "name": "80.mp3", "path": "//wsl.localhost/Ubuntu/home/juki/github/cuddly-journey/output/80.mp3"}, {"app_id": 0, "category_id": "", "category_name": "local", "check_flag": 1, "effect_id": "", "formula_id": "", "intensifies_path": "", "is_ai_clone_tone": false, "is_ugc": false, "query": "", "request_id": "", "resource_id": "", "search_id": "", "source_platform": 0, "team_id": "", "text_id": "", "tone_category_id": "", "tone_category_name": "", "tone_effect_id": "", "tone_effect_name": "", "tone_second_category_id": "", "tone_second_category_name": "", "tone_speaker": "", "tone_type": "", "type": "extract_music", "video_id": "", "wave_points": [], "duration": 4056000, "id": "08804031-36B0-3E83-61FD-5AA33A639A0C", "name": "159.mp3", "path": "//wsl.localhost/Ubuntu/home/juki/github/cuddly-journey/output/159.mp3"}, {"app_id": 0, "category_id": "", "category_name": "local", "check_flag": 1, "effect_id": "", "formula_id": "", "intensifies_path": "", "is_ai_clone_tone": false, "is_ugc": false, "query": "", "request_id": "", "resource_id": "", "search_id": "", "source_platform": 0, "team_id": "", "text_id": "", "tone_category_id": "", "tone_category_name": "", "tone_effect_id": "", "tone_effect_name": "", "tone_second_category_id": "", "tone_second_category_name": "", "tone_speaker": "", "tone_type": "", "type": "extract_music", "video_id": "", "wave_points": [], "duration": 3504000, "id": "9D5CA0A8-FC1B-9D25-8DF3-422C62292901", "name": "346.mp3", "path": "//wsl.localhost/Ubuntu/home/juki/github/cuddly-journey/output/346.mp3"}, {"app_id": 0, "category_id": "", "category_name": "local", "check_flag": 1, "effect_id": "", "formula_id": "", "intensifies_path": "", "is_ai_clone_tone": false, "is_ugc": false, "query": "", "request_id": "", "resource_id": "", "search_id": "", "source_platform": 0, "team_id": "", "text_id": "", "tone_category_id": "", "tone_category_name": "", "tone_effect_id": "", "tone_effect_name": "", "tone_second_category_id": "", "tone_second_category_name": "", "tone_speaker": "", "tone_type": "", "type": "extract_music", "video_id": "", "wave_points": [], "duration": 1776000, "id": "83204201-8A22-BD16-022A-D3EBEABBD80C", "name": "10.mp3", "path": "//wsl.localhost/Ubuntu/home/juki/github/cuddly-journey/output/10.mp3"}, {"app_id": 0, "category_id": "", "category_name": "local", "check_flag": 1, "effect_id": "", "formula_id": "", "intensifies_path": "", "is_ai_clone_tone": false, "is_ugc": false, "query": "", "request_id": "", "resource_id": "", "search_id": "", "source_platform": 0, "team_id": "", "text_id": "", "tone_category_id": "", "tone_category_name": "", "tone_effect_id": "", "tone_effect_name": "", "tone_second_category_id": "", "tone_second_category_name": "", "tone_speaker": "", "tone_type": "", "type": "extract_music", "video_id": "", "wave_points": [], "duration": 2760000, "id": "9ABDEC7E-CFCF-1D94-9BD0-39C7ABBFC555", "name": "148.mp3", "path": "//wsl.localhost/Ubuntu/home/juki/github/cuddly-journey/output/148.mp3"}, {"app_id": 0, "category_id": "", "category_name": "local", "check_flag": 1, "effect_id": "", "formula_id": "", "intensifies_path": "", "is_ai_clone_tone": false, "is_ugc": false, "query": "", "request_id": "", "resource_id": "", "search_id": "", "source_platform": 0, "team_id": "", "text_id": "", "tone_category_id": "", "tone_category_name": "", "tone_effect_id": "", "tone_effect_name": "", "tone_second_category_id": "", "tone_second_category_name": "", "tone_speaker": "", "tone_type": "", "type": "extract_music", "video_id": "", "wave_points": [], "duration": 2184000, "id": "894CAF95-3513-0515-AC8D-347ACB168340", "name": "312.mp3", "path": "//wsl.localhost/Ubuntu/home/juki/github/cuddly-journey/output/312.mp3"}, {"app_id": 0, "category_id": "", "category_name": "local", "check_flag": 1, "effect_id": "", "formula_id": "", "intensifies_path": "", "is_ai_clone_tone": false, "is_ugc": false, "query": "", "request_id": "", "resource_id": "", "search_id": "", "source_platform": 0, "team_id": "", "text_id": "", "tone_category_id": "", "tone_category_name": "", "tone_effect_id": "", "tone_effect_name": "", "tone_second_category_id": "", "tone_second_category_name": "", "tone_speaker": "", "tone_type": "", "type": "extract_music", "video_id": "", "wave_points": [], "duration": 1464000, "id": "7F6B20A4-26C5-F322-761F-952778C1A2CF", "name": "128.mp3", "path": "//wsl.localhost/Ubuntu/home/juki/github/cuddly-journey/output/128.mp3"}, {"app_id": 0, "category_id": "", "category_name": "local", "check_flag": 1, "effect_id": "", "formula_id": "", "intensifies_path": "", "is_ai_clone_tone": false, "is_ugc": false, "query": "", "request_id": "", "resource_id": "", "search_id": "", "source_platform": 0, "team_id": "", "text_id": "", "tone_category_id": "", "tone_category_name": "", "tone_effect_id": "", "tone_effect_name": "", "tone_second_category_id": "", "tone_second_category_name": "", "tone_speaker": "", "tone_type": "", "type": "extract_music", "video_id": "", "wave_points": [], "duration": 2592000, "id": "88C40370-7258-8641-0797-777FC242F442", "name": "296.mp3", "path": "//wsl.localhost/Ubuntu/home/juki/github/cuddly-journey/output/296.mp3"}, {"app_id": 0, "category_id": "", "category_name": "local", "check_flag": 1, "effect_id": "", "formula_id": "", "intensifies_path": "", "is_ai_clone_tone": false, "is_ugc": false, "query": "", "request_id": "", "resource_id": "", "search_id": "", "source_platform": 0, "team_id": "", "text_id": "", "tone_category_id": "", "tone_category_name": "", "tone_effect_id": "", "tone_effect_name": "", "tone_second_category_id": "", "tone_second_category_name": "", "tone_speaker": "", "tone_type": "", "type": "extract_music", "video_id": "", "wave_points": [], "duration": 2760000, "id": "577B0A34-2BFD-4390-08F1-975C4A6F90E6", "name": "308.mp3", "path": "//wsl.localhost/Ubuntu/home/juki/github/cuddly-journey/output/308.mp3"}, {"app_id": 0, "category_id": "", "category_name": "local", "check_flag": 1, "effect_id": "", "formula_id": "", "intensifies_path": "", "is_ai_clone_tone": false, "is_ugc": false, "query": "", "request_id": "", "resource_id": "", "search_id": "", "source_platform": 0, "team_id": "", "text_id": "", "tone_category_id": "", "tone_category_name": "", "tone_effect_id": "", "tone_effect_name": "", "tone_second_category_id": "", "tone_second_category_name": "", "tone_speaker": "", "tone_type": "", "type": "extract_music", "video_id": "", "wave_points": [], "duration": 3792000, "id": "6CB9A3E9-BBE8-3A2A-7C9B-FC71248C7F7F", "name": "285.mp3", "path": "//wsl.localhost/Ubuntu/home/juki/github/cuddly-journey/output/285.mp3"}, {"app_id": 0, "category_id": "", "category_name": "local", "check_flag": 1, "effect_id": "", "formula_id": "", "intensifies_path": "", "is_ai_clone_tone": false, "is_ugc": false, "query": "", "request_id": "", "resource_id": "", "search_id": "", "source_platform": 0, "team_id": "", "text_id": "", "tone_category_id": "", "tone_category_name": "", "tone_effect_id": "", "tone_effect_name": "", "tone_second_category_id": "", "tone_second_category_name": "", "tone_speaker": "", "tone_type": "", "type": "extract_music", "video_id": "", "wave_points": [], "duration": 3552000, "id": "D1EFAE69-2324-2A68-2B26-AA9C520D8A55", "name": "282.mp3", "path": "//wsl.localhost/Ubuntu/home/juki/github/cuddly-journey/output/282.mp3"}, {"app_id": 0, "category_id": "", "category_name": "local", "check_flag": 1, "effect_id": "", "formula_id": "", "intensifies_path": "", "is_ai_clone_tone": false, "is_ugc": false, "query": "", "request_id": "", "resource_id": "", "search_id": "", "source_platform": 0, "team_id": "", "text_id": "", "tone_category_id": "", "tone_category_name": "", "tone_effect_id": "", "tone_effect_name": "", "tone_second_category_id": "", "tone_second_category_name": "", "tone_speaker": "", "tone_type": "", "type": "extract_music", "video_id": "", "wave_points": [], "duration": 2280000, "id": "6711F80D-AE9B-22B2-5D84-DC46F2161B15", "name": "369.mp3", "path": "//wsl.localhost/Ubuntu/home/juki/github/cuddly-journey/output/369.mp3"}, {"app_id": 0, "category_id": "", "category_name": "local", "check_flag": 1, "effect_id": "", "formula_id": "", "intensifies_path": "", "is_ai_clone_tone": false, "is_ugc": false, "query": "", "request_id": "", "resource_id": "", "search_id": "", "source_platform": 0, "team_id": "", "text_id": "", "tone_category_id": "", "tone_category_name": "", "tone_effect_id": "", "tone_effect_name": "", "tone_second_category_id": "", "tone_second_category_name": "", "tone_speaker": "", "tone_type": "", "type": "extract_music", "video_id": "", "wave_points": [], "duration": 1680000, "id": "F3F0ACCB-2F09-5EA5-6AA5-D955BBEB8955", "name": "98.mp3", "path": "//wsl.localhost/Ubuntu/home/juki/github/cuddly-journey/output/98.mp3"}, {"app_id": 0, "category_id": "", "category_name": "local", "check_flag": 1, "effect_id": "", "formula_id": "", "intensifies_path": "", "is_ai_clone_tone": false, "is_ugc": false, "query": "", "request_id": "", "resource_id": "", "search_id": "", "source_platform": 0, "team_id": "", "text_id": "", "tone_category_id": "", "tone_category_name": "", "tone_effect_id": "", "tone_effect_name": "", "tone_second_category_id": "", "tone_second_category_name": "", "tone_speaker": "", "tone_type": "", "type": "extract_music", "video_id": "", "wave_points": [], "duration": 2400000, "id": "BA909848-E3F0-3EE7-B5A9-8610B631AF9D", "name": "260.mp3", "path": "//wsl.localhost/Ubuntu/home/juki/github/cuddly-journey/output/260.mp3"}, {"app_id": 0, "category_id": "", "category_name": "local", "check_flag": 1, "effect_id": "", "formula_id": "", "intensifies_path": "", "is_ai_clone_tone": false, "is_ugc": false, "query": "", "request_id": "", "resource_id": "", "search_id": "", "source_platform": 0, "team_id": "", "text_id": "", "tone_category_id": "", "tone_category_name": "", "tone_effect_id": "", "tone_effect_name": "", "tone_second_category_id": "", "tone_second_category_name": "", "tone_speaker": "", "tone_type": "", "type": "extract_music", "video_id": "", "wave_points": [], "duration": 2520000, "id": "1107B93A-10BE-0CD3-20F6-4E9B36E17C8F", "name": "124.mp3", "path": "//wsl.localhost/Ubuntu/home/juki/github/cuddly-journey/output/124.mp3"}, {"app_id": 0, "category_id": "", "category_name": "local", "check_flag": 1, "effect_id": "", "formula_id": "", "intensifies_path": "", "is_ai_clone_tone": false, "is_ugc": false, "query": "", "request_id": "", "resource_id": "", "search_id": "", "source_platform": 0, "team_id": "", "text_id": "", "tone_category_id": "", "tone_category_name": "", "tone_effect_id": "", "tone_effect_name": "", "tone_second_category_id": "", "tone_second_category_name": "", "tone_speaker": "", "tone_type": "", "type": "extract_music", "video_id": "", "wave_points": [], "duration": 1440000, "id": "D8C33967-0D82-6C7E-342A-88992AA7C9BF", "name": "48.mp3", "path": "//wsl.localhost/Ubuntu/home/juki/github/cuddly-journey/output/48.mp3"}, {"app_id": 0, "category_id": "", "category_name": "local", "check_flag": 1, "effect_id": "", "formula_id": "", "intensifies_path": "", "is_ai_clone_tone": false, "is_ugc": false, "query": "", "request_id": "", "resource_id": "", "search_id": "", "source_platform": 0, "team_id": "", "text_id": "", "tone_category_id": "", "tone_category_name": "", "tone_effect_id": "", "tone_effect_name": "", "tone_second_category_id": "", "tone_second_category_name": "", "tone_speaker": "", "tone_type": "", "type": "extract_music", "video_id": "", "wave_points": [], "duration": 4632000, "id": "A821DE64-7CFE-61FE-67F7-BBD66ACDA28C", "name": "324.mp3", "path": "//wsl.localhost/Ubuntu/home/juki/github/cuddly-journey/output/324.mp3"}, {"app_id": 0, "category_id": "", "category_name": "local", "check_flag": 1, "effect_id": "", "formula_id": "", "intensifies_path": "", "is_ai_clone_tone": false, "is_ugc": false, "query": "", "request_id": "", "resource_id": "", "search_id": "", "source_platform": 0, "team_id": "", "text_id": "", "tone_category_id": "", "tone_category_name": "", "tone_effect_id": "", "tone_effect_name": "", "tone_second_category_id": "", "tone_second_category_name": "", "tone_speaker": "", "tone_type": "", "type": "extract_music", "video_id": "", "wave_points": [], "duration": 1248000, "id": "18BC03B1-3C54-1816-1C7E-2F812C07D2EE", "name": "15.mp3", "path": "//wsl.localhost/Ubuntu/home/juki/github/cuddly-journey/output/15.mp3"}, {"app_id": 0, "category_id": "", "category_name": "local", "check_flag": 1, "effect_id": "", "formula_id": "", "intensifies_path": "", "is_ai_clone_tone": false, "is_ugc": false, "query": "", "request_id": "", "resource_id": "", "search_id": "", "source_platform": 0, "team_id": "", "text_id": "", "tone_category_id": "", "tone_category_name": "", "tone_effect_id": "", "tone_effect_name": "", "tone_second_category_id": "", "tone_second_category_name": "", "tone_speaker": "", "tone_type": "", "type": "extract_music", "video_id": "", "wave_points": [], "duration": 2016000, "id": "E3D6E4F9-B3B7-2A7F-5A09-0F5E5B07F2B1", "name": "61.mp3", "path": "//wsl.localhost/Ubuntu/home/juki/github/cuddly-journey/output/61.mp3"}, {"app_id": 0, "category_id": "", "category_name": "local", "check_flag": 1, "effect_id": "", "formula_id": "", "intensifies_path": "", "is_ai_clone_tone": false, "is_ugc": false, "query": "", "request_id": "", "resource_id": "", "search_id": "", "source_platform": 0, "team_id": "", "text_id": "", "tone_category_id": "", "tone_category_name": "", "tone_effect_id": "", "tone_effect_name": "", "tone_second_category_id": "", "tone_second_category_name": "", "tone_speaker": "", "tone_type": "", "type": "extract_music", "video_id": "", "wave_points": [], "duration": 2616000, "id": "DE5D2B46-E7D6-93F0-9BDA-A47CA70D001A", "name": "137.mp3", "path": "//wsl.localhost/Ubuntu/home/juki/github/cuddly-journey/output/137.mp3"}, {"app_id": 0, "category_id": "", "category_name": "local", "check_flag": 1, "effect_id": "", "formula_id": "", "intensifies_path": "", "is_ai_clone_tone": false, "is_ugc": false, "query": "", "request_id": "", "resource_id": "", "search_id": "", "source_platform": 0, "team_id": "", "text_id": "", "tone_category_id": "", "tone_category_name": "", "tone_effect_id": "", "tone_effect_name": "", "tone_second_category_id": "", "tone_second_category_name": "", "tone_speaker": "", "tone_type": "", "type": "extract_music", "video_id": "", "wave_points": [], "duration": 2088000, "id": "C248B8A3-62A4-B4F1-EE40-A00E89B547B7", "name": "301.mp3", "path": "//wsl.localhost/Ubuntu/home/juki/github/cuddly-journey/output/301.mp3"}, {"app_id": 0, "category_id": "", "category_name": "local", "check_flag": 1, "effect_id": "", "formula_id": "", "intensifies_path": "", "is_ai_clone_tone": false, "is_ugc": false, "query": "", "request_id": "", "resource_id": "", "search_id": "", "source_platform": 0, "team_id": "", "text_id": "", "tone_category_id": "", "tone_category_name": "", "tone_effect_id": "", "tone_effect_name": "", "tone_second_category_id": "", "tone_second_category_name": "", "tone_speaker": "", "tone_type": "", "type": "extract_music", "video_id": "", "wave_points": [], "duration": 1296000, "id": "3706EEA8-5CF4-FF98-6DD5-D7B1C7132511", "name": "29.mp3", "path": "//wsl.localhost/Ubuntu/home/juki/github/cuddly-journey/output/29.mp3"}, {"app_id": 0, "category_id": "", "category_name": "local", "check_flag": 1, "effect_id": "", "formula_id": "", "intensifies_path": "", "is_ai_clone_tone": false, "is_ugc": false, "query": "", "request_id": "", "resource_id": "", "search_id": "", "source_platform": 0, "team_id": "", "text_id": "", "tone_category_id": "", "tone_category_name": "", "tone_effect_id": "", "tone_effect_name": "", "tone_second_category_id": "", "tone_second_category_name": "", "tone_speaker": "", "tone_type": "", "type": "extract_music", "video_id": "", "wave_points": [], "duration": 1656000, "id": "B0AD3F26-AF94-BF9B-A5AC-FA27420DFB94", "name": "278.mp3", "path": "//wsl.localhost/Ubuntu/home/juki/github/cuddly-journey/output/278.mp3"}, {"app_id": 0, "category_id": "", "category_name": "local", "check_flag": 1, "effect_id": "", "formula_id": "", "intensifies_path": "", "is_ai_clone_tone": false, "is_ugc": false, "query": "", "request_id": "", "resource_id": "", "search_id": "", "source_platform": 0, "team_id": "", "text_id": "", "tone_category_id": "", "tone_category_name": "", "tone_effect_id": "", "tone_effect_name": "", "tone_second_category_id": "", "tone_second_category_name": "", "tone_speaker": "", "tone_type": "", "type": "extract_music", "video_id": "", "wave_points": [], "duration": 1872000, "id": "5DBB47BB-9AB2-F9ED-BFCF-D3F8AE719168", "name": "294.mp3", "path": "//wsl.localhost/Ubuntu/home/juki/github/cuddly-journey/output/294.mp3"}, {"app_id": 0, "category_id": "", "category_name": "local", "check_flag": 1, "effect_id": "", "formula_id": "", "intensifies_path": "", "is_ai_clone_tone": false, "is_ugc": false, "query": "", "request_id": "", "resource_id": "", "search_id": "", "source_platform": 0, "team_id": "", "text_id": "", "tone_category_id": "", "tone_category_name": "", "tone_effect_id": "", "tone_effect_name": "", "tone_second_category_id": "", "tone_second_category_name": "", "tone_speaker": "", "tone_type": "", "type": "extract_music", "video_id": "", "wave_points": [], "duration": 3480000, "id": "3C546A0F-5374-6F71-6A35-9AFC45A62C5F", "name": "272.mp3", "path": "//wsl.localhost/Ubuntu/home/juki/github/cuddly-journey/output/272.mp3"}, {"app_id": 0, "category_id": "", "category_name": "local", "check_flag": 1, "effect_id": "", "formula_id": "", "intensifies_path": "", "is_ai_clone_tone": false, "is_ugc": false, "query": "", "request_id": "", "resource_id": "", "search_id": "", "source_platform": 0, "team_id": "", "text_id": "", "tone_category_id": "", "tone_category_name": "", "tone_effect_id": "", "tone_effect_name": "", "tone_second_category_id": "", "tone_second_category_name": "", "tone_speaker": "", "tone_type": "", "type": "extract_music", "video_id": "", "wave_points": [], "duration": 3264000, "id": "B7850B0B-1ED3-EE1A-CE9C-2E9698410451", "name": "147.mp3", "path": "//wsl.localhost/Ubuntu/home/juki/github/cuddly-journey/output/147.mp3"}, {"app_id": 0, "category_id": "", "category_name": "local", "check_flag": 1, "effect_id": "", "formula_id": "", "intensifies_path": "", "is_ai_clone_tone": false, "is_ugc": false, "query": "", "request_id": "", "resource_id": "", "search_id": "", "source_platform": 0, "team_id": "", "text_id": "", "tone_category_id": "", "tone_category_name": "", "tone_effect_id": "", "tone_effect_name": "", "tone_second_category_id": "", "tone_second_category_name": "", "tone_speaker": "", "tone_type": "", "type": "extract_music", "video_id": "", "wave_points": [], "duration": 4224000, "id": "AAB2DFC8-A85B-3F32-5F3F-2DE28E0DC95A", "name": "184.mp3", "path": "//wsl.localhost/Ubuntu/home/juki/github/cuddly-journey/output/184.mp3"}, {"app_id": 0, "category_id": "", "category_name": "local", "check_flag": 1, "effect_id": "", "formula_id": "", "intensifies_path": "", "is_ai_clone_tone": false, "is_ugc": false, "query": "", "request_id": "", "resource_id": "", "search_id": "", "source_platform": 0, "team_id": "", "text_id": "", "tone_category_id": "", "tone_category_name": "", "tone_effect_id": "", "tone_effect_name": "", "tone_second_category_id": "", "tone_second_category_name": "", "tone_speaker": "", "tone_type": "", "type": "extract_music", "video_id": "", "wave_points": [], "duration": 3984000, "id": "86A80842-873B-910F-F141-68FEEF569E3E", "name": "218.mp3", "path": "//wsl.localhost/Ubuntu/home/juki/github/cuddly-journey/output/218.mp3"}, {"app_id": 0, "category_id": "", "category_name": "local", "check_flag": 1, "effect_id": "", "formula_id": "", "intensifies_path": "", "is_ai_clone_tone": false, "is_ugc": false, "query": "", "request_id": "", "resource_id": "", "search_id": "", "source_platform": 0, "team_id": "", "text_id": "", "tone_category_id": "", "tone_category_name": "", "tone_effect_id": "", "tone_effect_name": "", "tone_second_category_id": "", "tone_second_category_name": "", "tone_speaker": "", "tone_type": "", "type": "extract_music", "video_id": "", "wave_points": [], "duration": 1464000, "id": "50DCB5D1-931E-58D3-22B6-6FA3E7ECED99", "name": "100.mp3", "path": "//wsl.localhost/Ubuntu/home/juki/github/cuddly-journey/output/100.mp3"}, {"app_id": 0, "category_id": "", "category_name": "local", "check_flag": 1, "effect_id": "", "formula_id": "", "intensifies_path": "", "is_ai_clone_tone": false, "is_ugc": false, "query": "", "request_id": "", "resource_id": "", "search_id": "", "source_platform": 0, "team_id": "", "text_id": "", "tone_category_id": "", "tone_category_name": "", "tone_effect_id": "", "tone_effect_name": "", "tone_second_category_id": "", "tone_second_category_name": "", "tone_speaker": "", "tone_type": "", "type": "extract_music", "video_id": "", "wave_points": [], "duration": 3792000, "id": "4FC568A3-9974-603B-122B-EA9F46D3E6BE", "name": "225.mp3", "path": "//wsl.localhost/Ubuntu/home/juki/github/cuddly-journey/output/225.mp3"}, {"app_id": 0, "category_id": "", "category_name": "local", "check_flag": 1, "effect_id": "", "formula_id": "", "intensifies_path": "", "is_ai_clone_tone": false, "is_ugc": false, "query": "", "request_id": "", "resource_id": "", "search_id": "", "source_platform": 0, "team_id": "", "text_id": "", "tone_category_id": "", "tone_category_name": "", "tone_effect_id": "", "tone_effect_name": "", "tone_second_category_id": "", "tone_second_category_name": "", "tone_speaker": "", "tone_type": "", "type": "extract_music", "video_id": "", "wave_points": [], "duration": 2376000, "id": "41E6E87B-1583-15B8-1A4F-D91B290B625B", "name": "297.mp3", "path": "//wsl.localhost/Ubuntu/home/juki/github/cuddly-journey/output/297.mp3"}, {"app_id": 0, "category_id": "", "category_name": "local", "check_flag": 1, "effect_id": "", "formula_id": "", "intensifies_path": "", "is_ai_clone_tone": false, "is_ugc": false, "query": "", "request_id": "", "resource_id": "", "search_id": "", "source_platform": 0, "team_id": "", "text_id": "", "tone_category_id": "", "tone_category_name": "", "tone_effect_id": "", "tone_effect_name": "", "tone_second_category_id": "", "tone_second_category_name": "", "tone_speaker": "", "tone_type": "", "type": "extract_music", "video_id": "", "wave_points": [], "duration": 2520000, "id": "3C7D05E5-9DCD-2F80-76DF-E3FDF0CDBABF", "name": "175.mp3", "path": "//wsl.localhost/Ubuntu/home/juki/github/cuddly-journey/output/175.mp3"}, {"app_id": 0, "category_id": "", "category_name": "local", "check_flag": 1, "effect_id": "", "formula_id": "", "intensifies_path": "", "is_ai_clone_tone": false, "is_ugc": false, "query": "", "request_id": "", "resource_id": "", "search_id": "", "source_platform": 0, "team_id": "", "text_id": "", "tone_category_id": "", "tone_category_name": "", "tone_effect_id": "", "tone_effect_name": "", "tone_second_category_id": "", "tone_second_category_name": "", "tone_speaker": "", "tone_type": "", "type": "extract_music", "video_id": "", "wave_points": [], "duration": 2088000, "id": "03646A43-03EB-C070-63C5-FE41201F043F", "name": "116.mp3", "path": "//wsl.localhost/Ubuntu/home/juki/github/cuddly-journey/output/116.mp3"}, {"app_id": 0, "category_id": "", "category_name": "local", "check_flag": 1, "effect_id": "", "formula_id": "", "intensifies_path": "", "is_ai_clone_tone": false, "is_ugc": false, "query": "", "request_id": "", "resource_id": "", "search_id": "", "source_platform": 0, "team_id": "", "text_id": "", "tone_category_id": "", "tone_category_name": "", "tone_effect_id": "", "tone_effect_name": "", "tone_second_category_id": "", "tone_second_category_name": "", "tone_speaker": "", "tone_type": "", "type": "extract_music", "video_id": "", "wave_points": [], "duration": 3240000, "id": "985503EC-866A-8983-DDA2-8FA194204828", "name": "158.mp3", "path": "//wsl.localhost/Ubuntu/home/juki/github/cuddly-journey/output/158.mp3"}, {"app_id": 0, "category_id": "", "category_name": "local", "check_flag": 1, "effect_id": "", "formula_id": "", "intensifies_path": "", "is_ai_clone_tone": false, "is_ugc": false, "query": "", "request_id": "", "resource_id": "", "search_id": "", "source_platform": 0, "team_id": "", "text_id": "", "tone_category_id": "", "tone_category_name": "", "tone_effect_id": "", "tone_effect_name": "", "tone_second_category_id": "", "tone_second_category_name": "", "tone_speaker": "", "tone_type": "", "type": "extract_music", "video_id": "", "wave_points": [], "duration": 2640000, "id": "0FC8FB2F-8373-46D7-C025-C4DBD097B698", "name": "133.mp3", "path": "//wsl.localhost/Ubuntu/home/juki/github/cuddly-journey/output/133.mp3"}, {"app_id": 0, "category_id": "", "category_name": "local", "check_flag": 1, "effect_id": "", "formula_id": "", "intensifies_path": "", "is_ai_clone_tone": false, "is_ugc": false, "query": "", "request_id": "", "resource_id": "", "search_id": "", "source_platform": 0, "team_id": "", "text_id": "", "tone_category_id": "", "tone_category_name": "", "tone_effect_id": "", "tone_effect_name": "", "tone_second_category_id": "", "tone_second_category_name": "", "tone_speaker": "", "tone_type": "", "type": "extract_music", "video_id": "", "wave_points": [], "duration": 2208000, "id": "EF5C38AE-B4F2-A225-9BB0-39A315508F97", "name": "83.mp3", "path": "//wsl.localhost/Ubuntu/home/juki/github/cuddly-journey/output/83.mp3"}, {"app_id": 0, "category_id": "", "category_name": "local", "check_flag": 1, "effect_id": "", "formula_id": "", "intensifies_path": "", "is_ai_clone_tone": false, "is_ugc": false, "query": "", "request_id": "", "resource_id": "", "search_id": "", "source_platform": 0, "team_id": "", "text_id": "", "tone_category_id": "", "tone_category_name": "", "tone_effect_id": "", "tone_effect_name": "", "tone_second_category_id": "", "tone_second_category_name": "", "tone_speaker": "", "tone_type": "", "type": "extract_music", "video_id": "", "wave_points": [], "duration": 3792000, "id": "8F97C1E2-1DEE-45EA-C696-7278C1426FCF", "name": "95.mp3", "path": "//wsl.localhost/Ubuntu/home/juki/github/cuddly-journey/output/95.mp3"}, {"app_id": 0, "category_id": "", "category_name": "local", "check_flag": 1, "effect_id": "", "formula_id": "", "intensifies_path": "", "is_ai_clone_tone": false, "is_ugc": false, "query": "", "request_id": "", "resource_id": "", "search_id": "", "source_platform": 0, "team_id": "", "text_id": "", "tone_category_id": "", "tone_category_name": "", "tone_effect_id": "", "tone_effect_name": "", "tone_second_category_id": "", "tone_second_category_name": "", "tone_speaker": "", "tone_type": "", "type": "extract_music", "video_id": "", "wave_points": [], "duration": 2544000, "id": "B5534D25-1AD1-694D-4307-925D32BE7392", "name": "113.mp3", "path": "//wsl.localhost/Ubuntu/home/juki/github/cuddly-journey/output/113.mp3"}, {"app_id": 0, "category_id": "", "category_name": "local", "check_flag": 1, "effect_id": "", "formula_id": "", "intensifies_path": "", "is_ai_clone_tone": false, "is_ugc": false, "query": "", "request_id": "", "resource_id": "", "search_id": "", "source_platform": 0, "team_id": "", "text_id": "", "tone_category_id": "", "tone_category_name": "", "tone_effect_id": "", "tone_effect_name": "", "tone_second_category_id": "", "tone_second_category_name": "", "tone_speaker": "", "tone_type": "", "type": "extract_music", "video_id": "", "wave_points": [], "duration": 3504000, "id": "4C3A9B39-028E-EB71-A01B-CBD4C2173CC8", "name": "145.mp3", "path": "//wsl.localhost/Ubuntu/home/juki/github/cuddly-journey/output/145.mp3"}, {"app_id": 0, "category_id": "", "category_name": "local", "check_flag": 1, "effect_id": "", "formula_id": "", "intensifies_path": "", "is_ai_clone_tone": false, "is_ugc": false, "query": "", "request_id": "", "resource_id": "", "search_id": "", "source_platform": 0, "team_id": "", "text_id": "", "tone_category_id": "", "tone_category_name": "", "tone_effect_id": "", "tone_effect_name": "", "tone_second_category_id": "", "tone_second_category_name": "", "tone_speaker": "", "tone_type": "", "type": "extract_music", "video_id": "", "wave_points": [], "duration": 2136000, "id": "7E5885DD-C5D9-EA2A-5F2C-830B2BC377ED", "name": "275.mp3", "path": "//wsl.localhost/Ubuntu/home/juki/github/cuddly-journey/output/275.mp3"}, {"app_id": 0, "category_id": "", "category_name": "local", "check_flag": 1, "effect_id": "", "formula_id": "", "intensifies_path": "", "is_ai_clone_tone": false, "is_ugc": false, "query": "", "request_id": "", "resource_id": "", "search_id": "", "source_platform": 0, "team_id": "", "text_id": "", "tone_category_id": "", "tone_category_name": "", "tone_effect_id": "", "tone_effect_name": "", "tone_second_category_id": "", "tone_second_category_name": "", "tone_speaker": "", "tone_type": "", "type": "extract_music", "video_id": "", "wave_points": [], "duration": 2544000, "id": "D32108B7-C1B3-17F1-3730-6B3A5328B6A7", "name": "361.mp3", "path": "//wsl.localhost/Ubuntu/home/juki/github/cuddly-journey/output/361.mp3"}, {"app_id": 0, "category_id": "", "category_name": "local", "check_flag": 1, "effect_id": "", "formula_id": "", "intensifies_path": "", "is_ai_clone_tone": false, "is_ugc": false, "query": "", "request_id": "", "resource_id": "", "search_id": "", "source_platform": 0, "team_id": "", "text_id": "", "tone_category_id": "", "tone_category_name": "", "tone_effect_id": "", "tone_effect_name": "", "tone_second_category_id": "", "tone_second_category_name": "", "tone_speaker": "", "tone_type": "", "type": "extract_music", "video_id": "", "wave_points": [], "duration": 2376000, "id": "81EB5686-2D83-24AA-5573-9E64628FE3C2", "name": "192.mp3", "path": "//wsl.localhost/Ubuntu/home/juki/github/cuddly-journey/output/192.mp3"}, {"app_id": 0, "category_id": "", "category_name": "local", "check_flag": 1, "effect_id": "", "formula_id": "", "intensifies_path": "", "is_ai_clone_tone": false, "is_ugc": false, "query": "", "request_id": "", "resource_id": "", "search_id": "", "source_platform": 0, "team_id": "", "text_id": "", "tone_category_id": "", "tone_category_name": "", "tone_effect_id": "", "tone_effect_name": "", "tone_second_category_id": "", "tone_second_category_name": "", "tone_speaker": "", "tone_type": "", "type": "extract_music", "video_id": "", "wave_points": [], "duration": 1800000, "id": "6009523F-F1F7-06AD-45F5-C54174AB7ED3", "name": "378.mp3", "path": "//wsl.localhost/Ubuntu/home/juki/github/cuddly-journey/output/378.mp3"}, {"app_id": 0, "category_id": "", "category_name": "local", "check_flag": 1, "effect_id": "", "formula_id": "", "intensifies_path": "", "is_ai_clone_tone": false, "is_ugc": false, "query": "", "request_id": "", "resource_id": "", "search_id": "", "source_platform": 0, "team_id": "", "text_id": "", "tone_category_id": "", "tone_category_name": "", "tone_effect_id": "", "tone_effect_name": "", "tone_second_category_id": "", "tone_second_category_name": "", "tone_speaker": "", "tone_type": "", "type": "extract_music", "video_id": "", "wave_points": [], "duration": 1728000, "id": "90766394-E813-1786-87A0-5882ECF14EC2", "name": "204.mp3", "path": "//wsl.localhost/Ubuntu/home/juki/github/cuddly-journey/output/204.mp3"}, {"app_id": 0, "category_id": "", "category_name": "local", "check_flag": 1, "effect_id": "", "formula_id": "", "intensifies_path": "", "is_ai_clone_tone": false, "is_ugc": false, "query": "", "request_id": "", "resource_id": "", "search_id": "", "source_platform": 0, "team_id": "", "text_id": "", "tone_category_id": "", "tone_category_name": "", "tone_effect_id": "", "tone_effect_name": "", "tone_second_category_id": "", "tone_second_category_name": "", "tone_speaker": "", "tone_type": "", "type": "extract_music", "video_id": "", "wave_points": [], "duration": 3048000, "id": "3BFFD33F-875D-A5C5-32A3-C2F4DEB048E3", "name": "290.mp3", "path": "//wsl.localhost/Ubuntu/home/juki/github/cuddly-journey/output/290.mp3"}, {"app_id": 0, "category_id": "", "category_name": "local", "check_flag": 1, "effect_id": "", "formula_id": "", "intensifies_path": "", "is_ai_clone_tone": false, "is_ugc": false, "query": "", "request_id": "", "resource_id": "", "search_id": "", "source_platform": 0, "team_id": "", "text_id": "", "tone_category_id": "", "tone_category_name": "", "tone_effect_id": "", "tone_effect_name": "", "tone_second_category_id": "", "tone_second_category_name": "", "tone_speaker": "", "tone_type": "", "type": "extract_music", "video_id": "", "wave_points": [], "duration": 2760000, "id": "28BAFEE3-6928-9502-0CBD-1961A3487D64", "name": "24.mp3", "path": "//wsl.localhost/Ubuntu/home/juki/github/cuddly-journey/output/24.mp3"}, {"app_id": 0, "category_id": "", "category_name": "local", "check_flag": 1, "effect_id": "", "formula_id": "", "intensifies_path": "", "is_ai_clone_tone": false, "is_ugc": false, "query": "", "request_id": "", "resource_id": "", "search_id": "", "source_platform": 0, "team_id": "", "text_id": "", "tone_category_id": "", "tone_category_name": "", "tone_effect_id": "", "tone_effect_name": "", "tone_second_category_id": "", "tone_second_category_name": "", "tone_speaker": "", "tone_type": "", "type": "extract_music", "video_id": "", "wave_points": [], "duration": 1320000, "id": "D77D91DF-4945-3E16-DFBC-974A40D6A5F5", "name": "112.mp3", "path": "//wsl.localhost/Ubuntu/home/juki/github/cuddly-journey/output/112.mp3"}, {"app_id": 0, "category_id": "", "category_name": "local", "check_flag": 1, "effect_id": "", "formula_id": "", "intensifies_path": "", "is_ai_clone_tone": false, "is_ugc": false, "query": "", "request_id": "", "resource_id": "", "search_id": "", "source_platform": 0, "team_id": "", "text_id": "", "tone_category_id": "", "tone_category_name": "", "tone_effect_id": "", "tone_effect_name": "", "tone_second_category_id": "", "tone_second_category_name": "", "tone_speaker": "", "tone_type": "", "type": "extract_music", "video_id": "", "wave_points": [], "duration": 2424000, "id": "56E2B10F-3018-0ED7-973C-B520C4BA97E7", "name": "88.mp3", "path": "//wsl.localhost/Ubuntu/home/juki/github/cuddly-journey/output/88.mp3"}, {"app_id": 0, "category_id": "", "category_name": "local", "check_flag": 1, "effect_id": "", "formula_id": "", "intensifies_path": "", "is_ai_clone_tone": false, "is_ugc": false, "query": "", "request_id": "", "resource_id": "", "search_id": "", "source_platform": 0, "team_id": "", "text_id": "", "tone_category_id": "", "tone_category_name": "", "tone_effect_id": "", "tone_effect_name": "", "tone_second_category_id": "", "tone_second_category_name": "", "tone_speaker": "", "tone_type": "", "type": "extract_music", "video_id": "", "wave_points": [], "duration": 1896000, "id": "6D51D6E6-1086-0EA3-E987-68349C8FAD70", "name": "338.mp3", "path": "//wsl.localhost/Ubuntu/home/juki/github/cuddly-journey/output/338.mp3"}, {"app_id": 0, "category_id": "", "category_name": "local", "check_flag": 1, "effect_id": "", "formula_id": "", "intensifies_path": "", "is_ai_clone_tone": false, "is_ugc": false, "query": "", "request_id": "", "resource_id": "", "search_id": "", "source_platform": 0, "team_id": "", "text_id": "", "tone_category_id": "", "tone_category_name": "", "tone_effect_id": "", "tone_effect_name": "", "tone_second_category_id": "", "tone_second_category_name": "", "tone_speaker": "", "tone_type": "", "type": "extract_music", "video_id": "", "wave_points": [], "duration": 2640000, "id": "5E4FAF2A-4E37-DDC0-1284-24ED9F558CF5", "name": "318.mp3", "path": "//wsl.localhost/Ubuntu/home/juki/github/cuddly-journey/output/318.mp3"}, {"app_id": 0, "category_id": "", "category_name": "local", "check_flag": 1, "effect_id": "", "formula_id": "", "intensifies_path": "", "is_ai_clone_tone": false, "is_ugc": false, "query": "", "request_id": "", "resource_id": "", "search_id": "", "source_platform": 0, "team_id": "", "text_id": "", "tone_category_id": "", "tone_category_name": "", "tone_effect_id": "", "tone_effect_name": "", "tone_second_category_id": "", "tone_second_category_name": "", "tone_speaker": "", "tone_type": "", "type": "extract_music", "video_id": "", "wave_points": [], "duration": 1728000, "id": "417831A7-E551-E650-94D9-757B9D206321", "name": "370.mp3", "path": "//wsl.localhost/Ubuntu/home/juki/github/cuddly-journey/output/370.mp3"}, {"app_id": 0, "category_id": "", "category_name": "local", "check_flag": 1, "effect_id": "", "formula_id": "", "intensifies_path": "", "is_ai_clone_tone": false, "is_ugc": false, "query": "", "request_id": "", "resource_id": "", "search_id": "", "source_platform": 0, "team_id": "", "text_id": "", "tone_category_id": "", "tone_category_name": "", "tone_effect_id": "", "tone_effect_name": "", "tone_second_category_id": "", "tone_second_category_name": "", "tone_speaker": "", "tone_type": "", "type": "extract_music", "video_id": "", "wave_points": [], "duration": 1728000, "id": "21E84E42-9186-0904-2273-6461B5890797", "name": "242.mp3", "path": "//wsl.localhost/Ubuntu/home/juki/github/cuddly-journey/output/242.mp3"}, {"app_id": 0, "category_id": "", "category_name": "local", "check_flag": 1, "effect_id": "", "formula_id": "", "intensifies_path": "", "is_ai_clone_tone": false, "is_ugc": false, "query": "", "request_id": "", "resource_id": "", "search_id": "", "source_platform": 0, "team_id": "", "text_id": "", "tone_category_id": "", "tone_category_name": "", "tone_effect_id": "", "tone_effect_name": "", "tone_second_category_id": "", "tone_second_category_name": "", "tone_speaker": "", "tone_type": "", "type": "extract_music", "video_id": "", "wave_points": [], "duration": 2592000, "id": "22916500-E14B-EFED-A3F5-80F41FA5317D", "name": "207.mp3", "path": "//wsl.localhost/Ubuntu/home/juki/github/cuddly-journey/output/207.mp3"}, {"app_id": 0, "category_id": "", "category_name": "local", "check_flag": 1, "effect_id": "", "formula_id": "", "intensifies_path": "", "is_ai_clone_tone": false, "is_ugc": false, "query": "", "request_id": "", "resource_id": "", "search_id": "", "source_platform": 0, "team_id": "", "text_id": "", "tone_category_id": "", "tone_category_name": "", "tone_effect_id": "", "tone_effect_name": "", "tone_second_category_id": "", "tone_second_category_name": "", "tone_speaker": "", "tone_type": "", "type": "extract_music", "video_id": "", "wave_points": [], "duration": 2664000, "id": "73DDC8F2-3BC8-5A1D-1D30-3DD908177BC7", "name": "33.mp3", "path": "//wsl.localhost/Ubuntu/home/juki/github/cuddly-journey/output/33.mp3"}, {"app_id": 0, "category_id": "", "category_name": "local", "check_flag": 1, "effect_id": "", "formula_id": "", "intensifies_path": "", "is_ai_clone_tone": false, "is_ugc": false, "query": "", "request_id": "", "resource_id": "", "search_id": "", "source_platform": 0, "team_id": "", "text_id": "", "tone_category_id": "", "tone_category_name": "", "tone_effect_id": "", "tone_effect_name": "", "tone_second_category_id": "", "tone_second_category_name": "", "tone_speaker": "", "tone_type": "", "type": "extract_music", "video_id": "", "wave_points": [], "duration": 2736000, "id": "6AF4B13E-DCEE-FAB1-C4D0-3F81330F72FA", "name": "249.mp3", "path": "//wsl.localhost/Ubuntu/home/juki/github/cuddly-journey/output/249.mp3"}, {"app_id": 0, "category_id": "", "category_name": "local", "check_flag": 1, "effect_id": "", "formula_id": "", "intensifies_path": "", "is_ai_clone_tone": false, "is_ugc": false, "query": "", "request_id": "", "resource_id": "", "search_id": "", "source_platform": 0, "team_id": "", "text_id": "", "tone_category_id": "", "tone_category_name": "", "tone_effect_id": "", "tone_effect_name": "", "tone_second_category_id": "", "tone_second_category_name": "", "tone_speaker": "", "tone_type": "", "type": "extract_music", "video_id": "", "wave_points": [], "duration": 4584000, "id": "6DF79DD4-0A30-7E1E-44EE-4FC1FC81ADC8", "name": "45.mp3", "path": "//wsl.localhost/Ubuntu/home/juki/github/cuddly-journey/output/45.mp3"}, {"app_id": 0, "category_id": "", "category_name": "local", "check_flag": 1, "effect_id": "", "formula_id": "", "intensifies_path": "", "is_ai_clone_tone": false, "is_ugc": false, "query": "", "request_id": "", "resource_id": "", "search_id": "", "source_platform": 0, "team_id": "", "text_id": "", "tone_category_id": "", "tone_category_name": "", "tone_effect_id": "", "tone_effect_name": "", "tone_second_category_id": "", "tone_second_category_name": "", "tone_speaker": "", "tone_type": "", "type": "extract_music", "video_id": "", "wave_points": [], "duration": 2328000, "id": "B52EECD7-9FDA-04B4-6613-82048FD5C5EC", "name": "102.mp3", "path": "//wsl.localhost/Ubuntu/home/juki/github/cuddly-journey/output/102.mp3"}, {"app_id": 0, "category_id": "", "category_name": "local", "check_flag": 1, "effect_id": "", "formula_id": "", "intensifies_path": "", "is_ai_clone_tone": false, "is_ugc": false, "query": "", "request_id": "", "resource_id": "", "search_id": "", "source_platform": 0, "team_id": "", "text_id": "", "tone_category_id": "", "tone_category_name": "", "tone_effect_id": "", "tone_effect_name": "", "tone_second_category_id": "", "tone_second_category_name": "", "tone_speaker": "", "tone_type": "", "type": "extract_music", "video_id": "", "wave_points": [], "duration": 1848000, "id": "56D4A653-5393-495B-1C6E-2CFB76406E6C", "name": "36.mp3", "path": "//wsl.localhost/Ubuntu/home/juki/github/cuddly-journey/output/36.mp3"}, {"app_id": 0, "category_id": "", "category_name": "local", "check_flag": 1, "effect_id": "", "formula_id": "", "intensifies_path": "", "is_ai_clone_tone": false, "is_ugc": false, "query": "", "request_id": "", "resource_id": "", "search_id": "", "source_platform": 0, "team_id": "", "text_id": "", "tone_category_id": "", "tone_category_name": "", "tone_effect_id": "", "tone_effect_name": "", "tone_second_category_id": "", "tone_second_category_name": "", "tone_speaker": "", "tone_type": "", "type": "extract_music", "video_id": "", "wave_points": [], "duration": 1776000, "id": "0635B9E6-4811-1FC2-0423-C49A7E90B4F9", "name": "367.mp3", "path": "//wsl.localhost/Ubuntu/home/juki/github/cuddly-journey/output/367.mp3"}, {"app_id": 0, "category_id": "", "category_name": "local", "check_flag": 1, "effect_id": "", "formula_id": "", "intensifies_path": "", "is_ai_clone_tone": false, "is_ugc": false, "query": "", "request_id": "", "resource_id": "", "search_id": "", "source_platform": 0, "team_id": "", "text_id": "", "tone_category_id": "", "tone_category_name": "", "tone_effect_id": "", "tone_effect_name": "", "tone_second_category_id": "", "tone_second_category_name": "", "tone_speaker": "", "tone_type": "", "type": "extract_music", "video_id": "", "wave_points": [], "duration": 3720000, "id": "2776EA2D-A4E5-7292-CE79-8A4D97FE1C67", "name": "289.mp3", "path": "//wsl.localhost/Ubuntu/home/juki/github/cuddly-journey/output/289.mp3"}, {"app_id": 0, "category_id": "", "category_name": "local", "check_flag": 1, "effect_id": "", "formula_id": "", "intensifies_path": "", "is_ai_clone_tone": false, "is_ugc": false, "query": "", "request_id": "", "resource_id": "", "search_id": "", "source_platform": 0, "team_id": "", "text_id": "", "tone_category_id": "", "tone_category_name": "", "tone_effect_id": "", "tone_effect_name": "", "tone_second_category_id": "", "tone_second_category_name": "", "tone_speaker": "", "tone_type": "", "type": "extract_music", "video_id": "", "wave_points": [], "duration": 1680000, "id": "63250896-1F8B-F933-FC69-DDE4DB3A4EBC", "name": "12.mp3", "path": "//wsl.localhost/Ubuntu/home/juki/github/cuddly-journey/output/12.mp3"}, {"app_id": 0, "category_id": "", "category_name": "local", "check_flag": 1, "effect_id": "", "formula_id": "", "intensifies_path": "", "is_ai_clone_tone": false, "is_ugc": false, "query": "", "request_id": "", "resource_id": "", "search_id": "", "source_platform": 0, "team_id": "", "text_id": "", "tone_category_id": "", "tone_category_name": "", "tone_effect_id": "", "tone_effect_name": "", "tone_second_category_id": "", "tone_second_category_name": "", "tone_speaker": "", "tone_type": "", "type": "extract_music", "video_id": "", "wave_points": [], "duration": 1632000, "id": "7D655A93-C7D2-C035-F3D9-59E03F06DC94", "name": "179.mp3", "path": "//wsl.localhost/Ubuntu/home/juki/github/cuddly-journey/output/179.mp3"}, {"app_id": 0, "category_id": "", "category_name": "local", "check_flag": 1, "effect_id": "", "formula_id": "", "intensifies_path": "", "is_ai_clone_tone": false, "is_ugc": false, "query": "", "request_id": "", "resource_id": "", "search_id": "", "source_platform": 0, "team_id": "", "text_id": "", "tone_category_id": "", "tone_category_name": "", "tone_effect_id": "", "tone_effect_name": "", "tone_second_category_id": "", "tone_second_category_name": "", "tone_speaker": "", "tone_type": "", "type": "extract_music", "video_id": "", "wave_points": [], "duration": 4104000, "id": "C3E911C4-130C-96B0-671E-D470424F3E99", "name": "122.mp3", "path": "//wsl.localhost/Ubuntu/home/juki/github/cuddly-journey/output/122.mp3"}, {"app_id": 0, "category_id": "", "category_name": "local", "check_flag": 1, "effect_id": "", "formula_id": "", "intensifies_path": "", "is_ai_clone_tone": false, "is_ugc": false, "query": "", "request_id": "", "resource_id": "", "search_id": "", "source_platform": 0, "team_id": "", "text_id": "", "tone_category_id": "", "tone_category_name": "", "tone_effect_id": "", "tone_effect_name": "", "tone_second_category_id": "", "tone_second_category_name": "", "tone_speaker": "", "tone_type": "", "type": "extract_music", "video_id": "", "wave_points": [], "duration": 2232000, "id": "2B28AEFF-AE2D-4F28-9513-28BB606D5A5D", "name": "276.mp3", "path": "//wsl.localhost/Ubuntu/home/juki/github/cuddly-journey/output/276.mp3"}, {"app_id": 0, "category_id": "", "category_name": "local", "check_flag": 1, "effect_id": "", "formula_id": "", "intensifies_path": "", "is_ai_clone_tone": false, "is_ugc": false, "query": "", "request_id": "", "resource_id": "", "search_id": "", "source_platform": 0, "team_id": "", "text_id": "", "tone_category_id": "", "tone_category_name": "", "tone_effect_id": "", "tone_effect_name": "", "tone_second_category_id": "", "tone_second_category_name": "", "tone_speaker": "", "tone_type": "", "type": "extract_music", "video_id": "", "wave_points": [], "duration": 3072000, "id": "70248276-C485-7FE7-E846-CC4B19B4E806", "name": "119.mp3", "path": "//wsl.localhost/Ubuntu/home/juki/github/cuddly-journey/output/119.mp3"}, {"app_id": 0, "category_id": "", "category_name": "local", "check_flag": 1, "effect_id": "", "formula_id": "", "intensifies_path": "", "is_ai_clone_tone": false, "is_ugc": false, "query": "", "request_id": "", "resource_id": "", "search_id": "", "source_platform": 0, "team_id": "", "text_id": "", "tone_category_id": "", "tone_category_name": "", "tone_effect_id": "", "tone_effect_name": "", "tone_second_category_id": "", "tone_second_category_name": "", "tone_speaker": "", "tone_type": "", "type": "extract_music", "video_id": "", "wave_points": [], "duration": 2496000, "id": "DE8CACB7-B631-25E7-FC1B-9D7A93091735", "name": "325.mp3", "path": "//wsl.localhost/Ubuntu/home/juki/github/cuddly-journey/output/325.mp3"}, {"app_id": 0, "category_id": "", "category_name": "local", "check_flag": 1, "effect_id": "", "formula_id": "", "intensifies_path": "", "is_ai_clone_tone": false, "is_ugc": false, "query": "", "request_id": "", "resource_id": "", "search_id": "", "source_platform": 0, "team_id": "", "text_id": "", "tone_category_id": "", "tone_category_name": "", "tone_effect_id": "", "tone_effect_name": "", "tone_second_category_id": "", "tone_second_category_name": "", "tone_speaker": "", "tone_type": "", "type": "extract_music", "video_id": "", "wave_points": [], "duration": 4104000, "id": "B0197408-8FFF-2266-B496-CAFE22287D11", "name": "2.mp3", "path": "//wsl.localhost/Ubuntu/home/juki/github/cuddly-journey/output/2.mp3"}, {"app_id": 0, "category_id": "", "category_name": "local", "check_flag": 1, "effect_id": "", "formula_id": "", "intensifies_path": "", "is_ai_clone_tone": false, "is_ugc": false, "query": "", "request_id": "", "resource_id": "", "search_id": "", "source_platform": 0, "team_id": "", "text_id": "", "tone_category_id": "", "tone_category_name": "", "tone_effect_id": "", "tone_effect_name": "", "tone_second_category_id": "", "tone_second_category_name": "", "tone_speaker": "", "tone_type": "", "type": "extract_music", "video_id": "", "wave_points": [], "duration": 2304000, "id": "0A3734FF-C0E6-5E0C-43FB-235C5F6B46A7", "name": "281.mp3", "path": "//wsl.localhost/Ubuntu/home/juki/github/cuddly-journey/output/281.mp3"}, {"app_id": 0, "category_id": "", "category_name": "local", "check_flag": 1, "effect_id": "", "formula_id": "", "intensifies_path": "", "is_ai_clone_tone": false, "is_ugc": false, "query": "", "request_id": "", "resource_id": "", "search_id": "", "source_platform": 0, "team_id": "", "text_id": "", "tone_category_id": "", "tone_category_name": "", "tone_effect_id": "", "tone_effect_name": "", "tone_second_category_id": "", "tone_second_category_name": "", "tone_speaker": "", "tone_type": "", "type": "extract_music", "video_id": "", "wave_points": [], "duration": 2544000, "id": "BBAD45A3-1A2D-D3BF-E325-97A60FD099D2", "name": "323.mp3", "path": "//wsl.localhost/Ubuntu/home/juki/github/cuddly-journey/output/323.mp3"}, {"app_id": 0, "category_id": "", "category_name": "local", "check_flag": 1, "effect_id": "", "formula_id": "", "intensifies_path": "", "is_ai_clone_tone": false, "is_ugc": false, "query": "", "request_id": "", "resource_id": "", "search_id": "", "source_platform": 0, "team_id": "", "text_id": "", "tone_category_id": "", "tone_category_name": "", "tone_effect_id": "", "tone_effect_name": "", "tone_second_category_id": "", "tone_second_category_name": "", "tone_speaker": "", "tone_type": "", "type": "extract_music", "video_id": "", "wave_points": [], "duration": 3360000, "id": "EA814274-F0BF-FF29-382C-07075343102D", "name": "92.mp3", "path": "//wsl.localhost/Ubuntu/home/juki/github/cuddly-journey/output/92.mp3"}, {"app_id": 0, "category_id": "", "category_name": "local", "check_flag": 1, "effect_id": "", "formula_id": "", "intensifies_path": "", "is_ai_clone_tone": false, "is_ugc": false, "query": "", "request_id": "", "resource_id": "", "search_id": "", "source_platform": 0, "team_id": "", "text_id": "", "tone_category_id": "", "tone_category_name": "", "tone_effect_id": "", "tone_effect_name": "", "tone_second_category_id": "", "tone_second_category_name": "", "tone_speaker": "", "tone_type": "", "type": "extract_music", "video_id": "", "wave_points": [], "duration": 1656000, "id": "0F7A1B06-0B28-44DF-5FA4-3CE34D1E5E0B", "name": "197.mp3", "path": "//wsl.localhost/Ubuntu/home/juki/github/cuddly-journey/output/197.mp3"}, {"app_id": 0, "category_id": "", "category_name": "local", "check_flag": 1, "effect_id": "", "formula_id": "", "intensifies_path": "", "is_ai_clone_tone": false, "is_ugc": false, "query": "", "request_id": "", "resource_id": "", "search_id": "", "source_platform": 0, "team_id": "", "text_id": "", "tone_category_id": "", "tone_category_name": "", "tone_effect_id": "", "tone_effect_name": "", "tone_second_category_id": "", "tone_second_category_name": "", "tone_speaker": "", "tone_type": "", "type": "extract_music", "video_id": "", "wave_points": [], "duration": 2592000, "id": "26D8A2E2-6168-4FE6-15AF-E2DC891B42ED", "name": "143.mp3", "path": "//wsl.localhost/Ubuntu/home/juki/github/cuddly-journey/output/143.mp3"}, {"app_id": 0, "category_id": "", "category_name": "local", "check_flag": 1, "effect_id": "", "formula_id": "", "intensifies_path": "", "is_ai_clone_tone": false, "is_ugc": false, "query": "", "request_id": "", "resource_id": "", "search_id": "", "source_platform": 0, "team_id": "", "text_id": "", "tone_category_id": "", "tone_category_name": "", "tone_effect_id": "", "tone_effect_name": "", "tone_second_category_id": "", "tone_second_category_name": "", "tone_speaker": "", "tone_type": "", "type": "extract_music", "video_id": "", "wave_points": [], "duration": 2856000, "id": "0CEDD255-8089-2383-DDA1-B8DE728E4875", "name": "108.mp3", "path": "//wsl.localhost/Ubuntu/home/juki/github/cuddly-journey/output/108.mp3"}, {"app_id": 0, "category_id": "", "category_name": "local", "check_flag": 1, "effect_id": "", "formula_id": "", "intensifies_path": "", "is_ai_clone_tone": false, "is_ugc": false, "query": "", "request_id": "", "resource_id": "", "search_id": "", "source_platform": 0, "team_id": "", "text_id": "", "tone_category_id": "", "tone_category_name": "", "tone_effect_id": "", "tone_effect_name": "", "tone_second_category_id": "", "tone_second_category_name": "", "tone_speaker": "", "tone_type": "", "type": "extract_music", "video_id": "", "wave_points": [], "duration": 2832000, "id": "94BDB093-BE78-9B2D-3690-EFAACB6B1F1D", "name": "63.mp3", "path": "//wsl.localhost/Ubuntu/home/juki/github/cuddly-journey/output/63.mp3"}, {"app_id": 0, "category_id": "", "category_name": "local", "check_flag": 1, "effect_id": "", "formula_id": "", "intensifies_path": "", "is_ai_clone_tone": false, "is_ugc": false, "query": "", "request_id": "", "resource_id": "", "search_id": "", "source_platform": 0, "team_id": "", "text_id": "", "tone_category_id": "", "tone_category_name": "", "tone_effect_id": "", "tone_effect_name": "", "tone_second_category_id": "", "tone_second_category_name": "", "tone_speaker": "", "tone_type": "", "type": "extract_music", "video_id": "", "wave_points": [], "duration": 1656000, "id": "C2BC7464-7747-DCC0-4F5F-45866FC782C2", "name": "238.mp3", "path": "//wsl.localhost/Ubuntu/home/juki/github/cuddly-journey/output/238.mp3"}, {"app_id": 0, "category_id": "", "category_name": "local", "check_flag": 1, "effect_id": "", "formula_id": "", "intensifies_path": "", "is_ai_clone_tone": false, "is_ugc": false, "query": "", "request_id": "", "resource_id": "", "search_id": "", "source_platform": 0, "team_id": "", "text_id": "", "tone_category_id": "", "tone_category_name": "", "tone_effect_id": "", "tone_effect_name": "", "tone_second_category_id": "", "tone_second_category_name": "", "tone_speaker": "", "tone_type": "", "type": "extract_music", "video_id": "", "wave_points": [], "duration": 2472000, "id": "5FC3A378-5CA9-3B62-7295-39BBCC4B7522", "name": "37.mp3", "path": "//wsl.localhost/Ubuntu/home/juki/github/cuddly-journey/output/37.mp3"}, {"app_id": 0, "category_id": "", "category_name": "local", "check_flag": 1, "effect_id": "", "formula_id": "", "intensifies_path": "", "is_ai_clone_tone": false, "is_ugc": false, "query": "", "request_id": "", "resource_id": "", "search_id": "", "source_platform": 0, "team_id": "", "text_id": "", "tone_category_id": "", "tone_category_name": "", "tone_effect_id": "", "tone_effect_name": "", "tone_second_category_id": "", "tone_second_category_name": "", "tone_speaker": "", "tone_type": "", "type": "extract_music", "video_id": "", "wave_points": [], "duration": 2472000, "id": "72921EAC-601C-3BC9-344B-081987405618", "name": "300.mp3", "path": "//wsl.localhost/Ubuntu/home/juki/github/cuddly-journey/output/300.mp3"}, {"app_id": 0, "category_id": "", "category_name": "local", "check_flag": 1, "effect_id": "", "formula_id": "", "intensifies_path": "", "is_ai_clone_tone": false, "is_ugc": false, "query": "", "request_id": "", "resource_id": "", "search_id": "", "source_platform": 0, "team_id": "", "text_id": "", "tone_category_id": "", "tone_category_name": "", "tone_effect_id": "", "tone_effect_name": "", "tone_second_category_id": "", "tone_second_category_name": "", "tone_speaker": "", "tone_type": "", "type": "extract_music", "video_id": "", "wave_points": [], "duration": 1488000, "id": "FFF70D2F-8213-991C-04EB-7954905AF42D", "name": "209.mp3", "path": "//wsl.localhost/Ubuntu/home/juki/github/cuddly-journey/output/209.mp3"}, {"app_id": 0, "category_id": "", "category_name": "local", "check_flag": 1, "effect_id": "", "formula_id": "", "intensifies_path": "", "is_ai_clone_tone": false, "is_ugc": false, "query": "", "request_id": "", "resource_id": "", "search_id": "", "source_platform": 0, "team_id": "", "text_id": "", "tone_category_id": "", "tone_category_name": "", "tone_effect_id": "", "tone_effect_name": "", "tone_second_category_id": "", "tone_second_category_name": "", "tone_speaker": "", "tone_type": "", "type": "extract_music", "video_id": "", "wave_points": [], "duration": 2640000, "id": "A30EE925-BF64-B0E1-AAF2-208779EDF13A", "name": "176.mp3", "path": "//wsl.localhost/Ubuntu/home/juki/github/cuddly-journey/output/176.mp3"}, {"app_id": 0, "category_id": "", "category_name": "local", "check_flag": 1, "effect_id": "", "formula_id": "", "intensifies_path": "", "is_ai_clone_tone": false, "is_ugc": false, "query": "", "request_id": "", "resource_id": "", "search_id": "", "source_platform": 0, "team_id": "", "text_id": "", "tone_category_id": "", "tone_category_name": "", "tone_effect_id": "", "tone_effect_name": "", "tone_second_category_id": "", "tone_second_category_name": "", "tone_speaker": "", "tone_type": "", "type": "extract_music", "video_id": "", "wave_points": [], "duration": 1920000, "id": "8602E9BE-9327-2376-513A-228B6A69BC27", "name": "256.mp3", "path": "//wsl.localhost/Ubuntu/home/juki/github/cuddly-journey/output/256.mp3"}, {"app_id": 0, "category_id": "", "category_name": "local", "check_flag": 1, "effect_id": "", "formula_id": "", "intensifies_path": "", "is_ai_clone_tone": false, "is_ugc": false, "query": "", "request_id": "", "resource_id": "", "search_id": "", "source_platform": 0, "team_id": "", "text_id": "", "tone_category_id": "", "tone_category_name": "", "tone_effect_id": "", "tone_effect_name": "", "tone_second_category_id": "", "tone_second_category_name": "", "tone_speaker": "", "tone_type": "", "type": "extract_music", "video_id": "", "wave_points": [], "duration": 2088000, "id": "05B45B2F-8800-F6AE-15F7-8C34E1719A8C", "name": "214.mp3", "path": "//wsl.localhost/Ubuntu/home/juki/github/cuddly-journey/output/214.mp3"}, {"app_id": 0, "category_id": "", "category_name": "local", "check_flag": 1, "effect_id": "", "formula_id": "", "intensifies_path": "", "is_ai_clone_tone": false, "is_ugc": false, "query": "", "request_id": "", "resource_id": "", "search_id": "", "source_platform": 0, "team_id": "", "text_id": "", "tone_category_id": "", "tone_category_name": "", "tone_effect_id": "", "tone_effect_name": "", "tone_second_category_id": "", "tone_second_category_name": "", "tone_speaker": "", "tone_type": "", "type": "extract_music", "video_id": "", "wave_points": [], "duration": 2712000, "id": "49D07061-F867-C38E-2C3B-F3E3EF6FD937", "name": "161.mp3", "path": "//wsl.localhost/Ubuntu/home/juki/github/cuddly-journey/output/161.mp3"}, {"app_id": 0, "category_id": "", "category_name": "local", "check_flag": 1, "effect_id": "", "formula_id": "", "intensifies_path": "", "is_ai_clone_tone": false, "is_ugc": false, "query": "", "request_id": "", "resource_id": "", "search_id": "", "source_platform": 0, "team_id": "", "text_id": "", "tone_category_id": "", "tone_category_name": "", "tone_effect_id": "", "tone_effect_name": "", "tone_second_category_id": "", "tone_second_category_name": "", "tone_speaker": "", "tone_type": "", "type": "extract_music", "video_id": "", "wave_points": [], "duration": 3312000, "id": "E9CFFE20-F8E1-4DEA-5CF2-4760B027262C", "name": "62.mp3", "path": "//wsl.localhost/Ubuntu/home/juki/github/cuddly-journey/output/62.mp3"}, {"app_id": 0, "category_id": "", "category_name": "local", "check_flag": 1, "effect_id": "", "formula_id": "", "intensifies_path": "", "is_ai_clone_tone": false, "is_ugc": false, "query": "", "request_id": "", "resource_id": "", "search_id": "", "source_platform": 0, "team_id": "", "text_id": "", "tone_category_id": "", "tone_category_name": "", "tone_effect_id": "", "tone_effect_name": "", "tone_second_category_id": "", "tone_second_category_name": "", "tone_speaker": "", "tone_type": "", "type": "extract_music", "video_id": "", "wave_points": [], "duration": 2952000, "id": "A40934AF-34F3-2E13-4ACE-A09B3388232A", "name": "141.mp3", "path": "//wsl.localhost/Ubuntu/home/juki/github/cuddly-journey/output/141.mp3"}, {"app_id": 0, "category_id": "", "category_name": "local", "check_flag": 1, "effect_id": "", "formula_id": "", "intensifies_path": "", "is_ai_clone_tone": false, "is_ugc": false, "query": "", "request_id": "", "resource_id": "", "search_id": "", "source_platform": 0, "team_id": "", "text_id": "", "tone_category_id": "", "tone_category_name": "", "tone_effect_id": "", "tone_effect_name": "", "tone_second_category_id": "", "tone_second_category_name": "", "tone_speaker": "", "tone_type": "", "type": "extract_music", "video_id": "", "wave_points": [], "duration": 2928000, "id": "E536EB38-1CC6-0EBC-FA5B-FC2B5F90A1E9", "name": "105.mp3", "path": "//wsl.localhost/Ubuntu/home/juki/github/cuddly-journey/output/105.mp3"}, {"app_id": 0, "category_id": "", "category_name": "local", "check_flag": 1, "effect_id": "", "formula_id": "", "intensifies_path": "", "is_ai_clone_tone": false, "is_ugc": false, "query": "", "request_id": "", "resource_id": "", "search_id": "", "source_platform": 0, "team_id": "", "text_id": "", "tone_category_id": "", "tone_category_name": "", "tone_effect_id": "", "tone_effect_name": "", "tone_second_category_id": "", "tone_second_category_name": "", "tone_speaker": "", "tone_type": "", "type": "extract_music", "video_id": "", "wave_points": [], "duration": 1368000, "id": "05F320FE-EC44-7F3F-0158-7A89CCC91ED6", "name": "110.mp3", "path": "//wsl.localhost/Ubuntu/home/juki/github/cuddly-journey/output/110.mp3"}, {"app_id": 0, "category_id": "", "category_name": "local", "check_flag": 1, "effect_id": "", "formula_id": "", "intensifies_path": "", "is_ai_clone_tone": false, "is_ugc": false, "query": "", "request_id": "", "resource_id": "", "search_id": "", "source_platform": 0, "team_id": "", "text_id": "", "tone_category_id": "", "tone_category_name": "", "tone_effect_id": "", "tone_effect_name": "", "tone_second_category_id": "", "tone_second_category_name": "", "tone_speaker": "", "tone_type": "", "type": "extract_music", "video_id": "", "wave_points": [], "duration": 2232000, "id": "12221DB6-7C5B-9430-D07B-FEF0B54657DD", "name": "306.mp3", "path": "//wsl.localhost/Ubuntu/home/juki/github/cuddly-journey/output/306.mp3"}, {"app_id": 0, "category_id": "", "category_name": "local", "check_flag": 1, "effect_id": "", "formula_id": "", "intensifies_path": "", "is_ai_clone_tone": false, "is_ugc": false, "query": "", "request_id": "", "resource_id": "", "search_id": "", "source_platform": 0, "team_id": "", "text_id": "", "tone_category_id": "", "tone_category_name": "", "tone_effect_id": "", "tone_effect_name": "", "tone_second_category_id": "", "tone_second_category_name": "", "tone_speaker": "", "tone_type": "", "type": "extract_music", "video_id": "", "wave_points": [], "duration": 2952000, "id": "88C37B70-4D22-1077-BD73-9386FE72D540", "name": "303.mp3", "path": "//wsl.localhost/Ubuntu/home/juki/github/cuddly-journey/output/303.mp3"}, {"app_id": 0, "category_id": "", "category_name": "local", "check_flag": 1, "effect_id": "", "formula_id": "", "intensifies_path": "", "is_ai_clone_tone": false, "is_ugc": false, "query": "", "request_id": "", "resource_id": "", "search_id": "", "source_platform": 0, "team_id": "", "text_id": "", "tone_category_id": "", "tone_category_name": "", "tone_effect_id": "", "tone_effect_name": "", "tone_second_category_id": "", "tone_second_category_name": "", "tone_speaker": "", "tone_type": "", "type": "extract_music", "video_id": "", "wave_points": [], "duration": 1872000, "id": "4E6F8B7E-66E0-B6EC-AA0A-FD63FEF2A589", "name": "234.mp3", "path": "//wsl.localhost/Ubuntu/home/juki/github/cuddly-journey/output/234.mp3"}, {"app_id": 0, "category_id": "", "category_name": "local", "check_flag": 1, "effect_id": "", "formula_id": "", "intensifies_path": "", "is_ai_clone_tone": false, "is_ugc": false, "query": "", "request_id": "", "resource_id": "", "search_id": "", "source_platform": 0, "team_id": "", "text_id": "", "tone_category_id": "", "tone_category_name": "", "tone_effect_id": "", "tone_effect_name": "", "tone_second_category_id": "", "tone_second_category_name": "", "tone_speaker": "", "tone_type": "", "type": "extract_music", "video_id": "", "wave_points": [], "duration": 1512000, "id": "D013F60F-B756-C48E-5065-58AEB39E86EE", "name": "224.mp3", "path": "//wsl.localhost/Ubuntu/home/juki/github/cuddly-journey/output/224.mp3"}, {"app_id": 0, "category_id": "", "category_name": "local", "check_flag": 1, "effect_id": "", "formula_id": "", "intensifies_path": "", "is_ai_clone_tone": false, "is_ugc": false, "query": "", "request_id": "", "resource_id": "", "search_id": "", "source_platform": 0, "team_id": "", "text_id": "", "tone_category_id": "", "tone_category_name": "", "tone_effect_id": "", "tone_effect_name": "", "tone_second_category_id": "", "tone_second_category_name": "", "tone_speaker": "", "tone_type": "", "type": "extract_music", "video_id": "", "wave_points": [], "duration": 1728000, "id": "7AF5329E-3A8B-D708-FDC8-B427DDE560D5", "name": "195.mp3", "path": "//wsl.localhost/Ubuntu/home/juki/github/cuddly-journey/output/195.mp3"}, {"app_id": 0, "category_id": "", "category_name": "local", "check_flag": 1, "effect_id": "", "formula_id": "", "intensifies_path": "", "is_ai_clone_tone": false, "is_ugc": false, "query": "", "request_id": "", "resource_id": "", "search_id": "", "source_platform": 0, "team_id": "", "text_id": "", "tone_category_id": "", "tone_category_name": "", "tone_effect_id": "", "tone_effect_name": "", "tone_second_category_id": "", "tone_second_category_name": "", "tone_speaker": "", "tone_type": "", "type": "extract_music", "video_id": "", "wave_points": [], "duration": 1848000, "id": "64536ADD-EE96-5EA0-AAC1-77AF4BDB0F86", "name": "237.mp3", "path": "//wsl.localhost/Ubuntu/home/juki/github/cuddly-journey/output/237.mp3"}, {"app_id": 0, "category_id": "", "category_name": "local", "check_flag": 1, "effect_id": "", "formula_id": "", "intensifies_path": "", "is_ai_clone_tone": false, "is_ugc": false, "query": "", "request_id": "", "resource_id": "", "search_id": "", "source_platform": 0, "team_id": "", "text_id": "", "tone_category_id": "", "tone_category_name": "", "tone_effect_id": "", "tone_effect_name": "", "tone_second_category_id": "", "tone_second_category_name": "", "tone_speaker": "", "tone_type": "", "type": "extract_music", "video_id": "", "wave_points": [], "duration": 3840000, "id": "10A779FF-34CD-C578-52A5-058370898F4B", "name": "20.mp3", "path": "//wsl.localhost/Ubuntu/home/juki/github/cuddly-journey/output/20.mp3"}, {"app_id": 0, "category_id": "", "category_name": "local", "check_flag": 1, "effect_id": "", "formula_id": "", "intensifies_path": "", "is_ai_clone_tone": false, "is_ugc": false, "query": "", "request_id": "", "resource_id": "", "search_id": "", "source_platform": 0, "team_id": "", "text_id": "", "tone_category_id": "", "tone_category_name": "", "tone_effect_id": "", "tone_effect_name": "", "tone_second_category_id": "", "tone_second_category_name": "", "tone_speaker": "", "tone_type": "", "type": "extract_music", "video_id": "", "wave_points": [], "duration": 2712000, "id": "A2DE3A13-39AC-E986-37BA-DBE430C8B205", "name": "291.mp3", "path": "//wsl.localhost/Ubuntu/home/juki/github/cuddly-journey/output/291.mp3"}, {"app_id": 0, "category_id": "", "category_name": "local", "check_flag": 1, "effect_id": "", "formula_id": "", "intensifies_path": "", "is_ai_clone_tone": false, "is_ugc": false, "query": "", "request_id": "", "resource_id": "", "search_id": "", "source_platform": 0, "team_id": "", "text_id": "", "tone_category_id": "", "tone_category_name": "", "tone_effect_id": "", "tone_effect_name": "", "tone_second_category_id": "", "tone_second_category_name": "", "tone_speaker": "", "tone_type": "", "type": "extract_music", "video_id": "", "wave_points": [], "duration": 2040000, "id": "F464C9ED-C81B-AF67-6782-E650F81C92B9", "name": "227.mp3", "path": "//wsl.localhost/Ubuntu/home/juki/github/cuddly-journey/output/227.mp3"}, {"app_id": 0, "category_id": "", "category_name": "local", "check_flag": 1, "effect_id": "", "formula_id": "", "intensifies_path": "", "is_ai_clone_tone": false, "is_ugc": false, "query": "", "request_id": "", "resource_id": "", "search_id": "", "source_platform": 0, "team_id": "", "text_id": "", "tone_category_id": "", "tone_category_name": "", "tone_effect_id": "", "tone_effect_name": "", "tone_second_category_id": "", "tone_second_category_name": "", "tone_speaker": "", "tone_type": "", "type": "extract_music", "video_id": "", "wave_points": [], "duration": 3504000, "id": "E7BE6AFA-1AB2-970F-37A6-FD459C3F035D", "name": "30.mp3", "path": "//wsl.localhost/Ubuntu/home/juki/github/cuddly-journey/output/30.mp3"}, {"app_id": 0, "category_id": "", "category_name": "local", "check_flag": 1, "effect_id": "", "formula_id": "", "intensifies_path": "", "is_ai_clone_tone": false, "is_ugc": false, "query": "", "request_id": "", "resource_id": "", "search_id": "", "source_platform": 0, "team_id": "", "text_id": "", "tone_category_id": "", "tone_category_name": "", "tone_effect_id": "", "tone_effect_name": "", "tone_second_category_id": "", "tone_second_category_name": "", "tone_speaker": "", "tone_type": "", "type": "extract_music", "video_id": "", "wave_points": [], "duration": 1824000, "id": "76E2DEAE-2FD4-DA58-AD42-EAE135F8B1F6", "name": "310.mp3", "path": "//wsl.localhost/Ubuntu/home/juki/github/cuddly-journey/output/310.mp3"}, {"app_id": 0, "category_id": "", "category_name": "local", "check_flag": 1, "effect_id": "", "formula_id": "", "intensifies_path": "", "is_ai_clone_tone": false, "is_ugc": false, "query": "", "request_id": "", "resource_id": "", "search_id": "", "source_platform": 0, "team_id": "", "text_id": "", "tone_category_id": "", "tone_category_name": "", "tone_effect_id": "", "tone_effect_name": "", "tone_second_category_id": "", "tone_second_category_name": "", "tone_speaker": "", "tone_type": "", "type": "extract_music", "video_id": "", "wave_points": [], "duration": 1440000, "id": "22DC6147-A746-85AF-D56A-54938C194980", "name": "172.mp3", "path": "//wsl.localhost/Ubuntu/home/juki/github/cuddly-journey/output/172.mp3"}, {"app_id": 0, "category_id": "", "category_name": "local", "check_flag": 1, "effect_id": "", "formula_id": "", "intensifies_path": "", "is_ai_clone_tone": false, "is_ugc": false, "query": "", "request_id": "", "resource_id": "", "search_id": "", "source_platform": 0, "team_id": "", "text_id": "", "tone_category_id": "", "tone_category_name": "", "tone_effect_id": "", "tone_effect_name": "", "tone_second_category_id": "", "tone_second_category_name": "", "tone_speaker": "", "tone_type": "", "type": "extract_music", "video_id": "", "wave_points": [], "duration": 3000000, "id": "91FFD885-F1AD-B1FC-1203-AE7AD7BD5E96", "name": "326.mp3", "path": "//wsl.localhost/Ubuntu/home/juki/github/cuddly-journey/output/326.mp3"}, {"app_id": 0, "category_id": "", "category_name": "local", "check_flag": 1, "effect_id": "", "formula_id": "", "intensifies_path": "", "is_ai_clone_tone": false, "is_ugc": false, "query": "", "request_id": "", "resource_id": "", "search_id": "", "source_platform": 0, "team_id": "", "text_id": "", "tone_category_id": "", "tone_category_name": "", "tone_effect_id": "", "tone_effect_name": "", "tone_second_category_id": "", "tone_second_category_name": "", "tone_speaker": "", "tone_type": "", "type": "extract_music", "video_id": "", "wave_points": [], "duration": 1944000, "id": "6601EFE0-CDA9-71FF-9723-D756406B9437", "name": "368.mp3", "path": "//wsl.localhost/Ubuntu/home/juki/github/cuddly-journey/output/368.mp3"}, {"app_id": 0, "category_id": "", "category_name": "local", "check_flag": 1, "effect_id": "", "formula_id": "", "intensifies_path": "", "is_ai_clone_tone": false, "is_ugc": false, "query": "", "request_id": "", "resource_id": "", "search_id": "", "source_platform": 0, "team_id": "", "text_id": "", "tone_category_id": "", "tone_category_name": "", "tone_effect_id": "", "tone_effect_name": "", "tone_second_category_id": "", "tone_second_category_name": "", "tone_speaker": "", "tone_type": "", "type": "extract_music", "video_id": "", "wave_points": [], "duration": 2952000, "id": "00D06CA2-7D43-92EC-19A8-10A930E9DAC5", "name": "376.mp3", "path": "//wsl.localhost/Ubuntu/home/juki/github/cuddly-journey/output/376.mp3"}, {"app_id": 0, "category_id": "", "category_name": "local", "check_flag": 1, "effect_id": "", "formula_id": "", "intensifies_path": "", "is_ai_clone_tone": false, "is_ugc": false, "query": "", "request_id": "", "resource_id": "", "search_id": "", "source_platform": 0, "team_id": "", "text_id": "", "tone_category_id": "", "tone_category_name": "", "tone_effect_id": "", "tone_effect_name": "", "tone_second_category_id": "", "tone_second_category_name": "", "tone_speaker": "", "tone_type": "", "type": "extract_music", "video_id": "", "wave_points": [], "duration": 3240000, "id": "EF416691-5C23-5C81-D3DF-A15F28987BDB", "name": "330.mp3", "path": "//wsl.localhost/Ubuntu/home/juki/github/cuddly-journey/output/330.mp3"}, {"app_id": 0, "category_id": "", "category_name": "local", "check_flag": 1, "effect_id": "", "formula_id": "", "intensifies_path": "", "is_ai_clone_tone": false, "is_ugc": false, "query": "", "request_id": "", "resource_id": "", "search_id": "", "source_platform": 0, "team_id": "", "text_id": "", "tone_category_id": "", "tone_category_name": "", "tone_effect_id": "", "tone_effect_name": "", "tone_second_category_id": "", "tone_second_category_name": "", "tone_speaker": "", "tone_type": "", "type": "extract_music", "video_id": "", "wave_points": [], "duration": 3624000, "id": "D9DA863A-4673-3C37-C148-F59A1C99E526", "name": "22.mp3", "path": "//wsl.localhost/Ubuntu/home/juki/github/cuddly-journey/output/22.mp3"}, {"app_id": 0, "category_id": "", "category_name": "local", "check_flag": 1, "effect_id": "", "formula_id": "", "intensifies_path": "", "is_ai_clone_tone": false, "is_ugc": false, "query": "", "request_id": "", "resource_id": "", "search_id": "", "source_platform": 0, "team_id": "", "text_id": "", "tone_category_id": "", "tone_category_name": "", "tone_effect_id": "", "tone_effect_name": "", "tone_second_category_id": "", "tone_second_category_name": "", "tone_speaker": "", "tone_type": "", "type": "extract_music", "video_id": "", "wave_points": [], "duration": 1872000, "id": "DD2F783F-89D9-A6D3-19CB-5E47517F0AC0", "name": "77.mp3", "path": "//wsl.localhost/Ubuntu/home/juki/github/cuddly-journey/output/77.mp3"}, {"app_id": 0, "category_id": "", "category_name": "local", "check_flag": 1, "effect_id": "", "formula_id": "", "intensifies_path": "", "is_ai_clone_tone": false, "is_ugc": false, "query": "", "request_id": "", "resource_id": "", "search_id": "", "source_platform": 0, "team_id": "", "text_id": "", "tone_category_id": "", "tone_category_name": "", "tone_effect_id": "", "tone_effect_name": "", "tone_second_category_id": "", "tone_second_category_name": "", "tone_speaker": "", "tone_type": "", "type": "extract_music", "video_id": "", "wave_points": [], "duration": 4200000, "id": "C174388A-9C04-2DAE-50DB-C8E25CC4C90D", "name": "125.mp3", "path": "//wsl.localhost/Ubuntu/home/juki/github/cuddly-journey/output/125.mp3"}, {"app_id": 0, "category_id": "", "category_name": "local", "check_flag": 1, "effect_id": "", "formula_id": "", "intensifies_path": "", "is_ai_clone_tone": false, "is_ugc": false, "query": "", "request_id": "", "resource_id": "", "search_id": "", "source_platform": 0, "team_id": "", "text_id": "", "tone_category_id": "", "tone_category_name": "", "tone_effect_id": "", "tone_effect_name": "", "tone_second_category_id": "", "tone_second_category_name": "", "tone_speaker": "", "tone_type": "", "type": "extract_music", "video_id": "", "wave_points": [], "duration": 2736000, "id": "7211D9B1-6DDD-6488-B9BB-43FDEF6BDF07", "name": "292.mp3", "path": "//wsl.localhost/Ubuntu/home/juki/github/cuddly-journey/output/292.mp3"}, {"app_id": 0, "category_id": "", "category_name": "local", "check_flag": 1, "effect_id": "", "formula_id": "", "intensifies_path": "", "is_ai_clone_tone": false, "is_ugc": false, "query": "", "request_id": "", "resource_id": "", "search_id": "", "source_platform": 0, "team_id": "", "text_id": "", "tone_category_id": "", "tone_category_name": "", "tone_effect_id": "", "tone_effect_name": "", "tone_second_category_id": "", "tone_second_category_name": "", "tone_speaker": "", "tone_type": "", "type": "extract_music", "video_id": "", "wave_points": [], "duration": 2904000, "id": "A70D4BD6-36BE-814E-CF69-6131000880A4", "name": "70.mp3", "path": "//wsl.localhost/Ubuntu/home/juki/github/cuddly-journey/output/70.mp3"}, {"app_id": 0, "category_id": "", "category_name": "local", "check_flag": 1, "effect_id": "", "formula_id": "", "intensifies_path": "", "is_ai_clone_tone": false, "is_ugc": false, "query": "", "request_id": "", "resource_id": "", "search_id": "", "source_platform": 0, "team_id": "", "text_id": "", "tone_category_id": "", "tone_category_name": "", "tone_effect_id": "", "tone_effect_name": "", "tone_second_category_id": "", "tone_second_category_name": "", "tone_speaker": "", "tone_type": "", "type": "extract_music", "video_id": "", "wave_points": [], "duration": 2568000, "id": "D0E8D253-4AE9-B96B-E7F8-39E53349B81C", "name": "66.mp3", "path": "//wsl.localhost/Ubuntu/home/juki/github/cuddly-journey/output/66.mp3"}, {"app_id": 0, "category_id": "", "category_name": "local", "check_flag": 1, "effect_id": "", "formula_id": "", "intensifies_path": "", "is_ai_clone_tone": false, "is_ugc": false, "query": "", "request_id": "", "resource_id": "", "search_id": "", "source_platform": 0, "team_id": "", "text_id": "", "tone_category_id": "", "tone_category_name": "", "tone_effect_id": "", "tone_effect_name": "", "tone_second_category_id": "", "tone_second_category_name": "", "tone_speaker": "", "tone_type": "", "type": "extract_music", "video_id": "", "wave_points": [], "duration": 4560000, "id": "87113C55-597C-A84C-8ED3-F902C3236DEB", "name": "363.mp3", "path": "//wsl.localhost/Ubuntu/home/juki/github/cuddly-journey/output/363.mp3"}, {"app_id": 0, "category_id": "", "category_name": "local", "check_flag": 1, "effect_id": "", "formula_id": "", "intensifies_path": "", "is_ai_clone_tone": false, "is_ugc": false, "query": "", "request_id": "", "resource_id": "", "search_id": "", "source_platform": 0, "team_id": "", "text_id": "", "tone_category_id": "", "tone_category_name": "", "tone_effect_id": "", "tone_effect_name": "", "tone_second_category_id": "", "tone_second_category_name": "", "tone_speaker": "", "tone_type": "", "type": "extract_music", "video_id": "", "wave_points": [], "duration": 2208000, "id": "936439D6-BB29-77AB-0B4A-9CC1D849B746", "name": "254.mp3", "path": "//wsl.localhost/Ubuntu/home/juki/github/cuddly-journey/output/254.mp3"}, {"app_id": 0, "category_id": "", "category_name": "local", "check_flag": 1, "effect_id": "", "formula_id": "", "intensifies_path": "", "is_ai_clone_tone": false, "is_ugc": false, "query": "", "request_id": "", "resource_id": "", "search_id": "", "source_platform": 0, "team_id": "", "text_id": "", "tone_category_id": "", "tone_category_name": "", "tone_effect_id": "", "tone_effect_name": "", "tone_second_category_id": "", "tone_second_category_name": "", "tone_speaker": "", "tone_type": "", "type": "extract_music", "video_id": "", "wave_points": [], "duration": 4248000, "id": "A10E8AE9-BD3A-913D-9E43-4FA7F1EC4B8D", "name": "349.mp3", "path": "//wsl.localhost/Ubuntu/home/juki/github/cuddly-journey/output/349.mp3"}, {"app_id": 0, "category_id": "", "category_name": "local", "check_flag": 1, "effect_id": "", "formula_id": "", "intensifies_path": "", "is_ai_clone_tone": false, "is_ugc": false, "query": "", "request_id": "", "resource_id": "", "search_id": "", "source_platform": 0, "team_id": "", "text_id": "", "tone_category_id": "", "tone_category_name": "", "tone_effect_id": "", "tone_effect_name": "", "tone_second_category_id": "", "tone_second_category_name": "", "tone_speaker": "", "tone_type": "", "type": "extract_music", "video_id": "", "wave_points": [], "duration": 2424000, "id": "C1EB6FCC-05E5-EB34-AADA-64A66C8DBCA1", "name": "315.mp3", "path": "//wsl.localhost/Ubuntu/home/juki/github/cuddly-journey/output/315.mp3"}, {"app_id": 0, "category_id": "", "category_name": "local", "check_flag": 1, "effect_id": "", "formula_id": "", "intensifies_path": "", "is_ai_clone_tone": false, "is_ugc": false, "query": "", "request_id": "", "resource_id": "", "search_id": "", "source_platform": 0, "team_id": "", "text_id": "", "tone_category_id": "", "tone_category_name": "", "tone_effect_id": "", "tone_effect_name": "", "tone_second_category_id": "", "tone_second_category_name": "", "tone_speaker": "", "tone_type": "", "type": "extract_music", "video_id": "", "wave_points": [], "duration": 1368000, "id": "07B55153-4471-8012-1936-471271913E8E", "name": "240.mp3", "path": "//wsl.localhost/Ubuntu/home/juki/github/cuddly-journey/output/240.mp3"}, {"app_id": 0, "category_id": "", "category_name": "local", "check_flag": 1, "effect_id": "", "formula_id": "", "intensifies_path": "", "is_ai_clone_tone": false, "is_ugc": false, "query": "", "request_id": "", "resource_id": "", "search_id": "", "source_platform": 0, "team_id": "", "text_id": "", "tone_category_id": "", "tone_category_name": "", "tone_effect_id": "", "tone_effect_name": "", "tone_second_category_id": "", "tone_second_category_name": "", "tone_speaker": "", "tone_type": "", "type": "extract_music", "video_id": "", "wave_points": [], "duration": 1488000, "id": "5A0F55EC-D4D4-4C44-94EA-6D1A5108A070", "name": "211.mp3", "path": "//wsl.localhost/Ubuntu/home/juki/github/cuddly-journey/output/211.mp3"}, {"app_id": 0, "category_id": "", "category_name": "local", "check_flag": 1, "effect_id": "", "formula_id": "", "intensifies_path": "", "is_ai_clone_tone": false, "is_ugc": false, "query": "", "request_id": "", "resource_id": "", "search_id": "", "source_platform": 0, "team_id": "", "text_id": "", "tone_category_id": "", "tone_category_name": "", "tone_effect_id": "", "tone_effect_name": "", "tone_second_category_id": "", "tone_second_category_name": "", "tone_speaker": "", "tone_type": "", "type": "extract_music", "video_id": "", "wave_points": [], "duration": 2208000, "id": "35A603E7-8D78-0712-340F-AD03D4B9C2E6", "name": "154.mp3", "path": "//wsl.localhost/Ubuntu/home/juki/github/cuddly-journey/output/154.mp3"}, {"app_id": 0, "category_id": "", "category_name": "local", "check_flag": 1, "effect_id": "", "formula_id": "", "intensifies_path": "", "is_ai_clone_tone": false, "is_ugc": false, "query": "", "request_id": "", "resource_id": "", "search_id": "", "source_platform": 0, "team_id": "", "text_id": "", "tone_category_id": "", "tone_category_name": "", "tone_effect_id": "", "tone_effect_name": "", "tone_second_category_id": "", "tone_second_category_name": "", "tone_speaker": "", "tone_type": "", "type": "extract_music", "video_id": "", "wave_points": [], "duration": 2976000, "id": "DE97B0A7-C13D-765E-6BC6-63820CC9EA8B", "name": "331.mp3", "path": "//wsl.localhost/Ubuntu/home/juki/github/cuddly-journey/output/331.mp3"}, {"app_id": 0, "category_id": "", "category_name": "local", "check_flag": 1, "effect_id": "", "formula_id": "", "intensifies_path": "", "is_ai_clone_tone": false, "is_ugc": false, "query": "", "request_id": "", "resource_id": "", "search_id": "", "source_platform": 0, "team_id": "", "text_id": "", "tone_category_id": "", "tone_category_name": "", "tone_effect_id": "", "tone_effect_name": "", "tone_second_category_id": "", "tone_second_category_name": "", "tone_speaker": "", "tone_type": "", "type": "extract_music", "video_id": "", "wave_points": [], "duration": 2304000, "id": "79DEF2C1-85CE-8DE3-D7E0-ECA412244296", "name": "372.mp3", "path": "//wsl.localhost/Ubuntu/home/juki/github/cuddly-journey/output/372.mp3"}, {"app_id": 0, "category_id": "", "category_name": "local", "check_flag": 1, "effect_id": "", "formula_id": "", "intensifies_path": "", "is_ai_clone_tone": false, "is_ugc": false, "query": "", "request_id": "", "resource_id": "", "search_id": "", "source_platform": 0, "team_id": "", "text_id": "", "tone_category_id": "", "tone_category_name": "", "tone_effect_id": "", "tone_effect_name": "", "tone_second_category_id": "", "tone_second_category_name": "", "tone_speaker": "", "tone_type": "", "type": "extract_music", "video_id": "", "wave_points": [], "duration": 2448000, "id": "470A0AE6-917E-0BDE-1168-96AFCB66499D", "name": "223.mp3", "path": "//wsl.localhost/Ubuntu/home/juki/github/cuddly-journey/output/223.mp3"}, {"app_id": 0, "category_id": "", "category_name": "local", "check_flag": 1, "effect_id": "", "formula_id": "", "intensifies_path": "", "is_ai_clone_tone": false, "is_ugc": false, "query": "", "request_id": "", "resource_id": "", "search_id": "", "source_platform": 0, "team_id": "", "text_id": "", "tone_category_id": "", "tone_category_name": "", "tone_effect_id": "", "tone_effect_name": "", "tone_second_category_id": "", "tone_second_category_name": "", "tone_speaker": "", "tone_type": "", "type": "extract_music", "video_id": "", "wave_points": [], "duration": 3096000, "id": "721BCB57-B2C0-F1E6-8BA5-84042C4D8540", "name": "8.mp3", "path": "//wsl.localhost/Ubuntu/home/juki/github/cuddly-journey/output/8.mp3"}, {"app_id": 0, "category_id": "", "category_name": "local", "check_flag": 1, "effect_id": "", "formula_id": "", "intensifies_path": "", "is_ai_clone_tone": false, "is_ugc": false, "query": "", "request_id": "", "resource_id": "", "search_id": "", "source_platform": 0, "team_id": "", "text_id": "", "tone_category_id": "", "tone_category_name": "", "tone_effect_id": "", "tone_effect_name": "", "tone_second_category_id": "", "tone_second_category_name": "", "tone_speaker": "", "tone_type": "", "type": "extract_music", "video_id": "", "wave_points": [], "duration": 2712000, "id": "6C1627C6-3CD5-9AEC-F62F-5B66E9219164", "name": "86.mp3", "path": "//wsl.localhost/Ubuntu/home/juki/github/cuddly-journey/output/86.mp3"}, {"app_id": 0, "category_id": "", "category_name": "local", "check_flag": 1, "effect_id": "", "formula_id": "", "intensifies_path": "", "is_ai_clone_tone": false, "is_ugc": false, "query": "", "request_id": "", "resource_id": "", "search_id": "", "source_platform": 0, "team_id": "", "text_id": "", "tone_category_id": "", "tone_category_name": "", "tone_effect_id": "", "tone_effect_name": "", "tone_second_category_id": "", "tone_second_category_name": "", "tone_speaker": "", "tone_type": "", "type": "extract_music", "video_id": "", "wave_points": [], "duration": 2328000, "id": "8D18DB1A-DDEF-E81E-11B9-C144A2DEF216", "name": "144.mp3", "path": "//wsl.localhost/Ubuntu/home/juki/github/cuddly-journey/output/144.mp3"}, {"app_id": 0, "category_id": "", "category_name": "local", "check_flag": 1, "effect_id": "", "formula_id": "", "intensifies_path": "", "is_ai_clone_tone": false, "is_ugc": false, "query": "", "request_id": "", "resource_id": "", "search_id": "", "source_platform": 0, "team_id": "", "text_id": "", "tone_category_id": "", "tone_category_name": "", "tone_effect_id": "", "tone_effect_name": "", "tone_second_category_id": "", "tone_second_category_name": "", "tone_speaker": "", "tone_type": "", "type": "extract_music", "video_id": "", "wave_points": [], "duration": 2976000, "id": "33E75866-AF91-8EB9-E138-2E929667C09D", "name": "269.mp3", "path": "//wsl.localhost/Ubuntu/home/juki/github/cuddly-journey/output/269.mp3"}, {"app_id": 0, "category_id": "", "category_name": "local", "check_flag": 1, "effect_id": "", "formula_id": "", "intensifies_path": "", "is_ai_clone_tone": false, "is_ugc": false, "query": "", "request_id": "", "resource_id": "", "search_id": "", "source_platform": 0, "team_id": "", "text_id": "", "tone_category_id": "", "tone_category_name": "", "tone_effect_id": "", "tone_effect_name": "", "tone_second_category_id": "", "tone_second_category_name": "", "tone_speaker": "", "tone_type": "", "type": "extract_music", "video_id": "", "wave_points": [], "duration": 3672000, "id": "3BC71BE4-1EFE-2381-3FE0-FD7C58691FC1", "name": "72.mp3", "path": "//wsl.localhost/Ubuntu/home/juki/github/cuddly-journey/output/72.mp3"}, {"app_id": 0, "category_id": "", "category_name": "local", "check_flag": 1, "effect_id": "", "formula_id": "", "intensifies_path": "", "is_ai_clone_tone": false, "is_ugc": false, "query": "", "request_id": "", "resource_id": "", "search_id": "", "source_platform": 0, "team_id": "", "text_id": "", "tone_category_id": "", "tone_category_name": "", "tone_effect_id": "", "tone_effect_name": "", "tone_second_category_id": "", "tone_second_category_name": "", "tone_speaker": "", "tone_type": "", "type": "extract_music", "video_id": "", "wave_points": [], "duration": 2520000, "id": "72C08DC1-3F18-04CA-2C21-14F1BBCC9C6F", "name": "164.mp3", "path": "//wsl.localhost/Ubuntu/home/juki/github/cuddly-journey/output/164.mp3"}, {"app_id": 0, "category_id": "", "category_name": "local", "check_flag": 1, "effect_id": "", "formula_id": "", "intensifies_path": "", "is_ai_clone_tone": false, "is_ugc": false, "query": "", "request_id": "", "resource_id": "", "search_id": "", "source_platform": 0, "team_id": "", "text_id": "", "tone_category_id": "", "tone_category_name": "", "tone_effect_id": "", "tone_effect_name": "", "tone_second_category_id": "", "tone_second_category_name": "", "tone_speaker": "", "tone_type": "", "type": "extract_music", "video_id": "", "wave_points": [], "duration": 1896000, "id": "AB4A65AB-013C-D386-3173-9B9835D05BCE", "name": "182.mp3", "path": "//wsl.localhost/Ubuntu/home/juki/github/cuddly-journey/output/182.mp3"}, {"app_id": 0, "category_id": "", "category_name": "local", "check_flag": 1, "effect_id": "", "formula_id": "", "intensifies_path": "", "is_ai_clone_tone": false, "is_ugc": false, "query": "", "request_id": "", "resource_id": "", "search_id": "", "source_platform": 0, "team_id": "", "text_id": "", "tone_category_id": "", "tone_category_name": "", "tone_effect_id": "", "tone_effect_name": "", "tone_second_category_id": "", "tone_second_category_name": "", "tone_speaker": "", "tone_type": "", "type": "extract_music", "video_id": "", "wave_points": [], "duration": 1392000, "id": "57F51063-9FF6-CB7C-6A73-83B3DD99C803", "name": "27.mp3", "path": "//wsl.localhost/Ubuntu/home/juki/github/cuddly-journey/output/27.mp3"}, {"app_id": 0, "category_id": "", "category_name": "local", "check_flag": 1, "effect_id": "", "formula_id": "", "intensifies_path": "", "is_ai_clone_tone": false, "is_ugc": false, "query": "", "request_id": "", "resource_id": "", "search_id": "", "source_platform": 0, "team_id": "", "text_id": "", "tone_category_id": "", "tone_category_name": "", "tone_effect_id": "", "tone_effect_name": "", "tone_second_category_id": "", "tone_second_category_name": "", "tone_speaker": "", "tone_type": "", "type": "extract_music", "video_id": "", "wave_points": [], "duration": 1584000, "id": "A9D8CD41-9A72-C49D-2E8D-2B97318D4FDB", "name": "314.mp3", "path": "//wsl.localhost/Ubuntu/home/juki/github/cuddly-journey/output/314.mp3"}, {"app_id": 0, "category_id": "", "category_name": "local", "check_flag": 1, "effect_id": "", "formula_id": "", "intensifies_path": "", "is_ai_clone_tone": false, "is_ugc": false, "query": "", "request_id": "", "resource_id": "", "search_id": "", "source_platform": 0, "team_id": "", "text_id": "", "tone_category_id": "", "tone_category_name": "", "tone_effect_id": "", "tone_effect_name": "", "tone_second_category_id": "", "tone_second_category_name": "", "tone_speaker": "", "tone_type": "", "type": "extract_music", "video_id": "", "wave_points": [], "duration": 4464000, "id": "58DF6878-7620-59AF-8CDE-A09A8DF88F16", "name": "74.mp3", "path": "//wsl.localhost/Ubuntu/home/juki/github/cuddly-journey/output/74.mp3"}, {"app_id": 0, "category_id": "", "category_name": "local", "check_flag": 1, "effect_id": "", "formula_id": "", "intensifies_path": "", "is_ai_clone_tone": false, "is_ugc": false, "query": "", "request_id": "", "resource_id": "", "search_id": "", "source_platform": 0, "team_id": "", "text_id": "", "tone_category_id": "", "tone_category_name": "", "tone_effect_id": "", "tone_effect_name": "", "tone_second_category_id": "", "tone_second_category_name": "", "tone_speaker": "", "tone_type": "", "type": "extract_music", "video_id": "", "wave_points": [], "duration": 2376000, "id": "368086C8-F979-DEEC-2AB6-7DC3B07480D7", "name": "255.mp3", "path": "//wsl.localhost/Ubuntu/home/juki/github/cuddly-journey/output/255.mp3"}, {"app_id": 0, "category_id": "", "category_name": "local", "check_flag": 1, "effect_id": "", "formula_id": "", "intensifies_path": "", "is_ai_clone_tone": false, "is_ugc": false, "query": "", "request_id": "", "resource_id": "", "search_id": "", "source_platform": 0, "team_id": "", "text_id": "", "tone_category_id": "", "tone_category_name": "", "tone_effect_id": "", "tone_effect_name": "", "tone_second_category_id": "", "tone_second_category_name": "", "tone_speaker": "", "tone_type": "", "type": "extract_music", "video_id": "", "wave_points": [], "duration": 3744000, "id": "17333432-ADDC-EDC5-144E-0159FCF26934", "name": "248.mp3", "path": "//wsl.localhost/Ubuntu/home/juki/github/cuddly-journey/output/248.mp3"}, {"app_id": 0, "category_id": "", "category_name": "local", "check_flag": 1, "effect_id": "", "formula_id": "", "intensifies_path": "", "is_ai_clone_tone": false, "is_ugc": false, "query": "", "request_id": "", "resource_id": "", "search_id": "", "source_platform": 0, "team_id": "", "text_id": "", "tone_category_id": "", "tone_category_name": "", "tone_effect_id": "", "tone_effect_name": "", "tone_second_category_id": "", "tone_second_category_name": "", "tone_speaker": "", "tone_type": "", "type": "extract_music", "video_id": "", "wave_points": [], "duration": 2712000, "id": "50BB3E4D-4BAD-4A3F-E665-FA778B304D81", "name": "21.mp3", "path": "//wsl.localhost/Ubuntu/home/juki/github/cuddly-journey/output/21.mp3"}, {"app_id": 0, "category_id": "", "category_name": "local", "check_flag": 1, "effect_id": "", "formula_id": "", "intensifies_path": "", "is_ai_clone_tone": false, "is_ugc": false, "query": "", "request_id": "", "resource_id": "", "search_id": "", "source_platform": 0, "team_id": "", "text_id": "", "tone_category_id": "", "tone_category_name": "", "tone_effect_id": "", "tone_effect_name": "", "tone_second_category_id": "", "tone_second_category_name": "", "tone_speaker": "", "tone_type": "", "type": "extract_music", "video_id": "", "wave_points": [], "duration": 2520000, "id": "118E78B1-CBFC-0940-9BE8-D6A067E69EEF", "name": "347.mp3", "path": "//wsl.localhost/Ubuntu/home/juki/github/cuddly-journey/output/347.mp3"}, {"app_id": 0, "category_id": "", "category_name": "local", "check_flag": 1, "effect_id": "", "formula_id": "", "intensifies_path": "", "is_ai_clone_tone": false, "is_ugc": false, "query": "", "request_id": "", "resource_id": "", "search_id": "", "source_platform": 0, "team_id": "", "text_id": "", "tone_category_id": "", "tone_category_name": "", "tone_effect_id": "", "tone_effect_name": "", "tone_second_category_id": "", "tone_second_category_name": "", "tone_speaker": "", "tone_type": "", "type": "extract_music", "video_id": "", "wave_points": [], "duration": 4584000, "id": "10B0924D-3AEB-018F-6C39-A757B9D924BF", "name": "356.mp3", "path": "//wsl.localhost/Ubuntu/home/juki/github/cuddly-journey/output/356.mp3"}, {"app_id": 0, "category_id": "", "category_name": "local", "check_flag": 1, "effect_id": "", "formula_id": "", "intensifies_path": "", "is_ai_clone_tone": false, "is_ugc": false, "query": "", "request_id": "", "resource_id": "", "search_id": "", "source_platform": 0, "team_id": "", "text_id": "", "tone_category_id": "", "tone_category_name": "", "tone_effect_id": "", "tone_effect_name": "", "tone_second_category_id": "", "tone_second_category_name": "", "tone_speaker": "", "tone_type": "", "type": "extract_music", "video_id": "", "wave_points": [], "duration": 3432000, "id": "D9DB0CCF-7823-3708-6684-BFEFC14D109D", "name": "354.mp3", "path": "//wsl.localhost/Ubuntu/home/juki/github/cuddly-journey/output/354.mp3"}, {"app_id": 0, "category_id": "", "category_name": "local", "check_flag": 1, "effect_id": "", "formula_id": "", "intensifies_path": "", "is_ai_clone_tone": false, "is_ugc": false, "query": "", "request_id": "", "resource_id": "", "search_id": "", "source_platform": 0, "team_id": "", "text_id": "", "tone_category_id": "", "tone_category_name": "", "tone_effect_id": "", "tone_effect_name": "", "tone_second_category_id": "", "tone_second_category_name": "", "tone_speaker": "", "tone_type": "", "type": "extract_music", "video_id": "", "wave_points": [], "duration": 1536000, "id": "79783F72-2A7A-BA7F-F588-6C2C90FA5E4C", "name": "262.mp3", "path": "//wsl.localhost/Ubuntu/home/juki/github/cuddly-journey/output/262.mp3"}, {"app_id": 0, "category_id": "", "category_name": "local", "check_flag": 1, "effect_id": "", "formula_id": "", "intensifies_path": "", "is_ai_clone_tone": false, "is_ugc": false, "query": "", "request_id": "", "resource_id": "", "search_id": "", "source_platform": 0, "team_id": "", "text_id": "", "tone_category_id": "", "tone_category_name": "", "tone_effect_id": "", "tone_effect_name": "", "tone_second_category_id": "", "tone_second_category_name": "", "tone_speaker": "", "tone_type": "", "type": "extract_music", "video_id": "", "wave_points": [], "duration": 3096000, "id": "4ED7F1ED-2FE5-BD2E-F9AF-210FDA0DD222", "name": "38.mp3", "path": "//wsl.localhost/Ubuntu/home/juki/github/cuddly-journey/output/38.mp3"}, {"app_id": 0, "category_id": "", "category_name": "local", "check_flag": 1, "effect_id": "", "formula_id": "", "intensifies_path": "", "is_ai_clone_tone": false, "is_ugc": false, "query": "", "request_id": "", "resource_id": "", "search_id": "", "source_platform": 0, "team_id": "", "text_id": "", "tone_category_id": "", "tone_category_name": "", "tone_effect_id": "", "tone_effect_name": "", "tone_second_category_id": "", "tone_second_category_name": "", "tone_speaker": "", "tone_type": "", "type": "extract_music", "video_id": "", "wave_points": [], "duration": 1320000, "id": "D6034C4F-0BAD-315D-E8CC-4ED2E4042BE3", "name": "170.mp3", "path": "//wsl.localhost/Ubuntu/home/juki/github/cuddly-journey/output/170.mp3"}, {"app_id": 0, "category_id": "", "category_name": "local", "check_flag": 1, "effect_id": "", "formula_id": "", "intensifies_path": "", "is_ai_clone_tone": false, "is_ugc": false, "query": "", "request_id": "", "resource_id": "", "search_id": "", "source_platform": 0, "team_id": "", "text_id": "", "tone_category_id": "", "tone_category_name": "", "tone_effect_id": "", "tone_effect_name": "", "tone_second_category_id": "", "tone_second_category_name": "", "tone_speaker": "", "tone_type": "", "type": "extract_music", "video_id": "", "wave_points": [], "duration": 2520000, "id": "F4AF3188-25D0-E78A-E9B4-7E08D83DF168", "name": "114.mp3", "path": "//wsl.localhost/Ubuntu/home/juki/github/cuddly-journey/output/114.mp3"}, {"app_id": 0, "category_id": "", "category_name": "local", "check_flag": 1, "effect_id": "", "formula_id": "", "intensifies_path": "", "is_ai_clone_tone": false, "is_ugc": false, "query": "", "request_id": "", "resource_id": "", "search_id": "", "source_platform": 0, "team_id": "", "text_id": "", "tone_category_id": "", "tone_category_name": "", "tone_effect_id": "", "tone_effect_name": "", "tone_second_category_id": "", "tone_second_category_name": "", "tone_speaker": "", "tone_type": "", "type": "extract_music", "video_id": "", "wave_points": [], "duration": 1248000, "id": "7A491836-EB37-3C5E-F2A2-BDCAC85CA1CA", "name": "73.mp3", "path": "//wsl.localhost/Ubuntu/home/juki/github/cuddly-journey/output/73.mp3"}, {"app_id": 0, "category_id": "", "category_name": "local", "check_flag": 1, "effect_id": "", "formula_id": "", "intensifies_path": "", "is_ai_clone_tone": false, "is_ugc": false, "query": "", "request_id": "", "resource_id": "", "search_id": "", "source_platform": 0, "team_id": "", "text_id": "", "tone_category_id": "", "tone_category_name": "", "tone_effect_id": "", "tone_effect_name": "", "tone_second_category_id": "", "tone_second_category_name": "", "tone_speaker": "", "tone_type": "", "type": "extract_music", "video_id": "", "wave_points": [], "duration": 3888000, "id": "22910A45-7E40-2976-6427-095C23BC21D7", "name": "157.mp3", "path": "//wsl.localhost/Ubuntu/home/juki/github/cuddly-journey/output/157.mp3"}, {"app_id": 0, "category_id": "", "category_name": "local", "check_flag": 1, "effect_id": "", "formula_id": "", "intensifies_path": "", "is_ai_clone_tone": false, "is_ugc": false, "query": "", "request_id": "", "resource_id": "", "search_id": "", "source_platform": 0, "team_id": "", "text_id": "", "tone_category_id": "", "tone_category_name": "", "tone_effect_id": "", "tone_effect_name": "", "tone_second_category_id": "", "tone_second_category_name": "", "tone_speaker": "", "tone_type": "", "type": "extract_music", "video_id": "", "wave_points": [], "duration": 4872000, "id": "702E088C-4165-0587-93C9-D76006ACFBA5", "name": "355.mp3", "path": "//wsl.localhost/Ubuntu/home/juki/github/cuddly-journey/output/355.mp3"}, {"app_id": 0, "category_id": "", "category_name": "local", "check_flag": 1, "effect_id": "", "formula_id": "", "intensifies_path": "", "is_ai_clone_tone": false, "is_ugc": false, "query": "", "request_id": "", "resource_id": "", "search_id": "", "source_platform": 0, "team_id": "", "text_id": "", "tone_category_id": "", "tone_category_name": "", "tone_effect_id": "", "tone_effect_name": "", "tone_second_category_id": "", "tone_second_category_name": "", "tone_speaker": "", "tone_type": "", "type": "extract_music", "video_id": "", "wave_points": [], "duration": 1248000, "id": "C5ACF29F-8642-A9CB-29B0-FD25A73198FB", "name": "180.mp3", "path": "//wsl.localhost/Ubuntu/home/juki/github/cuddly-journey/output/180.mp3"}, {"app_id": 0, "category_id": "", "category_name": "local", "check_flag": 1, "effect_id": "", "formula_id": "", "intensifies_path": "", "is_ai_clone_tone": false, "is_ugc": false, "query": "", "request_id": "", "resource_id": "", "search_id": "", "source_platform": 0, "team_id": "", "text_id": "", "tone_category_id": "", "tone_category_name": "", "tone_effect_id": "", "tone_effect_name": "", "tone_second_category_id": "", "tone_second_category_name": "", "tone_speaker": "", "tone_type": "", "type": "extract_music", "video_id": "", "wave_points": [], "duration": 3000000, "id": "77F73062-D223-1F34-FDFE-B6F655203F4D", "name": "118.mp3", "path": "//wsl.localhost/Ubuntu/home/juki/github/cuddly-journey/output/118.mp3"}, {"app_id": 0, "category_id": "", "category_name": "local", "check_flag": 1, "effect_id": "", "formula_id": "", "intensifies_path": "", "is_ai_clone_tone": false, "is_ugc": false, "query": "", "request_id": "", "resource_id": "", "search_id": "", "source_platform": 0, "team_id": "", "text_id": "", "tone_category_id": "", "tone_category_name": "", "tone_effect_id": "", "tone_effect_name": "", "tone_second_category_id": "", "tone_second_category_name": "", "tone_speaker": "", "tone_type": "", "type": "extract_music", "video_id": "", "wave_points": [], "duration": 3480000, "id": "B038A9E2-B64C-1EC1-DCFD-90AEBD667871", "name": "358.mp3", "path": "//wsl.localhost/Ubuntu/home/juki/github/cuddly-journey/output/358.mp3"}, {"app_id": 0, "category_id": "", "category_name": "local", "check_flag": 1, "effect_id": "", "formula_id": "", "intensifies_path": "", "is_ai_clone_tone": false, "is_ugc": false, "query": "", "request_id": "", "resource_id": "", "search_id": "", "source_platform": 0, "team_id": "", "text_id": "", "tone_category_id": "", "tone_category_name": "", "tone_effect_id": "", "tone_effect_name": "", "tone_second_category_id": "", "tone_second_category_name": "", "tone_speaker": "", "tone_type": "", "type": "extract_music", "video_id": "", "wave_points": [], "duration": 2496000, "id": "BD4900AA-592F-4C18-0810-11374F47CCA8", "name": "153.mp3", "path": "//wsl.localhost/Ubuntu/home/juki/github/cuddly-journey/output/153.mp3"}, {"app_id": 0, "category_id": "", "category_name": "local", "check_flag": 1, "effect_id": "", "formula_id": "", "intensifies_path": "", "is_ai_clone_tone": false, "is_ugc": false, "query": "", "request_id": "", "resource_id": "", "search_id": "", "source_platform": 0, "team_id": "", "text_id": "", "tone_category_id": "", "tone_category_name": "", "tone_effect_id": "", "tone_effect_name": "", "tone_second_category_id": "", "tone_second_category_name": "", "tone_speaker": "", "tone_type": "", "type": "extract_music", "video_id": "", "wave_points": [], "duration": 3744000, "id": "E925BEF8-6666-17E2-2FF7-FE4F5F34327A", "name": "271.mp3", "path": "//wsl.localhost/Ubuntu/home/juki/github/cuddly-journey/output/271.mp3"}, {"app_id": 0, "category_id": "", "category_name": "local", "check_flag": 1, "effect_id": "", "formula_id": "", "intensifies_path": "", "is_ai_clone_tone": false, "is_ugc": false, "query": "", "request_id": "", "resource_id": "", "search_id": "", "source_platform": 0, "team_id": "", "text_id": "", "tone_category_id": "", "tone_category_name": "", "tone_effect_id": "", "tone_effect_name": "", "tone_second_category_id": "", "tone_second_category_name": "", "tone_speaker": "", "tone_type": "", "type": "extract_music", "video_id": "", "wave_points": [], "duration": 1248000, "id": "7ED164D5-D8EA-D820-DAB6-AC9E83D05EF6", "name": "51.mp3", "path": "//wsl.localhost/Ubuntu/home/juki/github/cuddly-journey/output/51.mp3"}, {"app_id": 0, "category_id": "", "category_name": "local", "check_flag": 1, "effect_id": "", "formula_id": "", "intensifies_path": "", "is_ai_clone_tone": false, "is_ugc": false, "query": "", "request_id": "", "resource_id": "", "search_id": "", "source_platform": 0, "team_id": "", "text_id": "", "tone_category_id": "", "tone_category_name": "", "tone_effect_id": "", "tone_effect_name": "", "tone_second_category_id": "", "tone_second_category_name": "", "tone_speaker": "", "tone_type": "", "type": "extract_music", "video_id": "", "wave_points": [], "duration": 5712000, "id": "BF81280E-B591-4797-0897-F8B2F4BBCD2E", "name": "78.mp3", "path": "//wsl.localhost/Ubuntu/home/juki/github/cuddly-journey/output/78.mp3"}, {"app_id": 0, "category_id": "", "category_name": "local", "check_flag": 1, "effect_id": "", "formula_id": "", "intensifies_path": "", "is_ai_clone_tone": false, "is_ugc": false, "query": "", "request_id": "", "resource_id": "", "search_id": "", "source_platform": 0, "team_id": "", "text_id": "", "tone_category_id": "", "tone_category_name": "", "tone_effect_id": "", "tone_effect_name": "", "tone_second_category_id": "", "tone_second_category_name": "", "tone_speaker": "", "tone_type": "", "type": "extract_music", "video_id": "", "wave_points": [], "duration": 4344000, "id": "B5E8B4F4-6C1F-C554-F3C7-C2098ACA3D59", "name": "189.mp3", "path": "//wsl.localhost/Ubuntu/home/juki/github/cuddly-journey/output/189.mp3"}, {"app_id": 0, "category_id": "", "category_name": "local", "check_flag": 1, "effect_id": "", "formula_id": "", "intensifies_path": "", "is_ai_clone_tone": false, "is_ugc": false, "query": "", "request_id": "", "resource_id": "", "search_id": "", "source_platform": 0, "team_id": "", "text_id": "", "tone_category_id": "", "tone_category_name": "", "tone_effect_id": "", "tone_effect_name": "", "tone_second_category_id": "", "tone_second_category_name": "", "tone_speaker": "", "tone_type": "", "type": "extract_music", "video_id": "", "wave_points": [], "duration": 2136000, "id": "71163DE7-FB36-ABC2-3145-7974E6C2E083", "name": "298.mp3", "path": "//wsl.localhost/Ubuntu/home/juki/github/cuddly-journey/output/298.mp3"}, {"app_id": 0, "category_id": "", "category_name": "local", "check_flag": 1, "effect_id": "", "formula_id": "", "intensifies_path": "", "is_ai_clone_tone": false, "is_ugc": false, "query": "", "request_id": "", "resource_id": "", "search_id": "", "source_platform": 0, "team_id": "", "text_id": "", "tone_category_id": "", "tone_category_name": "", "tone_effect_id": "", "tone_effect_name": "", "tone_second_category_id": "", "tone_second_category_name": "", "tone_speaker": "", "tone_type": "", "type": "extract_music", "video_id": "", "wave_points": [], "duration": 1680000, "id": "BD366924-C693-B425-4C28-FD56CCE78E82", "name": "16.mp3", "path": "//wsl.localhost/Ubuntu/home/juki/github/cuddly-journey/output/16.mp3"}, {"app_id": 0, "category_id": "", "category_name": "local", "check_flag": 1, "effect_id": "", "formula_id": "", "intensifies_path": "", "is_ai_clone_tone": false, "is_ugc": false, "query": "", "request_id": "", "resource_id": "", "search_id": "", "source_platform": 0, "team_id": "", "text_id": "", "tone_category_id": "", "tone_category_name": "", "tone_effect_id": "", "tone_effect_name": "", "tone_second_category_id": "", "tone_second_category_name": "", "tone_speaker": "", "tone_type": "", "type": "extract_music", "video_id": "", "wave_points": [], "duration": 4632000, "id": "B20DE3A5-E612-3EA2-A431-29F9ACA47A9F", "name": "140.mp3", "path": "//wsl.localhost/Ubuntu/home/juki/github/cuddly-journey/output/140.mp3"}, {"app_id": 0, "category_id": "", "category_name": "local", "check_flag": 1, "effect_id": "", "formula_id": "", "intensifies_path": "", "is_ai_clone_tone": false, "is_ugc": false, "query": "", "request_id": "", "resource_id": "", "search_id": "", "source_platform": 0, "team_id": "", "text_id": "", "tone_category_id": "", "tone_category_name": "", "tone_effect_id": "", "tone_effect_name": "", "tone_second_category_id": "", "tone_second_category_name": "", "tone_speaker": "", "tone_type": "", "type": "extract_music", "video_id": "", "wave_points": [], "duration": 2112000, "id": "F4D432D6-96E0-8F0D-0C76-58A4E74773C2", "name": "241.mp3", "path": "//wsl.localhost/Ubuntu/home/juki/github/cuddly-journey/output/241.mp3"}, {"app_id": 0, "category_id": "", "category_name": "local", "check_flag": 1, "effect_id": "", "formula_id": "", "intensifies_path": "", "is_ai_clone_tone": false, "is_ugc": false, "query": "", "request_id": "", "resource_id": "", "search_id": "", "source_platform": 0, "team_id": "", "text_id": "", "tone_category_id": "", "tone_category_name": "", "tone_effect_id": "", "tone_effect_name": "", "tone_second_category_id": "", "tone_second_category_name": "", "tone_speaker": "", "tone_type": "", "type": "extract_music", "video_id": "", "wave_points": [], "duration": 1488000, "id": "1073E7BE-55A7-F7A9-67D3-C4B86EFD8671", "name": "232.mp3", "path": "//wsl.localhost/Ubuntu/home/juki/github/cuddly-journey/output/232.mp3"}, {"app_id": 0, "category_id": "", "category_name": "local", "check_flag": 1, "effect_id": "", "formula_id": "", "intensifies_path": "", "is_ai_clone_tone": false, "is_ugc": false, "query": "", "request_id": "", "resource_id": "", "search_id": "", "source_platform": 0, "team_id": "", "text_id": "", "tone_category_id": "", "tone_category_name": "", "tone_effect_id": "", "tone_effect_name": "", "tone_second_category_id": "", "tone_second_category_name": "", "tone_speaker": "", "tone_type": "", "type": "extract_music", "video_id": "", "wave_points": [], "duration": 1392000, "id": "94356FE5-05EF-041B-8225-3786D2A7929C", "name": "152.mp3", "path": "//wsl.localhost/Ubuntu/home/juki/github/cuddly-journey/output/152.mp3"}, {"app_id": 0, "category_id": "", "category_name": "local", "check_flag": 1, "effect_id": "", "formula_id": "", "intensifies_path": "", "is_ai_clone_tone": false, "is_ugc": false, "query": "", "request_id": "", "resource_id": "", "search_id": "", "source_platform": 0, "team_id": "", "text_id": "", "tone_category_id": "", "tone_category_name": "", "tone_effect_id": "", "tone_effect_name": "", "tone_second_category_id": "", "tone_second_category_name": "", "tone_speaker": "", "tone_type": "", "type": "extract_music", "video_id": "", "wave_points": [], "duration": 1872000, "id": "8EEF1A26-4128-7BCC-E6A8-7F48EC43E840", "name": "69.mp3", "path": "//wsl.localhost/Ubuntu/home/juki/github/cuddly-journey/output/69.mp3"}, {"app_id": 0, "category_id": "", "category_name": "local", "check_flag": 1, "effect_id": "", "formula_id": "", "intensifies_path": "", "is_ai_clone_tone": false, "is_ugc": false, "query": "", "request_id": "", "resource_id": "", "search_id": "", "source_platform": 0, "team_id": "", "text_id": "", "tone_category_id": "", "tone_category_name": "", "tone_effect_id": "", "tone_effect_name": "", "tone_second_category_id": "", "tone_second_category_name": "", "tone_speaker": "", "tone_type": "", "type": "extract_music", "video_id": "", "wave_points": [], "duration": 3216000, "id": "4E159FB5-749C-20C5-77AB-44003BD490A1", "name": "104.mp3", "path": "//wsl.localhost/Ubuntu/home/juki/github/cuddly-journey/output/104.mp3"}, {"app_id": 0, "category_id": "", "category_name": "local", "check_flag": 1, "effect_id": "", "formula_id": "", "intensifies_path": "", "is_ai_clone_tone": false, "is_ugc": false, "query": "", "request_id": "", "resource_id": "", "search_id": "", "source_platform": 0, "team_id": "", "text_id": "", "tone_category_id": "", "tone_category_name": "", "tone_effect_id": "", "tone_effect_name": "", "tone_second_category_id": "", "tone_second_category_name": "", "tone_speaker": "", "tone_type": "", "type": "extract_music", "video_id": "", "wave_points": [], "duration": 3744000, "id": "F2EDA060-7C22-1C0E-A378-4C455FD2883D", "name": "56.mp3", "path": "//wsl.localhost/Ubuntu/home/juki/github/cuddly-journey/output/56.mp3"}, {"app_id": 0, "category_id": "", "category_name": "local", "check_flag": 1, "effect_id": "", "formula_id": "", "intensifies_path": "", "is_ai_clone_tone": false, "is_ugc": false, "query": "", "request_id": "", "resource_id": "", "search_id": "", "source_platform": 0, "team_id": "", "text_id": "", "tone_category_id": "", "tone_category_name": "", "tone_effect_id": "", "tone_effect_name": "", "tone_second_category_id": "", "tone_second_category_name": "", "tone_speaker": "", "tone_type": "", "type": "extract_music", "video_id": "", "wave_points": [], "duration": 2808000, "id": "29CBFB9F-68C0-909A-9271-8D17158982A9", "name": "41.mp3", "path": "//wsl.localhost/Ubuntu/home/juki/github/cuddly-journey/output/41.mp3"}, {"app_id": 0, "category_id": "", "category_name": "local", "check_flag": 1, "effect_id": "", "formula_id": "", "intensifies_path": "", "is_ai_clone_tone": false, "is_ugc": false, "query": "", "request_id": "", "resource_id": "", "search_id": "", "source_platform": 0, "team_id": "", "text_id": "", "tone_category_id": "", "tone_category_name": "", "tone_effect_id": "", "tone_effect_name": "", "tone_second_category_id": "", "tone_second_category_name": "", "tone_speaker": "", "tone_type": "", "type": "extract_music", "video_id": "", "wave_points": [], "duration": 1632000, "id": "72755B02-A526-4EB1-C4E3-E92948CA6E3D", "name": "200.mp3", "path": "//wsl.localhost/Ubuntu/home/juki/github/cuddly-journey/output/200.mp3"}], "beats": [], "canvases": [{"album_image": "", "blur": 0.0, "color": "", "id": "4E984495-3977-40bf-BD71-65EF6220B1EF", "image": "", "image_id": "", "image_name": "", "source_platform": 0, "team_id": "", "type": "canvas_color"}], "chromas": [], "color_curves": [], "digital_humans": [], "drafts": [], "effects": [], "flowers": [], "green_screens": [], "handwrites": [], "hsl": [], "images": [], "log_color_wheels": [], "loudnesses": [], "manual_deformations": [], "masks": [], "material_animations": [], "material_colors": [], "placeholders": [], "plugin_effects": [], "primary_color_wheels": [], "realtime_denoises": [], "shapes": [], "smart_crops": [], "smart_relights": [], "sound_channel_mappings": [], "speeds": [], "stickers": [], "tail_leaders": [], "text_templates": [], "texts": [], "transitions": [], "video_effects": [], "video_trackings": [], "videos": [{"aigc_type": "none", "audio_fade": null, "cartoon_path": "", "category_id": "", "category_name": "local", "check_flag": 63487, "crop": {"lower_left_x": 0.0, "lower_left_y": 1.0, "lower_right_x": 1.0, "lower_right_y": 1.0, "upper_left_x": 0.0, "upper_left_y": 0.0, "upper_right_x": 1.0, "upper_right_y": 0.0}, "crop_ratio": "free", "crop_scale": 1.0, "duration": 1420000000, "extra_type_option": 0, "formula_id": "", "freeze": null, "gameplay": null, "has_audio": true, "height": 1080, "id": "1468A1D1-EC1D-4199-A387-7375A54E6AFE", "intensifies_audio_path": "", "intensifies_path": "", "is_ai_generate_content": false, "is_copyright": false, "is_unified_beauty_mode": false, "local_id": "", "local_material_id": "5a4024e0-c6e7-41f1-bee0-08bfe7bb965f", "material_id": "", "material_name": "solo-leveling-01.mkv", "material_url": "", "matting": {"flag": 0, "has_use_quick_brush": false, "has_use_quick_eraser": false, "interactiveTime": [], "path": "", "strokes": []}, "media_path": "", "object_locked": null, "origin_material_id": "", "path": "C:/Users/phucj/Downloads/solo-leveling-01.mkv", "picture_from": "none", "picture_set_category_id": "", "picture_set_category_name": "", "request_id": "", "reverse_intensifies_path": "", "reverse_path": "", "smart_motion": null, "source": 0, "source_platform": 0, "stable": {"matrix_path": "", "stable_level": 0, "time_range": {"duration": 0, "start": 0}}, "team_id": "", "type": "video", "video_algorithm": {"algorithms": [], "deflicker": null, "motion_blur_config": null, "noise_reduction": null, "path": "", "quality_enhance": null, "time_range": null}, "width": 1920, "name": "solo-leveling-01.mkv"}], "vocal_beautifys": [], "vocal_separations": []}, "mutable_config": null, "name": "", "new_version": "99.0.0", "platform": {"app_id": 359289, "app_source": "cc", "app_version": "3.2.0", "device_id": "4a567a4c527a02c88a73108dbbd5c405", "hard_disk_id": "14720abd58ddc4df6270f1486d88f4bc", "mac_address": "810a522ebfb81dfbca5ac07e6e2f2b25,119f4d8e397bd74d97089e91d2804547", "os": "windows", "os_version": "10.0.22621"}, "relationships": [], "render_index_track_mode_on": false, "retouch_cover": null, "source": "default", "static_cover_image_path": "", "tracks": [{"attribute": 0, "flag": 0, "id": "BC442AC5-E17C-4f00-BA9A-12994923288D", "is_default_name": true, "name": "", "segments": [{"cartoon": false, "clip": {"alpha": 1.0, "flip": {"horizontal": false, "vertical": false}, "rotation": 0.0, "scale": {"x": 1.0, "y": 1.0}, "transform": {"x": 0.0, "y": 0.0}}, "common_keyframes": [], "enable_adjust": true, "enable_color_curves": true, "enable_color_match_adjust": false, "enable_color_wheels": true, "enable_lut": true, "enable_smart_color_adjust": false, "extra_material_refs": ["835E173A-5C3B-496f-B302-497A9B9CC8BF", "4E984495-3977-40bf-BD71-65EF6220B1EF", "548544AD-766D-4055-A40E-DF4F2B616FAA", "F70F7D87-5137-432f-AD0C-37A3CF3FB437"], "group_id": "", "hdr_settings": {"intensity": 1.0, "mode": 1, "nits": 1000}, "id": "DEC15129-0048-4b28-8495-4F5B2C8D0152", "intensifies_audio": false, "is_placeholder": false, "is_tone_modify": false, "keyframe_refs": [], "last_nonzero_volume": 1.0, "material_id": "1468A1D1-EC1D-4199-A387-7375A54E6AFE", "render_index": 0, "responsive_layout": {"enable": false, "horizontal_pos_layout": 0, "size_layout": 0, "target_follow": "", "vertical_pos_layout": 0}, "reverse": false, "source_timerange": {"duration": 1420000000, "start": 0}, "speed": 1.0, "target_timerange": {"duration": 1420000000, "start": 0}, "template_id": "", "template_scene": "default", "track_attribute": 0, "track_render_index": 0, "uniform_scale": {"on": true, "value": 1.0}, "visible": true, "volume": 0.2818382978439331}], "type": "video"}, {"attribute": 0, "flag": 0, "id": "ACBFCF0F-302C-4773-AF6B-0A8FA3AF76B0", "is_default_name": true, "name": "", "segments": [{"cartoon": false, "clip": "null", "common_keyframes": [], "enable_adjust": false, "enable_color_curves": true, "enable_color_match_adjust": false, "enable_color_wheels": true, "enable_lut": false, "enable_smart_color_adjust": false, "group_id": "", "hdr_settings": "null", "intensifies_audio": false, "is_placeholder": false, "is_tone_modify": false, "keyframe_refs": [], "last_nonzero_volume": 1.0, "render_index": 0, "reverse": false, "speed": 1.0, "template_id": "", "template_scene": "default", "track_attribute": 0, "track_render_index": 0, "uniform_scale": "null", "visible": true, "responsive_layout": {"enable": false, "horizontal_pos_layout": 0, "size_layout": 0, "target_follow": "", "vertical_pos_layout": 0}, "id": "1E9DEC89-E682-BBEA-C61E-BD5778590A68", "material_id": "3A300143-519B-6B34-CAFE-9571A7B96FDA", "source_timerange": {"duration": 3648000, "start": 0}, "target_timerange": {"duration": 3648000, "start": 10406000}, "volume": 1.0}, {"cartoon": false, "clip": "null", "common_keyframes": [], "enable_adjust": false, "enable_color_curves": true, "enable_color_match_adjust": false, "enable_color_wheels": true, "enable_lut": false, "enable_smart_color_adjust": false, "group_id": "", "hdr_settings": "null", "intensifies_audio": false, "is_placeholder": false, "is_tone_modify": false, "keyframe_refs": [], "last_nonzero_volume": 1.0, "render_index": 0, "reverse": false, "speed": 1.0, "template_id": "", "template_scene": "default", "track_attribute": 0, "track_render_index": 0, "uniform_scale": "null", "visible": true, "responsive_layout": {"enable": false, "horizontal_pos_layout": 0, "size_layout": 0, "target_follow": "", "vertical_pos_layout": 0}, "id": "AC88890A-412D-402D-97C0-A89DB2867D39", "material_id": "B0197408-8FFF-2266-B496-CAFE22287D11", "source_timerange": {"duration": 4104000, "start": 0}, "target_timerange": {"duration": 4104000, "start": 15202000}, "volume": 1.0}, {"cartoon": false, "clip": "null", "common_keyframes": [], "enable_adjust": false, "enable_color_curves": true, "enable_color_match_adjust": false, "enable_color_wheels": true, "enable_lut": false, "enable_smart_color_adjust": false, "group_id": "", "hdr_settings": "null", "intensifies_audio": false, "is_placeholder": false, "is_tone_modify": false, "keyframe_refs": [], "last_nonzero_volume": 1.0, "render_index": 0, "reverse": false, "speed": 1.0, "template_id": "", "template_scene": "default", "track_attribute": 0, "track_render_index": 0, "uniform_scale": "null", "visible": true, "responsive_layout": {"enable": false, "horizontal_pos_layout": 0, "size_layout": 0, "target_follow": "", "vertical_pos_layout": 0}, "id": "B076B7F5-CF53-BCE9-AF76-BD241B60ED32", "material_id": "7854FD5E-80CF-EFC7-AFB5-30548D6EE29B", "source_timerange": {"duration": 2064000, "start": 0}, "target_timerange": {"duration": 2064000, "start": 23878000}, "volume": 1.0}, {"cartoon": false, "clip": "null", "common_keyframes": [], "enable_adjust": false, "enable_color_curves": true, "enable_color_match_adjust": false, "enable_color_wheels": true, "enable_lut": false, "enable_smart_color_adjust": false, "group_id": "", "hdr_settings": "null", "intensifies_audio": false, "is_placeholder": false, "is_tone_modify": false, "keyframe_refs": [], "last_nonzero_volume": 1.0, "render_index": 0, "reverse": false, "speed": 1.0, "template_id": "", "template_scene": "default", "track_attribute": 0, "track_render_index": 0, "uniform_scale": "null", "visible": true, "responsive_layout": {"enable": false, "horizontal_pos_layout": 0, "size_layout": 0, "target_follow": "", "vertical_pos_layout": 0}, "id": "B9ED70FF-183C-AF29-7303-D47AACFB3028", "material_id": "AA1F6B42-B0AA-3B7D-2F73-0B25F8933DB3", "source_timerange": {"duration": 3744000, "start": 0}, "target_timerange": {"duration": 3744000, "start": 43856000}, "volume": 1.0}, {"cartoon": false, "clip": "null", "common_keyframes": [], "enable_adjust": false, "enable_color_curves": true, "enable_color_match_adjust": false, "enable_color_wheels": true, "enable_lut": false, "enable_smart_color_adjust": false, "group_id": "", "hdr_settings": "null", "intensifies_audio": false, "is_placeholder": false, "is_tone_modify": false, "keyframe_refs": [], "last_nonzero_volume": 1.0, "render_index": 0, "reverse": false, "speed": 1.0, "template_id": "", "template_scene": "default", "track_attribute": 0, "track_render_index": 0, "uniform_scale": "null", "visible": true, "responsive_layout": {"enable": false, "horizontal_pos_layout": 0, "size_layout": 0, "target_follow": "", "vertical_pos_layout": 0}, "id": "D09A7015-FC05-BA33-FD35-4C534061B47D", "material_id": "721BCB57-B2C0-F1E6-8BA5-84042C4D8540", "source_timerange": {"duration": 3096000, "start": 0}, "target_timerange": {"duration": 3096000, "start": 64751000}, "volume": 1.0}, {"cartoon": false, "clip": "null", "common_keyframes": [], "enable_adjust": false, "enable_color_curves": true, "enable_color_match_adjust": false, "enable_color_wheels": true, "enable_lut": false, "enable_smart_color_adjust": false, "group_id": "", "hdr_settings": "null", "intensifies_audio": false, "is_placeholder": false, "is_tone_modify": false, "keyframe_refs": [], "last_nonzero_volume": 1.0, "render_index": 0, "reverse": false, "speed": 1.0, "template_id": "", "template_scene": "default", "track_attribute": 0, "track_render_index": 0, "uniform_scale": "null", "visible": true, "responsive_layout": {"enable": false, "horizontal_pos_layout": 0, "size_layout": 0, "target_follow": "", "vertical_pos_layout": 0}, "id": "A28118EC-06AA-2E1C-C0F8-DBA2518ECAA2", "material_id": "83204201-8A22-BD16-022A-D3EBEABBD80C", "source_timerange": {"duration": 1776000, "start": 0}, "target_timerange": {"duration": 1776000, "start": 83186000}, "volume": 1.0}, {"cartoon": false, "clip": "null", "common_keyframes": [], "enable_adjust": false, "enable_color_curves": true, "enable_color_match_adjust": false, "enable_color_wheels": true, "enable_lut": false, "enable_smart_color_adjust": false, "group_id": "", "hdr_settings": "null", "intensifies_audio": false, "is_placeholder": false, "is_tone_modify": false, "keyframe_refs": [], "last_nonzero_volume": 1.0, "render_index": 0, "reverse": false, "speed": 1.0, "template_id": "", "template_scene": "default", "track_attribute": 0, "track_render_index": 0, "uniform_scale": "null", "visible": true, "responsive_layout": {"enable": false, "horizontal_pos_layout": 0, "size_layout": 0, "target_follow": "", "vertical_pos_layout": 0}, "id": "D066AE20-4089-EF29-1080-8ECAC3FFD43B", "material_id": "63250896-1F8B-F933-FC69-DDE4DB3A4EBC", "source_timerange": {"duration": 1680000, "start": 0}, "target_timerange": {"duration": 1680000, "start": 90986000}, "volume": 1.0}, {"cartoon": false, "clip": "null", "common_keyframes": [], "enable_adjust": false, "enable_color_curves": true, "enable_color_match_adjust": false, "enable_color_wheels": true, "enable_lut": false, "enable_smart_color_adjust": false, "group_id": "", "hdr_settings": "null", "intensifies_audio": false, "is_placeholder": false, "is_tone_modify": false, "keyframe_refs": [], "last_nonzero_volume": 1.0, "render_index": 0, "reverse": false, "speed": 1.0, "template_id": "", "template_scene": "default", "track_attribute": 0, "track_render_index": 0, "uniform_scale": "null", "visible": true, "responsive_layout": {"enable": false, "horizontal_pos_layout": 0, "size_layout": 0, "target_follow": "", "vertical_pos_layout": 0}, "id": "06330044-1E2F-EAD3-D72B-67BBEBA98BB0", "material_id": "575A9EB4-2CA4-F3AB-061B-D314999C3C12", "source_timerange": {"duration": 1608000, "start": 0}, "target_timerange": {"duration": 1608000, "start": 95908000}, "volume": 1.0}, {"cartoon": false, "clip": "null", "common_keyframes": [], "enable_adjust": false, "enable_color_curves": true, "enable_color_match_adjust": false, "enable_color_wheels": true, "enable_lut": false, "enable_smart_color_adjust": false, "group_id": "", "hdr_settings": "null", "intensifies_audio": false, "is_placeholder": false, "is_tone_modify": false, "keyframe_refs": [], "last_nonzero_volume": 1.0, "render_index": 0, "reverse": false, "speed": 1.0, "template_id": "", "template_scene": "default", "track_attribute": 0, "track_render_index": 0, "uniform_scale": "null", "visible": true, "responsive_layout": {"enable": false, "horizontal_pos_layout": 0, "size_layout": 0, "target_follow": "", "vertical_pos_layout": 0}, "id": "D77B922A-27F8-1D7C-AE92-001D7F4F7D90", "material_id": "BD366924-C693-B425-4C28-FD56CCE78E82", "source_timerange": {"duration": 1680000, "start": 0}, "target_timerange": {"duration": 1680000, "start": 110256000}, "volume": 1.0}, {"cartoon": false, "clip": "null", "common_keyframes": [], "enable_adjust": false, "enable_color_curves": true, "enable_color_match_adjust": false, "enable_color_wheels": true, "enable_lut": false, "enable_smart_color_adjust": false, "group_id": "", "hdr_settings": "null", "intensifies_audio": false, "is_placeholder": false, "is_tone_modify": false, "keyframe_refs": [], "last_nonzero_volume": 1.0, "render_index": 0, "reverse": false, "speed": 1.0, "template_id": "", "template_scene": "default", "track_attribute": 0, "track_render_index": 0, "uniform_scale": "null", "visible": true, "responsive_layout": {"enable": false, "horizontal_pos_layout": 0, "size_layout": 0, "target_follow": "", "vertical_pos_layout": 0}, "id": "F66E05CE-275F-D173-2064-283E0C8D3BB9", "material_id": "C38DAF17-8DB6-235B-D7B4-A6F1917B81F2", "source_timerange": {"duration": 3192000, "start": 0}, "target_timerange": {"duration": 3192000, "start": 113760000}, "volume": 1.0}, {"cartoon": false, "clip": "null", "common_keyframes": [], "enable_adjust": false, "enable_color_curves": true, "enable_color_match_adjust": false, "enable_color_wheels": true, "enable_lut": false, "enable_smart_color_adjust": false, "group_id": "", "hdr_settings": "null", "intensifies_audio": false, "is_placeholder": false, "is_tone_modify": false, "keyframe_refs": [], "last_nonzero_volume": 1.0, "render_index": 0, "reverse": false, "speed": 1.0, "template_id": "", "template_scene": "default", "track_attribute": 0, "track_render_index": 0, "uniform_scale": "null", "visible": true, "responsive_layout": {"enable": false, "horizontal_pos_layout": 0, "size_layout": 0, "target_follow": "", "vertical_pos_layout": 0}, "id": "FE9B1B57-F4B0-1CE0-77CA-4868CE57F127", "material_id": "10A779FF-34CD-C578-52A5-058370898F4B", "source_timerange": {"duration": 3840000, "start": 0}, "target_timerange": {"duration": 3840000, "start": 119557000}, "volume": 1.0}, {"cartoon": false, "clip": "null", "common_keyframes": [], "enable_adjust": false, "enable_color_curves": true, "enable_color_match_adjust": false, "enable_color_wheels": true, "enable_lut": false, "enable_smart_color_adjust": false, "group_id": "", "hdr_settings": "null", "intensifies_audio": false, "is_placeholder": false, "is_tone_modify": false, "keyframe_refs": [], "last_nonzero_volume": 1.0, "render_index": 0, "reverse": false, "speed": 1.0, "template_id": "", "template_scene": "default", "track_attribute": 0, "track_render_index": 0, "uniform_scale": "null", "visible": true, "responsive_layout": {"enable": false, "horizontal_pos_layout": 0, "size_layout": 0, "target_follow": "", "vertical_pos_layout": 0}, "id": "76C6C726-8945-59FB-DC4A-999BF6588FFD", "material_id": "D9DA863A-4673-3C37-C148-F59A1C99E526", "source_timerange": {"duration": 3624000, "start": 0}, "target_timerange": {"duration": 3624000, "start": 134572000}, "volume": 1.0}, {"cartoon": false, "clip": "null", "common_keyframes": [], "enable_adjust": false, "enable_color_curves": true, "enable_color_match_adjust": false, "enable_color_wheels": true, "enable_lut": false, "enable_smart_color_adjust": false, "group_id": "", "hdr_settings": "null", "intensifies_audio": false, "is_placeholder": false, "is_tone_modify": false, "keyframe_refs": [], "last_nonzero_volume": 1.0, "render_index": 0, "reverse": false, "speed": 1.0, "template_id": "", "template_scene": "default", "track_attribute": 0, "track_render_index": 0, "uniform_scale": "null", "visible": true, "responsive_layout": {"enable": false, "horizontal_pos_layout": 0, "size_layout": 0, "target_follow": "", "vertical_pos_layout": 0}, "id": "DB2065B4-CD89-5AE4-A97E-B2DF17DBCAFF", "material_id": "28BAFEE3-6928-9502-0CBD-1961A3487D64", "source_timerange": {"duration": 2760000, "start": 0}, "target_timerange": {"duration": 2760000, "start": 140036000}, "volume": 1.0}, {"cartoon": false, "clip": "null", "common_keyframes": [], "enable_adjust": false, "enable_color_curves": true, "enable_color_match_adjust": false, "enable_color_wheels": true, "enable_lut": false, "enable_smart_color_adjust": false, "group_id": "", "hdr_settings": "null", "intensifies_audio": false, "is_placeholder": false, "is_tone_modify": false, "keyframe_refs": [], "last_nonzero_volume": 1.0, "render_index": 0, "reverse": false, "speed": 1.0, "template_id": "", "template_scene": "default", "track_attribute": 0, "track_render_index": 0, "uniform_scale": "null", "visible": true, "responsive_layout": {"enable": false, "horizontal_pos_layout": 0, "size_layout": 0, "target_follow": "", "vertical_pos_layout": 0}, "id": "356971A9-4535-CF2D-885A-6C1A17B0A904", "material_id": "43040689-02DD-A3CF-854F-93FC55F4C6FC", "source_timerange": {"duration": 1344000, "start": 0}, "target_timerange": {"duration": 1344000, "start": 144289000}, "volume": 1.0}, {"cartoon": false, "clip": "null", "common_keyframes": [], "enable_adjust": false, "enable_color_curves": true, "enable_color_match_adjust": false, "enable_color_wheels": true, "enable_lut": false, "enable_smart_color_adjust": false, "group_id": "", "hdr_settings": "null", "intensifies_audio": false, "is_placeholder": false, "is_tone_modify": false, "keyframe_refs": [], "last_nonzero_volume": 1.0, "render_index": 0, "reverse": false, "speed": 1.0, "template_id": "", "template_scene": "default", "track_attribute": 0, "track_render_index": 0, "uniform_scale": "null", "visible": true, "responsive_layout": {"enable": false, "horizontal_pos_layout": 0, "size_layout": 0, "target_follow": "", "vertical_pos_layout": 0}, "id": "A4EDA551-BF30-74DD-8545-058C71D134FA", "material_id": "2E577C29-827C-647A-76DA-C8B84554390F", "source_timerange": {"duration": 1896000, "start": 0}, "target_timerange": {"duration": 1896000, "start": 175862000}, "volume": 1.0}, {"cartoon": false, "clip": "null", "common_keyframes": [], "enable_adjust": false, "enable_color_curves": true, "enable_color_match_adjust": false, "enable_color_wheels": true, "enable_lut": false, "enable_smart_color_adjust": false, "group_id": "", "hdr_settings": "null", "intensifies_audio": false, "is_placeholder": false, "is_tone_modify": false, "keyframe_refs": [], "last_nonzero_volume": 1.0, "render_index": 0, "reverse": false, "speed": 1.0, "template_id": "", "template_scene": "default", "track_attribute": 0, "track_render_index": 0, "uniform_scale": "null", "visible": true, "responsive_layout": {"enable": false, "horizontal_pos_layout": 0, "size_layout": 0, "target_follow": "", "vertical_pos_layout": 0}, "id": "4E2F4ED5-04BB-E55A-3C20-977702BF8EB9", "material_id": "E7BE6AFA-1AB2-970F-37A6-FD459C3F035D", "source_timerange": {"duration": 3504000, "start": 0}, "target_timerange": {"duration": 3504000, "start": 181159000}, "volume": 1.0}, {"cartoon": false, "clip": "null", "common_keyframes": [], "enable_adjust": false, "enable_color_curves": true, "enable_color_match_adjust": false, "enable_color_wheels": true, "enable_lut": false, "enable_smart_color_adjust": false, "group_id": "", "hdr_settings": "null", "intensifies_audio": false, "is_placeholder": false, "is_tone_modify": false, "keyframe_refs": [], "last_nonzero_volume": 1.0, "render_index": 0, "reverse": false, "speed": 1.0, "template_id": "", "template_scene": "default", "track_attribute": 0, "track_render_index": 0, "uniform_scale": "null", "visible": true, "responsive_layout": {"enable": false, "horizontal_pos_layout": 0, "size_layout": 0, "target_follow": "", "vertical_pos_layout": 0}, "id": "79B9F2BD-4D13-C08E-7DDC-6FB36B3966F6", "material_id": "5996AF99-46E4-8CDD-95DF-C98973186189", "source_timerange": {"duration": 2760000, "start": 0}, "target_timerange": {"duration": 2760000, "start": 198176000}, "volume": 1.0}, {"cartoon": false, "clip": "null", "common_keyframes": [], "enable_adjust": false, "enable_color_curves": true, "enable_color_match_adjust": false, "enable_color_wheels": true, "enable_lut": false, "enable_smart_color_adjust": false, "group_id": "", "hdr_settings": "null", "intensifies_audio": false, "is_placeholder": false, "is_tone_modify": false, "keyframe_refs": [], "last_nonzero_volume": 1.0, "render_index": 0, "reverse": false, "speed": 1.0, "template_id": "", "template_scene": "default", "track_attribute": 0, "track_render_index": 0, "uniform_scale": "null", "visible": true, "responsive_layout": {"enable": false, "horizontal_pos_layout": 0, "size_layout": 0, "target_follow": "", "vertical_pos_layout": 0}, "id": "C023655C-05C9-4CF3-6175-BDE264FDB99D", "material_id": "B8E01491-48F9-FE54-3FB4-3DCE2F9269DC", "source_timerange": {"duration": 3312000, "start": 0}, "target_timerange": {"duration": 3312000, "start": 208187000}, "volume": 1.0}, {"cartoon": false, "clip": "null", "common_keyframes": [], "enable_adjust": false, "enable_color_curves": true, "enable_color_match_adjust": false, "enable_color_wheels": true, "enable_lut": false, "enable_smart_color_adjust": false, "group_id": "", "hdr_settings": "null", "intensifies_audio": false, "is_placeholder": false, "is_tone_modify": false, "keyframe_refs": [], "last_nonzero_volume": 1.0, "render_index": 0, "reverse": false, "speed": 1.0, "template_id": "", "template_scene": "default", "track_attribute": 0, "track_render_index": 0, "uniform_scale": "null", "visible": true, "responsive_layout": {"enable": false, "horizontal_pos_layout": 0, "size_layout": 0, "target_follow": "", "vertical_pos_layout": 0}, "id": "30565BC2-94A5-0844-4487-C53CC077D8C1", "material_id": "56D4A653-5393-495B-1C6E-2CFB76406E6C", "source_timerange": {"duration": 1848000, "start": 0}, "target_timerange": {"duration": 1848000, "start": 224745000}, "volume": 1.0}, {"cartoon": false, "clip": "null", "common_keyframes": [], "enable_adjust": false, "enable_color_curves": true, "enable_color_match_adjust": false, "enable_color_wheels": true, "enable_lut": false, "enable_smart_color_adjust": false, "group_id": "", "hdr_settings": "null", "intensifies_audio": false, "is_placeholder": false, "is_tone_modify": false, "keyframe_refs": [], "last_nonzero_volume": 1.0, "render_index": 0, "reverse": false, "speed": 1.0, "template_id": "", "template_scene": "default", "track_attribute": 0, "track_render_index": 0, "uniform_scale": "null", "visible": true, "responsive_layout": {"enable": false, "horizontal_pos_layout": 0, "size_layout": 0, "target_follow": "", "vertical_pos_layout": 0}, "id": "70EB73C1-F2D8-ED1A-B48B-8CFE440DF33A", "material_id": "4ED7F1ED-2FE5-BD2E-F9AF-210FDA0DD222", "source_timerange": {"duration": 3096000, "start": 0}, "target_timerange": {"duration": 3096000, "start": 234963000}, "volume": 1.0}, {"cartoon": false, "clip": "null", "common_keyframes": [], "enable_adjust": false, "enable_color_curves": true, "enable_color_match_adjust": false, "enable_color_wheels": true, "enable_lut": false, "enable_smart_color_adjust": false, "group_id": "", "hdr_settings": "null", "intensifies_audio": false, "is_placeholder": false, "is_tone_modify": false, "keyframe_refs": [], "last_nonzero_volume": 1.0, "render_index": 0, "reverse": false, "speed": 1.0, "template_id": "", "template_scene": "default", "track_attribute": 0, "track_render_index": 0, "uniform_scale": "null", "visible": true, "responsive_layout": {"enable": false, "horizontal_pos_layout": 0, "size_layout": 0, "target_follow": "", "vertical_pos_layout": 0}, "id": "E226C66F-0CED-C98E-A071-A15DF2B8ECD2", "material_id": "A38350AE-60BF-E70E-8B21-B4A5594F5EE5", "source_timerange": {"duration": 3600000, "start": 0}, "target_timerange": {"duration": 3600000, "start": 240969000}, "volume": 1.0}, {"cartoon": false, "clip": "null", "common_keyframes": [], "enable_adjust": false, "enable_color_curves": true, "enable_color_match_adjust": false, "enable_color_wheels": true, "enable_lut": false, "enable_smart_color_adjust": false, "group_id": "", "hdr_settings": "null", "intensifies_audio": false, "is_placeholder": false, "is_tone_modify": false, "keyframe_refs": [], "last_nonzero_volume": 1.0, "render_index": 0, "reverse": false, "speed": 1.0, "template_id": "", "template_scene": "default", "track_attribute": 0, "track_render_index": 0, "uniform_scale": "null", "visible": true, "responsive_layout": {"enable": false, "horizontal_pos_layout": 0, "size_layout": 0, "target_follow": "", "vertical_pos_layout": 0}, "id": "0084447C-A240-16E1-721C-815E7D7802E9", "material_id": "D8E967DB-25D0-1F8D-0125-CE19EF4163E8", "source_timerange": {"duration": 4248000, "start": 0}, "target_timerange": {"duration": 4248000, "start": 248519000}, "volume": 1.0}, {"cartoon": false, "clip": "null", "common_keyframes": [], "enable_adjust": false, "enable_color_curves": true, "enable_color_match_adjust": false, "enable_color_wheels": true, "enable_lut": false, "enable_smart_color_adjust": false, "group_id": "", "hdr_settings": "null", "intensifies_audio": false, "is_placeholder": false, "is_tone_modify": false, "keyframe_refs": [], "last_nonzero_volume": 1.0, "render_index": 0, "reverse": false, "speed": 1.0, "template_id": "", "template_scene": "default", "track_attribute": 0, "track_render_index": 0, "uniform_scale": "null", "visible": true, "responsive_layout": {"enable": false, "horizontal_pos_layout": 0, "size_layout": 0, "target_follow": "", "vertical_pos_layout": 0}, "id": "7A6775EF-588B-6A74-407A-6E412B052C03", "material_id": "8247B88D-4BF5-EF6F-4C17-B7737228D1D1", "source_timerange": {"duration": 7296000, "start": 0}, "target_timerange": {"duration": 7296000, "start": 254859000}, "volume": 1.0}, {"cartoon": false, "clip": "null", "common_keyframes": [], "enable_adjust": false, "enable_color_curves": true, "enable_color_match_adjust": false, "enable_color_wheels": true, "enable_lut": false, "enable_smart_color_adjust": false, "group_id": "", "hdr_settings": "null", "intensifies_audio": false, "is_placeholder": false, "is_tone_modify": false, "keyframe_refs": [], "last_nonzero_volume": 1.0, "render_index": 0, "reverse": false, "speed": 1.0, "template_id": "", "template_scene": "default", "track_attribute": 0, "track_render_index": 0, "uniform_scale": "null", "visible": true, "responsive_layout": {"enable": false, "horizontal_pos_layout": 0, "size_layout": 0, "target_follow": "", "vertical_pos_layout": 0}, "id": "0E3D468F-9C76-94F7-D44E-0977F1B4EAAF", "material_id": "08F16A69-EC13-415A-7548-79D8A028952A", "source_timerange": {"duration": 3456000, "start": 0}, "target_timerange": {"duration": 3456000, "start": 272084000}, "volume": 1.0}, {"cartoon": false, "clip": "null", "common_keyframes": [], "enable_adjust": false, "enable_color_curves": true, "enable_color_match_adjust": false, "enable_color_wheels": true, "enable_lut": false, "enable_smart_color_adjust": false, "group_id": "", "hdr_settings": "null", "intensifies_audio": false, "is_placeholder": false, "is_tone_modify": false, "keyframe_refs": [], "last_nonzero_volume": 1.0, "render_index": 0, "reverse": false, "speed": 1.0, "template_id": "", "template_scene": "default", "track_attribute": 0, "track_render_index": 0, "uniform_scale": "null", "visible": true, "responsive_layout": {"enable": false, "horizontal_pos_layout": 0, "size_layout": 0, "target_follow": "", "vertical_pos_layout": 0}, "id": "E51799C9-0528-6A12-5586-D57751F1AC8D", "material_id": "D8C33967-0D82-6C7E-342A-88992AA7C9BF", "source_timerange": {"duration": 1440000, "start": 0}, "target_timerange": {"duration": 1440000, "start": 300821000}, "volume": 1.0}, {"cartoon": false, "clip": "null", "common_keyframes": [], "enable_adjust": false, "enable_color_curves": true, "enable_color_match_adjust": false, "enable_color_wheels": true, "enable_lut": false, "enable_smart_color_adjust": false, "group_id": "", "hdr_settings": "null", "intensifies_audio": false, "is_placeholder": false, "is_tone_modify": false, "keyframe_refs": [], "last_nonzero_volume": 1.0, "render_index": 0, "reverse": false, "speed": 1.0, "template_id": "", "template_scene": "default", "track_attribute": 0, "track_render_index": 0, "uniform_scale": "null", "visible": true, "responsive_layout": {"enable": false, "horizontal_pos_layout": 0, "size_layout": 0, "target_follow": "", "vertical_pos_layout": 0}, "id": "E26EA5E3-D8E0-ABBB-B8D2-8F39FB3AEF73", "material_id": "EE86B773-4B31-0739-4F35-11F8D04E499D", "source_timerange": {"duration": 1632000, "start": 0}, "target_timerange": {"duration": 1632000, "start": 304951000}, "volume": 1.0}, {"cartoon": false, "clip": "null", "common_keyframes": [], "enable_adjust": false, "enable_color_curves": true, "enable_color_match_adjust": false, "enable_color_wheels": true, "enable_lut": false, "enable_smart_color_adjust": false, "group_id": "", "hdr_settings": "null", "intensifies_audio": false, "is_placeholder": false, "is_tone_modify": false, "keyframe_refs": [], "last_nonzero_volume": 1.0, "render_index": 0, "reverse": false, "speed": 1.0, "template_id": "", "template_scene": "default", "track_attribute": 0, "track_render_index": 0, "uniform_scale": "null", "visible": true, "responsive_layout": {"enable": false, "horizontal_pos_layout": 0, "size_layout": 0, "target_follow": "", "vertical_pos_layout": 0}, "id": "8F1714F7-AF85-7E8B-811E-F03789D78052", "material_id": "F88D346E-D38D-3BA5-2763-A716307186BE", "source_timerange": {"duration": 1632000, "start": 0}, "target_timerange": {"duration": 1632000, "start": 307661000}, "volume": 1.0}, {"cartoon": false, "clip": "null", "common_keyframes": [], "enable_adjust": false, "enable_color_curves": true, "enable_color_match_adjust": false, "enable_color_wheels": true, "enable_lut": false, "enable_smart_color_adjust": false, "group_id": "", "hdr_settings": "null", "intensifies_audio": false, "is_placeholder": false, "is_tone_modify": false, "keyframe_refs": [], "last_nonzero_volume": 1.0, "render_index": 0, "reverse": false, "speed": 1.0, "template_id": "", "template_scene": "default", "track_attribute": 0, "track_render_index": 0, "uniform_scale": "null", "visible": true, "responsive_layout": {"enable": false, "horizontal_pos_layout": 0, "size_layout": 0, "target_follow": "", "vertical_pos_layout": 0}, "id": "F0F81D0A-AE35-062B-D793-858EF8DD7FC4", "material_id": "F1626567-2FAC-6EF5-FB8D-C85A67D27CDA", "source_timerange": {"duration": 3384000, "start": 0}, "target_timerange": {"duration": 3384000, "start": 309788000}, "volume": 1.0}, {"cartoon": false, "clip": "null", "common_keyframes": [], "enable_adjust": false, "enable_color_curves": true, "enable_color_match_adjust": false, "enable_color_wheels": true, "enable_lut": false, "enable_smart_color_adjust": false, "group_id": "", "hdr_settings": "null", "intensifies_audio": false, "is_placeholder": false, "is_tone_modify": false, "keyframe_refs": [], "last_nonzero_volume": 1.0, "render_index": 0, "reverse": false, "speed": 1.0, "template_id": "", "template_scene": "default", "track_attribute": 0, "track_render_index": 0, "uniform_scale": "null", "visible": true, "responsive_layout": {"enable": false, "horizontal_pos_layout": 0, "size_layout": 0, "target_follow": "", "vertical_pos_layout": 0}, "id": "B0446F5C-D324-54DF-EED2-5BD71BAE4707", "material_id": "F2EDA060-7C22-1C0E-A378-4C455FD2883D", "source_timerange": {"duration": 3744000, "start": 0}, "target_timerange": {"duration": 3744000, "start": 317129000}, "volume": 1.0}, {"cartoon": false, "clip": "null", "common_keyframes": [], "enable_adjust": false, "enable_color_curves": true, "enable_color_match_adjust": false, "enable_color_wheels": true, "enable_lut": false, "enable_smart_color_adjust": false, "group_id": "", "hdr_settings": "null", "intensifies_audio": false, "is_placeholder": false, "is_tone_modify": false, "keyframe_refs": [], "last_nonzero_volume": 1.0, "render_index": 0, "reverse": false, "speed": 1.0, "template_id": "", "template_scene": "default", "track_attribute": 0, "track_render_index": 0, "uniform_scale": "null", "visible": true, "responsive_layout": {"enable": false, "horizontal_pos_layout": 0, "size_layout": 0, "target_follow": "", "vertical_pos_layout": 0}, "id": "3A91B2BD-3F7D-0865-8263-6B7A4625ACB2", "material_id": "88835DF8-503C-D757-8EE5-524862335B10", "source_timerange": {"duration": 3984000, "start": 0}, "target_timerange": {"duration": 3984000, "start": 322552000}, "volume": 1.0}, {"cartoon": false, "clip": "null", "common_keyframes": [], "enable_adjust": false, "enable_color_curves": true, "enable_color_match_adjust": false, "enable_color_wheels": true, "enable_lut": false, "enable_smart_color_adjust": false, "group_id": "", "hdr_settings": "null", "intensifies_audio": false, "is_placeholder": false, "is_tone_modify": false, "keyframe_refs": [], "last_nonzero_volume": 1.0, "render_index": 0, "reverse": false, "speed": 1.0, "template_id": "", "template_scene": "default", "track_attribute": 0, "track_render_index": 0, "uniform_scale": "null", "visible": true, "responsive_layout": {"enable": false, "horizontal_pos_layout": 0, "size_layout": 0, "target_follow": "", "vertical_pos_layout": 0}, "id": "68396249-692E-752C-81FA-35F4902B85F5", "material_id": "49C010AF-A616-76A1-E2A1-4229D49C3B7D", "source_timerange": {"duration": 2664000, "start": 0}, "target_timerange": {"duration": 2664000, "start": 327389000}, "volume": 1.0}, {"cartoon": false, "clip": "null", "common_keyframes": [], "enable_adjust": false, "enable_color_curves": true, "enable_color_match_adjust": false, "enable_color_wheels": true, "enable_lut": false, "enable_smart_color_adjust": false, "group_id": "", "hdr_settings": "null", "intensifies_audio": false, "is_placeholder": false, "is_tone_modify": false, "keyframe_refs": [], "last_nonzero_volume": 1.0, "render_index": 0, "reverse": false, "speed": 1.0, "template_id": "", "template_scene": "default", "track_attribute": 0, "track_render_index": 0, "uniform_scale": "null", "visible": true, "responsive_layout": {"enable": false, "horizontal_pos_layout": 0, "size_layout": 0, "target_follow": "", "vertical_pos_layout": 0}, "id": "6DF94B53-FC8E-C773-0D6A-ADCDB9E933DD", "material_id": "E9CFFE20-F8E1-4DEA-5CF2-4760B027262C", "source_timerange": {"duration": 3312000, "start": 0}, "target_timerange": {"duration": 3312000, "start": 331851000}, "volume": 1.0}, {"cartoon": false, "clip": "null", "common_keyframes": [], "enable_adjust": false, "enable_color_curves": true, "enable_color_match_adjust": false, "enable_color_wheels": true, "enable_lut": false, "enable_smart_color_adjust": false, "group_id": "", "hdr_settings": "null", "intensifies_audio": false, "is_placeholder": false, "is_tone_modify": false, "keyframe_refs": [], "last_nonzero_volume": 1.0, "render_index": 0, "reverse": false, "speed": 1.0, "template_id": "", "template_scene": "default", "track_attribute": 0, "track_render_index": 0, "uniform_scale": "null", "visible": true, "responsive_layout": {"enable": false, "horizontal_pos_layout": 0, "size_layout": 0, "target_follow": "", "vertical_pos_layout": 0}, "id": "BD11E73A-AD3B-4EA3-A11C-626172AFBB71", "material_id": "EAB5669A-2C13-1A88-1266-142EE74775BD", "source_timerange": {"duration": 1800000, "start": 0}, "target_timerange": {"duration": 1800000, "start": 337942000}, "volume": 1.0}, {"cartoon": false, "clip": "null", "common_keyframes": [], "enable_adjust": false, "enable_color_curves": true, "enable_color_match_adjust": false, "enable_color_wheels": true, "enable_lut": false, "enable_smart_color_adjust": false, "group_id": "", "hdr_settings": "null", "intensifies_audio": false, "is_placeholder": false, "is_tone_modify": false, "keyframe_refs": [], "last_nonzero_volume": 1.0, "render_index": 0, "reverse": false, "speed": 1.0, "template_id": "", "template_scene": "default", "track_attribute": 0, "track_render_index": 0, "uniform_scale": "null", "visible": true, "responsive_layout": {"enable": false, "horizontal_pos_layout": 0, "size_layout": 0, "target_follow": "", "vertical_pos_layout": 0}, "id": "8C48926E-F578-3414-820C-C5B96B2660CB", "material_id": "D0E8D253-4AE9-B96B-E7F8-39E53349B81C", "source_timerange": {"duration": 2568000, "start": 0}, "target_timerange": {"duration": 2568000, "start": 342279000}, "volume": 1.0}, {"cartoon": false, "clip": "null", "common_keyframes": [], "enable_adjust": false, "enable_color_curves": true, "enable_color_match_adjust": false, "enable_color_wheels": true, "enable_lut": false, "enable_smart_color_adjust": false, "group_id": "", "hdr_settings": "null", "intensifies_audio": false, "is_placeholder": false, "is_tone_modify": false, "keyframe_refs": [], "last_nonzero_volume": 1.0, "render_index": 0, "reverse": false, "speed": 1.0, "template_id": "", "template_scene": "default", "track_attribute": 0, "track_render_index": 0, "uniform_scale": "null", "visible": true, "responsive_layout": {"enable": false, "horizontal_pos_layout": 0, "size_layout": 0, "target_follow": "", "vertical_pos_layout": 0}, "id": "E14CE5C9-C35D-E3E2-292C-62B8590040FD", "material_id": "3A5CE2EE-9522-25ED-5F09-53DF8A20E093", "source_timerange": {"duration": 2184000, "start": 0}, "target_timerange": {"duration": 2184000, "start": 347867000}, "volume": 1.0}, {"cartoon": false, "clip": "null", "common_keyframes": [], "enable_adjust": false, "enable_color_curves": true, "enable_color_match_adjust": false, "enable_color_wheels": true, "enable_lut": false, "enable_smart_color_adjust": false, "group_id": "", "hdr_settings": "null", "intensifies_audio": false, "is_placeholder": false, "is_tone_modify": false, "keyframe_refs": [], "last_nonzero_volume": 1.0, "render_index": 0, "reverse": false, "speed": 1.0, "template_id": "", "template_scene": "default", "track_attribute": 0, "track_render_index": 0, "uniform_scale": "null", "visible": true, "responsive_layout": {"enable": false, "horizontal_pos_layout": 0, "size_layout": 0, "target_follow": "", "vertical_pos_layout": 0}, "id": "16FCAF02-BA21-7DDC-D080-98ABFAF879DF", "material_id": "A70D4BD6-36BE-814E-CF69-6131000880A4", "source_timerange": {"duration": 2904000, "start": 0}, "target_timerange": {"duration": 2904000, "start": 352081000}, "volume": 1.0}, {"cartoon": false, "clip": "null", "common_keyframes": [], "enable_adjust": false, "enable_color_curves": true, "enable_color_match_adjust": false, "enable_color_wheels": true, "enable_lut": false, "enable_smart_color_adjust": false, "group_id": "", "hdr_settings": "null", "intensifies_audio": false, "is_placeholder": false, "is_tone_modify": false, "keyframe_refs": [], "last_nonzero_volume": 1.0, "render_index": 0, "reverse": false, "speed": 1.0, "template_id": "", "template_scene": "default", "track_attribute": 0, "track_render_index": 0, "uniform_scale": "null", "visible": true, "responsive_layout": {"enable": false, "horizontal_pos_layout": 0, "size_layout": 0, "target_follow": "", "vertical_pos_layout": 0}, "id": "77741717-386C-B388-C01B-72DE6DCA8170", "material_id": "3BC71BE4-1EFE-2381-3FE0-FD7C58691FC1", "source_timerange": {"duration": 3672000, "start": 0}, "target_timerange": {"duration": 3672000, "start": 359129000}, "volume": 1.0}, {"cartoon": false, "clip": "null", "common_keyframes": [], "enable_adjust": false, "enable_color_curves": true, "enable_color_match_adjust": false, "enable_color_wheels": true, "enable_lut": false, "enable_smart_color_adjust": false, "group_id": "", "hdr_settings": "null", "intensifies_audio": false, "is_placeholder": false, "is_tone_modify": false, "keyframe_refs": [], "last_nonzero_volume": 1.0, "render_index": 0, "reverse": false, "speed": 1.0, "template_id": "", "template_scene": "default", "track_attribute": 0, "track_render_index": 0, "uniform_scale": "null", "visible": true, "responsive_layout": {"enable": false, "horizontal_pos_layout": 0, "size_layout": 0, "target_follow": "", "vertical_pos_layout": 0}, "id": "E07C64FE-AC62-A733-F1AC-42B3E2F0FD72", "material_id": "58DF6878-7620-59AF-8CDE-A09A8DF88F16", "source_timerange": {"duration": 4464000, "start": 0}, "target_timerange": {"duration": 4464000, "start": 362382000}, "volume": 1.0}, {"cartoon": false, "clip": "null", "common_keyframes": [], "enable_adjust": false, "enable_color_curves": true, "enable_color_match_adjust": false, "enable_color_wheels": true, "enable_lut": false, "enable_smart_color_adjust": false, "group_id": "", "hdr_settings": "null", "intensifies_audio": false, "is_placeholder": false, "is_tone_modify": false, "keyframe_refs": [], "last_nonzero_volume": 1.0, "render_index": 0, "reverse": false, "speed": 1.0, "template_id": "", "template_scene": "default", "track_attribute": 0, "track_render_index": 0, "uniform_scale": "null", "visible": true, "responsive_layout": {"enable": false, "horizontal_pos_layout": 0, "size_layout": 0, "target_follow": "", "vertical_pos_layout": 0}, "id": "6E6D7653-6916-4875-B7EB-ED56945AB3ED", "material_id": "80DE7982-348A-5A33-8FC8-08C4D8F26DE6", "source_timerange": {"duration": 1896000, "start": 0}, "target_timerange": {"duration": 1896000, "start": 368555000}, "volume": 1.0}, {"cartoon": false, "clip": "null", "common_keyframes": [], "enable_adjust": false, "enable_color_curves": true, "enable_color_match_adjust": false, "enable_color_wheels": true, "enable_lut": false, "enable_smart_color_adjust": false, "group_id": "", "hdr_settings": "null", "intensifies_audio": false, "is_placeholder": false, "is_tone_modify": false, "keyframe_refs": [], "last_nonzero_volume": 1.0, "render_index": 0, "reverse": false, "speed": 1.0, "template_id": "", "template_scene": "default", "track_attribute": 0, "track_render_index": 0, "uniform_scale": "null", "visible": true, "responsive_layout": {"enable": false, "horizontal_pos_layout": 0, "size_layout": 0, "target_follow": "", "vertical_pos_layout": 0}, "id": "16B558F5-4B14-D93F-E0AA-20D2870842F7", "material_id": "BF81280E-B591-4797-0897-F8B2F4BBCD2E", "source_timerange": {"duration": 5712000, "start": 0}, "target_timerange": {"duration": 5712000, "start": 371225000}, "volume": 1.0}, {"cartoon": false, "clip": "null", "common_keyframes": [], "enable_adjust": false, "enable_color_curves": true, "enable_color_match_adjust": false, "enable_color_wheels": true, "enable_lut": false, "enable_smart_color_adjust": false, "group_id": "", "hdr_settings": "null", "intensifies_audio": false, "is_placeholder": false, "is_tone_modify": false, "keyframe_refs": [], "last_nonzero_volume": 1.0, "render_index": 0, "reverse": false, "speed": 1.0, "template_id": "", "template_scene": "default", "track_attribute": 0, "track_render_index": 0, "uniform_scale": "null", "visible": true, "responsive_layout": {"enable": false, "horizontal_pos_layout": 0, "size_layout": 0, "target_follow": "", "vertical_pos_layout": 0}, "id": "B16EA763-C2C1-0870-BD8C-EF1F0C27DB64", "material_id": "24287B4C-64A1-A240-667D-19953CB76B6B", "source_timerange": {"duration": 3792000, "start": 0}, "target_timerange": {"duration": 3792000, "start": 376771000}, "volume": 1.0}, {"cartoon": false, "clip": "null", "common_keyframes": [], "enable_adjust": false, "enable_color_curves": true, "enable_color_match_adjust": false, "enable_color_wheels": true, "enable_lut": false, "enable_smart_color_adjust": false, "group_id": "", "hdr_settings": "null", "intensifies_audio": false, "is_placeholder": false, "is_tone_modify": false, "keyframe_refs": [], "last_nonzero_volume": 1.0, "render_index": 0, "reverse": false, "speed": 1.0, "template_id": "", "template_scene": "default", "track_attribute": 0, "track_render_index": 0, "uniform_scale": "null", "visible": true, "responsive_layout": {"enable": false, "horizontal_pos_layout": 0, "size_layout": 0, "target_follow": "", "vertical_pos_layout": 0}, "id": "BA22EF48-94E5-CF27-977C-81FF2B2BF3EB", "material_id": "C4404198-1117-31E3-01F4-3971AF58275F", "source_timerange": {"duration": 4200000, "start": 0}, "target_timerange": {"duration": 4200000, "start": 383903000}, "volume": 1.0}, {"cartoon": false, "clip": "null", "common_keyframes": [], "enable_adjust": false, "enable_color_curves": true, "enable_color_match_adjust": false, "enable_color_wheels": true, "enable_lut": false, "enable_smart_color_adjust": false, "group_id": "", "hdr_settings": "null", "intensifies_audio": false, "is_placeholder": false, "is_tone_modify": false, "keyframe_refs": [], "last_nonzero_volume": 1.0, "render_index": 0, "reverse": false, "speed": 1.0, "template_id": "", "template_scene": "default", "track_attribute": 0, "track_render_index": 0, "uniform_scale": "null", "visible": true, "responsive_layout": {"enable": false, "horizontal_pos_layout": 0, "size_layout": 0, "target_follow": "", "vertical_pos_layout": 0}, "id": "14B7D2C5-AB4E-AB2B-56B2-C62E1562BC59", "material_id": "7BCA9B5C-DE26-9931-025E-B07A4A43646D", "source_timerange": {"duration": 2280000, "start": 0}, "target_timerange": {"duration": 2280000, "start": 389285000}, "volume": 1.0}, {"cartoon": false, "clip": "null", "common_keyframes": [], "enable_adjust": false, "enable_color_curves": true, "enable_color_match_adjust": false, "enable_color_wheels": true, "enable_lut": false, "enable_smart_color_adjust": false, "group_id": "", "hdr_settings": "null", "intensifies_audio": false, "is_placeholder": false, "is_tone_modify": false, "keyframe_refs": [], "last_nonzero_volume": 1.0, "render_index": 0, "reverse": false, "speed": 1.0, "template_id": "", "template_scene": "default", "track_attribute": 0, "track_render_index": 0, "uniform_scale": "null", "visible": true, "responsive_layout": {"enable": false, "horizontal_pos_layout": 0, "size_layout": 0, "target_follow": "", "vertical_pos_layout": 0}, "id": "7BCCFE11-E440-981B-71D2-2AA29E059EC4", "material_id": "6C1627C6-3CD5-9AEC-F62F-5B66E9219164", "source_timerange": {"duration": 2712000, "start": 0}, "target_timerange": {"duration": 2712000, "start": 392622000}, "volume": 1.0}, {"cartoon": false, "clip": "null", "common_keyframes": [], "enable_adjust": false, "enable_color_curves": true, "enable_color_match_adjust": false, "enable_color_wheels": true, "enable_lut": false, "enable_smart_color_adjust": false, "group_id": "", "hdr_settings": "null", "intensifies_audio": false, "is_placeholder": false, "is_tone_modify": false, "keyframe_refs": [], "last_nonzero_volume": 1.0, "render_index": 0, "reverse": false, "speed": 1.0, "template_id": "", "template_scene": "default", "track_attribute": 0, "track_render_index": 0, "uniform_scale": "null", "visible": true, "responsive_layout": {"enable": false, "horizontal_pos_layout": 0, "size_layout": 0, "target_follow": "", "vertical_pos_layout": 0}, "id": "6F369343-041E-1D20-D1FB-8B537237BFA8", "material_id": "56E2B10F-3018-0ED7-973C-B520C4BA97E7", "source_timerange": {"duration": 2424000, "start": 0}, "target_timerange": {"duration": 2424000, "start": 398127000}, "volume": 1.0}, {"cartoon": false, "clip": "null", "common_keyframes": [], "enable_adjust": false, "enable_color_curves": true, "enable_color_match_adjust": false, "enable_color_wheels": true, "enable_lut": false, "enable_smart_color_adjust": false, "group_id": "", "hdr_settings": "null", "intensifies_audio": false, "is_placeholder": false, "is_tone_modify": false, "keyframe_refs": [], "last_nonzero_volume": 1.0, "render_index": 0, "reverse": false, "speed": 1.0, "template_id": "", "template_scene": "default", "track_attribute": 0, "track_render_index": 0, "uniform_scale": "null", "visible": true, "responsive_layout": {"enable": false, "horizontal_pos_layout": 0, "size_layout": 0, "target_follow": "", "vertical_pos_layout": 0}, "id": "86E457D8-B3EC-C6EF-B04F-45E764BA1D78", "material_id": "E70A7B87-4C25-CA09-9F66-03033DAFC3DC", "source_timerange": {"duration": 2856000, "start": 0}, "target_timerange": {"duration": 2856000, "start": 405634000}, "volume": 1.0}, {"cartoon": false, "clip": "null", "common_keyframes": [], "enable_adjust": false, "enable_color_curves": true, "enable_color_match_adjust": false, "enable_color_wheels": true, "enable_lut": false, "enable_smart_color_adjust": false, "group_id": "", "hdr_settings": "null", "intensifies_audio": false, "is_placeholder": false, "is_tone_modify": false, "keyframe_refs": [], "last_nonzero_volume": 1.0, "render_index": 0, "reverse": false, "speed": 1.0, "template_id": "", "template_scene": "default", "track_attribute": 0, "track_render_index": 0, "uniform_scale": "null", "visible": true, "responsive_layout": {"enable": false, "horizontal_pos_layout": 0, "size_layout": 0, "target_follow": "", "vertical_pos_layout": 0}, "id": "D69786C5-7251-50E9-DA6C-F772FA2CE4F1", "material_id": "EA814274-F0BF-FF29-382C-07075343102D", "source_timerange": {"duration": 3360000, "start": 0}, "target_timerange": {"duration": 3360000, "start": 410598000}, "volume": 1.0}, {"cartoon": false, "clip": "null", "common_keyframes": [], "enable_adjust": false, "enable_color_curves": true, "enable_color_match_adjust": false, "enable_color_wheels": true, "enable_lut": false, "enable_smart_color_adjust": false, "group_id": "", "hdr_settings": "null", "intensifies_audio": false, "is_placeholder": false, "is_tone_modify": false, "keyframe_refs": [], "last_nonzero_volume": 1.0, "render_index": 0, "reverse": false, "speed": 1.0, "template_id": "", "template_scene": "default", "track_attribute": 0, "track_render_index": 0, "uniform_scale": "null", "visible": true, "responsive_layout": {"enable": false, "horizontal_pos_layout": 0, "size_layout": 0, "target_follow": "", "vertical_pos_layout": 0}, "id": "0DB1C6DE-DAFA-0FCE-D748-BF5430F5A399", "material_id": "F25F688C-5C88-AD4C-00D7-636122C1656F", "source_timerange": {"duration": 1824000, "start": 0}, "target_timerange": {"duration": 1824000, "start": 418146000}, "volume": 1.0}, {"cartoon": false, "clip": "null", "common_keyframes": [], "enable_adjust": false, "enable_color_curves": true, "enable_color_match_adjust": false, "enable_color_wheels": true, "enable_lut": false, "enable_smart_color_adjust": false, "group_id": "", "hdr_settings": "null", "intensifies_audio": false, "is_placeholder": false, "is_tone_modify": false, "keyframe_refs": [], "last_nonzero_volume": 1.0, "render_index": 0, "reverse": false, "speed": 1.0, "template_id": "", "template_scene": "default", "track_attribute": 0, "track_render_index": 0, "uniform_scale": "null", "visible": true, "responsive_layout": {"enable": false, "horizontal_pos_layout": 0, "size_layout": 0, "target_follow": "", "vertical_pos_layout": 0}, "id": "15579BA0-679C-C6E9-68BF-40CF8C8E7D9C", "material_id": "56E30421-B46E-A6CA-B2B1-33DA929E29AF", "source_timerange": {"duration": 3288000, "start": 0}, "target_timerange": {"duration": 3288000, "start": 421733000}, "volume": 1.0}, {"cartoon": false, "clip": "null", "common_keyframes": [], "enable_adjust": false, "enable_color_curves": true, "enable_color_match_adjust": false, "enable_color_wheels": true, "enable_lut": false, "enable_smart_color_adjust": false, "group_id": "", "hdr_settings": "null", "intensifies_audio": false, "is_placeholder": false, "is_tone_modify": false, "keyframe_refs": [], "last_nonzero_volume": 1.0, "render_index": 0, "reverse": false, "speed": 1.0, "template_id": "", "template_scene": "default", "track_attribute": 0, "track_render_index": 0, "uniform_scale": "null", "visible": true, "responsive_layout": {"enable": false, "horizontal_pos_layout": 0, "size_layout": 0, "target_follow": "", "vertical_pos_layout": 0}, "id": "0FF16DE0-4227-CC5E-FE5B-3372E64E0C69", "material_id": "F3F0ACCB-2F09-5EA5-6AA5-D955BBEB8955", "source_timerange": {"duration": 1680000, "start": 0}, "target_timerange": {"duration": 1680000, "start": 427697000}, "volume": 1.0}, {"cartoon": false, "clip": "null", "common_keyframes": [], "enable_adjust": false, "enable_color_curves": true, "enable_color_match_adjust": false, "enable_color_wheels": true, "enable_lut": false, "enable_smart_color_adjust": false, "group_id": "", "hdr_settings": "null", "intensifies_audio": false, "is_placeholder": false, "is_tone_modify": false, "keyframe_refs": [], "last_nonzero_volume": 1.0, "render_index": 0, "reverse": false, "speed": 1.0, "template_id": "", "template_scene": "default", "track_attribute": 0, "track_render_index": 0, "uniform_scale": "null", "visible": true, "responsive_layout": {"enable": false, "horizontal_pos_layout": 0, "size_layout": 0, "target_follow": "", "vertical_pos_layout": 0}, "id": "CB6F88E1-0DD6-D8ED-2F2F-2D6E60471693", "material_id": "50DCB5D1-931E-58D3-22B6-6FA3E7ECED99", "source_timerange": {"duration": 1464000, "start": 0}, "target_timerange": {"duration": 1464000, "start": 433329000}, "volume": 1.0}, {"cartoon": false, "clip": "null", "common_keyframes": [], "enable_adjust": false, "enable_color_curves": true, "enable_color_match_adjust": false, "enable_color_wheels": true, "enable_lut": false, "enable_smart_color_adjust": false, "group_id": "", "hdr_settings": "null", "intensifies_audio": false, "is_placeholder": false, "is_tone_modify": false, "keyframe_refs": [], "last_nonzero_volume": 1.0, "render_index": 0, "reverse": false, "speed": 1.0, "template_id": "", "template_scene": "default", "track_attribute": 0, "track_render_index": 0, "uniform_scale": "null", "visible": true, "responsive_layout": {"enable": false, "horizontal_pos_layout": 0, "size_layout": 0, "target_follow": "", "vertical_pos_layout": 0}, "id": "6DA2C3EE-1CE5-194C-756B-916882B46D80", "material_id": "B52EECD7-9FDA-04B4-6613-82048FD5C5EC", "source_timerange": {"duration": 2328000, "start": 0}, "target_timerange": {"duration": 2328000, "start": 441420000}, "volume": 1.0}, {"cartoon": false, "clip": "null", "common_keyframes": [], "enable_adjust": false, "enable_color_curves": true, "enable_color_match_adjust": false, "enable_color_wheels": true, "enable_lut": false, "enable_smart_color_adjust": false, "group_id": "", "hdr_settings": "null", "intensifies_audio": false, "is_placeholder": false, "is_tone_modify": false, "keyframe_refs": [], "last_nonzero_volume": 1.0, "render_index": 0, "reverse": false, "speed": 1.0, "template_id": "", "template_scene": "default", "track_attribute": 0, "track_render_index": 0, "uniform_scale": "null", "visible": true, "responsive_layout": {"enable": false, "horizontal_pos_layout": 0, "size_layout": 0, "target_follow": "", "vertical_pos_layout": 0}, "id": "29604045-F5E6-24DD-E33C-86F72ED8AEE5", "material_id": "4E159FB5-749C-20C5-77AB-44003BD490A1", "source_timerange": {"duration": 3216000, "start": 0}, "target_timerange": {"duration": 3216000, "start": 444882000}, "volume": 1.0}, {"cartoon": false, "clip": "null", "common_keyframes": [], "enable_adjust": false, "enable_color_curves": true, "enable_color_match_adjust": false, "enable_color_wheels": true, "enable_lut": false, "enable_smart_color_adjust": false, "group_id": "", "hdr_settings": "null", "intensifies_audio": false, "is_placeholder": false, "is_tone_modify": false, "keyframe_refs": [], "last_nonzero_volume": 1.0, "render_index": 0, "reverse": false, "speed": 1.0, "template_id": "", "template_scene": "default", "track_attribute": 0, "track_render_index": 0, "uniform_scale": "null", "visible": true, "responsive_layout": {"enable": false, "horizontal_pos_layout": 0, "size_layout": 0, "target_follow": "", "vertical_pos_layout": 0}, "id": "CA4B9C3E-8DA4-49F2-2F24-1678F4A1F9BF", "material_id": "829F36A7-6585-648D-F886-99D05364CDED", "source_timerange": {"duration": 2760000, "start": 0}, "target_timerange": {"duration": 2760000, "start": 450471000}, "volume": 1.0}, {"cartoon": false, "clip": "null", "common_keyframes": [], "enable_adjust": false, "enable_color_curves": true, "enable_color_match_adjust": false, "enable_color_wheels": true, "enable_lut": false, "enable_smart_color_adjust": false, "group_id": "", "hdr_settings": "null", "intensifies_audio": false, "is_placeholder": false, "is_tone_modify": false, "keyframe_refs": [], "last_nonzero_volume": 1.0, "render_index": 0, "reverse": false, "speed": 1.0, "template_id": "", "template_scene": "default", "track_attribute": 0, "track_render_index": 0, "uniform_scale": "null", "visible": true, "responsive_layout": {"enable": false, "horizontal_pos_layout": 0, "size_layout": 0, "target_follow": "", "vertical_pos_layout": 0}, "id": "9B9A1910-F237-C133-5714-BB87DC137443", "material_id": "0CEDD255-8089-2383-DDA1-B8DE728E4875", "source_timerange": {"duration": 2856000, "start": 0}, "target_timerange": {"duration": 2856000, "start": 454016000}, "volume": 1.0}, {"cartoon": false, "clip": "null", "common_keyframes": [], "enable_adjust": false, "enable_color_curves": true, "enable_color_match_adjust": false, "enable_color_wheels": true, "enable_lut": false, "enable_smart_color_adjust": false, "group_id": "", "hdr_settings": "null", "intensifies_audio": false, "is_placeholder": false, "is_tone_modify": false, "keyframe_refs": [], "last_nonzero_volume": 1.0, "render_index": 0, "reverse": false, "speed": 1.0, "template_id": "", "template_scene": "default", "track_attribute": 0, "track_render_index": 0, "uniform_scale": "null", "visible": true, "responsive_layout": {"enable": false, "horizontal_pos_layout": 0, "size_layout": 0, "target_follow": "", "vertical_pos_layout": 0}, "id": "28FD6A15-B413-83C1-942C-6E6BA003B91C", "material_id": "05F320FE-EC44-7F3F-0158-7A89CCC91ED6", "source_timerange": {"duration": 1368000, "start": 0}, "target_timerange": {"duration": 1368000, "start": 462692000}, "volume": 1.0}, {"cartoon": false, "clip": "null", "common_keyframes": [], "enable_adjust": false, "enable_color_curves": true, "enable_color_match_adjust": false, "enable_color_wheels": true, "enable_lut": false, "enable_smart_color_adjust": false, "group_id": "", "hdr_settings": "null", "intensifies_audio": false, "is_placeholder": false, "is_tone_modify": false, "keyframe_refs": [], "last_nonzero_volume": 1.0, "render_index": 0, "reverse": false, "speed": 1.0, "template_id": "", "template_scene": "default", "track_attribute": 0, "track_render_index": 0, "uniform_scale": "null", "visible": true, "responsive_layout": {"enable": false, "horizontal_pos_layout": 0, "size_layout": 0, "target_follow": "", "vertical_pos_layout": 0}, "id": "FDA124E7-5288-8DB3-62E9-8A627ADA8BBB", "material_id": "D77D91DF-4945-3E16-DFBC-974A40D6A5F5", "source_timerange": {"duration": 1320000, "start": 0}, "target_timerange": {"duration": 1320000, "start": 469031000}, "volume": 1.0}, {"cartoon": false, "clip": "null", "common_keyframes": [], "enable_adjust": false, "enable_color_curves": true, "enable_color_match_adjust": false, "enable_color_wheels": true, "enable_lut": false, "enable_smart_color_adjust": false, "group_id": "", "hdr_settings": "null", "intensifies_audio": false, "is_placeholder": false, "is_tone_modify": false, "keyframe_refs": [], "last_nonzero_volume": 1.0, "render_index": 0, "reverse": false, "speed": 1.0, "template_id": "", "template_scene": "default", "track_attribute": 0, "track_render_index": 0, "uniform_scale": "null", "visible": true, "responsive_layout": {"enable": false, "horizontal_pos_layout": 0, "size_layout": 0, "target_follow": "", "vertical_pos_layout": 0}, "id": "6AF8E042-5FE9-7294-6714-7E6D35B7D614", "material_id": "F4AF3188-25D0-E78A-E9B4-7E08D83DF168", "source_timerange": {"duration": 2520000, "start": 0}, "target_timerange": {"duration": 2520000, "start": 475413000}, "volume": 1.0}, {"cartoon": false, "clip": "null", "common_keyframes": [], "enable_adjust": false, "enable_color_curves": true, "enable_color_match_adjust": false, "enable_color_wheels": true, "enable_lut": false, "enable_smart_color_adjust": false, "group_id": "", "hdr_settings": "null", "intensifies_audio": false, "is_placeholder": false, "is_tone_modify": false, "keyframe_refs": [], "last_nonzero_volume": 1.0, "render_index": 0, "reverse": false, "speed": 1.0, "template_id": "", "template_scene": "default", "track_attribute": 0, "track_render_index": 0, "uniform_scale": "null", "visible": true, "responsive_layout": {"enable": false, "horizontal_pos_layout": 0, "size_layout": 0, "target_follow": "", "vertical_pos_layout": 0}, "id": "F388E10E-99DC-47BE-A857-CED8265AED82", "material_id": "03646A43-03EB-C070-63C5-FE41201F043F", "source_timerange": {"duration": 2088000, "start": 0}, "target_timerange": {"duration": 2088000, "start": 482545000}, "volume": 1.0}, {"cartoon": false, "clip": "null", "common_keyframes": [], "enable_adjust": false, "enable_color_curves": true, "enable_color_match_adjust": false, "enable_color_wheels": true, "enable_lut": false, "enable_smart_color_adjust": false, "group_id": "", "hdr_settings": "null", "intensifies_audio": false, "is_placeholder": false, "is_tone_modify": false, "keyframe_refs": [], "last_nonzero_volume": 1.0, "render_index": 0, "reverse": false, "speed": 1.0, "template_id": "", "template_scene": "default", "track_attribute": 0, "track_render_index": 0, "uniform_scale": "null", "visible": true, "responsive_layout": {"enable": false, "horizontal_pos_layout": 0, "size_layout": 0, "target_follow": "", "vertical_pos_layout": 0}, "id": "0D8AAD39-4A3F-7B29-91BB-E6AB1D868571", "material_id": "77F73062-D223-1F34-FDFE-B6F655203F4D", "source_timerange": {"duration": 3000000, "start": 0}, "target_timerange": {"duration": 3000000, "start": 498394000}, "volume": 1.0}, {"cartoon": false, "clip": "null", "common_keyframes": [], "enable_adjust": false, "enable_color_curves": true, "enable_color_match_adjust": false, "enable_color_wheels": true, "enable_lut": false, "enable_smart_color_adjust": false, "group_id": "", "hdr_settings": "null", "intensifies_audio": false, "is_placeholder": false, "is_tone_modify": false, "keyframe_refs": [], "last_nonzero_volume": 1.0, "render_index": 0, "reverse": false, "speed": 1.0, "template_id": "", "template_scene": "default", "track_attribute": 0, "track_render_index": 0, "uniform_scale": "null", "visible": true, "responsive_layout": {"enable": false, "horizontal_pos_layout": 0, "size_layout": 0, "target_follow": "", "vertical_pos_layout": 0}, "id": "9D873F66-7710-1202-AB09-2094FA7C24D3", "material_id": "82D8655A-BAF7-7073-699C-2B6B460340CE", "source_timerange": {"duration": 3264000, "start": 0}, "target_timerange": {"duration": 3264000, "start": 504149000}, "volume": 1.0}, {"cartoon": false, "clip": "null", "common_keyframes": [], "enable_adjust": false, "enable_color_curves": true, "enable_color_match_adjust": false, "enable_color_wheels": true, "enable_lut": false, "enable_smart_color_adjust": false, "group_id": "", "hdr_settings": "null", "intensifies_audio": false, "is_placeholder": false, "is_tone_modify": false, "keyframe_refs": [], "last_nonzero_volume": 1.0, "render_index": 0, "reverse": false, "speed": 1.0, "template_id": "", "template_scene": "default", "track_attribute": 0, "track_render_index": 0, "uniform_scale": "null", "visible": true, "responsive_layout": {"enable": false, "horizontal_pos_layout": 0, "size_layout": 0, "target_follow": "", "vertical_pos_layout": 0}, "id": "CE8FDE38-CCF3-D5CE-0BA8-F8D4B4E17D2A", "material_id": "C3E911C4-130C-96B0-671E-D470424F3E99", "source_timerange": {"duration": 4104000, "start": 0}, "target_timerange": {"duration": 4104000, "start": 508821000}, "volume": 1.0}, {"cartoon": false, "clip": "null", "common_keyframes": [], "enable_adjust": false, "enable_color_curves": true, "enable_color_match_adjust": false, "enable_color_wheels": true, "enable_lut": false, "enable_smart_color_adjust": false, "group_id": "", "hdr_settings": "null", "intensifies_audio": false, "is_placeholder": false, "is_tone_modify": false, "keyframe_refs": [], "last_nonzero_volume": 1.0, "render_index": 0, "reverse": false, "speed": 1.0, "template_id": "", "template_scene": "default", "track_attribute": 0, "track_render_index": 0, "uniform_scale": "null", "visible": true, "responsive_layout": {"enable": false, "horizontal_pos_layout": 0, "size_layout": 0, "target_follow": "", "vertical_pos_layout": 0}, "id": "CCED76BE-F30F-426A-FB08-3587B315DD0F", "material_id": "1107B93A-10BE-0CD3-20F6-4E9B36E17C8F", "source_timerange": {"duration": 2520000, "start": 0}, "target_timerange": {"duration": 2520000, "start": 517955000}, "volume": 1.0}, {"cartoon": false, "clip": "null", "common_keyframes": [], "enable_adjust": false, "enable_color_curves": true, "enable_color_match_adjust": false, "enable_color_wheels": true, "enable_lut": false, "enable_smart_color_adjust": false, "group_id": "", "hdr_settings": "null", "intensifies_audio": false, "is_placeholder": false, "is_tone_modify": false, "keyframe_refs": [], "last_nonzero_volume": 1.0, "render_index": 0, "reverse": false, "speed": 1.0, "template_id": "", "template_scene": "default", "track_attribute": 0, "track_render_index": 0, "uniform_scale": "null", "visible": true, "responsive_layout": {"enable": false, "horizontal_pos_layout": 0, "size_layout": 0, "target_follow": "", "vertical_pos_layout": 0}, "id": "17EE2FCE-0B98-8CA9-842D-54A5EF9727C9", "material_id": "A39EBBEF-2288-BC09-A77C-302D8AF89EA9", "source_timerange": {"duration": 2952000, "start": 0}, "target_timerange": {"duration": 2952000, "start": 528506000}, "volume": 1.0}, {"cartoon": false, "clip": "null", "common_keyframes": [], "enable_adjust": false, "enable_color_curves": true, "enable_color_match_adjust": false, "enable_color_wheels": true, "enable_lut": false, "enable_smart_color_adjust": false, "group_id": "", "hdr_settings": "null", "intensifies_audio": false, "is_placeholder": false, "is_tone_modify": false, "keyframe_refs": [], "last_nonzero_volume": 1.0, "render_index": 0, "reverse": false, "speed": 1.0, "template_id": "", "template_scene": "default", "track_attribute": 0, "track_render_index": 0, "uniform_scale": "null", "visible": true, "responsive_layout": {"enable": false, "horizontal_pos_layout": 0, "size_layout": 0, "target_follow": "", "vertical_pos_layout": 0}, "id": "DDD64216-1520-724C-5015-7F5548258473", "material_id": "7F6B20A4-26C5-F322-761F-952778C1A2CF", "source_timerange": {"duration": 1464000, "start": 0}, "target_timerange": {"duration": 1464000, "start": 541312000}, "volume": 1.0}, {"cartoon": false, "clip": "null", "common_keyframes": [], "enable_adjust": false, "enable_color_curves": true, "enable_color_match_adjust": false, "enable_color_wheels": true, "enable_lut": false, "enable_smart_color_adjust": false, "group_id": "", "hdr_settings": "null", "intensifies_audio": false, "is_placeholder": false, "is_tone_modify": false, "keyframe_refs": [], "last_nonzero_volume": 1.0, "render_index": 0, "reverse": false, "speed": 1.0, "template_id": "", "template_scene": "default", "track_attribute": 0, "track_render_index": 0, "uniform_scale": "null", "visible": true, "responsive_layout": {"enable": false, "horizontal_pos_layout": 0, "size_layout": 0, "target_follow": "", "vertical_pos_layout": 0}, "id": "15375849-5FF3-8889-7FBB-0CA5004C3E48", "material_id": "FCA6B9DB-A9C7-0175-C3FA-632EB9187D40", "source_timerange": {"duration": 1488000, "start": 0}, "target_timerange": {"duration": 1488000, "start": 544648000}, "volume": 1.0}, {"cartoon": false, "clip": "null", "common_keyframes": [], "enable_adjust": false, "enable_color_curves": true, "enable_color_match_adjust": false, "enable_color_wheels": true, "enable_lut": false, "enable_smart_color_adjust": false, "group_id": "", "hdr_settings": "null", "intensifies_audio": false, "is_placeholder": false, "is_tone_modify": false, "keyframe_refs": [], "last_nonzero_volume": 1.0, "render_index": 0, "reverse": false, "speed": 1.0, "template_id": "", "template_scene": "default", "track_attribute": 0, "track_render_index": 0, "uniform_scale": "null", "visible": true, "responsive_layout": {"enable": false, "horizontal_pos_layout": 0, "size_layout": 0, "target_follow": "", "vertical_pos_layout": 0}, "id": "7002239E-EE02-EBB9-C268-6108374ADB39", "material_id": "EB9EF13D-2483-8D37-6B7C-45BD3B2DB0B3", "source_timerange": {"duration": 2568000, "start": 0}, "target_timerange": {"duration": 2568000, "start": 561456000}, "volume": 1.0}, {"cartoon": false, "clip": "null", "common_keyframes": [], "enable_adjust": false, "enable_color_curves": true, "enable_color_match_adjust": false, "enable_color_wheels": true, "enable_lut": false, "enable_smart_color_adjust": false, "group_id": "", "hdr_settings": "null", "intensifies_audio": false, "is_placeholder": false, "is_tone_modify": false, "keyframe_refs": [], "last_nonzero_volume": 1.0, "render_index": 0, "reverse": false, "speed": 1.0, "template_id": "", "template_scene": "default", "track_attribute": 0, "track_render_index": 0, "uniform_scale": "null", "visible": true, "responsive_layout": {"enable": false, "horizontal_pos_layout": 0, "size_layout": 0, "target_follow": "", "vertical_pos_layout": 0}, "id": "3429FBB1-21DC-A731-8480-C40E0E664C12", "material_id": "00F3742C-4D15-A505-953C-629A1B3E1450", "source_timerange": {"duration": 2712000, "start": 0}, "target_timerange": {"duration": 2712000, "start": 570090000}, "volume": 1.0}, {"cartoon": false, "clip": "null", "common_keyframes": [], "enable_adjust": false, "enable_color_curves": true, "enable_color_match_adjust": false, "enable_color_wheels": true, "enable_lut": false, "enable_smart_color_adjust": false, "group_id": "", "hdr_settings": "null", "intensifies_audio": false, "is_placeholder": false, "is_tone_modify": false, "keyframe_refs": [], "last_nonzero_volume": 1.0, "render_index": 0, "reverse": false, "speed": 1.0, "template_id": "", "template_scene": "default", "track_attribute": 0, "track_render_index": 0, "uniform_scale": "null", "visible": true, "responsive_layout": {"enable": false, "horizontal_pos_layout": 0, "size_layout": 0, "target_follow": "", "vertical_pos_layout": 0}, "id": "24C584D9-92C9-23DC-F387-6550785F9A8D", "material_id": "4A8F732C-7755-4A63-269C-3AF9DD692A4E", "source_timerange": {"duration": 1704000, "start": 0}, "target_timerange": {"duration": 1704000, "start": 575221000}, "volume": 1.0}, {"cartoon": false, "clip": "null", "common_keyframes": [], "enable_adjust": false, "enable_color_curves": true, "enable_color_match_adjust": false, "enable_color_wheels": true, "enable_lut": false, "enable_smart_color_adjust": false, "group_id": "", "hdr_settings": "null", "intensifies_audio": false, "is_placeholder": false, "is_tone_modify": false, "keyframe_refs": [], "last_nonzero_volume": 1.0, "render_index": 0, "reverse": false, "speed": 1.0, "template_id": "", "template_scene": "default", "track_attribute": 0, "track_render_index": 0, "uniform_scale": "null", "visible": true, "responsive_layout": {"enable": false, "horizontal_pos_layout": 0, "size_layout": 0, "target_follow": "", "vertical_pos_layout": 0}, "id": "C16645FB-A9E4-C038-F663-A5BEAE8EC46C", "material_id": "8D879408-6BD6-50B6-DB29-B56654E9E7CE", "source_timerange": {"duration": 3408000, "start": 0}, "target_timerange": {"duration": 3408000, "start": 595698000}, "volume": 1.0}, {"cartoon": false, "clip": "null", "common_keyframes": [], "enable_adjust": false, "enable_color_curves": true, "enable_color_match_adjust": false, "enable_color_wheels": true, "enable_lut": false, "enable_smart_color_adjust": false, "group_id": "", "hdr_settings": "null", "intensifies_audio": false, "is_placeholder": false, "is_tone_modify": false, "keyframe_refs": [], "last_nonzero_volume": 1.0, "render_index": 0, "reverse": false, "speed": 1.0, "template_id": "", "template_scene": "default", "track_attribute": 0, "track_render_index": 0, "uniform_scale": "null", "visible": true, "responsive_layout": {"enable": false, "horizontal_pos_layout": 0, "size_layout": 0, "target_follow": "", "vertical_pos_layout": 0}, "id": "95A598FA-1296-34FD-9549-370C313DE93C", "material_id": "B20DE3A5-E612-3EA2-A431-29F9ACA47A9F", "source_timerange": {"duration": 4632000, "start": 0}, "target_timerange": {"duration": 4632000, "start": 605793000}, "volume": 1.0}, {"cartoon": false, "clip": "null", "common_keyframes": [], "enable_adjust": false, "enable_color_curves": true, "enable_color_match_adjust": false, "enable_color_wheels": true, "enable_lut": false, "enable_smart_color_adjust": false, "group_id": "", "hdr_settings": "null", "intensifies_audio": false, "is_placeholder": false, "is_tone_modify": false, "keyframe_refs": [], "last_nonzero_volume": 1.0, "render_index": 0, "reverse": false, "speed": 1.0, "template_id": "", "template_scene": "default", "track_attribute": 0, "track_render_index": 0, "uniform_scale": "null", "visible": true, "responsive_layout": {"enable": false, "horizontal_pos_layout": 0, "size_layout": 0, "target_follow": "", "vertical_pos_layout": 0}, "id": "BEAD0590-BF51-9336-871F-41E2944E0B3D", "material_id": "8EF2C2CE-FECD-CCF4-A80B-395EC08919DE", "source_timerange": {"duration": 3912000, "start": 0}, "target_timerange": {"duration": 3912000, "start": 613049000}, "volume": 1.0}, {"cartoon": false, "clip": "null", "common_keyframes": [], "enable_adjust": false, "enable_color_curves": true, "enable_color_match_adjust": false, "enable_color_wheels": true, "enable_lut": false, "enable_smart_color_adjust": false, "group_id": "", "hdr_settings": "null", "intensifies_audio": false, "is_placeholder": false, "is_tone_modify": false, "keyframe_refs": [], "last_nonzero_volume": 1.0, "render_index": 0, "reverse": false, "speed": 1.0, "template_id": "", "template_scene": "default", "track_attribute": 0, "track_render_index": 0, "uniform_scale": "null", "visible": true, "responsive_layout": {"enable": false, "horizontal_pos_layout": 0, "size_layout": 0, "target_follow": "", "vertical_pos_layout": 0}, "id": "5A9A02CC-926E-C3FC-17E9-D716BBFD59A1", "material_id": "8D18DB1A-DDEF-E81E-11B9-C144A2DEF216", "source_timerange": {"duration": 2328000, "start": 0}, "target_timerange": {"duration": 2328000, "start": 620224000}, "volume": 1.0}, {"cartoon": false, "clip": "null", "common_keyframes": [], "enable_adjust": false, "enable_color_curves": true, "enable_color_match_adjust": false, "enable_color_wheels": true, "enable_lut": false, "enable_smart_color_adjust": false, "group_id": "", "hdr_settings": "null", "intensifies_audio": false, "is_placeholder": false, "is_tone_modify": false, "keyframe_refs": [], "last_nonzero_volume": 1.0, "render_index": 0, "reverse": false, "speed": 1.0, "template_id": "", "template_scene": "default", "track_attribute": 0, "track_render_index": 0, "uniform_scale": "null", "visible": true, "responsive_layout": {"enable": false, "horizontal_pos_layout": 0, "size_layout": 0, "target_follow": "", "vertical_pos_layout": 0}, "id": "1D549543-282E-F6D1-4FE9-F31643F1E818", "material_id": "DD55220C-AACC-7816-3753-888A5F472882", "source_timerange": {"duration": 3168000, "start": 0}, "target_timerange": {"duration": 3168000, "start": 625354000}, "volume": 1.0}, {"cartoon": false, "clip": "null", "common_keyframes": [], "enable_adjust": false, "enable_color_curves": true, "enable_color_match_adjust": false, "enable_color_wheels": true, "enable_lut": false, "enable_smart_color_adjust": false, "group_id": "", "hdr_settings": "null", "intensifies_audio": false, "is_placeholder": false, "is_tone_modify": false, "keyframe_refs": [], "last_nonzero_volume": 1.0, "render_index": 0, "reverse": false, "speed": 1.0, "template_id": "", "template_scene": "default", "track_attribute": 0, "track_render_index": 0, "uniform_scale": "null", "visible": true, "responsive_layout": {"enable": false, "horizontal_pos_layout": 0, "size_layout": 0, "target_follow": "", "vertical_pos_layout": 0}, "id": "16421895-D292-6538-7D09-DD45E43E5CDC", "material_id": "9ABDEC7E-CFCF-1D94-9BD0-39C7ABBFC555", "source_timerange": {"duration": 2760000, "start": 0}, "target_timerange": {"duration": 2760000, "start": 631860000}, "volume": 1.0}, {"cartoon": false, "clip": "null", "common_keyframes": [], "enable_adjust": false, "enable_color_curves": true, "enable_color_match_adjust": false, "enable_color_wheels": true, "enable_lut": false, "enable_smart_color_adjust": false, "group_id": "", "hdr_settings": "null", "intensifies_audio": false, "is_placeholder": false, "is_tone_modify": false, "keyframe_refs": [], "last_nonzero_volume": 1.0, "render_index": 0, "reverse": false, "speed": 1.0, "template_id": "", "template_scene": "default", "track_attribute": 0, "track_render_index": 0, "uniform_scale": "null", "visible": true, "responsive_layout": {"enable": false, "horizontal_pos_layout": 0, "size_layout": 0, "target_follow": "", "vertical_pos_layout": 0}, "id": "AF617DBD-40A3-9240-FC13-7B611D63A140", "material_id": "BC8E289C-92CA-1E2F-5107-F051508A93C6", "source_timerange": {"duration": 3432000, "start": 0}, "target_timerange": {"duration": 3432000, "start": 636532000}, "volume": 1.0}, {"cartoon": false, "clip": "null", "common_keyframes": [], "enable_adjust": false, "enable_color_curves": true, "enable_color_match_adjust": false, "enable_color_wheels": true, "enable_lut": false, "enable_smart_color_adjust": false, "group_id": "", "hdr_settings": "null", "intensifies_audio": false, "is_placeholder": false, "is_tone_modify": false, "keyframe_refs": [], "last_nonzero_volume": 1.0, "render_index": 0, "reverse": false, "speed": 1.0, "template_id": "", "template_scene": "default", "track_attribute": 0, "track_render_index": 0, "uniform_scale": "null", "visible": true, "responsive_layout": {"enable": false, "horizontal_pos_layout": 0, "size_layout": 0, "target_follow": "", "vertical_pos_layout": 0}, "id": "A0D77480-E6D5-5DD5-9B0D-A4CF6669DE79", "material_id": "94356FE5-05EF-041B-8225-3786D2A7929C", "source_timerange": {"duration": 1392000, "start": 0}, "target_timerange": {"duration": 1392000, "start": 651087000}, "volume": 1.0}, {"cartoon": false, "clip": "null", "common_keyframes": [], "enable_adjust": false, "enable_color_curves": true, "enable_color_match_adjust": false, "enable_color_wheels": true, "enable_lut": false, "enable_smart_color_adjust": false, "group_id": "", "hdr_settings": "null", "intensifies_audio": false, "is_placeholder": false, "is_tone_modify": false, "keyframe_refs": [], "last_nonzero_volume": 1.0, "render_index": 0, "reverse": false, "speed": 1.0, "template_id": "", "template_scene": "default", "track_attribute": 0, "track_render_index": 0, "uniform_scale": "null", "visible": true, "responsive_layout": {"enable": false, "horizontal_pos_layout": 0, "size_layout": 0, "target_follow": "", "vertical_pos_layout": 0}, "id": "541393B8-D37E-AB77-1161-ECD6DA59EAAB", "material_id": "35A603E7-8D78-0712-340F-AD03D4B9C2E6", "source_timerange": {"duration": 2208000, "start": 0}, "target_timerange": {"duration": 2208000, "start": 654133000}, "volume": 1.0}, {"cartoon": false, "clip": "null", "common_keyframes": [], "enable_adjust": false, "enable_color_curves": true, "enable_color_match_adjust": false, "enable_color_wheels": true, "enable_lut": false, "enable_smart_color_adjust": false, "group_id": "", "hdr_settings": "null", "intensifies_audio": false, "is_placeholder": false, "is_tone_modify": false, "keyframe_refs": [], "last_nonzero_volume": 1.0, "render_index": 0, "reverse": false, "speed": 1.0, "template_id": "", "template_scene": "default", "track_attribute": 0, "track_render_index": 0, "uniform_scale": "null", "visible": true, "responsive_layout": {"enable": false, "horizontal_pos_layout": 0, "size_layout": 0, "target_follow": "", "vertical_pos_layout": 0}, "id": "6DA89067-454A-FBD6-491D-1AC52085B4E9", "material_id": "6088ADE9-A9C3-9680-B321-336213D85A6B", "source_timerange": {"duration": 1488000, "start": 0}, "target_timerange": {"duration": 1488000, "start": 658553000}, "volume": 1.0}, {"cartoon": false, "clip": "null", "common_keyframes": [], "enable_adjust": false, "enable_color_curves": true, "enable_color_match_adjust": false, "enable_color_wheels": true, "enable_lut": false, "enable_smart_color_adjust": false, "group_id": "", "hdr_settings": "null", "intensifies_audio": false, "is_placeholder": false, "is_tone_modify": false, "keyframe_refs": [], "last_nonzero_volume": 1.0, "render_index": 0, "reverse": false, "speed": 1.0, "template_id": "", "template_scene": "default", "track_attribute": 0, "track_render_index": 0, "uniform_scale": "null", "visible": true, "responsive_layout": {"enable": false, "horizontal_pos_layout": 0, "size_layout": 0, "target_follow": "", "vertical_pos_layout": 0}, "id": "30C24014-DCDA-A14E-12C7-80B3D3DC607A", "material_id": "985503EC-866A-8983-DDA2-8FA194204828", "source_timerange": {"duration": 3240000, "start": 0}, "target_timerange": {"duration": 3240000, "start": 664018000}, "volume": 1.0}, {"cartoon": false, "clip": "null", "common_keyframes": [], "enable_adjust": false, "enable_color_curves": true, "enable_color_match_adjust": false, "enable_color_wheels": true, "enable_lut": false, "enable_smart_color_adjust": false, "group_id": "", "hdr_settings": "null", "intensifies_audio": false, "is_placeholder": false, "is_tone_modify": false, "keyframe_refs": [], "last_nonzero_volume": 1.0, "render_index": 0, "reverse": false, "speed": 1.0, "template_id": "", "template_scene": "default", "track_attribute": 0, "track_render_index": 0, "uniform_scale": "null", "visible": true, "responsive_layout": {"enable": false, "horizontal_pos_layout": 0, "size_layout": 0, "target_follow": "", "vertical_pos_layout": 0}, "id": "43FD35F6-CC30-E720-76B5-EC3954593859", "material_id": "D8C5601D-40E3-44C3-2B56-90BCE986E4CC", "source_timerange": {"duration": 1536000, "start": 0}, "target_timerange": {"duration": 1536000, "start": 671191000}, "volume": 1.0}, {"cartoon": false, "clip": "null", "common_keyframes": [], "enable_adjust": false, "enable_color_curves": true, "enable_color_match_adjust": false, "enable_color_wheels": true, "enable_lut": false, "enable_smart_color_adjust": false, "group_id": "", "hdr_settings": "null", "intensifies_audio": false, "is_placeholder": false, "is_tone_modify": false, "keyframe_refs": [], "last_nonzero_volume": 1.0, "render_index": 0, "reverse": false, "speed": 1.0, "template_id": "", "template_scene": "default", "track_attribute": 0, "track_render_index": 0, "uniform_scale": "null", "visible": true, "responsive_layout": {"enable": false, "horizontal_pos_layout": 0, "size_layout": 0, "target_follow": "", "vertical_pos_layout": 0}, "id": "FDC128D6-51DB-EF76-77A9-446655C64B65", "material_id": "CF10BC41-B3F0-6782-4B28-9BE28D7F71A1", "source_timerange": {"duration": 1824000, "start": 0}, "target_timerange": {"duration": 1824000, "start": 674986000}, "volume": 1.0}, {"cartoon": false, "clip": "null", "common_keyframes": [], "enable_adjust": false, "enable_color_curves": true, "enable_color_match_adjust": false, "enable_color_wheels": true, "enable_lut": false, "enable_smart_color_adjust": false, "group_id": "", "hdr_settings": "null", "intensifies_audio": false, "is_placeholder": false, "is_tone_modify": false, "keyframe_refs": [], "last_nonzero_volume": 1.0, "render_index": 0, "reverse": false, "speed": 1.0, "template_id": "", "template_scene": "default", "track_attribute": 0, "track_render_index": 0, "uniform_scale": "null", "visible": true, "responsive_layout": {"enable": false, "horizontal_pos_layout": 0, "size_layout": 0, "target_follow": "", "vertical_pos_layout": 0}, "id": "D67FE9CC-FDBC-0216-C69E-1F50B99819DD", "material_id": "72C08DC1-3F18-04CA-2C21-14F1BBCC9C6F", "source_timerange": {"duration": 2520000, "start": 0}, "target_timerange": {"duration": 2520000, "start": 685121000}, "volume": 1.0}, {"cartoon": false, "clip": "null", "common_keyframes": [], "enable_adjust": false, "enable_color_curves": true, "enable_color_match_adjust": false, "enable_color_wheels": true, "enable_lut": false, "enable_smart_color_adjust": false, "group_id": "", "hdr_settings": "null", "intensifies_audio": false, "is_placeholder": false, "is_tone_modify": false, "keyframe_refs": [], "last_nonzero_volume": 1.0, "render_index": 0, "reverse": false, "speed": 1.0, "template_id": "", "template_scene": "default", "track_attribute": 0, "track_render_index": 0, "uniform_scale": "null", "visible": true, "responsive_layout": {"enable": false, "horizontal_pos_layout": 0, "size_layout": 0, "target_follow": "", "vertical_pos_layout": 0}, "id": "561470AA-8B71-A5FE-5C6F-31656D55AFC3", "material_id": "B0C85B38-DFCD-1205-FD88-F5C8B6A1EAF5", "source_timerange": {"duration": 2424000, "start": 0}, "target_timerange": {"duration": 2424000, "start": 690085000}, "volume": 1.0}, {"cartoon": false, "clip": "null", "common_keyframes": [], "enable_adjust": false, "enable_color_curves": true, "enable_color_match_adjust": false, "enable_color_wheels": true, "enable_lut": false, "enable_smart_color_adjust": false, "group_id": "", "hdr_settings": "null", "intensifies_audio": false, "is_placeholder": false, "is_tone_modify": false, "keyframe_refs": [], "last_nonzero_volume": 1.0, "render_index": 0, "reverse": false, "speed": 1.0, "template_id": "", "template_scene": "default", "track_attribute": 0, "track_render_index": 0, "uniform_scale": "null", "visible": true, "responsive_layout": {"enable": false, "horizontal_pos_layout": 0, "size_layout": 0, "target_follow": "", "vertical_pos_layout": 0}, "id": "30ABD097-B936-199D-BD59-F392129F0FE2", "material_id": "70F0CD3C-C1D0-D02E-E626-805B74F6463D", "source_timerange": {"duration": 3504000, "start": 0}, "target_timerange": {"duration": 3504000, "start": 696799000}, "volume": 1.0}, {"cartoon": false, "clip": "null", "common_keyframes": [], "enable_adjust": false, "enable_color_curves": true, "enable_color_match_adjust": false, "enable_color_wheels": true, "enable_lut": false, "enable_smart_color_adjust": false, "group_id": "", "hdr_settings": "null", "intensifies_audio": false, "is_placeholder": false, "is_tone_modify": false, "keyframe_refs": [], "last_nonzero_volume": 1.0, "render_index": 0, "reverse": false, "speed": 1.0, "template_id": "", "template_scene": "default", "track_attribute": 0, "track_render_index": 0, "uniform_scale": "null", "visible": true, "responsive_layout": {"enable": false, "horizontal_pos_layout": 0, "size_layout": 0, "target_follow": "", "vertical_pos_layout": 0}, "id": "92AD44F2-E6C4-5597-86FF-E894C194EF43", "material_id": "D6034C4F-0BAD-315D-E8CC-4ED2E4042BE3", "source_timerange": {"duration": 1320000, "start": 0}, "target_timerange": {"duration": 1320000, "start": 705517000}, "volume": 1.0}, {"cartoon": false, "clip": "null", "common_keyframes": [], "enable_adjust": false, "enable_color_curves": true, "enable_color_match_adjust": false, "enable_color_wheels": true, "enable_lut": false, "enable_smart_color_adjust": false, "group_id": "", "hdr_settings": "null", "intensifies_audio": false, "is_placeholder": false, "is_tone_modify": false, "keyframe_refs": [], "last_nonzero_volume": 1.0, "render_index": 0, "reverse": false, "speed": 1.0, "template_id": "", "template_scene": "default", "track_attribute": 0, "track_render_index": 0, "uniform_scale": "null", "visible": true, "responsive_layout": {"enable": false, "horizontal_pos_layout": 0, "size_layout": 0, "target_follow": "", "vertical_pos_layout": 0}, "id": "0752123E-9FA5-9BC8-8D18-1DD461B12578", "material_id": "22DC6147-A746-85AF-D56A-54938C194980", "source_timerange": {"duration": 1440000, "start": 0}, "target_timerange": {"duration": 1440000, "start": 709812000}, "volume": 1.0}, {"cartoon": false, "clip": "null", "common_keyframes": [], "enable_adjust": false, "enable_color_curves": true, "enable_color_match_adjust": false, "enable_color_wheels": true, "enable_lut": false, "enable_smart_color_adjust": false, "group_id": "", "hdr_settings": "null", "intensifies_audio": false, "is_placeholder": false, "is_tone_modify": false, "keyframe_refs": [], "last_nonzero_volume": 1.0, "render_index": 0, "reverse": false, "speed": 1.0, "template_id": "", "template_scene": "default", "track_attribute": 0, "track_render_index": 0, "uniform_scale": "null", "visible": true, "responsive_layout": {"enable": false, "horizontal_pos_layout": 0, "size_layout": 0, "target_follow": "", "vertical_pos_layout": 0}, "id": "9B083561-22C1-2281-7E2C-9D5B8DC54D82", "material_id": "AC433569-E293-5A35-CFBC-1D1EC81F8EC5", "source_timerange": {"duration": 2472000, "start": 0}, "target_timerange": {"duration": 2472000, "start": 712106000}, "volume": 1.0}, {"cartoon": false, "clip": "null", "common_keyframes": [], "enable_adjust": false, "enable_color_curves": true, "enable_color_match_adjust": false, "enable_color_wheels": true, "enable_lut": false, "enable_smart_color_adjust": false, "group_id": "", "hdr_settings": "null", "intensifies_audio": false, "is_placeholder": false, "is_tone_modify": false, "keyframe_refs": [], "last_nonzero_volume": 1.0, "render_index": 0, "reverse": false, "speed": 1.0, "template_id": "", "template_scene": "default", "track_attribute": 0, "track_render_index": 0, "uniform_scale": "null", "visible": true, "responsive_layout": {"enable": false, "horizontal_pos_layout": 0, "size_layout": 0, "target_follow": "", "vertical_pos_layout": 0}, "id": "F12A1C9E-DA69-FF84-4851-37443B994F97", "material_id": "A30EE925-BF64-B0E1-AAF2-208779EDF13A", "source_timerange": {"duration": 2640000, "start": 0}, "target_timerange": {"duration": 2640000, "start": 716986000}, "volume": 1.0}, {"cartoon": false, "clip": "null", "common_keyframes": [], "enable_adjust": false, "enable_color_curves": true, "enable_color_match_adjust": false, "enable_color_wheels": true, "enable_lut": false, "enable_smart_color_adjust": false, "group_id": "", "hdr_settings": "null", "intensifies_audio": false, "is_placeholder": false, "is_tone_modify": false, "keyframe_refs": [], "last_nonzero_volume": 1.0, "render_index": 0, "reverse": false, "speed": 1.0, "template_id": "", "template_scene": "default", "track_attribute": 0, "track_render_index": 0, "uniform_scale": "null", "visible": true, "responsive_layout": {"enable": false, "horizontal_pos_layout": 0, "size_layout": 0, "target_follow": "", "vertical_pos_layout": 0}, "id": "91B08599-1101-B29E-2EB3-BEC7C24CD9FF", "material_id": "35F701B3-8A6B-C703-CFF7-AB09F3744762", "source_timerange": {"duration": 2592000, "start": 0}, "target_timerange": {"duration": 2592000, "start": 723034000}, "volume": 1.0}, {"cartoon": false, "clip": "null", "common_keyframes": [], "enable_adjust": false, "enable_color_curves": true, "enable_color_match_adjust": false, "enable_color_wheels": true, "enable_lut": false, "enable_smart_color_adjust": false, "group_id": "", "hdr_settings": "null", "intensifies_audio": false, "is_placeholder": false, "is_tone_modify": false, "keyframe_refs": [], "last_nonzero_volume": 1.0, "render_index": 0, "reverse": false, "speed": 1.0, "template_id": "", "template_scene": "default", "track_attribute": 0, "track_render_index": 0, "uniform_scale": "null", "visible": true, "responsive_layout": {"enable": false, "horizontal_pos_layout": 0, "size_layout": 0, "target_follow": "", "vertical_pos_layout": 0}, "id": "25D6CC0C-9358-78A2-5FBC-C3D5D6D08A60", "material_id": "C5ACF29F-8642-A9CB-29B0-FD25A73198FB", "source_timerange": {"duration": 1248000, "start": 0}, "target_timerange": {"duration": 1248000, "start": 726913000}, "volume": 1.0}, {"cartoon": false, "clip": "null", "common_keyframes": [], "enable_adjust": false, "enable_color_curves": true, "enable_color_match_adjust": false, "enable_color_wheels": true, "enable_lut": false, "enable_smart_color_adjust": false, "group_id": "", "hdr_settings": "null", "intensifies_audio": false, "is_placeholder": false, "is_tone_modify": false, "keyframe_refs": [], "last_nonzero_volume": 1.0, "render_index": 0, "reverse": false, "speed": 1.0, "template_id": "", "template_scene": "default", "track_attribute": 0, "track_render_index": 0, "uniform_scale": "null", "visible": true, "responsive_layout": {"enable": false, "horizontal_pos_layout": 0, "size_layout": 0, "target_follow": "", "vertical_pos_layout": 0}, "id": "BC580E25-6246-C90C-74B8-F06161A93620", "material_id": "AB4A65AB-013C-D386-3173-9B9835D05BCE", "source_timerange": {"duration": 1896000, "start": 0}, "target_timerange": {"duration": 1896000, "start": 730333000}, "volume": 1.0}, {"cartoon": false, "clip": "null", "common_keyframes": [], "enable_adjust": false, "enable_color_curves": true, "enable_color_match_adjust": false, "enable_color_wheels": true, "enable_lut": false, "enable_smart_color_adjust": false, "group_id": "", "hdr_settings": "null", "intensifies_audio": false, "is_placeholder": false, "is_tone_modify": false, "keyframe_refs": [], "last_nonzero_volume": 1.0, "render_index": 0, "reverse": false, "speed": 1.0, "template_id": "", "template_scene": "default", "track_attribute": 0, "track_render_index": 0, "uniform_scale": "null", "visible": true, "responsive_layout": {"enable": false, "horizontal_pos_layout": 0, "size_layout": 0, "target_follow": "", "vertical_pos_layout": 0}, "id": "3DE84570-9877-0F4B-AE44-1D5BC7DC7B88", "material_id": "AAB2DFC8-A85B-3F32-5F3F-2DE28E0DC95A", "source_timerange": {"duration": 4224000, "start": 0}, "target_timerange": {"duration": 4224000, "start": 735172000}, "volume": 1.0}, {"cartoon": false, "clip": "null", "common_keyframes": [], "enable_adjust": false, "enable_color_curves": true, "enable_color_match_adjust": false, "enable_color_wheels": true, "enable_lut": false, "enable_smart_color_adjust": false, "group_id": "", "hdr_settings": "null", "intensifies_audio": false, "is_placeholder": false, "is_tone_modify": false, "keyframe_refs": [], "last_nonzero_volume": 1.0, "render_index": 0, "reverse": false, "speed": 1.0, "template_id": "", "template_scene": "default", "track_attribute": 0, "track_render_index": 0, "uniform_scale": "null", "visible": true, "responsive_layout": {"enable": false, "horizontal_pos_layout": 0, "size_layout": 0, "target_follow": "", "vertical_pos_layout": 0}, "id": "A12C9A36-DB59-31E1-2DC5-28AD5C533B18", "material_id": "8629501A-2AC5-1C71-4EAE-6B3809A01649", "source_timerange": {"duration": 3480000, "start": 0}, "target_timerange": {"duration": 3480000, "start": 740885000}, "volume": 1.0}, {"cartoon": false, "clip": "null", "common_keyframes": [], "enable_adjust": false, "enable_color_curves": true, "enable_color_match_adjust": false, "enable_color_wheels": true, "enable_lut": false, "enable_smart_color_adjust": false, "group_id": "", "hdr_settings": "null", "intensifies_audio": false, "is_placeholder": false, "is_tone_modify": false, "keyframe_refs": [], "last_nonzero_volume": 1.0, "render_index": 0, "reverse": false, "speed": 1.0, "template_id": "", "template_scene": "default", "track_attribute": 0, "track_render_index": 0, "uniform_scale": "null", "visible": true, "responsive_layout": {"enable": false, "horizontal_pos_layout": 0, "size_layout": 0, "target_follow": "", "vertical_pos_layout": 0}, "id": "C03BCBBD-A615-5C24-8BDE-BD049E7F9697", "material_id": "345ED447-AD2C-3EB8-DE26-740E3C403D85", "source_timerange": {"duration": 2112000, "start": 0}, "target_timerange": {"duration": 2112000, "start": 746683000}, "volume": 1.0}, {"cartoon": false, "clip": "null", "common_keyframes": [], "enable_adjust": false, "enable_color_curves": true, "enable_color_match_adjust": false, "enable_color_wheels": true, "enable_lut": false, "enable_smart_color_adjust": false, "group_id": "", "hdr_settings": "null", "intensifies_audio": false, "is_placeholder": false, "is_tone_modify": false, "keyframe_refs": [], "last_nonzero_volume": 1.0, "render_index": 0, "reverse": false, "speed": 1.0, "template_id": "", "template_scene": "default", "track_attribute": 0, "track_render_index": 0, "uniform_scale": "null", "visible": true, "responsive_layout": {"enable": false, "horizontal_pos_layout": 0, "size_layout": 0, "target_follow": "", "vertical_pos_layout": 0}, "id": "4E278AFA-0910-2258-C97D-0E3740F9C66A", "material_id": "C897DF03-23F0-4375-BB36-E064FA229E1D", "source_timerange": {"duration": 2376000, "start": 0}, "target_timerange": {"duration": 2376000, "start": 752230000}, "volume": 1.0}, {"cartoon": false, "clip": "null", "common_keyframes": [], "enable_adjust": false, "enable_color_curves": true, "enable_color_match_adjust": false, "enable_color_wheels": true, "enable_lut": false, "enable_smart_color_adjust": false, "group_id": "", "hdr_settings": "null", "intensifies_audio": false, "is_placeholder": false, "is_tone_modify": false, "keyframe_refs": [], "last_nonzero_volume": 1.0, "render_index": 0, "reverse": false, "speed": 1.0, "template_id": "", "template_scene": "default", "track_attribute": 0, "track_render_index": 0, "uniform_scale": "null", "visible": true, "responsive_layout": {"enable": false, "horizontal_pos_layout": 0, "size_layout": 0, "target_follow": "", "vertical_pos_layout": 0}, "id": "476D7AA4-2941-EA28-E465-E9ED57AC21F0", "material_id": "81EB5686-2D83-24AA-5573-9E64628FE3C2", "source_timerange": {"duration": 2376000, "start": 0}, "target_timerange": {"duration": 2376000, "start": 756860000}, "volume": 1.0}, {"cartoon": false, "clip": "null", "common_keyframes": [], "enable_adjust": false, "enable_color_curves": true, "enable_color_match_adjust": false, "enable_color_wheels": true, "enable_lut": false, "enable_smart_color_adjust": false, "group_id": "", "hdr_settings": "null", "intensifies_audio": false, "is_placeholder": false, "is_tone_modify": false, "keyframe_refs": [], "last_nonzero_volume": 1.0, "render_index": 0, "reverse": false, "speed": 1.0, "template_id": "", "template_scene": "default", "track_attribute": 0, "track_render_index": 0, "uniform_scale": "null", "visible": true, "responsive_layout": {"enable": false, "horizontal_pos_layout": 0, "size_layout": 0, "target_follow": "", "vertical_pos_layout": 0}, "id": "9ADF4D86-B63C-A4BF-78BB-6E49891235F3", "material_id": "D1A17869-C81B-B22A-8D7F-B49C9E06A641", "source_timerange": {"duration": 2136000, "start": 0}, "target_timerange": {"duration": 2136000, "start": 761615000}, "volume": 1.0}, {"cartoon": false, "clip": "null", "common_keyframes": [], "enable_adjust": false, "enable_color_curves": true, "enable_color_match_adjust": false, "enable_color_wheels": true, "enable_lut": false, "enable_smart_color_adjust": false, "group_id": "", "hdr_settings": "null", "intensifies_audio": false, "is_placeholder": false, "is_tone_modify": false, "keyframe_refs": [], "last_nonzero_volume": 1.0, "render_index": 0, "reverse": false, "speed": 1.0, "template_id": "", "template_scene": "default", "track_attribute": 0, "track_render_index": 0, "uniform_scale": "null", "visible": true, "responsive_layout": {"enable": false, "horizontal_pos_layout": 0, "size_layout": 0, "target_follow": "", "vertical_pos_layout": 0}, "id": "6A9B8105-5DB3-97CA-30C0-117E44763070", "material_id": "266D7F7C-E80B-790E-3003-73BF1061529A", "source_timerange": {"duration": 1464000, "start": 0}, "target_timerange": {"duration": 1464000, "start": 764158000}, "volume": 1.0}, {"cartoon": false, "clip": "null", "common_keyframes": [], "enable_adjust": false, "enable_color_curves": true, "enable_color_match_adjust": false, "enable_color_wheels": true, "enable_lut": false, "enable_smart_color_adjust": false, "group_id": "", "hdr_settings": "null", "intensifies_audio": false, "is_placeholder": false, "is_tone_modify": false, "keyframe_refs": [], "last_nonzero_volume": 1.0, "render_index": 0, "reverse": false, "speed": 1.0, "template_id": "", "template_scene": "default", "track_attribute": 0, "track_render_index": 0, "uniform_scale": "null", "visible": true, "responsive_layout": {"enable": false, "horizontal_pos_layout": 0, "size_layout": 0, "target_follow": "", "vertical_pos_layout": 0}, "id": "9D59DD3B-DF63-CC10-7053-1BAD6FD384D8", "material_id": "53483E3E-4A53-F979-C64E-C13C4E515777", "source_timerange": {"duration": 1512000, "start": 0}, "target_timerange": {"duration": 1512000, "start": 766537000}, "volume": 1.0}, {"cartoon": false, "clip": "null", "common_keyframes": [], "enable_adjust": false, "enable_color_curves": true, "enable_color_match_adjust": false, "enable_color_wheels": true, "enable_lut": false, "enable_smart_color_adjust": false, "group_id": "", "hdr_settings": "null", "intensifies_audio": false, "is_placeholder": false, "is_tone_modify": false, "keyframe_refs": [], "last_nonzero_volume": 1.0, "render_index": 0, "reverse": false, "speed": 1.0, "template_id": "", "template_scene": "default", "track_attribute": 0, "track_render_index": 0, "uniform_scale": "null", "visible": true, "responsive_layout": {"enable": false, "horizontal_pos_layout": 0, "size_layout": 0, "target_follow": "", "vertical_pos_layout": 0}, "id": "82932BB4-9E9F-88DC-9C12-14DBB2AC93E7", "material_id": "72755B02-A526-4EB1-C4E3-E92948CA6E3D", "source_timerange": {"duration": 1632000, "start": 0}, "target_timerange": {"duration": 1632000, "start": 768788000}, "volume": 1.0}, {"cartoon": false, "clip": "null", "common_keyframes": [], "enable_adjust": false, "enable_color_curves": true, "enable_color_match_adjust": false, "enable_color_wheels": true, "enable_lut": false, "enable_smart_color_adjust": false, "group_id": "", "hdr_settings": "null", "intensifies_audio": false, "is_placeholder": false, "is_tone_modify": false, "keyframe_refs": [], "last_nonzero_volume": 1.0, "render_index": 0, "reverse": false, "speed": 1.0, "template_id": "", "template_scene": "default", "track_attribute": 0, "track_render_index": 0, "uniform_scale": "null", "visible": true, "responsive_layout": {"enable": false, "horizontal_pos_layout": 0, "size_layout": 0, "target_follow": "", "vertical_pos_layout": 0}, "id": "17AC7BA6-E4E3-96DE-518E-1DE33C357AEC", "material_id": "7991B322-AD60-49FC-BCFF-B3A4B5C4E426", "source_timerange": {"duration": 1848000, "start": 0}, "target_timerange": {"duration": 1848000, "start": 770374000}, "volume": 1.0}, {"cartoon": false, "clip": "null", "common_keyframes": [], "enable_adjust": false, "enable_color_curves": true, "enable_color_match_adjust": false, "enable_color_wheels": true, "enable_lut": false, "enable_smart_color_adjust": false, "group_id": "", "hdr_settings": "null", "intensifies_audio": false, "is_placeholder": false, "is_tone_modify": false, "keyframe_refs": [], "last_nonzero_volume": 1.0, "render_index": 0, "reverse": false, "speed": 1.0, "template_id": "", "template_scene": "default", "track_attribute": 0, "track_render_index": 0, "uniform_scale": "null", "visible": true, "responsive_layout": {"enable": false, "horizontal_pos_layout": 0, "size_layout": 0, "target_follow": "", "vertical_pos_layout": 0}, "id": "6C459C65-3CC7-0774-E31A-A28B5CB815F2", "material_id": "90766394-E813-1786-87A0-5882ECF14EC2", "source_timerange": {"duration": 1728000, "start": 0}, "target_timerange": {"duration": 1728000, "start": 773251000}, "volume": 1.0}, {"cartoon": false, "clip": "null", "common_keyframes": [], "enable_adjust": false, "enable_color_curves": true, "enable_color_match_adjust": false, "enable_color_wheels": true, "enable_lut": false, "enable_smart_color_adjust": false, "group_id": "", "hdr_settings": "null", "intensifies_audio": false, "is_placeholder": false, "is_tone_modify": false, "keyframe_refs": [], "last_nonzero_volume": 1.0, "render_index": 0, "reverse": false, "speed": 1.0, "template_id": "", "template_scene": "default", "track_attribute": 0, "track_render_index": 0, "uniform_scale": "null", "visible": true, "responsive_layout": {"enable": false, "horizontal_pos_layout": 0, "size_layout": 0, "target_follow": "", "vertical_pos_layout": 0}, "id": "A302D46A-41EB-BDF9-89CF-2D90F241C5C1", "material_id": "A14FB0FE-7629-CA8D-FA4F-56C834477CB3", "source_timerange": {"duration": 3216000, "start": 0}, "target_timerange": {"duration": 3216000, "start": 778090000}, "volume": 1.0}, {"cartoon": false, "clip": "null", "common_keyframes": [], "enable_adjust": false, "enable_color_curves": true, "enable_color_match_adjust": false, "enable_color_wheels": true, "enable_lut": false, "enable_smart_color_adjust": false, "group_id": "", "hdr_settings": "null", "intensifies_audio": false, "is_placeholder": false, "is_tone_modify": false, "keyframe_refs": [], "last_nonzero_volume": 1.0, "render_index": 0, "reverse": false, "speed": 1.0, "template_id": "", "template_scene": "default", "track_attribute": 0, "track_render_index": 0, "uniform_scale": "null", "visible": true, "responsive_layout": {"enable": false, "horizontal_pos_layout": 0, "size_layout": 0, "target_follow": "", "vertical_pos_layout": 0}, "id": "0BF55110-5CBD-1F67-AA3D-F1D311A41C16", "material_id": "BF9A8A42-E3C3-0896-4BD5-3829376CF05D", "source_timerange": {"duration": 2016000, "start": 0}, "target_timerange": {"duration": 2016000, "start": 782885000}, "volume": 1.0}, {"cartoon": false, "clip": "null", "common_keyframes": [], "enable_adjust": false, "enable_color_curves": true, "enable_color_match_adjust": false, "enable_color_wheels": true, "enable_lut": false, "enable_smart_color_adjust": false, "group_id": "", "hdr_settings": "null", "intensifies_audio": false, "is_placeholder": false, "is_tone_modify": false, "keyframe_refs": [], "last_nonzero_volume": 1.0, "render_index": 0, "reverse": false, "speed": 1.0, "template_id": "", "template_scene": "default", "track_attribute": 0, "track_render_index": 0, "uniform_scale": "null", "visible": true, "responsive_layout": {"enable": false, "horizontal_pos_layout": 0, "size_layout": 0, "target_follow": "", "vertical_pos_layout": 0}, "id": "E5845C2F-881D-0D3C-7E06-BF2C78A751BA", "material_id": "378B283C-2CEA-93AF-6C94-5062F1FF830D", "source_timerange": {"duration": 3936000, "start": 0}, "target_timerange": {"duration": 3936000, "start": 787099000}, "volume": 1.0}, {"cartoon": false, "clip": "null", "common_keyframes": [], "enable_adjust": false, "enable_color_curves": true, "enable_color_match_adjust": false, "enable_color_wheels": true, "enable_lut": false, "enable_smart_color_adjust": false, "group_id": "", "hdr_settings": "null", "intensifies_audio": false, "is_placeholder": false, "is_tone_modify": false, "keyframe_refs": [], "last_nonzero_volume": 1.0, "render_index": 0, "reverse": false, "speed": 1.0, "template_id": "", "template_scene": "default", "track_attribute": 0, "track_render_index": 0, "uniform_scale": "null", "visible": true, "responsive_layout": {"enable": false, "horizontal_pos_layout": 0, "size_layout": 0, "target_follow": "", "vertical_pos_layout": 0}, "id": "1F933083-C3C0-348C-D5C4-16A1E09B9166", "material_id": "68860259-7E0B-6297-B64B-0D879C16A8EA", "source_timerange": {"duration": 1992000, "start": 0}, "target_timerange": {"duration": 1992000, "start": 793230000}, "volume": 1.0}, {"cartoon": false, "clip": "null", "common_keyframes": [], "enable_adjust": false, "enable_color_curves": true, "enable_color_match_adjust": false, "enable_color_wheels": true, "enable_lut": false, "enable_smart_color_adjust": false, "group_id": "", "hdr_settings": "null", "intensifies_audio": false, "is_placeholder": false, "is_tone_modify": false, "keyframe_refs": [], "last_nonzero_volume": 1.0, "render_index": 0, "reverse": false, "speed": 1.0, "template_id": "", "template_scene": "default", "track_attribute": 0, "track_render_index": 0, "uniform_scale": "null", "visible": true, "responsive_layout": {"enable": false, "horizontal_pos_layout": 0, "size_layout": 0, "target_follow": "", "vertical_pos_layout": 0}, "id": "9144A667-D6C6-BC29-B335-463FEBC72A3F", "material_id": "05B45B2F-8800-F6AE-15F7-8C34E1719A8C", "source_timerange": {"duration": 2088000, "start": 0}, "target_timerange": {"duration": 2088000, "start": 798152000}, "volume": 1.0}, {"cartoon": false, "clip": "null", "common_keyframes": [], "enable_adjust": false, "enable_color_curves": true, "enable_color_match_adjust": false, "enable_color_wheels": true, "enable_lut": false, "enable_smart_color_adjust": false, "group_id": "", "hdr_settings": "null", "intensifies_audio": false, "is_placeholder": false, "is_tone_modify": false, "keyframe_refs": [], "last_nonzero_volume": 1.0, "render_index": 0, "reverse": false, "speed": 1.0, "template_id": "", "template_scene": "default", "track_attribute": 0, "track_render_index": 0, "uniform_scale": "null", "visible": true, "responsive_layout": {"enable": false, "horizontal_pos_layout": 0, "size_layout": 0, "target_follow": "", "vertical_pos_layout": 0}, "id": "FF8EDB2B-8059-AB65-1054-81A82AD6FA15", "material_id": "B5202746-2239-6A6F-165E-6F626E30482B", "source_timerange": {"duration": 1968000, "start": 0}, "target_timerange": {"duration": 1968000, "start": 802865000}, "volume": 1.0}, {"cartoon": false, "clip": "null", "common_keyframes": [], "enable_adjust": false, "enable_color_curves": true, "enable_color_match_adjust": false, "enable_color_wheels": true, "enable_lut": false, "enable_smart_color_adjust": false, "group_id": "", "hdr_settings": "null", "intensifies_audio": false, "is_placeholder": false, "is_tone_modify": false, "keyframe_refs": [], "last_nonzero_volume": 1.0, "render_index": 0, "reverse": false, "speed": 1.0, "template_id": "", "template_scene": "default", "track_attribute": 0, "track_render_index": 0, "uniform_scale": "null", "visible": true, "responsive_layout": {"enable": false, "horizontal_pos_layout": 0, "size_layout": 0, "target_follow": "", "vertical_pos_layout": 0}, "id": "05338C36-835F-B90C-DBB7-3DFA8DA37C11", "material_id": "86A80842-873B-910F-F141-68FEEF569E3E", "source_timerange": {"duration": 3984000, "start": 0}, "target_timerange": {"duration": 3984000, "start": 814835000}, "volume": 1.0}, {"cartoon": false, "clip": "null", "common_keyframes": [], "enable_adjust": false, "enable_color_curves": true, "enable_color_match_adjust": false, "enable_color_wheels": true, "enable_lut": false, "enable_smart_color_adjust": false, "group_id": "", "hdr_settings": "null", "intensifies_audio": false, "is_placeholder": false, "is_tone_modify": false, "keyframe_refs": [], "last_nonzero_volume": 1.0, "render_index": 0, "reverse": false, "speed": 1.0, "template_id": "", "template_scene": "default", "track_attribute": 0, "track_render_index": 0, "uniform_scale": "null", "visible": true, "responsive_layout": {"enable": false, "horizontal_pos_layout": 0, "size_layout": 0, "target_follow": "", "vertical_pos_layout": 0}, "id": "61F86749-2271-8B2C-FD7F-BB05A4EC20D2", "material_id": "BC347BB8-844F-BC63-0665-DCF412420503", "source_timerange": {"duration": 2112000, "start": 0}, "target_timerange": {"duration": 2112000, "start": 830100000}, "volume": 1.0}, {"cartoon": false, "clip": "null", "common_keyframes": [], "enable_adjust": false, "enable_color_curves": true, "enable_color_match_adjust": false, "enable_color_wheels": true, "enable_lut": false, "enable_smart_color_adjust": false, "group_id": "", "hdr_settings": "null", "intensifies_audio": false, "is_placeholder": false, "is_tone_modify": false, "keyframe_refs": [], "last_nonzero_volume": 1.0, "render_index": 0, "reverse": false, "speed": 1.0, "template_id": "", "template_scene": "default", "track_attribute": 0, "track_render_index": 0, "uniform_scale": "null", "visible": true, "responsive_layout": {"enable": false, "horizontal_pos_layout": 0, "size_layout": 0, "target_follow": "", "vertical_pos_layout": 0}, "id": "44AF623D-4A7D-CA8C-A4E1-2713856AB0D3", "material_id": "D0F20B0A-9071-B2B7-0922-25BE658B5863", "source_timerange": {"duration": 2928000, "start": 0}, "target_timerange": {"duration": 2928000, "start": 833687000}, "volume": 1.0}, {"cartoon": false, "clip": "null", "common_keyframes": [], "enable_adjust": false, "enable_color_curves": true, "enable_color_match_adjust": false, "enable_color_wheels": true, "enable_lut": false, "enable_smart_color_adjust": false, "group_id": "", "hdr_settings": "null", "intensifies_audio": false, "is_placeholder": false, "is_tone_modify": false, "keyframe_refs": [], "last_nonzero_volume": 1.0, "render_index": 0, "reverse": false, "speed": 1.0, "template_id": "", "template_scene": "default", "track_attribute": 0, "track_render_index": 0, "uniform_scale": "null", "visible": true, "responsive_layout": {"enable": false, "horizontal_pos_layout": 0, "size_layout": 0, "target_follow": "", "vertical_pos_layout": 0}, "id": "D197F414-BF76-3ED9-4384-F50166CA957F", "material_id": "D013F60F-B756-C48E-5065-58AEB39E86EE", "source_timerange": {"duration": 1512000, "start": 0}, "target_timerange": {"duration": 1512000, "start": 841903000}, "volume": 1.0}, {"cartoon": false, "clip": "null", "common_keyframes": [], "enable_adjust": false, "enable_color_curves": true, "enable_color_match_adjust": false, "enable_color_wheels": true, "enable_lut": false, "enable_smart_color_adjust": false, "group_id": "", "hdr_settings": "null", "intensifies_audio": false, "is_placeholder": false, "is_tone_modify": false, "keyframe_refs": [], "last_nonzero_volume": 1.0, "render_index": 0, "reverse": false, "speed": 1.0, "template_id": "", "template_scene": "default", "track_attribute": 0, "track_render_index": 0, "uniform_scale": "null", "visible": true, "responsive_layout": {"enable": false, "horizontal_pos_layout": 0, "size_layout": 0, "target_follow": "", "vertical_pos_layout": 0}, "id": "B7E1A089-59B1-29CC-B11D-FA53FA8CF3E4", "material_id": "5F2F59E0-B666-88DA-E875-1028EAF737A9", "source_timerange": {"duration": 3648000, "start": 0}, "target_timerange": {"duration": 3648000, "start": 847658000}, "volume": 1.0}, {"cartoon": false, "clip": "null", "common_keyframes": [], "enable_adjust": false, "enable_color_curves": true, "enable_color_match_adjust": false, "enable_color_wheels": true, "enable_lut": false, "enable_smart_color_adjust": false, "group_id": "", "hdr_settings": "null", "intensifies_audio": false, "is_placeholder": false, "is_tone_modify": false, "keyframe_refs": [], "last_nonzero_volume": 1.0, "render_index": 0, "reverse": false, "speed": 1.0, "template_id": "", "template_scene": "default", "track_attribute": 0, "track_render_index": 0, "uniform_scale": "null", "visible": true, "responsive_layout": {"enable": false, "horizontal_pos_layout": 0, "size_layout": 0, "target_follow": "", "vertical_pos_layout": 0}, "id": "44C2989E-A2B7-185E-CBBF-96DD4CE8B0D0", "material_id": "7A504730-CCF1-F458-510B-C130C3637F0F", "source_timerange": {"duration": 2808000, "start": 0}, "target_timerange": {"duration": 2808000, "start": 851705000}, "volume": 1.0}, {"cartoon": false, "clip": "null", "common_keyframes": [], "enable_adjust": false, "enable_color_curves": true, "enable_color_match_adjust": false, "enable_color_wheels": true, "enable_lut": false, "enable_smart_color_adjust": false, "group_id": "", "hdr_settings": "null", "intensifies_audio": false, "is_placeholder": false, "is_tone_modify": false, "keyframe_refs": [], "last_nonzero_volume": 1.0, "render_index": 0, "reverse": false, "speed": 1.0, "template_id": "", "template_scene": "default", "track_attribute": 0, "track_render_index": 0, "uniform_scale": "null", "visible": true, "responsive_layout": {"enable": false, "horizontal_pos_layout": 0, "size_layout": 0, "target_follow": "", "vertical_pos_layout": 0}, "id": "C0CF0FE6-F79E-7F65-BDB6-DB06E6B21244", "material_id": "FF030577-46B3-E57A-B674-6D4D4996EE5D", "source_timerange": {"duration": 4320000, "start": 0}, "target_timerange": {"duration": 4320000, "start": 856918000}, "volume": 1.0}, {"cartoon": false, "clip": "null", "common_keyframes": [], "enable_adjust": false, "enable_color_curves": true, "enable_color_match_adjust": false, "enable_color_wheels": true, "enable_lut": false, "enable_smart_color_adjust": false, "group_id": "", "hdr_settings": "null", "intensifies_audio": false, "is_placeholder": false, "is_tone_modify": false, "keyframe_refs": [], "last_nonzero_volume": 1.0, "render_index": 0, "reverse": false, "speed": 1.0, "template_id": "", "template_scene": "default", "track_attribute": 0, "track_render_index": 0, "uniform_scale": "null", "visible": true, "responsive_layout": {"enable": false, "horizontal_pos_layout": 0, "size_layout": 0, "target_follow": "", "vertical_pos_layout": 0}, "id": "6B3DDF47-E73E-4D50-3A0E-060FEEB82F44", "material_id": "1073E7BE-55A7-F7A9-67D3-C4B86EFD8671", "source_timerange": {"duration": 1488000, "start": 0}, "target_timerange": {"duration": 1488000, "start": 866052000}, "volume": 1.0}, {"cartoon": false, "clip": "null", "common_keyframes": [], "enable_adjust": false, "enable_color_curves": true, "enable_color_match_adjust": false, "enable_color_wheels": true, "enable_lut": false, "enable_smart_color_adjust": false, "group_id": "", "hdr_settings": "null", "intensifies_audio": false, "is_placeholder": false, "is_tone_modify": false, "keyframe_refs": [], "last_nonzero_volume": 1.0, "render_index": 0, "reverse": false, "speed": 1.0, "template_id": "", "template_scene": "default", "track_attribute": 0, "track_render_index": 0, "uniform_scale": "null", "visible": true, "responsive_layout": {"enable": false, "horizontal_pos_layout": 0, "size_layout": 0, "target_follow": "", "vertical_pos_layout": 0}, "id": "04A069AC-9796-49A4-E5C3-FDB285A45565", "material_id": "4E6F8B7E-66E0-B6EC-AA0A-FD63FEF2A589", "source_timerange": {"duration": 1872000, "start": 0}, "target_timerange": {"duration": 1872000, "start": 896125000}, "volume": 1.0}, {"cartoon": false, "clip": "null", "common_keyframes": [], "enable_adjust": false, "enable_color_curves": true, "enable_color_match_adjust": false, "enable_color_wheels": true, "enable_lut": false, "enable_smart_color_adjust": false, "group_id": "", "hdr_settings": "null", "intensifies_audio": false, "is_placeholder": false, "is_tone_modify": false, "keyframe_refs": [], "last_nonzero_volume": 1.0, "render_index": 0, "reverse": false, "speed": 1.0, "template_id": "", "template_scene": "default", "track_attribute": 0, "track_render_index": 0, "uniform_scale": "null", "visible": true, "responsive_layout": {"enable": false, "horizontal_pos_layout": 0, "size_layout": 0, "target_follow": "", "vertical_pos_layout": 0}, "id": "9B0AC574-015F-31E5-F143-34638882A4C2", "material_id": "708B7C2E-316E-987D-CD1C-EFC5558B42AA", "source_timerange": {"duration": 2040000, "start": 0}, "target_timerange": {"duration": 2040000, "start": 898961000}, "volume": 1.0}, {"cartoon": false, "clip": "null", "common_keyframes": [], "enable_adjust": false, "enable_color_curves": true, "enable_color_match_adjust": false, "enable_color_wheels": true, "enable_lut": false, "enable_smart_color_adjust": false, "group_id": "", "hdr_settings": "null", "intensifies_audio": false, "is_placeholder": false, "is_tone_modify": false, "keyframe_refs": [], "last_nonzero_volume": 1.0, "render_index": 0, "reverse": false, "speed": 1.0, "template_id": "", "template_scene": "default", "track_attribute": 0, "track_render_index": 0, "uniform_scale": "null", "visible": true, "responsive_layout": {"enable": false, "horizontal_pos_layout": 0, "size_layout": 0, "target_follow": "", "vertical_pos_layout": 0}, "id": "C3AC3181-1DF7-214B-87A1-38D64FBD4A10", "material_id": "C2BC7464-7747-DCC0-4F5F-45866FC782C2", "source_timerange": {"duration": 1656000, "start": 0}, "target_timerange": {"duration": 1656000, "start": 901462000}, "volume": 1.0}, {"cartoon": false, "clip": "null", "common_keyframes": [], "enable_adjust": false, "enable_color_curves": true, "enable_color_match_adjust": false, "enable_color_wheels": true, "enable_lut": false, "enable_smart_color_adjust": false, "group_id": "", "hdr_settings": "null", "intensifies_audio": false, "is_placeholder": false, "is_tone_modify": false, "keyframe_refs": [], "last_nonzero_volume": 1.0, "render_index": 0, "reverse": false, "speed": 1.0, "template_id": "", "template_scene": "default", "track_attribute": 0, "track_render_index": 0, "uniform_scale": "null", "visible": true, "responsive_layout": {"enable": false, "horizontal_pos_layout": 0, "size_layout": 0, "target_follow": "", "vertical_pos_layout": 0}, "id": "79422133-E855-73AF-093E-C4C15AC4678E", "material_id": "07B55153-4471-8012-1936-471271913E8E", "source_timerange": {"duration": 1368000, "start": 0}, "target_timerange": {"duration": 1368000, "start": 903881000}, "volume": 1.0}, {"cartoon": false, "clip": "null", "common_keyframes": [], "enable_adjust": false, "enable_color_curves": true, "enable_color_match_adjust": false, "enable_color_wheels": true, "enable_lut": false, "enable_smart_color_adjust": false, "group_id": "", "hdr_settings": "null", "intensifies_audio": false, "is_placeholder": false, "is_tone_modify": false, "keyframe_refs": [], "last_nonzero_volume": 1.0, "render_index": 0, "reverse": false, "speed": 1.0, "template_id": "", "template_scene": "default", "track_attribute": 0, "track_render_index": 0, "uniform_scale": "null", "visible": true, "responsive_layout": {"enable": false, "horizontal_pos_layout": 0, "size_layout": 0, "target_follow": "", "vertical_pos_layout": 0}, "id": "EF849FF1-A524-45D1-B466-C04E97EADE2E", "material_id": "21E84E42-9186-0904-2273-6461B5890797", "source_timerange": {"duration": 1728000, "start": 0}, "target_timerange": {"duration": 1728000, "start": 905967000}, "volume": 1.0}, {"cartoon": false, "clip": "null", "common_keyframes": [], "enable_adjust": false, "enable_color_curves": true, "enable_color_match_adjust": false, "enable_color_wheels": true, "enable_lut": false, "enable_smart_color_adjust": false, "group_id": "", "hdr_settings": "null", "intensifies_audio": false, "is_placeholder": false, "is_tone_modify": false, "keyframe_refs": [], "last_nonzero_volume": 1.0, "render_index": 0, "reverse": false, "speed": 1.0, "template_id": "", "template_scene": "default", "track_attribute": 0, "track_render_index": 0, "uniform_scale": "null", "visible": true, "responsive_layout": {"enable": false, "horizontal_pos_layout": 0, "size_layout": 0, "target_follow": "", "vertical_pos_layout": 0}, "id": "AB5C9FD8-F7AA-E77F-A89D-222496C243D2", "material_id": "7F7B9FB1-E4CC-BF2A-7A6A-6E5A2555FA2C", "source_timerange": {"duration": 1464000, "start": 0}, "target_timerange": {"duration": 1464000, "start": 915018000}, "volume": 1.0}, {"cartoon": false, "clip": "null", "common_keyframes": [], "enable_adjust": false, "enable_color_curves": true, "enable_color_match_adjust": false, "enable_color_wheels": true, "enable_lut": false, "enable_smart_color_adjust": false, "group_id": "", "hdr_settings": "null", "intensifies_audio": false, "is_placeholder": false, "is_tone_modify": false, "keyframe_refs": [], "last_nonzero_volume": 1.0, "render_index": 0, "reverse": false, "speed": 1.0, "template_id": "", "template_scene": "default", "track_attribute": 0, "track_render_index": 0, "uniform_scale": "null", "visible": true, "responsive_layout": {"enable": false, "horizontal_pos_layout": 0, "size_layout": 0, "target_follow": "", "vertical_pos_layout": 0}, "id": "0DC1BC2D-EB70-08F5-B3F8-47C0B0BF28F0", "material_id": "73A3E977-1965-C21A-A8A4-7BB5B88F0AC8", "source_timerange": {"duration": 3384000, "start": 0}, "target_timerange": {"duration": 3384000, "start": 921191000}, "volume": 1.0}, {"cartoon": false, "clip": "null", "common_keyframes": [], "enable_adjust": false, "enable_color_curves": true, "enable_color_match_adjust": false, "enable_color_wheels": true, "enable_lut": false, "enable_smart_color_adjust": false, "group_id": "", "hdr_settings": "null", "intensifies_audio": false, "is_placeholder": false, "is_tone_modify": false, "keyframe_refs": [], "last_nonzero_volume": 1.0, "render_index": 0, "reverse": false, "speed": 1.0, "template_id": "", "template_scene": "default", "track_attribute": 0, "track_render_index": 0, "uniform_scale": "null", "visible": true, "responsive_layout": {"enable": false, "horizontal_pos_layout": 0, "size_layout": 0, "target_follow": "", "vertical_pos_layout": 0}, "id": "3A052D67-3FE4-A85C-9A68-A8656DE7EC89", "material_id": "17333432-ADDC-EDC5-144E-0159FCF26934", "source_timerange": {"duration": 3744000, "start": 0}, "target_timerange": {"duration": 3744000, "start": 925778000}, "volume": 1.0}, {"cartoon": false, "clip": "null", "common_keyframes": [], "enable_adjust": false, "enable_color_curves": true, "enable_color_match_adjust": false, "enable_color_wheels": true, "enable_lut": false, "enable_smart_color_adjust": false, "group_id": "", "hdr_settings": "null", "intensifies_audio": false, "is_placeholder": false, "is_tone_modify": false, "keyframe_refs": [], "last_nonzero_volume": 1.0, "render_index": 0, "reverse": false, "speed": 1.0, "template_id": "", "template_scene": "default", "track_attribute": 0, "track_render_index": 0, "uniform_scale": "null", "visible": true, "responsive_layout": {"enable": false, "horizontal_pos_layout": 0, "size_layout": 0, "target_follow": "", "vertical_pos_layout": 0}, "id": "DFDE6F72-D4F7-8EE5-D2A7-935E91BF4F2F", "material_id": "5C9726ED-4CC0-6E7A-BC5F-E890879EE979", "source_timerange": {"duration": 1872000, "start": 0}, "target_timerange": {"duration": 1872000, "start": 930533000}, "volume": 1.0}, {"cartoon": false, "clip": "null", "common_keyframes": [], "enable_adjust": false, "enable_color_curves": true, "enable_color_match_adjust": false, "enable_color_wheels": true, "enable_lut": false, "enable_smart_color_adjust": false, "group_id": "", "hdr_settings": "null", "intensifies_audio": false, "is_placeholder": false, "is_tone_modify": false, "keyframe_refs": [], "last_nonzero_volume": 1.0, "render_index": 0, "reverse": false, "speed": 1.0, "template_id": "", "template_scene": "default", "track_attribute": 0, "track_render_index": 0, "uniform_scale": "null", "visible": true, "responsive_layout": {"enable": false, "horizontal_pos_layout": 0, "size_layout": 0, "target_follow": "", "vertical_pos_layout": 0}, "id": "4C97E054-01B8-5BED-5C49-3C9FA92221B6", "material_id": "D4D581D5-8DD9-5836-0BED-F1D30125F646", "source_timerange": {"duration": 4320000, "start": 0}, "target_timerange": {"duration": 4320000, "start": 934620000}, "volume": 1.0}, {"cartoon": false, "clip": "null", "common_keyframes": [], "enable_adjust": false, "enable_color_curves": true, "enable_color_match_adjust": false, "enable_color_wheels": true, "enable_lut": false, "enable_smart_color_adjust": false, "group_id": "", "hdr_settings": "null", "intensifies_audio": false, "is_placeholder": false, "is_tone_modify": false, "keyframe_refs": [], "last_nonzero_volume": 1.0, "render_index": 0, "reverse": false, "speed": 1.0, "template_id": "", "template_scene": "default", "track_attribute": 0, "track_render_index": 0, "uniform_scale": "null", "visible": true, "responsive_layout": {"enable": false, "horizontal_pos_layout": 0, "size_layout": 0, "target_follow": "", "vertical_pos_layout": 0}, "id": "67C7F2CD-CC17-5DD5-C1ED-0BB9719004DF", "material_id": "936439D6-BB29-77AB-0B4A-9CC1D849B746", "source_timerange": {"duration": 2208000, "start": 0}, "target_timerange": {"duration": 2208000, "start": 942004000}, "volume": 1.0}, {"cartoon": false, "clip": "null", "common_keyframes": [], "enable_adjust": false, "enable_color_curves": true, "enable_color_match_adjust": false, "enable_color_wheels": true, "enable_lut": false, "enable_smart_color_adjust": false, "group_id": "", "hdr_settings": "null", "intensifies_audio": false, "is_placeholder": false, "is_tone_modify": false, "keyframe_refs": [], "last_nonzero_volume": 1.0, "render_index": 0, "reverse": false, "speed": 1.0, "template_id": "", "template_scene": "default", "track_attribute": 0, "track_render_index": 0, "uniform_scale": "null", "visible": true, "responsive_layout": {"enable": false, "horizontal_pos_layout": 0, "size_layout": 0, "target_follow": "", "vertical_pos_layout": 0}, "id": "153CD516-A45B-DEEE-5338-DC852F77DABC", "material_id": "8602E9BE-9327-2376-513A-228B6A69BC27", "source_timerange": {"duration": 1920000, "start": 0}, "target_timerange": {"duration": 1920000, "start": 948677000}, "volume": 1.0}, {"cartoon": false, "clip": "null", "common_keyframes": [], "enable_adjust": false, "enable_color_curves": true, "enable_color_match_adjust": false, "enable_color_wheels": true, "enable_lut": false, "enable_smart_color_adjust": false, "group_id": "", "hdr_settings": "null", "intensifies_audio": false, "is_placeholder": false, "is_tone_modify": false, "keyframe_refs": [], "last_nonzero_volume": 1.0, "render_index": 0, "reverse": false, "speed": 1.0, "template_id": "", "template_scene": "default", "track_attribute": 0, "track_render_index": 0, "uniform_scale": "null", "visible": true, "responsive_layout": {"enable": false, "horizontal_pos_layout": 0, "size_layout": 0, "target_follow": "", "vertical_pos_layout": 0}, "id": "53AC198F-306A-F537-A096-FB58D4A1DD2E", "material_id": "CC355C52-607D-65DA-0C5A-0827AD16D24A", "source_timerange": {"duration": 3432000, "start": 0}, "target_timerange": {"duration": 3432000, "start": 954557000}, "volume": 1.0}, {"cartoon": false, "clip": "null", "common_keyframes": [], "enable_adjust": false, "enable_color_curves": true, "enable_color_match_adjust": false, "enable_color_wheels": true, "enable_lut": false, "enable_smart_color_adjust": false, "group_id": "", "hdr_settings": "null", "intensifies_audio": false, "is_placeholder": false, "is_tone_modify": false, "keyframe_refs": [], "last_nonzero_volume": 1.0, "render_index": 0, "reverse": false, "speed": 1.0, "template_id": "", "template_scene": "default", "track_attribute": 0, "track_render_index": 0, "uniform_scale": "null", "visible": true, "responsive_layout": {"enable": false, "horizontal_pos_layout": 0, "size_layout": 0, "target_follow": "", "vertical_pos_layout": 0}, "id": "3A28E57C-413A-BD49-D9E5-AB088CD302C4", "material_id": "BA909848-E3F0-3EE7-B5A9-8610B631AF9D", "source_timerange": {"duration": 2400000, "start": 0}, "target_timerange": {"duration": 2400000, "start": 959730000}, "volume": 1.0}, {"cartoon": false, "clip": "null", "common_keyframes": [], "enable_adjust": false, "enable_color_curves": true, "enable_color_match_adjust": false, "enable_color_wheels": true, "enable_lut": false, "enable_smart_color_adjust": false, "group_id": "", "hdr_settings": "null", "intensifies_audio": false, "is_placeholder": false, "is_tone_modify": false, "keyframe_refs": [], "last_nonzero_volume": 1.0, "render_index": 0, "reverse": false, "speed": 1.0, "template_id": "", "template_scene": "default", "track_attribute": 0, "track_render_index": 0, "uniform_scale": "null", "visible": true, "responsive_layout": {"enable": false, "horizontal_pos_layout": 0, "size_layout": 0, "target_follow": "", "vertical_pos_layout": 0}, "id": "B9C3A7D8-0027-6626-A88A-3027E12B2225", "material_id": "79783F72-2A7A-BA7F-F588-6C2C90FA5E4C", "source_timerange": {"duration": 1536000, "start": 0}, "target_timerange": {"duration": 1536000, "start": 963274000}, "volume": 1.0}, {"cartoon": false, "clip": "null", "common_keyframes": [], "enable_adjust": false, "enable_color_curves": true, "enable_color_match_adjust": false, "enable_color_wheels": true, "enable_lut": false, "enable_smart_color_adjust": false, "group_id": "", "hdr_settings": "null", "intensifies_audio": false, "is_placeholder": false, "is_tone_modify": false, "keyframe_refs": [], "last_nonzero_volume": 1.0, "render_index": 0, "reverse": false, "speed": 1.0, "template_id": "", "template_scene": "default", "track_attribute": 0, "track_render_index": 0, "uniform_scale": "null", "visible": true, "responsive_layout": {"enable": false, "horizontal_pos_layout": 0, "size_layout": 0, "target_follow": "", "vertical_pos_layout": 0}, "id": "6D6DD881-63A7-1D0E-F902-E0E739F7696E", "material_id": "824A0B5B-F176-45AA-2841-7FAA2461CEBB", "source_timerange": {"duration": 3096000, "start": 0}, "target_timerange": {"duration": 3096000, "start": 966320000}, "volume": 1.0}, {"cartoon": false, "clip": "null", "common_keyframes": [], "enable_adjust": false, "enable_color_curves": true, "enable_color_match_adjust": false, "enable_color_wheels": true, "enable_lut": false, "enable_smart_color_adjust": false, "group_id": "", "hdr_settings": "null", "intensifies_audio": false, "is_placeholder": false, "is_tone_modify": false, "keyframe_refs": [], "last_nonzero_volume": 1.0, "render_index": 0, "reverse": false, "speed": 1.0, "template_id": "", "template_scene": "default", "track_attribute": 0, "track_render_index": 0, "uniform_scale": "null", "visible": true, "responsive_layout": {"enable": false, "horizontal_pos_layout": 0, "size_layout": 0, "target_follow": "", "vertical_pos_layout": 0}, "id": "20689229-4CF4-1BA5-F299-4310FA00A709", "material_id": "5A14677E-AAE0-F496-FAA0-AB8CA7660D95", "source_timerange": {"duration": 2256000, "start": 0}, "target_timerange": {"duration": 2256000, "start": 970657000}, "volume": 1.0}, {"cartoon": false, "clip": "null", "common_keyframes": [], "enable_adjust": false, "enable_color_curves": true, "enable_color_match_adjust": false, "enable_color_wheels": true, "enable_lut": false, "enable_smart_color_adjust": false, "group_id": "", "hdr_settings": "null", "intensifies_audio": false, "is_placeholder": false, "is_tone_modify": false, "keyframe_refs": [], "last_nonzero_volume": 1.0, "render_index": 0, "reverse": false, "speed": 1.0, "template_id": "", "template_scene": "default", "track_attribute": 0, "track_render_index": 0, "uniform_scale": "null", "visible": true, "responsive_layout": {"enable": false, "horizontal_pos_layout": 0, "size_layout": 0, "target_follow": "", "vertical_pos_layout": 0}, "id": "4EC71B44-57AD-601F-FB83-4613301C94DD", "material_id": "47B1514A-D0D3-42E7-01C4-530A7314B347", "source_timerange": {"duration": 1488000, "start": 0}, "target_timerange": {"duration": 1488000, "start": 975578000}, "volume": 1.0}, {"cartoon": false, "clip": "null", "common_keyframes": [], "enable_adjust": false, "enable_color_curves": true, "enable_color_match_adjust": false, "enable_color_wheels": true, "enable_lut": false, "enable_smart_color_adjust": false, "group_id": "", "hdr_settings": "null", "intensifies_audio": false, "is_placeholder": false, "is_tone_modify": false, "keyframe_refs": [], "last_nonzero_volume": 1.0, "render_index": 0, "reverse": false, "speed": 1.0, "template_id": "", "template_scene": "default", "track_attribute": 0, "track_render_index": 0, "uniform_scale": "null", "visible": true, "responsive_layout": {"enable": false, "horizontal_pos_layout": 0, "size_layout": 0, "target_follow": "", "vertical_pos_layout": 0}, "id": "A539662B-F129-F335-982C-82BE206F461F", "material_id": "490C71EA-3709-654D-942E-6E445F016479", "source_timerange": {"duration": 1248000, "start": 0}, "target_timerange": {"duration": 1248000, "start": 979666000}, "volume": 1.0}, {"cartoon": false, "clip": "null", "common_keyframes": [], "enable_adjust": false, "enable_color_curves": true, "enable_color_match_adjust": false, "enable_color_wheels": true, "enable_lut": false, "enable_smart_color_adjust": false, "group_id": "", "hdr_settings": "null", "intensifies_audio": false, "is_placeholder": false, "is_tone_modify": false, "keyframe_refs": [], "last_nonzero_volume": 1.0, "render_index": 0, "reverse": false, "speed": 1.0, "template_id": "", "template_scene": "default", "track_attribute": 0, "track_render_index": 0, "uniform_scale": "null", "visible": true, "responsive_layout": {"enable": false, "horizontal_pos_layout": 0, "size_layout": 0, "target_follow": "", "vertical_pos_layout": 0}, "id": "AAB49BE7-9BD5-B387-5FD8-1EE5B38724ED", "material_id": "3C546A0F-5374-6F71-6A35-9AFC45A62C5F", "source_timerange": {"duration": 3480000, "start": 0}, "target_timerange": {"duration": 3480000, "start": 984671000}, "volume": 1.0}, {"cartoon": false, "clip": "null", "common_keyframes": [], "enable_adjust": false, "enable_color_curves": true, "enable_color_match_adjust": false, "enable_color_wheels": true, "enable_lut": false, "enable_smart_color_adjust": false, "group_id": "", "hdr_settings": "null", "intensifies_audio": false, "is_placeholder": false, "is_tone_modify": false, "keyframe_refs": [], "last_nonzero_volume": 1.0, "render_index": 0, "reverse": false, "speed": 1.0, "template_id": "", "template_scene": "default", "track_attribute": 0, "track_render_index": 0, "uniform_scale": "null", "visible": true, "responsive_layout": {"enable": false, "horizontal_pos_layout": 0, "size_layout": 0, "target_follow": "", "vertical_pos_layout": 0}, "id": "D0DD48CA-AB9D-75D7-94D1-860D965E1374", "material_id": "F249FE6F-C4B7-24B7-F4C3-8E9F44BFF458", "source_timerange": {"duration": 2328000, "start": 0}, "target_timerange": {"duration": 2328000, "start": 991761000}, "volume": 1.0}, {"cartoon": false, "clip": "null", "common_keyframes": [], "enable_adjust": false, "enable_color_curves": true, "enable_color_match_adjust": false, "enable_color_wheels": true, "enable_lut": false, "enable_smart_color_adjust": false, "group_id": "", "hdr_settings": "null", "intensifies_audio": false, "is_placeholder": false, "is_tone_modify": false, "keyframe_refs": [], "last_nonzero_volume": 1.0, "render_index": 0, "reverse": false, "speed": 1.0, "template_id": "", "template_scene": "default", "track_attribute": 0, "track_render_index": 0, "uniform_scale": "null", "visible": true, "responsive_layout": {"enable": false, "horizontal_pos_layout": 0, "size_layout": 0, "target_follow": "", "vertical_pos_layout": 0}, "id": "1ECA313C-88A3-048B-6825-F04E9825F3CB", "material_id": "2B28AEFF-AE2D-4F28-9513-28BB606D5A5D", "source_timerange": {"duration": 2232000, "start": 0}, "target_timerange": {"duration": 2232000, "start": 994847000}, "volume": 1.0}, {"cartoon": false, "clip": "null", "common_keyframes": [], "enable_adjust": false, "enable_color_curves": true, "enable_color_match_adjust": false, "enable_color_wheels": true, "enable_lut": false, "enable_smart_color_adjust": false, "group_id": "", "hdr_settings": "null", "intensifies_audio": false, "is_placeholder": false, "is_tone_modify": false, "keyframe_refs": [], "last_nonzero_volume": 1.0, "render_index": 0, "reverse": false, "speed": 1.0, "template_id": "", "template_scene": "default", "track_attribute": 0, "track_render_index": 0, "uniform_scale": "null", "visible": true, "responsive_layout": {"enable": false, "horizontal_pos_layout": 0, "size_layout": 0, "target_follow": "", "vertical_pos_layout": 0}, "id": "6171010F-EB5B-9A9C-D652-401BEB886C52", "material_id": "B0AD3F26-AF94-BF9B-A5AC-FA27420DFB94", "source_timerange": {"duration": 1656000, "start": 0}, "target_timerange": {"duration": 1656000, "start": 997725000}, "volume": 1.0}, {"cartoon": false, "clip": "null", "common_keyframes": [], "enable_adjust": false, "enable_color_curves": true, "enable_color_match_adjust": false, "enable_color_wheels": true, "enable_lut": false, "enable_smart_color_adjust": false, "group_id": "", "hdr_settings": "null", "intensifies_audio": false, "is_placeholder": false, "is_tone_modify": false, "keyframe_refs": [], "last_nonzero_volume": 1.0, "render_index": 0, "reverse": false, "speed": 1.0, "template_id": "", "template_scene": "default", "track_attribute": 0, "track_render_index": 0, "uniform_scale": "null", "visible": true, "responsive_layout": {"enable": false, "horizontal_pos_layout": 0, "size_layout": 0, "target_follow": "", "vertical_pos_layout": 0}, "id": "D16F1DFA-85D5-6543-8201-E554FF96B046", "material_id": "AA113A9A-C7E7-9C6D-8CC8-0FCEAE57052D", "source_timerange": {"duration": 2112000, "start": 0}, "target_timerange": {"duration": 2112000, "start": 1001020000}, "volume": 1.0}, {"cartoon": false, "clip": "null", "common_keyframes": [], "enable_adjust": false, "enable_color_curves": true, "enable_color_match_adjust": false, "enable_color_wheels": true, "enable_lut": false, "enable_smart_color_adjust": false, "group_id": "", "hdr_settings": "null", "intensifies_audio": false, "is_placeholder": false, "is_tone_modify": false, "keyframe_refs": [], "last_nonzero_volume": 1.0, "render_index": 0, "reverse": false, "speed": 1.0, "template_id": "", "template_scene": "default", "track_attribute": 0, "track_render_index": 0, "uniform_scale": "null", "visible": true, "responsive_layout": {"enable": false, "horizontal_pos_layout": 0, "size_layout": 0, "target_follow": "", "vertical_pos_layout": 0}, "id": "78E927F8-CF7A-7A77-5B37-A100A2B7241C", "material_id": "D1EFAE69-2324-2A68-2B26-AA9C520D8A55", "source_timerange": {"duration": 3552000, "start": 0}, "target_timerange": {"duration": 3552000, "start": 1005650000}, "volume": 1.0}, {"cartoon": false, "clip": "null", "common_keyframes": [], "enable_adjust": false, "enable_color_curves": true, "enable_color_match_adjust": false, "enable_color_wheels": true, "enable_lut": false, "enable_smart_color_adjust": false, "group_id": "", "hdr_settings": "null", "intensifies_audio": false, "is_placeholder": false, "is_tone_modify": false, "keyframe_refs": [], "last_nonzero_volume": 1.0, "render_index": 0, "reverse": false, "speed": 1.0, "template_id": "", "template_scene": "default", "track_attribute": 0, "track_render_index": 0, "uniform_scale": "null", "visible": true, "responsive_layout": {"enable": false, "horizontal_pos_layout": 0, "size_layout": 0, "target_follow": "", "vertical_pos_layout": 0}, "id": "C1BD1799-B21B-1F9D-9CE2-D5FF290C0CAA", "material_id": "DFBB52DD-EA9A-DBA9-C266-8EF51903C5A7", "source_timerange": {"duration": 2256000, "start": 0}, "target_timerange": {"duration": 2256000, "start": 1014868000}, "volume": 1.0}, {"cartoon": false, "clip": "null", "common_keyframes": [], "enable_adjust": false, "enable_color_curves": true, "enable_color_match_adjust": false, "enable_color_wheels": true, "enable_lut": false, "enable_smart_color_adjust": false, "group_id": "", "hdr_settings": "null", "intensifies_audio": false, "is_placeholder": false, "is_tone_modify": false, "keyframe_refs": [], "last_nonzero_volume": 1.0, "render_index": 0, "reverse": false, "speed": 1.0, "template_id": "", "template_scene": "default", "track_attribute": 0, "track_render_index": 0, "uniform_scale": "null", "visible": true, "responsive_layout": {"enable": false, "horizontal_pos_layout": 0, "size_layout": 0, "target_follow": "", "vertical_pos_layout": 0}, "id": "804DC1FC-3964-1484-AC9B-4E750005DFD2", "material_id": "AF7FFE52-0238-0F16-4B84-4AE81A71B1E1", "source_timerange": {"duration": 3600000, "start": 0}, "target_timerange": {"duration": 3600000, "start": 1020666000}, "volume": 1.0}, {"cartoon": false, "clip": "null", "common_keyframes": [], "enable_adjust": false, "enable_color_curves": true, "enable_color_match_adjust": false, "enable_color_wheels": true, "enable_lut": false, "enable_smart_color_adjust": false, "group_id": "", "hdr_settings": "null", "intensifies_audio": false, "is_placeholder": false, "is_tone_modify": false, "keyframe_refs": [], "last_nonzero_volume": 1.0, "render_index": 0, "reverse": false, "speed": 1.0, "template_id": "", "template_scene": "default", "track_attribute": 0, "track_render_index": 0, "uniform_scale": "null", "visible": true, "responsive_layout": {"enable": false, "horizontal_pos_layout": 0, "size_layout": 0, "target_follow": "", "vertical_pos_layout": 0}, "id": "A8FDF96A-8E4A-1AFC-9A85-3413974EA038", "material_id": "767C61E1-2C9F-D28C-6010-00A88D1EFBA0", "source_timerange": {"duration": 3768000, "start": 0}, "target_timerange": {"duration": 3768000, "start": 1027506000}, "volume": 1.0}, {"cartoon": false, "clip": "null", "common_keyframes": [], "enable_adjust": false, "enable_color_curves": true, "enable_color_match_adjust": false, "enable_color_wheels": true, "enable_lut": false, "enable_smart_color_adjust": false, "group_id": "", "hdr_settings": "null", "intensifies_audio": false, "is_placeholder": false, "is_tone_modify": false, "keyframe_refs": [], "last_nonzero_volume": 1.0, "render_index": 0, "reverse": false, "speed": 1.0, "template_id": "", "template_scene": "default", "track_attribute": 0, "track_render_index": 0, "uniform_scale": "null", "visible": true, "responsive_layout": {"enable": false, "horizontal_pos_layout": 0, "size_layout": 0, "target_follow": "", "vertical_pos_layout": 0}, "id": "ADC0E253-3A61-C7C5-739A-4B850847FA58", "material_id": "3BFFD33F-875D-A5C5-32A3-C2F4DEB048E3", "source_timerange": {"duration": 3048000, "start": 0}, "target_timerange": {"duration": 3048000, "start": 1033135000}, "volume": 1.0}, {"cartoon": false, "clip": "null", "common_keyframes": [], "enable_adjust": false, "enable_color_curves": true, "enable_color_match_adjust": false, "enable_color_wheels": true, "enable_lut": false, "enable_smart_color_adjust": false, "group_id": "", "hdr_settings": "null", "intensifies_audio": false, "is_placeholder": false, "is_tone_modify": false, "keyframe_refs": [], "last_nonzero_volume": 1.0, "render_index": 0, "reverse": false, "speed": 1.0, "template_id": "", "template_scene": "default", "track_attribute": 0, "track_render_index": 0, "uniform_scale": "null", "visible": true, "responsive_layout": {"enable": false, "horizontal_pos_layout": 0, "size_layout": 0, "target_follow": "", "vertical_pos_layout": 0}, "id": "82E296D5-6565-949C-C8D2-D0A1AC0D70E1", "material_id": "7211D9B1-6DDD-6488-B9BB-43FDEF6BDF07", "source_timerange": {"duration": 2736000, "start": 0}, "target_timerange": {"duration": 2736000, "start": 1037641000}, "volume": 1.0}, {"cartoon": false, "clip": "null", "common_keyframes": [], "enable_adjust": false, "enable_color_curves": true, "enable_color_match_adjust": false, "enable_color_wheels": true, "enable_lut": false, "enable_smart_color_adjust": false, "group_id": "", "hdr_settings": "null", "intensifies_audio": false, "is_placeholder": false, "is_tone_modify": false, "keyframe_refs": [], "last_nonzero_volume": 1.0, "render_index": 0, "reverse": false, "speed": 1.0, "template_id": "", "template_scene": "default", "track_attribute": 0, "track_render_index": 0, "uniform_scale": "null", "visible": true, "responsive_layout": {"enable": false, "horizontal_pos_layout": 0, "size_layout": 0, "target_follow": "", "vertical_pos_layout": 0}, "id": "BF1115E3-40D3-D552-94E2-4BA092B1B955", "material_id": "5DBB47BB-9AB2-F9ED-BFCF-D3F8AE719168", "source_timerange": {"duration": 1872000, "start": 0}, "target_timerange": {"duration": 1872000, "start": 1040852000}, "volume": 1.0}, {"cartoon": false, "clip": "null", "common_keyframes": [], "enable_adjust": false, "enable_color_curves": true, "enable_color_match_adjust": false, "enable_color_wheels": true, "enable_lut": false, "enable_smart_color_adjust": false, "group_id": "", "hdr_settings": "null", "intensifies_audio": false, "is_placeholder": false, "is_tone_modify": false, "keyframe_refs": [], "last_nonzero_volume": 1.0, "render_index": 0, "reverse": false, "speed": 1.0, "template_id": "", "template_scene": "default", "track_attribute": 0, "track_render_index": 0, "uniform_scale": "null", "visible": true, "responsive_layout": {"enable": false, "horizontal_pos_layout": 0, "size_layout": 0, "target_follow": "", "vertical_pos_layout": 0}, "id": "5B598F05-F806-40FB-1939-EB2D5454E461", "material_id": "88C40370-7258-8641-0797-777FC242F442", "source_timerange": {"duration": 2592000, "start": 0}, "target_timerange": {"duration": 2592000, "start": 1044439000}, "volume": 1.0}, {"cartoon": false, "clip": "null", "common_keyframes": [], "enable_adjust": false, "enable_color_curves": true, "enable_color_match_adjust": false, "enable_color_wheels": true, "enable_lut": false, "enable_smart_color_adjust": false, "group_id": "", "hdr_settings": "null", "intensifies_audio": false, "is_placeholder": false, "is_tone_modify": false, "keyframe_refs": [], "last_nonzero_volume": 1.0, "render_index": 0, "reverse": false, "speed": 1.0, "template_id": "", "template_scene": "default", "track_attribute": 0, "track_render_index": 0, "uniform_scale": "null", "visible": true, "responsive_layout": {"enable": false, "horizontal_pos_layout": 0, "size_layout": 0, "target_follow": "", "vertical_pos_layout": 0}, "id": "F7D3F75B-A55D-8512-58B0-39D9E4445D15", "material_id": "71163DE7-FB36-ABC2-3145-7974E6C2E083", "source_timerange": {"duration": 2136000, "start": 0}, "target_timerange": {"duration": 2136000, "start": 1057076000}, "volume": 1.0}, {"cartoon": false, "clip": "null", "common_keyframes": [], "enable_adjust": false, "enable_color_curves": true, "enable_color_match_adjust": false, "enable_color_wheels": true, "enable_lut": false, "enable_smart_color_adjust": false, "group_id": "", "hdr_settings": "null", "intensifies_audio": false, "is_placeholder": false, "is_tone_modify": false, "keyframe_refs": [], "last_nonzero_volume": 1.0, "render_index": 0, "reverse": false, "speed": 1.0, "template_id": "", "template_scene": "default", "track_attribute": 0, "track_render_index": 0, "uniform_scale": "null", "visible": true, "responsive_layout": {"enable": false, "horizontal_pos_layout": 0, "size_layout": 0, "target_follow": "", "vertical_pos_layout": 0}, "id": "72480478-AECF-CDFE-7F6C-07EC856DC8CB", "material_id": "72921EAC-601C-3BC9-344B-081987405618", "source_timerange": {"duration": 2472000, "start": 0}, "target_timerange": {"duration": 2472000, "start": 1069673000}, "volume": 1.0}, {"cartoon": false, "clip": "null", "common_keyframes": [], "enable_adjust": false, "enable_color_curves": true, "enable_color_match_adjust": false, "enable_color_wheels": true, "enable_lut": false, "enable_smart_color_adjust": false, "group_id": "", "hdr_settings": "null", "intensifies_audio": false, "is_placeholder": false, "is_tone_modify": false, "keyframe_refs": [], "last_nonzero_volume": 1.0, "render_index": 0, "reverse": false, "speed": 1.0, "template_id": "", "template_scene": "default", "track_attribute": 0, "track_render_index": 0, "uniform_scale": "null", "visible": true, "responsive_layout": {"enable": false, "horizontal_pos_layout": 0, "size_layout": 0, "target_follow": "", "vertical_pos_layout": 0}, "id": "925F1E4D-235B-B564-0C2C-8E9EA3625B26", "material_id": "BA8C877D-A4A8-1F45-39B9-97997D3774F3", "source_timerange": {"duration": 2520000, "start": 0}, "target_timerange": {"duration": 2520000, "start": 1073884000}, "volume": 1.0}, {"cartoon": false, "clip": "null", "common_keyframes": [], "enable_adjust": false, "enable_color_curves": true, "enable_color_match_adjust": false, "enable_color_wheels": true, "enable_lut": false, "enable_smart_color_adjust": false, "group_id": "", "hdr_settings": "null", "intensifies_audio": false, "is_placeholder": false, "is_tone_modify": false, "keyframe_refs": [], "last_nonzero_volume": 1.0, "render_index": 0, "reverse": false, "speed": 1.0, "template_id": "", "template_scene": "default", "track_attribute": 0, "track_render_index": 0, "uniform_scale": "null", "visible": true, "responsive_layout": {"enable": false, "horizontal_pos_layout": 0, "size_layout": 0, "target_follow": "", "vertical_pos_layout": 0}, "id": "E60236AB-1C83-2168-C275-78695AEFC565", "material_id": "71A81BDC-FC1A-9CD6-5B63-1589ACA93F8B", "source_timerange": {"duration": 1776000, "start": 0}, "target_timerange": {"duration": 1776000, "start": 1083979000}, "volume": 1.0}, {"cartoon": false, "clip": "null", "common_keyframes": [], "enable_adjust": false, "enable_color_curves": true, "enable_color_match_adjust": false, "enable_color_wheels": true, "enable_lut": false, "enable_smart_color_adjust": false, "group_id": "", "hdr_settings": "null", "intensifies_audio": false, "is_placeholder": false, "is_tone_modify": false, "keyframe_refs": [], "last_nonzero_volume": 1.0, "render_index": 0, "reverse": false, "speed": 1.0, "template_id": "", "template_scene": "default", "track_attribute": 0, "track_render_index": 0, "uniform_scale": "null", "visible": true, "responsive_layout": {"enable": false, "horizontal_pos_layout": 0, "size_layout": 0, "target_follow": "", "vertical_pos_layout": 0}, "id": "3221471A-DA11-66EE-C115-43012E489FF3", "material_id": "12221DB6-7C5B-9430-D07B-FEF0B54657DD", "source_timerange": {"duration": 2232000, "start": 0}, "target_timerange": {"duration": 2232000, "start": 1086981000}, "volume": 1.0}, {"cartoon": false, "clip": "null", "common_keyframes": [], "enable_adjust": false, "enable_color_curves": true, "enable_color_match_adjust": false, "enable_color_wheels": true, "enable_lut": false, "enable_smart_color_adjust": false, "group_id": "", "hdr_settings": "null", "intensifies_audio": false, "is_placeholder": false, "is_tone_modify": false, "keyframe_refs": [], "last_nonzero_volume": 1.0, "render_index": 0, "reverse": false, "speed": 1.0, "template_id": "", "template_scene": "default", "track_attribute": 0, "track_render_index": 0, "uniform_scale": "null", "visible": true, "responsive_layout": {"enable": false, "horizontal_pos_layout": 0, "size_layout": 0, "target_follow": "", "vertical_pos_layout": 0}, "id": "A7880C0F-8352-C657-A2A4-520661909972", "material_id": "577B0A34-2BFD-4390-08F1-975C4A6F90E6", "source_timerange": {"duration": 2760000, "start": 0}, "target_timerange": {"duration": 2760000, "start": 1091528000}, "volume": 1.0}, {"cartoon": false, "clip": "null", "common_keyframes": [], "enable_adjust": false, "enable_color_curves": true, "enable_color_match_adjust": false, "enable_color_wheels": true, "enable_lut": false, "enable_smart_color_adjust": false, "group_id": "", "hdr_settings": "null", "intensifies_audio": false, "is_placeholder": false, "is_tone_modify": false, "keyframe_refs": [], "last_nonzero_volume": 1.0, "render_index": 0, "reverse": false, "speed": 1.0, "template_id": "", "template_scene": "default", "track_attribute": 0, "track_render_index": 0, "uniform_scale": "null", "visible": true, "responsive_layout": {"enable": false, "horizontal_pos_layout": 0, "size_layout": 0, "target_follow": "", "vertical_pos_layout": 0}, "id": "B9983692-D91E-6649-DFF4-4965205CF6A5", "material_id": "76E2DEAE-2FD4-DA58-AD42-EAE135F8B1F6", "source_timerange": {"duration": 1824000, "start": 0}, "target_timerange": {"duration": 1824000, "start": 1096575000}, "volume": 1.0}, {"cartoon": false, "clip": "null", "common_keyframes": [], "enable_adjust": false, "enable_color_curves": true, "enable_color_match_adjust": false, "enable_color_wheels": true, "enable_lut": false, "enable_smart_color_adjust": false, "group_id": "", "hdr_settings": "null", "intensifies_audio": false, "is_placeholder": false, "is_tone_modify": false, "keyframe_refs": [], "last_nonzero_volume": 1.0, "render_index": 0, "reverse": false, "speed": 1.0, "template_id": "", "template_scene": "default", "track_attribute": 0, "track_render_index": 0, "uniform_scale": "null", "visible": true, "responsive_layout": {"enable": false, "horizontal_pos_layout": 0, "size_layout": 0, "target_follow": "", "vertical_pos_layout": 0}, "id": "5FA81737-0736-A066-AA7F-E698B543BB7F", "material_id": "894CAF95-3513-0515-AC8D-347ACB168340", "source_timerange": {"duration": 2184000, "start": 0}, "target_timerange": {"duration": 2184000, "start": 1099036000}, "volume": 1.0}, {"cartoon": false, "clip": "null", "common_keyframes": [], "enable_adjust": false, "enable_color_curves": true, "enable_color_match_adjust": false, "enable_color_wheels": true, "enable_lut": false, "enable_smart_color_adjust": false, "group_id": "", "hdr_settings": "null", "intensifies_audio": false, "is_placeholder": false, "is_tone_modify": false, "keyframe_refs": [], "last_nonzero_volume": 1.0, "render_index": 0, "reverse": false, "speed": 1.0, "template_id": "", "template_scene": "default", "track_attribute": 0, "track_render_index": 0, "uniform_scale": "null", "visible": true, "responsive_layout": {"enable": false, "horizontal_pos_layout": 0, "size_layout": 0, "target_follow": "", "vertical_pos_layout": 0}, "id": "3F342A75-E3B1-A1EC-254F-57ECFAA97A9F", "material_id": "A9D8CD41-9A72-C49D-2E8D-2B97318D4FDB", "source_timerange": {"duration": 1584000, "start": 0}, "target_timerange": {"duration": 1584000, "start": 1103164000}, "volume": 1.0}, {"cartoon": false, "clip": "null", "common_keyframes": [], "enable_adjust": false, "enable_color_curves": true, "enable_color_match_adjust": false, "enable_color_wheels": true, "enable_lut": false, "enable_smart_color_adjust": false, "group_id": "", "hdr_settings": "null", "intensifies_audio": false, "is_placeholder": false, "is_tone_modify": false, "keyframe_refs": [], "last_nonzero_volume": 1.0, "render_index": 0, "reverse": false, "speed": 1.0, "template_id": "", "template_scene": "default", "track_attribute": 0, "track_render_index": 0, "uniform_scale": "null", "visible": true, "responsive_layout": {"enable": false, "horizontal_pos_layout": 0, "size_layout": 0, "target_follow": "", "vertical_pos_layout": 0}, "id": "967E9155-37D2-11CA-0194-094D8C498777", "material_id": "7374163B-B12B-AED8-9D7D-F9894F5AA203", "source_timerange": {"duration": 2568000, "start": 0}, "target_timerange": {"duration": 2568000, "start": 1107586000}, "volume": 1.0}, {"cartoon": false, "clip": "null", "common_keyframes": [], "enable_adjust": false, "enable_color_curves": true, "enable_color_match_adjust": false, "enable_color_wheels": true, "enable_lut": false, "enable_smart_color_adjust": false, "group_id": "", "hdr_settings": "null", "intensifies_audio": false, "is_placeholder": false, "is_tone_modify": false, "keyframe_refs": [], "last_nonzero_volume": 1.0, "render_index": 0, "reverse": false, "speed": 1.0, "template_id": "", "template_scene": "default", "track_attribute": 0, "track_render_index": 0, "uniform_scale": "null", "visible": true, "responsive_layout": {"enable": false, "horizontal_pos_layout": 0, "size_layout": 0, "target_follow": "", "vertical_pos_layout": 0}, "id": "304B3864-D297-DBB9-E4F4-4B21A04D5BED", "material_id": "5E4FAF2A-4E37-DDC0-1284-24ED9F558CF5", "source_timerange": {"duration": 2640000, "start": 0}, "target_timerange": {"duration": 2640000, "start": 1114092000}, "volume": 1.0}, {"cartoon": false, "clip": "null", "common_keyframes": [], "enable_adjust": false, "enable_color_curves": true, "enable_color_match_adjust": false, "enable_color_wheels": true, "enable_lut": false, "enable_smart_color_adjust": false, "group_id": "", "hdr_settings": "null", "intensifies_audio": false, "is_placeholder": false, "is_tone_modify": false, "keyframe_refs": [], "last_nonzero_volume": 1.0, "render_index": 0, "reverse": false, "speed": 1.0, "template_id": "", "template_scene": "default", "track_attribute": 0, "track_render_index": 0, "uniform_scale": "null", "visible": true, "responsive_layout": {"enable": false, "horizontal_pos_layout": 0, "size_layout": 0, "target_follow": "", "vertical_pos_layout": 0}, "id": "4F7E81F8-C005-AECD-A942-AFF1B7AAA3B3", "material_id": "576A2869-F174-948A-096D-721288D95217", "source_timerange": {"duration": 2160000, "start": 0}, "target_timerange": {"duration": 2160000, "start": 1119306000}, "volume": 1.0}, {"cartoon": false, "clip": "null", "common_keyframes": [], "enable_adjust": false, "enable_color_curves": true, "enable_color_match_adjust": false, "enable_color_wheels": true, "enable_lut": false, "enable_smart_color_adjust": false, "group_id": "", "hdr_settings": "null", "intensifies_audio": false, "is_placeholder": false, "is_tone_modify": false, "keyframe_refs": [], "last_nonzero_volume": 1.0, "render_index": 0, "reverse": false, "speed": 1.0, "template_id": "", "template_scene": "default", "track_attribute": 0, "track_render_index": 0, "uniform_scale": "null", "visible": true, "responsive_layout": {"enable": false, "horizontal_pos_layout": 0, "size_layout": 0, "target_follow": "", "vertical_pos_layout": 0}, "id": "EEF3A2DB-CCA7-55C9-8738-089FCB31BC46", "material_id": "6B84FCE6-279A-884D-B76E-AB3E25E8A2CD", "source_timerange": {"duration": 1248000, "start": 0}, "target_timerange": {"duration": 1248000, "start": 1124060000}, "volume": 1.0}, {"cartoon": false, "clip": "null", "common_keyframes": [], "enable_adjust": false, "enable_color_curves": true, "enable_color_match_adjust": false, "enable_color_wheels": true, "enable_lut": false, "enable_smart_color_adjust": false, "group_id": "", "hdr_settings": "null", "intensifies_audio": false, "is_placeholder": false, "is_tone_modify": false, "keyframe_refs": [], "last_nonzero_volume": 1.0, "render_index": 0, "reverse": false, "speed": 1.0, "template_id": "", "template_scene": "default", "track_attribute": 0, "track_render_index": 0, "uniform_scale": "null", "visible": true, "responsive_layout": {"enable": false, "horizontal_pos_layout": 0, "size_layout": 0, "target_follow": "", "vertical_pos_layout": 0}, "id": "D7715122-15D0-6705-AB7B-6844ED6D9A44", "material_id": "A821DE64-7CFE-61FE-67F7-BBD66ACDA28C", "source_timerange": {"duration": 4632000, "start": 0}, "target_timerange": {"duration": 4632000, "start": 1126145000}, "volume": 1.0}, {"cartoon": false, "clip": "null", "common_keyframes": [], "enable_adjust": false, "enable_color_curves": true, "enable_color_match_adjust": false, "enable_color_wheels": true, "enable_lut": false, "enable_smart_color_adjust": false, "group_id": "", "hdr_settings": "null", "intensifies_audio": false, "is_placeholder": false, "is_tone_modify": false, "keyframe_refs": [], "last_nonzero_volume": 1.0, "render_index": 0, "reverse": false, "speed": 1.0, "template_id": "", "template_scene": "default", "track_attribute": 0, "track_render_index": 0, "uniform_scale": "null", "visible": true, "responsive_layout": {"enable": false, "horizontal_pos_layout": 0, "size_layout": 0, "target_follow": "", "vertical_pos_layout": 0}, "id": "469092F1-3122-C271-80A1-D21FC3753C06", "material_id": "91FFD885-F1AD-B1FC-1203-AE7AD7BD5E96", "source_timerange": {"duration": 3000000, "start": 0}, "target_timerange": {"duration": 3000000, "start": 1135489000}, "volume": 1.0}, {"cartoon": false, "clip": "null", "common_keyframes": [], "enable_adjust": false, "enable_color_curves": true, "enable_color_match_adjust": false, "enable_color_wheels": true, "enable_lut": false, "enable_smart_color_adjust": false, "group_id": "", "hdr_settings": "null", "intensifies_audio": false, "is_placeholder": false, "is_tone_modify": false, "keyframe_refs": [], "last_nonzero_volume": 1.0, "render_index": 0, "reverse": false, "speed": 1.0, "template_id": "", "template_scene": "default", "track_attribute": 0, "track_render_index": 0, "uniform_scale": "null", "visible": true, "responsive_layout": {"enable": false, "horizontal_pos_layout": 0, "size_layout": 0, "target_follow": "", "vertical_pos_layout": 0}, "id": "FF8BB56E-C72C-1912-ECF8-76A044E5ABA1", "material_id": "408CD64E-2537-F49C-0C16-6C94AA638A3A", "source_timerange": {"duration": 2712000, "start": 0}, "target_timerange": {"duration": 2712000, "start": 1139326000}, "volume": 1.0}, {"cartoon": false, "clip": "null", "common_keyframes": [], "enable_adjust": false, "enable_color_curves": true, "enable_color_match_adjust": false, "enable_color_wheels": true, "enable_lut": false, "enable_smart_color_adjust": false, "group_id": "", "hdr_settings": "null", "intensifies_audio": false, "is_placeholder": false, "is_tone_modify": false, "keyframe_refs": [], "last_nonzero_volume": 1.0, "render_index": 0, "reverse": false, "speed": 1.0, "template_id": "", "template_scene": "default", "track_attribute": 0, "track_render_index": 0, "uniform_scale": "null", "visible": true, "responsive_layout": {"enable": false, "horizontal_pos_layout": 0, "size_layout": 0, "target_follow": "", "vertical_pos_layout": 0}, "id": "AD69BFA1-AE7A-1C83-F3D1-209A2A347585", "material_id": "EF416691-5C23-5C81-D3DF-A15F28987BDB", "source_timerange": {"duration": 3240000, "start": 0}, "target_timerange": {"duration": 3240000, "start": 1145082000}, "volume": 1.0}, {"cartoon": false, "clip": "null", "common_keyframes": [], "enable_adjust": false, "enable_color_curves": true, "enable_color_match_adjust": false, "enable_color_wheels": true, "enable_lut": false, "enable_smart_color_adjust": false, "group_id": "", "hdr_settings": "null", "intensifies_audio": false, "is_placeholder": false, "is_tone_modify": false, "keyframe_refs": [], "last_nonzero_volume": 1.0, "render_index": 0, "reverse": false, "speed": 1.0, "template_id": "", "template_scene": "default", "track_attribute": 0, "track_render_index": 0, "uniform_scale": "null", "visible": true, "responsive_layout": {"enable": false, "horizontal_pos_layout": 0, "size_layout": 0, "target_follow": "", "vertical_pos_layout": 0}, "id": "C0E2A99D-E12C-1675-158B-89EDD0184F85", "material_id": "D65DD1CE-D30A-927E-1957-CD64DB3699A6", "source_timerange": {"duration": 1632000, "start": 0}, "target_timerange": {"duration": 1632000, "start": 1150086000}, "volume": 1.0}, {"cartoon": false, "clip": "null", "common_keyframes": [], "enable_adjust": false, "enable_color_curves": true, "enable_color_match_adjust": false, "enable_color_wheels": true, "enable_lut": false, "enable_smart_color_adjust": false, "group_id": "", "hdr_settings": "null", "intensifies_audio": false, "is_placeholder": false, "is_tone_modify": false, "keyframe_refs": [], "last_nonzero_volume": 1.0, "render_index": 0, "reverse": false, "speed": 1.0, "template_id": "", "template_scene": "default", "track_attribute": 0, "track_render_index": 0, "uniform_scale": "null", "visible": true, "responsive_layout": {"enable": false, "horizontal_pos_layout": 0, "size_layout": 0, "target_follow": "", "vertical_pos_layout": 0}, "id": "FE20266B-2B4C-8C73-4B9F-C60FC6F8B5EB", "material_id": "310C398F-69AF-A27E-83F3-B5F93426AA42", "source_timerange": {"duration": 1344000, "start": 0}, "target_timerange": {"duration": 1344000, "start": 1154673000}, "volume": 1.0}, {"cartoon": false, "clip": "null", "common_keyframes": [], "enable_adjust": false, "enable_color_curves": true, "enable_color_match_adjust": false, "enable_color_wheels": true, "enable_lut": false, "enable_smart_color_adjust": false, "group_id": "", "hdr_settings": "null", "intensifies_audio": false, "is_placeholder": false, "is_tone_modify": false, "keyframe_refs": [], "last_nonzero_volume": 1.0, "render_index": 0, "reverse": false, "speed": 1.0, "template_id": "", "template_scene": "default", "track_attribute": 0, "track_render_index": 0, "uniform_scale": "null", "visible": true, "responsive_layout": {"enable": false, "horizontal_pos_layout": 0, "size_layout": 0, "target_follow": "", "vertical_pos_layout": 0}, "id": "1EA8E23B-1CC4-0E8A-9472-31FB4DA233A8", "material_id": "D665FC50-1C10-6573-BD6A-EB7E29B73F08", "source_timerange": {"duration": 1272000, "start": 0}, "target_timerange": {"duration": 1272000, "start": 1175528000}, "volume": 1.0}, {"cartoon": false, "clip": "null", "common_keyframes": [], "enable_adjust": false, "enable_color_curves": true, "enable_color_match_adjust": false, "enable_color_wheels": true, "enable_lut": false, "enable_smart_color_adjust": false, "group_id": "", "hdr_settings": "null", "intensifies_audio": false, "is_placeholder": false, "is_tone_modify": false, "keyframe_refs": [], "last_nonzero_volume": 1.0, "render_index": 0, "reverse": false, "speed": 1.0, "template_id": "", "template_scene": "default", "track_attribute": 0, "track_render_index": 0, "uniform_scale": "null", "visible": true, "responsive_layout": {"enable": false, "horizontal_pos_layout": 0, "size_layout": 0, "target_follow": "", "vertical_pos_layout": 0}, "id": "93CF31C7-12E1-60FE-433D-C473186978EA", "material_id": "6D51D6E6-1086-0EA3-E987-68349C8FAD70", "source_timerange": {"duration": 1896000, "start": 0}, "target_timerange": {"duration": 1896000, "start": 1178240000}, "volume": 1.0}, {"cartoon": false, "clip": "null", "common_keyframes": [], "enable_adjust": false, "enable_color_curves": true, "enable_color_match_adjust": false, "enable_color_wheels": true, "enable_lut": false, "enable_smart_color_adjust": false, "group_id": "", "hdr_settings": "null", "intensifies_audio": false, "is_placeholder": false, "is_tone_modify": false, "keyframe_refs": [], "last_nonzero_volume": 1.0, "render_index": 0, "reverse": false, "speed": 1.0, "template_id": "", "template_scene": "default", "track_attribute": 0, "track_render_index": 0, "uniform_scale": "null", "visible": true, "responsive_layout": {"enable": false, "horizontal_pos_layout": 0, "size_layout": 0, "target_follow": "", "vertical_pos_layout": 0}, "id": "308CE51B-E9AE-1E52-652A-B56BCB0FEEF6", "material_id": "28A38B4C-B37F-7AB8-C76F-9EBD7D88FE29", "source_timerange": {"duration": 2520000, "start": 0}, "target_timerange": {"duration": 2520000, "start": 1183912000}, "volume": 1.0}, {"cartoon": false, "clip": "null", "common_keyframes": [], "enable_adjust": false, "enable_color_curves": true, "enable_color_match_adjust": false, "enable_color_wheels": true, "enable_lut": false, "enable_smart_color_adjust": false, "group_id": "", "hdr_settings": "null", "intensifies_audio": false, "is_placeholder": false, "is_tone_modify": false, "keyframe_refs": [], "last_nonzero_volume": 1.0, "render_index": 0, "reverse": false, "speed": 1.0, "template_id": "", "template_scene": "default", "track_attribute": 0, "track_render_index": 0, "uniform_scale": "null", "visible": true, "responsive_layout": {"enable": false, "horizontal_pos_layout": 0, "size_layout": 0, "target_follow": "", "vertical_pos_layout": 0}, "id": "30D9E194-E76D-A2A5-1896-2EABFF4F60D7", "material_id": "A6E55387-8CE9-A60E-36AD-CD4F9E3AF265", "source_timerange": {"duration": 3816000, "start": 0}, "target_timerange": {"duration": 3816000, "start": 1187915000}, "volume": 1.0}, {"cartoon": false, "clip": "null", "common_keyframes": [], "enable_adjust": false, "enable_color_curves": true, "enable_color_match_adjust": false, "enable_color_wheels": true, "enable_lut": false, "enable_smart_color_adjust": false, "group_id": "", "hdr_settings": "null", "intensifies_audio": false, "is_placeholder": false, "is_tone_modify": false, "keyframe_refs": [], "last_nonzero_volume": 1.0, "render_index": 0, "reverse": false, "speed": 1.0, "template_id": "", "template_scene": "default", "track_attribute": 0, "track_render_index": 0, "uniform_scale": "null", "visible": true, "responsive_layout": {"enable": false, "horizontal_pos_layout": 0, "size_layout": 0, "target_follow": "", "vertical_pos_layout": 0}, "id": "75EDB338-9739-D601-7F37-7B3E47269C3A", "material_id": "B9C88CC1-8063-64A6-2632-FD97561F7070", "source_timerange": {"duration": 1512000, "start": 0}, "target_timerange": {"duration": 1512000, "start": 1195714000}, "volume": 1.0}, {"cartoon": false, "clip": "null", "common_keyframes": [], "enable_adjust": false, "enable_color_curves": true, "enable_color_match_adjust": false, "enable_color_wheels": true, "enable_lut": false, "enable_smart_color_adjust": false, "group_id": "", "hdr_settings": "null", "intensifies_audio": false, "is_placeholder": false, "is_tone_modify": false, "keyframe_refs": [], "last_nonzero_volume": 1.0, "render_index": 0, "reverse": false, "speed": 1.0, "template_id": "", "template_scene": "default", "track_attribute": 0, "track_render_index": 0, "uniform_scale": "null", "visible": true, "responsive_layout": {"enable": false, "horizontal_pos_layout": 0, "size_layout": 0, "target_follow": "", "vertical_pos_layout": 0}, "id": "11D55CC3-B9E9-5DE7-F215-32FAC99F8F67", "material_id": "9D5CA0A8-FC1B-9D25-8DF3-422C62292901", "source_timerange": {"duration": 3504000, "start": 0}, "target_timerange": {"duration": 3504000, "start": 1198759000}, "volume": 1.0}, {"cartoon": false, "clip": "null", "common_keyframes": [], "enable_adjust": false, "enable_color_curves": true, "enable_color_match_adjust": false, "enable_color_wheels": true, "enable_lut": false, "enable_smart_color_adjust": false, "group_id": "", "hdr_settings": "null", "intensifies_audio": false, "is_placeholder": false, "is_tone_modify": false, "keyframe_refs": [], "last_nonzero_volume": 1.0, "render_index": 0, "reverse": false, "speed": 1.0, "template_id": "", "template_scene": "default", "track_attribute": 0, "track_render_index": 0, "uniform_scale": "null", "visible": true, "responsive_layout": {"enable": false, "horizontal_pos_layout": 0, "size_layout": 0, "target_follow": "", "vertical_pos_layout": 0}, "id": "1BC8C966-0E38-910A-EB76-00B6651F8B18", "material_id": "5404783F-41FF-E336-26D7-02A19E603E7B", "source_timerange": {"duration": 1704000, "start": 0}, "target_timerange": {"duration": 1704000, "start": 1203557000}, "volume": 1.0}, {"cartoon": false, "clip": "null", "common_keyframes": [], "enable_adjust": false, "enable_color_curves": true, "enable_color_match_adjust": false, "enable_color_wheels": true, "enable_lut": false, "enable_smart_color_adjust": false, "group_id": "", "hdr_settings": "null", "intensifies_audio": false, "is_placeholder": false, "is_tone_modify": false, "keyframe_refs": [], "last_nonzero_volume": 1.0, "render_index": 0, "reverse": false, "speed": 1.0, "template_id": "", "template_scene": "default", "track_attribute": 0, "track_render_index": 0, "uniform_scale": "null", "visible": true, "responsive_layout": {"enable": false, "horizontal_pos_layout": 0, "size_layout": 0, "target_follow": "", "vertical_pos_layout": 0}, "id": "43E86B2B-169A-498A-2FC4-B8387B5BF045", "material_id": "CD4D67C7-95D0-4439-4FDA-8CA6C86A7919", "source_timerange": {"duration": 3192000, "start": 0}, "target_timerange": {"duration": 3192000, "start": 1222784000}, "volume": 1.0}, {"cartoon": false, "clip": "null", "common_keyframes": [], "enable_adjust": false, "enable_color_curves": true, "enable_color_match_adjust": false, "enable_color_wheels": true, "enable_lut": false, "enable_smart_color_adjust": false, "group_id": "", "hdr_settings": "null", "intensifies_audio": false, "is_placeholder": false, "is_tone_modify": false, "keyframe_refs": [], "last_nonzero_volume": 1.0, "render_index": 0, "reverse": false, "speed": 1.0, "template_id": "", "template_scene": "default", "track_attribute": 0, "track_render_index": 0, "uniform_scale": "null", "visible": true, "responsive_layout": {"enable": false, "horizontal_pos_layout": 0, "size_layout": 0, "target_follow": "", "vertical_pos_layout": 0}, "id": "746847B3-AA13-ED50-9DDE-B829622955B3", "material_id": "6E41D64D-6886-CF7A-58D2-F29C1C30C051", "source_timerange": {"duration": 3912000, "start": 0}, "target_timerange": {"duration": 3912000, "start": 1230959000}, "volume": 1.0}, {"cartoon": false, "clip": "null", "common_keyframes": [], "enable_adjust": false, "enable_color_curves": true, "enable_color_match_adjust": false, "enable_color_wheels": true, "enable_lut": false, "enable_smart_color_adjust": false, "group_id": "", "hdr_settings": "null", "intensifies_audio": false, "is_placeholder": false, "is_tone_modify": false, "keyframe_refs": [], "last_nonzero_volume": 1.0, "render_index": 0, "reverse": false, "speed": 1.0, "template_id": "", "template_scene": "default", "track_attribute": 0, "track_render_index": 0, "uniform_scale": "null", "visible": true, "responsive_layout": {"enable": false, "horizontal_pos_layout": 0, "size_layout": 0, "target_follow": "", "vertical_pos_layout": 0}, "id": "C024E763-1D6C-BD38-68A7-CA3F19F39908", "material_id": "D9DB0CCF-7823-3708-6684-BFEFC14D109D", "source_timerange": {"duration": 3432000, "start": 0}, "target_timerange": {"duration": 3432000, "start": 1236882000}, "volume": 1.0}, {"cartoon": false, "clip": "null", "common_keyframes": [], "enable_adjust": false, "enable_color_curves": true, "enable_color_match_adjust": false, "enable_color_wheels": true, "enable_lut": false, "enable_smart_color_adjust": false, "group_id": "", "hdr_settings": "null", "intensifies_audio": false, "is_placeholder": false, "is_tone_modify": false, "keyframe_refs": [], "last_nonzero_volume": 1.0, "render_index": 0, "reverse": false, "speed": 1.0, "template_id": "", "template_scene": "default", "track_attribute": 0, "track_render_index": 0, "uniform_scale": "null", "visible": true, "responsive_layout": {"enable": false, "horizontal_pos_layout": 0, "size_layout": 0, "target_follow": "", "vertical_pos_layout": 0}, "id": "2A25DCB3-B162-FB08-B7A1-8762A0185973", "material_id": "10B0924D-3AEB-018F-6C39-A757B9D924BF", "source_timerange": {"duration": 4584000, "start": 0}, "target_timerange": {"duration": 4584000, "start": 1244221000}, "volume": 1.0}, {"cartoon": false, "clip": "null", "common_keyframes": [], "enable_adjust": false, "enable_color_curves": true, "enable_color_match_adjust": false, "enable_color_wheels": true, "enable_lut": false, "enable_smart_color_adjust": false, "group_id": "", "hdr_settings": "null", "intensifies_audio": false, "is_placeholder": false, "is_tone_modify": false, "keyframe_refs": [], "last_nonzero_volume": 1.0, "render_index": 0, "reverse": false, "speed": 1.0, "template_id": "", "template_scene": "default", "track_attribute": 0, "track_render_index": 0, "uniform_scale": "null", "visible": true, "responsive_layout": {"enable": false, "horizontal_pos_layout": 0, "size_layout": 0, "target_follow": "", "vertical_pos_layout": 0}, "id": "F0DAB902-5F0A-7735-FAC7-B069211CE301", "material_id": "B038A9E2-B64C-1EC1-DCFD-90AEBD667871", "source_timerange": {"duration": 3480000, "start": 0}, "target_timerange": {"duration": 3480000, "start": 1251813000}, "volume": 1.0}, {"cartoon": false, "clip": "null", "common_keyframes": [], "enable_adjust": false, "enable_color_curves": true, "enable_color_match_adjust": false, "enable_color_wheels": true, "enable_lut": false, "enable_smart_color_adjust": false, "group_id": "", "hdr_settings": "null", "intensifies_audio": false, "is_placeholder": false, "is_tone_modify": false, "keyframe_refs": [], "last_nonzero_volume": 1.0, "render_index": 0, "reverse": false, "speed": 1.0, "template_id": "", "template_scene": "default", "track_attribute": 0, "track_render_index": 0, "uniform_scale": "null", "visible": true, "responsive_layout": {"enable": false, "horizontal_pos_layout": 0, "size_layout": 0, "target_follow": "", "vertical_pos_layout": 0}, "id": "5F91065D-51EA-4056-C936-0CA4998E8F04", "material_id": "A69CD67B-9D48-2E86-ADB3-984446AC3287", "source_timerange": {"duration": 2064000, "start": 0}, "target_timerange": {"duration": 2064000, "start": 1259445000}, "volume": 1.0}, {"cartoon": false, "clip": "null", "common_keyframes": [], "enable_adjust": false, "enable_color_curves": true, "enable_color_match_adjust": false, "enable_color_wheels": true, "enable_lut": false, "enable_smart_color_adjust": false, "group_id": "", "hdr_settings": "null", "intensifies_audio": false, "is_placeholder": false, "is_tone_modify": false, "keyframe_refs": [], "last_nonzero_volume": 1.0, "render_index": 0, "reverse": false, "speed": 1.0, "template_id": "", "template_scene": "default", "track_attribute": 0, "track_render_index": 0, "uniform_scale": "null", "visible": true, "responsive_layout": {"enable": false, "horizontal_pos_layout": 0, "size_layout": 0, "target_follow": "", "vertical_pos_layout": 0}, "id": "2D85095B-C915-DCE4-4553-79AB9D731C92", "material_id": "DCC30819-8015-21B3-395C-97D53D5854EF", "source_timerange": {"duration": 3696000, "start": 0}, "target_timerange": {"duration": 3696000, "start": 1267496000}, "volume": 1.0}, {"cartoon": false, "clip": "null", "common_keyframes": [], "enable_adjust": false, "enable_color_curves": true, "enable_color_match_adjust": false, "enable_color_wheels": true, "enable_lut": false, "enable_smart_color_adjust": false, "group_id": "", "hdr_settings": "null", "intensifies_audio": false, "is_placeholder": false, "is_tone_modify": false, "keyframe_refs": [], "last_nonzero_volume": 1.0, "render_index": 0, "reverse": false, "speed": 1.0, "template_id": "", "template_scene": "default", "track_attribute": 0, "track_render_index": 0, "uniform_scale": "null", "visible": true, "responsive_layout": {"enable": false, "horizontal_pos_layout": 0, "size_layout": 0, "target_follow": "", "vertical_pos_layout": 0}, "id": "EEB7B750-834E-BC74-1419-F7A47B406F13", "material_id": "4BA654F0-D230-0D88-27D9-5B9CB0027E9C", "source_timerange": {"duration": 2424000, "start": 0}, "target_timerange": {"duration": 2424000, "start": 1273335000}, "volume": 1.0}, {"cartoon": false, "clip": "null", "common_keyframes": [], "enable_adjust": false, "enable_color_curves": true, "enable_color_match_adjust": false, "enable_color_wheels": true, "enable_lut": false, "enable_smart_color_adjust": false, "group_id": "", "hdr_settings": "null", "intensifies_audio": false, "is_placeholder": false, "is_tone_modify": false, "keyframe_refs": [], "last_nonzero_volume": 1.0, "render_index": 0, "reverse": false, "speed": 1.0, "template_id": "", "template_scene": "default", "track_attribute": 0, "track_render_index": 0, "uniform_scale": "null", "visible": true, "responsive_layout": {"enable": false, "horizontal_pos_layout": 0, "size_layout": 0, "target_follow": "", "vertical_pos_layout": 0}, "id": "3BEE1A3E-7CF7-AFFB-8DB4-19AAD89CBD54", "material_id": "EF34ADE0-9656-A8C2-728E-8E8F25728FAF", "source_timerange": {"duration": 2496000, "start": 0}, "target_timerange": {"duration": 2496000, "start": 1279965000}, "volume": 1.0}, {"cartoon": false, "clip": "null", "common_keyframes": [], "enable_adjust": false, "enable_color_curves": true, "enable_color_match_adjust": false, "enable_color_wheels": true, "enable_lut": false, "enable_smart_color_adjust": false, "group_id": "", "hdr_settings": "null", "intensifies_audio": false, "is_placeholder": false, "is_tone_modify": false, "keyframe_refs": [], "last_nonzero_volume": 1.0, "render_index": 0, "reverse": false, "speed": 1.0, "template_id": "", "template_scene": "default", "track_attribute": 0, "track_render_index": 0, "uniform_scale": "null", "visible": true, "responsive_layout": {"enable": false, "horizontal_pos_layout": 0, "size_layout": 0, "target_follow": "", "vertical_pos_layout": 0}, "id": "EBC84625-74BA-63A3-1602-781E081EB5EB", "material_id": "6601EFE0-CDA9-71FF-9723-D756406B9437", "source_timerange": {"duration": 1944000, "start": 0}, "target_timerange": {"duration": 1944000, "start": 1298026000}, "volume": 1.0}, {"cartoon": false, "clip": "null", "common_keyframes": [], "enable_adjust": false, "enable_color_curves": true, "enable_color_match_adjust": false, "enable_color_wheels": true, "enable_lut": false, "enable_smart_color_adjust": false, "group_id": "", "hdr_settings": "null", "intensifies_audio": false, "is_placeholder": false, "is_tone_modify": false, "keyframe_refs": [], "last_nonzero_volume": 1.0, "render_index": 0, "reverse": false, "speed": 1.0, "template_id": "", "template_scene": "default", "track_attribute": 0, "track_render_index": 0, "uniform_scale": "null", "visible": true, "responsive_layout": {"enable": false, "horizontal_pos_layout": 0, "size_layout": 0, "target_follow": "", "vertical_pos_layout": 0}, "id": "795763FF-8B1B-5E32-1920-137C8851B850", "material_id": "417831A7-E551-E650-94D9-757B9D206321", "source_timerange": {"duration": 1728000, "start": 0}, "target_timerange": {"duration": 1728000, "start": 1299861000}, "volume": 1.0}, {"cartoon": false, "clip": "null", "common_keyframes": [], "enable_adjust": false, "enable_color_curves": true, "enable_color_match_adjust": false, "enable_color_wheels": true, "enable_lut": false, "enable_smart_color_adjust": false, "group_id": "", "hdr_settings": "null", "intensifies_audio": false, "is_placeholder": false, "is_tone_modify": false, "keyframe_refs": [], "last_nonzero_volume": 1.0, "render_index": 0, "reverse": false, "speed": 1.0, "template_id": "", "template_scene": "default", "track_attribute": 0, "track_render_index": 0, "uniform_scale": "null", "visible": true, "responsive_layout": {"enable": false, "horizontal_pos_layout": 0, "size_layout": 0, "target_follow": "", "vertical_pos_layout": 0}, "id": "B12E4B82-8061-49C9-CE7F-46FE27B0BA6D", "material_id": "79DEF2C1-85CE-8DE3-D7E0-ECA412244296", "source_timerange": {"duration": 2304000, "start": 0}, "target_timerange": {"duration": 2304000, "start": 1302279000}, "volume": 1.0}, {"cartoon": false, "clip": "null", "common_keyframes": [], "enable_adjust": false, "enable_color_curves": true, "enable_color_match_adjust": false, "enable_color_wheels": true, "enable_lut": false, "enable_smart_color_adjust": false, "group_id": "", "hdr_settings": "null", "intensifies_audio": false, "is_placeholder": false, "is_tone_modify": false, "keyframe_refs": [], "last_nonzero_volume": 1.0, "render_index": 0, "reverse": false, "speed": 1.0, "template_id": "", "template_scene": "default", "track_attribute": 0, "track_render_index": 0, "uniform_scale": "null", "visible": true, "responsive_layout": {"enable": false, "horizontal_pos_layout": 0, "size_layout": 0, "target_follow": "", "vertical_pos_layout": 0}, "id": "87A84AC9-7B62-EF3B-7FAB-F199F0652691", "material_id": "95DAAAAC-45A8-B598-3E84-46CA19C5A894", "source_timerange": {"duration": 2376000, "start": 0}, "target_timerange": {"duration": 2376000, "start": 1305741000}, "volume": 1.0}, {"cartoon": false, "clip": "null", "common_keyframes": [], "enable_adjust": false, "enable_color_curves": true, "enable_color_match_adjust": false, "enable_color_wheels": true, "enable_lut": false, "enable_smart_color_adjust": false, "group_id": "", "hdr_settings": "null", "intensifies_audio": false, "is_placeholder": false, "is_tone_modify": false, "keyframe_refs": [], "last_nonzero_volume": 1.0, "render_index": 0, "reverse": false, "speed": 1.0, "template_id": "", "template_scene": "default", "track_attribute": 0, "track_render_index": 0, "uniform_scale": "null", "visible": true, "responsive_layout": {"enable": false, "horizontal_pos_layout": 0, "size_layout": 0, "target_follow": "", "vertical_pos_layout": 0}, "id": "ED7389C0-F919-8273-C4E1-4C037B4B538C", "material_id": "00D06CA2-7D43-92EC-19A8-10A930E9DAC5", "source_timerange": {"duration": 2952000, "start": 0}, "target_timerange": {"duration": 2952000, "start": 1312289000}, "volume": 1.0}, {"cartoon": false, "clip": "null", "common_keyframes": [], "enable_adjust": false, "enable_color_curves": true, "enable_color_match_adjust": false, "enable_color_wheels": true, "enable_lut": false, "enable_smart_color_adjust": false, "group_id": "", "hdr_settings": "null", "intensifies_audio": false, "is_placeholder": false, "is_tone_modify": false, "keyframe_refs": [], "last_nonzero_volume": 1.0, "render_index": 0, "reverse": false, "speed": 1.0, "template_id": "", "template_scene": "default", "track_attribute": 0, "track_render_index": 0, "uniform_scale": "null", "visible": true, "responsive_layout": {"enable": false, "horizontal_pos_layout": 0, "size_layout": 0, "target_follow": "", "vertical_pos_layout": 0}, "id": "37FAF8AB-5C52-E8F3-4440-3611B7C900C3", "material_id": "6009523F-F1F7-06AD-45F5-C54174AB7ED3", "source_timerange": {"duration": 1800000, "start": 0}, "target_timerange": {"duration": 1800000, "start": 1316086000}, "volume": 1.0}, {"cartoon": false, "clip": "null", "common_keyframes": [], "enable_adjust": false, "enable_color_curves": true, "enable_color_match_adjust": false, "enable_color_wheels": true, "enable_lut": false, "enable_smart_color_adjust": false, "group_id": "", "hdr_settings": "null", "intensifies_audio": false, "is_placeholder": false, "is_tone_modify": false, "keyframe_refs": [], "last_nonzero_volume": 1.0, "render_index": 0, "reverse": false, "speed": 1.0, "template_id": "", "template_scene": "default", "track_attribute": 0, "track_render_index": 0, "uniform_scale": "null", "visible": true, "responsive_layout": {"enable": false, "horizontal_pos_layout": 0, "size_layout": 0, "target_follow": "", "vertical_pos_layout": 0}, "id": "A38ACC2B-4B39-6F45-EE54-FC3B6953AE65", "material_id": "909BC27B-72F2-DB72-01BC-AE57FB37E1A9", "source_timerange": {"duration": 1728000, "start": 0}, "target_timerange": {"duration": 1728000, "start": 1323050000}, "volume": 1.0}], "type": "audio"}, {"attribute": 0, "flag": 0, "id": "D1303FC9-8BF0-4bdb-AF53-C4025E3E52DB", "is_default_name": true, "name": "", "segments": [{"cartoon": false, "clip": "null", "common_keyframes": [], "enable_adjust": false, "enable_color_curves": true, "enable_color_match_adjust": false, "enable_color_wheels": true, "enable_lut": false, "enable_smart_color_adjust": false, "group_id": "", "hdr_settings": "null", "intensifies_audio": false, "is_placeholder": false, "is_tone_modify": false, "keyframe_refs": [], "last_nonzero_volume": 1.0, "render_index": 0, "reverse": false, "speed": 1.0, "template_id": "", "template_scene": "default", "track_attribute": 0, "track_render_index": 0, "uniform_scale": "null", "visible": true, "responsive_layout": {"enable": false, "horizontal_pos_layout": 0, "size_layout": 0, "target_follow": "", "vertical_pos_layout": 0}, "id": "5E57E1A9-C095-43FE-0E36-63E70BAF01AF", "material_id": "4F110504-5F7B-48A6-861E-6424900A6973", "source_timerange": {"duration": 2712000, "start": 0}, "target_timerange": {"duration": 2712000, "start": 12742000}, "volume": 1.0}, {"cartoon": false, "clip": "null", "common_keyframes": [], "enable_adjust": false, "enable_color_curves": true, "enable_color_match_adjust": false, "enable_color_wheels": true, "enable_lut": false, "enable_smart_color_adjust": false, "group_id": "", "hdr_settings": "null", "intensifies_audio": false, "is_placeholder": false, "is_tone_modify": false, "keyframe_refs": [], "last_nonzero_volume": 1.0, "render_index": 0, "reverse": false, "speed": 1.0, "template_id": "", "template_scene": "default", "track_attribute": 0, "track_render_index": 0, "uniform_scale": "null", "visible": true, "responsive_layout": {"enable": false, "horizontal_pos_layout": 0, "size_layout": 0, "target_follow": "", "vertical_pos_layout": 0}, "id": "E376694B-2D3C-94DF-62A6-7DBFEA7BF988", "material_id": "DAFBAB60-A279-C010-AC86-0D691A5D584D", "source_timerange": {"duration": 2640000, "start": 0}, "target_timerange": {"duration": 2640000, "start": 21167000}, "volume": 1.0}, {"cartoon": false, "clip": "null", "common_keyframes": [], "enable_adjust": false, "enable_color_curves": true, "enable_color_match_adjust": false, "enable_color_wheels": true, "enable_lut": false, "enable_smart_color_adjust": false, "group_id": "", "hdr_settings": "null", "intensifies_audio": false, "is_placeholder": false, "is_tone_modify": false, "keyframe_refs": [], "last_nonzero_volume": 1.0, "render_index": 0, "reverse": false, "speed": 1.0, "template_id": "", "template_scene": "default", "track_attribute": 0, "track_render_index": 0, "uniform_scale": "null", "visible": true, "responsive_layout": {"enable": false, "horizontal_pos_layout": 0, "size_layout": 0, "target_follow": "", "vertical_pos_layout": 0}, "id": "E93AD01E-D004-CBC1-C349-5C9F4DC9813C", "material_id": "6F39626D-4B6A-AA28-523A-E3E30EF74390", "source_timerange": {"duration": 1920000, "start": 0}, "target_timerange": {"duration": 1920000, "start": 42521000}, "volume": 1.0}, {"cartoon": false, "clip": "null", "common_keyframes": [], "enable_adjust": false, "enable_color_curves": true, "enable_color_match_adjust": false, "enable_color_wheels": true, "enable_lut": false, "enable_smart_color_adjust": false, "group_id": "", "hdr_settings": "null", "intensifies_audio": false, "is_placeholder": false, "is_tone_modify": false, "keyframe_refs": [], "last_nonzero_volume": 1.0, "render_index": 0, "reverse": false, "speed": 1.0, "template_id": "", "template_scene": "default", "track_attribute": 0, "track_render_index": 0, "uniform_scale": "null", "visible": true, "responsive_layout": {"enable": false, "horizontal_pos_layout": 0, "size_layout": 0, "target_follow": "", "vertical_pos_layout": 0}, "id": "437742C0-81E0-B7EA-6530-078F1E0667C5", "material_id": "33428C74-3335-EC68-547C-584C8E1ACA73", "source_timerange": {"duration": 2040000, "start": 0}, "target_timerange": {"duration": 2040000, "start": 63084000}, "volume": 1.0}, {"cartoon": false, "clip": "null", "common_keyframes": [], "enable_adjust": false, "enable_color_curves": true, "enable_color_match_adjust": false, "enable_color_wheels": true, "enable_lut": false, "enable_smart_color_adjust": false, "group_id": "", "hdr_settings": "null", "intensifies_audio": false, "is_placeholder": false, "is_tone_modify": false, "keyframe_refs": [], "last_nonzero_volume": 1.0, "render_index": 0, "reverse": false, "speed": 1.0, "template_id": "", "template_scene": "default", "track_attribute": 0, "track_render_index": 0, "uniform_scale": "null", "visible": true, "responsive_layout": {"enable": false, "horizontal_pos_layout": 0, "size_layout": 0, "target_follow": "", "vertical_pos_layout": 0}, "id": "06189BCA-E5A8-107B-F549-37F6FC0F55A4", "material_id": "C0F5A31E-B11B-EA98-386F-B3A70CDAEE20", "source_timerange": {"duration": 2520000, "start": 0}, "target_timerange": {"duration": 2520000, "start": 68881000}, "volume": 1.0}, {"cartoon": false, "clip": "null", "common_keyframes": [], "enable_adjust": false, "enable_color_curves": true, "enable_color_match_adjust": false, "enable_color_wheels": true, "enable_lut": false, "enable_smart_color_adjust": false, "group_id": "", "hdr_settings": "null", "intensifies_audio": false, "is_placeholder": false, "is_tone_modify": false, "keyframe_refs": [], "last_nonzero_volume": 1.0, "render_index": 0, "reverse": false, "speed": 1.0, "template_id": "", "template_scene": "default", "track_attribute": 0, "track_render_index": 0, "uniform_scale": "null", "visible": true, "responsive_layout": {"enable": false, "horizontal_pos_layout": 0, "size_layout": 0, "target_follow": "", "vertical_pos_layout": 0}, "id": "A6758444-53C2-4537-0A67-18073841ECE8", "material_id": "793E94AA-F36F-F8BB-E044-5D231292AB0E", "source_timerange": {"duration": 3120000, "start": 0}, "target_timerange": {"duration": 3120000, "start": 86899000}, "volume": 1.0}, {"cartoon": false, "clip": "null", "common_keyframes": [], "enable_adjust": false, "enable_color_curves": true, "enable_color_match_adjust": false, "enable_color_wheels": true, "enable_lut": false, "enable_smart_color_adjust": false, "group_id": "", "hdr_settings": "null", "intensifies_audio": false, "is_placeholder": false, "is_tone_modify": false, "keyframe_refs": [], "last_nonzero_volume": 1.0, "render_index": 0, "reverse": false, "speed": 1.0, "template_id": "", "template_scene": "default", "track_attribute": 0, "track_render_index": 0, "uniform_scale": "null", "visible": true, "responsive_layout": {"enable": false, "horizontal_pos_layout": 0, "size_layout": 0, "target_follow": "", "vertical_pos_layout": 0}, "id": "914CA9B8-2AA3-0C69-6615-41DD3CD18A9B", "material_id": "F700788C-53BD-F833-350C-3EA04EF78C8F", "source_timerange": {"duration": 2376000, "start": 0}, "target_timerange": {"duration": 2376000, "start": 92237000}, "volume": 1.0}, {"cartoon": false, "clip": "null", "common_keyframes": [], "enable_adjust": false, "enable_color_curves": true, "enable_color_match_adjust": false, "enable_color_wheels": true, "enable_lut": false, "enable_smart_color_adjust": false, "group_id": "", "hdr_settings": "null", "intensifies_audio": false, "is_placeholder": false, "is_tone_modify": false, "keyframe_refs": [], "last_nonzero_volume": 1.0, "render_index": 0, "reverse": false, "speed": 1.0, "template_id": "", "template_scene": "default", "track_attribute": 0, "track_render_index": 0, "uniform_scale": "null", "visible": true, "responsive_layout": {"enable": false, "horizontal_pos_layout": 0, "size_layout": 0, "target_follow": "", "vertical_pos_layout": 0}, "id": "7EFA6C22-74D1-403F-52A9-AFBB81B7E0C8", "material_id": "18BC03B1-3C54-1816-1C7E-2F812C07D2EE", "source_timerange": {"duration": 1248000, "start": 0}, "target_timerange": {"duration": 1248000, "start": 97075000}, "volume": 1.0}, {"cartoon": false, "clip": "null", "common_keyframes": [], "enable_adjust": false, "enable_color_curves": true, "enable_color_match_adjust": false, "enable_color_wheels": true, "enable_lut": false, "enable_smart_color_adjust": false, "group_id": "", "hdr_settings": "null", "intensifies_audio": false, "is_placeholder": false, "is_tone_modify": false, "keyframe_refs": [], "last_nonzero_volume": 1.0, "render_index": 0, "reverse": false, "speed": 1.0, "template_id": "", "template_scene": "default", "track_attribute": 0, "track_render_index": 0, "uniform_scale": "null", "visible": true, "responsive_layout": {"enable": false, "horizontal_pos_layout": 0, "size_layout": 0, "target_follow": "", "vertical_pos_layout": 0}, "id": "0BD7AE93-4AD3-E607-05BF-EACCC46DA589", "material_id": "A9DC07F5-AFF4-CBC3-0EDF-E3395634F7B8", "source_timerange": {"duration": 2304000, "start": 0}, "target_timerange": {"duration": 2304000, "start": 111674000}, "volume": 1.0}, {"cartoon": false, "clip": "null", "common_keyframes": [], "enable_adjust": false, "enable_color_curves": true, "enable_color_match_adjust": false, "enable_color_wheels": true, "enable_lut": false, "enable_smart_color_adjust": false, "group_id": "", "hdr_settings": "null", "intensifies_audio": false, "is_placeholder": false, "is_tone_modify": false, "keyframe_refs": [], "last_nonzero_volume": 1.0, "render_index": 0, "reverse": false, "speed": 1.0, "template_id": "", "template_scene": "default", "track_attribute": 0, "track_render_index": 0, "uniform_scale": "null", "visible": true, "responsive_layout": {"enable": false, "horizontal_pos_layout": 0, "size_layout": 0, "target_follow": "", "vertical_pos_layout": 0}, "id": "4A615C81-4AF1-31EC-AA76-89A4E494A0BD", "material_id": "42950599-A5AD-B219-DF03-93AF5E9F4D06", "source_timerange": {"duration": 4344000, "start": 0}, "target_timerange": {"duration": 4344000, "start": 116262000}, "volume": 1.0}, {"cartoon": false, "clip": "null", "common_keyframes": [], "enable_adjust": false, "enable_color_curves": true, "enable_color_match_adjust": false, "enable_color_wheels": true, "enable_lut": false, "enable_smart_color_adjust": false, "group_id": "", "hdr_settings": "null", "intensifies_audio": false, "is_placeholder": false, "is_tone_modify": false, "keyframe_refs": [], "last_nonzero_volume": 1.0, "render_index": 0, "reverse": false, "speed": 1.0, "template_id": "", "template_scene": "default", "track_attribute": 0, "track_render_index": 0, "uniform_scale": "null", "visible": true, "responsive_layout": {"enable": false, "horizontal_pos_layout": 0, "size_layout": 0, "target_follow": "", "vertical_pos_layout": 0}, "id": "8E0436DD-7171-8944-BDBD-B1771C4141F6", "material_id": "50BB3E4D-4BAD-4A3F-E665-FA778B304D81", "source_timerange": {"duration": 2712000, "start": 0}, "target_timerange": {"duration": 2712000, "start": 131443000}, "volume": 1.0}, {"cartoon": false, "clip": "null", "common_keyframes": [], "enable_adjust": false, "enable_color_curves": true, "enable_color_match_adjust": false, "enable_color_wheels": true, "enable_lut": false, "enable_smart_color_adjust": false, "group_id": "", "hdr_settings": "null", "intensifies_audio": false, "is_placeholder": false, "is_tone_modify": false, "keyframe_refs": [], "last_nonzero_volume": 1.0, "render_index": 0, "reverse": false, "speed": 1.0, "template_id": "", "template_scene": "default", "track_attribute": 0, "track_render_index": 0, "uniform_scale": "null", "visible": true, "responsive_layout": {"enable": false, "horizontal_pos_layout": 0, "size_layout": 0, "target_follow": "", "vertical_pos_layout": 0}, "id": "A01B6468-C8F1-E0E1-8FBF-B0926A9F1551", "material_id": "91CD0B78-9ECE-C5A2-35EF-C157F7FCD10F", "source_timerange": {"duration": 3552000, "start": 0}, "target_timerange": {"duration": 3552000, "start": 137699000}, "volume": 1.0}, {"cartoon": false, "clip": "null", "common_keyframes": [], "enable_adjust": false, "enable_color_curves": true, "enable_color_match_adjust": false, "enable_color_wheels": true, "enable_lut": false, "enable_smart_color_adjust": false, "group_id": "", "hdr_settings": "null", "intensifies_audio": false, "is_placeholder": false, "is_tone_modify": false, "keyframe_refs": [], "last_nonzero_volume": 1.0, "render_index": 0, "reverse": false, "speed": 1.0, "template_id": "", "template_scene": "default", "track_attribute": 0, "track_render_index": 0, "uniform_scale": "null", "visible": true, "responsive_layout": {"enable": false, "horizontal_pos_layout": 0, "size_layout": 0, "target_follow": "", "vertical_pos_layout": 0}, "id": "E32C6AEB-8C5C-BE69-0619-C5644F049AB9", "material_id": "4D290C36-C4CE-70B8-164A-3BF1A39A4589", "source_timerange": {"duration": 2352000, "start": 0}, "target_timerange": {"duration": 2352000, "start": 142497000}, "volume": 1.0}, {"cartoon": false, "clip": "null", "common_keyframes": [], "enable_adjust": false, "enable_color_curves": true, "enable_color_match_adjust": false, "enable_color_wheels": true, "enable_lut": false, "enable_smart_color_adjust": false, "group_id": "", "hdr_settings": "null", "intensifies_audio": false, "is_placeholder": false, "is_tone_modify": false, "keyframe_refs": [], "last_nonzero_volume": 1.0, "render_index": 0, "reverse": false, "speed": 1.0, "template_id": "", "template_scene": "default", "track_attribute": 0, "track_render_index": 0, "uniform_scale": "null", "visible": true, "responsive_layout": {"enable": false, "horizontal_pos_layout": 0, "size_layout": 0, "target_follow": "", "vertical_pos_layout": 0}, "id": "E596C9CF-3417-E3FB-CC7F-6D4377282F00", "material_id": "57F51063-9FF6-CB7C-6A73-83B3DD99C803", "source_timerange": {"duration": 1392000, "start": 0}, "target_timerange": {"duration": 1392000, "start": 166645000}, "volume": 1.0}, {"cartoon": false, "clip": "null", "common_keyframes": [], "enable_adjust": false, "enable_color_curves": true, "enable_color_match_adjust": false, "enable_color_wheels": true, "enable_lut": false, "enable_smart_color_adjust": false, "group_id": "", "hdr_settings": "null", "intensifies_audio": false, "is_placeholder": false, "is_tone_modify": false, "keyframe_refs": [], "last_nonzero_volume": 1.0, "render_index": 0, "reverse": false, "speed": 1.0, "template_id": "", "template_scene": "default", "track_attribute": 0, "track_render_index": 0, "uniform_scale": "null", "visible": true, "responsive_layout": {"enable": false, "horizontal_pos_layout": 0, "size_layout": 0, "target_follow": "", "vertical_pos_layout": 0}, "id": "B1774DB9-E86E-AE89-30F4-5DA021D6C8C8", "material_id": "3706EEA8-5CF4-FF98-6DD5-D7B1C7132511", "source_timerange": {"duration": 1296000, "start": 0}, "target_timerange": {"duration": 1296000, "start": 177198000}, "volume": 1.0}, {"cartoon": false, "clip": "null", "common_keyframes": [], "enable_adjust": false, "enable_color_curves": true, "enable_color_match_adjust": false, "enable_color_wheels": true, "enable_lut": false, "enable_smart_color_adjust": false, "group_id": "", "hdr_settings": "null", "intensifies_audio": false, "is_placeholder": false, "is_tone_modify": false, "keyframe_refs": [], "last_nonzero_volume": 1.0, "render_index": 0, "reverse": false, "speed": 1.0, "template_id": "", "template_scene": "default", "track_attribute": 0, "track_render_index": 0, "uniform_scale": "null", "visible": true, "responsive_layout": {"enable": false, "horizontal_pos_layout": 0, "size_layout": 0, "target_follow": "", "vertical_pos_layout": 0}, "id": "C0FB6B6B-C930-BDBA-C883-2F491735C93F", "material_id": "E30CEA57-1DA7-3446-AED4-30606F4CED81", "source_timerange": {"duration": 1632000, "start": 0}, "target_timerange": {"duration": 1632000, "start": 183454000}, "volume": 1.0}, {"cartoon": false, "clip": "null", "common_keyframes": [], "enable_adjust": false, "enable_color_curves": true, "enable_color_match_adjust": false, "enable_color_wheels": true, "enable_lut": false, "enable_smart_color_adjust": false, "group_id": "", "hdr_settings": "null", "intensifies_audio": false, "is_placeholder": false, "is_tone_modify": false, "keyframe_refs": [], "last_nonzero_volume": 1.0, "render_index": 0, "reverse": false, "speed": 1.0, "template_id": "", "template_scene": "default", "track_attribute": 0, "track_render_index": 0, "uniform_scale": "null", "visible": true, "responsive_layout": {"enable": false, "horizontal_pos_layout": 0, "size_layout": 0, "target_follow": "", "vertical_pos_layout": 0}, "id": "81441B94-E19F-7069-1092-FFBC477B14A9", "material_id": "73DDC8F2-3BC8-5A1D-1D30-3DD908177BC7", "source_timerange": {"duration": 2664000, "start": 0}, "target_timerange": {"duration": 2664000, "start": 204766000}, "volume": 1.0}, {"cartoon": false, "clip": "null", "common_keyframes": [], "enable_adjust": false, "enable_color_curves": true, "enable_color_match_adjust": false, "enable_color_wheels": true, "enable_lut": false, "enable_smart_color_adjust": false, "group_id": "", "hdr_settings": "null", "intensifies_audio": false, "is_placeholder": false, "is_tone_modify": false, "keyframe_refs": [], "last_nonzero_volume": 1.0, "render_index": 0, "reverse": false, "speed": 1.0, "template_id": "", "template_scene": "default", "track_attribute": 0, "track_render_index": 0, "uniform_scale": "null", "visible": true, "responsive_layout": {"enable": false, "horizontal_pos_layout": 0, "size_layout": 0, "target_follow": "", "vertical_pos_layout": 0}, "id": "C2F6AB22-FC83-BC50-DC30-988423D3E88A", "material_id": "63DDE9AA-200B-4DBD-1C7D-51AFE2996DCF", "source_timerange": {"duration": 1152000, "start": 0}, "target_timerange": {"duration": 1152000, "start": 210355000}, "volume": 1.0}, {"cartoon": false, "clip": "null", "common_keyframes": [], "enable_adjust": false, "enable_color_curves": true, "enable_color_match_adjust": false, "enable_color_wheels": true, "enable_lut": false, "enable_smart_color_adjust": false, "group_id": "", "hdr_settings": "null", "intensifies_audio": false, "is_placeholder": false, "is_tone_modify": false, "keyframe_refs": [], "last_nonzero_volume": 1.0, "render_index": 0, "reverse": false, "speed": 1.0, "template_id": "", "template_scene": "default", "track_attribute": 0, "track_render_index": 0, "uniform_scale": "null", "visible": true, "responsive_layout": {"enable": false, "horizontal_pos_layout": 0, "size_layout": 0, "target_follow": "", "vertical_pos_layout": 0}, "id": "4D798B61-FA80-B43B-3CB9-7B820503106D", "material_id": "5FC3A378-5CA9-3B62-7295-39BBCC4B7522", "source_timerange": {"duration": 2472000, "start": 0}, "target_timerange": {"duration": 2472000, "start": 232794000}, "volume": 1.0}, {"cartoon": false, "clip": "null", "common_keyframes": [], "enable_adjust": false, "enable_color_curves": true, "enable_color_match_adjust": false, "enable_color_wheels": true, "enable_lut": false, "enable_smart_color_adjust": false, "group_id": "", "hdr_settings": "null", "intensifies_audio": false, "is_placeholder": false, "is_tone_modify": false, "keyframe_refs": [], "last_nonzero_volume": 1.0, "render_index": 0, "reverse": false, "speed": 1.0, "template_id": "", "template_scene": "default", "track_attribute": 0, "track_render_index": 0, "uniform_scale": "null", "visible": true, "responsive_layout": {"enable": false, "horizontal_pos_layout": 0, "size_layout": 0, "target_follow": "", "vertical_pos_layout": 0}, "id": "9F185970-7E77-7A61-0C91-9D00B4E53F67", "material_id": "936D52A3-19D0-D444-D941-13B64B135CCD", "source_timerange": {"duration": 3960000, "start": 0}, "target_timerange": {"duration": 3960000, "start": 237341000}, "volume": 1.0}, {"cartoon": false, "clip": "null", "common_keyframes": [], "enable_adjust": false, "enable_color_curves": true, "enable_color_match_adjust": false, "enable_color_wheels": true, "enable_lut": false, "enable_smart_color_adjust": false, "group_id": "", "hdr_settings": "null", "intensifies_audio": false, "is_placeholder": false, "is_tone_modify": false, "keyframe_refs": [], "last_nonzero_volume": 1.0, "render_index": 0, "reverse": false, "speed": 1.0, "template_id": "", "template_scene": "default", "track_attribute": 0, "track_render_index": 0, "uniform_scale": "null", "visible": true, "responsive_layout": {"enable": false, "horizontal_pos_layout": 0, "size_layout": 0, "target_follow": "", "vertical_pos_layout": 0}, "id": "5A4C3849-B090-E658-A17D-43DBF198E24A", "material_id": "29CBFB9F-68C0-909A-9271-8D17158982A9", "source_timerange": {"duration": 2808000, "start": 0}, "target_timerange": {"duration": 2808000, "start": 246183000}, "volume": 1.0}, {"cartoon": false, "clip": "null", "common_keyframes": [], "enable_adjust": false, "enable_color_curves": true, "enable_color_match_adjust": false, "enable_color_wheels": true, "enable_lut": false, "enable_smart_color_adjust": false, "group_id": "", "hdr_settings": "null", "intensifies_audio": false, "is_placeholder": false, "is_tone_modify": false, "keyframe_refs": [], "last_nonzero_volume": 1.0, "render_index": 0, "reverse": false, "speed": 1.0, "template_id": "", "template_scene": "default", "track_attribute": 0, "track_render_index": 0, "uniform_scale": "null", "visible": true, "responsive_layout": {"enable": false, "horizontal_pos_layout": 0, "size_layout": 0, "target_follow": "", "vertical_pos_layout": 0}, "id": "7C130CCD-25D6-E6FB-F0F9-B41AF6AAC7DC", "material_id": "53C5E5C7-AC4C-A6E3-7F49-BBF3EB6F8F59", "source_timerange": {"duration": 2136000, "start": 0}, "target_timerange": {"duration": 2136000, "start": 252689000}, "volume": 1.0}, {"cartoon": false, "clip": "null", "common_keyframes": [], "enable_adjust": false, "enable_color_curves": true, "enable_color_match_adjust": false, "enable_color_wheels": true, "enable_lut": false, "enable_smart_color_adjust": false, "group_id": "", "hdr_settings": "null", "intensifies_audio": false, "is_placeholder": false, "is_tone_modify": false, "keyframe_refs": [], "last_nonzero_volume": 1.0, "render_index": 0, "reverse": false, "speed": 1.0, "template_id": "", "template_scene": "default", "track_attribute": 0, "track_render_index": 0, "uniform_scale": "null", "visible": true, "responsive_layout": {"enable": false, "horizontal_pos_layout": 0, "size_layout": 0, "target_follow": "", "vertical_pos_layout": 0}, "id": "773CA867-BFE4-EBDC-DC1F-749D1EB6F65B", "material_id": "6DF79DD4-0A30-7E1E-44EE-4FC1FC81ADC8", "source_timerange": {"duration": 4584000, "start": 0}, "target_timerange": {"duration": 4584000, "start": 266579000}, "volume": 1.0}, {"cartoon": false, "clip": "null", "common_keyframes": [], "enable_adjust": false, "enable_color_curves": true, "enable_color_match_adjust": false, "enable_color_wheels": true, "enable_lut": false, "enable_smart_color_adjust": false, "group_id": "", "hdr_settings": "null", "intensifies_audio": false, "is_placeholder": false, "is_tone_modify": false, "keyframe_refs": [], "last_nonzero_volume": 1.0, "render_index": 0, "reverse": false, "speed": 1.0, "template_id": "", "template_scene": "default", "track_attribute": 0, "track_render_index": 0, "uniform_scale": "null", "visible": true, "responsive_layout": {"enable": false, "horizontal_pos_layout": 0, "size_layout": 0, "target_follow": "", "vertical_pos_layout": 0}, "id": "49AB8F8E-66DA-C0F0-1268-2EB28619FD10", "material_id": "368CD51A-CCF3-B44D-8A59-FF25FAC0A70F", "source_timerange": {"duration": 3360000, "start": 0}, "target_timerange": {"duration": 3360000, "start": 298653000}, "volume": 1.0}, {"cartoon": false, "clip": "null", "common_keyframes": [], "enable_adjust": false, "enable_color_curves": true, "enable_color_match_adjust": false, "enable_color_wheels": true, "enable_lut": false, "enable_smart_color_adjust": false, "group_id": "", "hdr_settings": "null", "intensifies_audio": false, "is_placeholder": false, "is_tone_modify": false, "keyframe_refs": [], "last_nonzero_volume": 1.0, "render_index": 0, "reverse": false, "speed": 1.0, "template_id": "", "template_scene": "default", "track_attribute": 0, "track_render_index": 0, "uniform_scale": "null", "visible": true, "responsive_layout": {"enable": false, "horizontal_pos_layout": 0, "size_layout": 0, "target_follow": "", "vertical_pos_layout": 0}, "id": "FB29D991-3D73-5BB0-CFAB-DED35D88CE0B", "material_id": "49D3ED8F-28D5-7694-EA30-C55DA0ACF068", "source_timerange": {"duration": 1752000, "start": 0}, "target_timerange": {"duration": 1752000, "start": 302781000}, "volume": 1.0}, {"cartoon": false, "clip": "null", "common_keyframes": [], "enable_adjust": false, "enable_color_curves": true, "enable_color_match_adjust": false, "enable_color_wheels": true, "enable_lut": false, "enable_smart_color_adjust": false, "group_id": "", "hdr_settings": "null", "intensifies_audio": false, "is_placeholder": false, "is_tone_modify": false, "keyframe_refs": [], "last_nonzero_volume": 1.0, "render_index": 0, "reverse": false, "speed": 1.0, "template_id": "", "template_scene": "default", "track_attribute": 0, "track_render_index": 0, "uniform_scale": "null", "visible": true, "responsive_layout": {"enable": false, "horizontal_pos_layout": 0, "size_layout": 0, "target_follow": "", "vertical_pos_layout": 0}, "id": "9FA4C84B-87B4-32BF-216D-1297769C09F3", "material_id": "7ED164D5-D8EA-D820-DAB6-AC9E83D05EF6", "source_timerange": {"duration": 1248000, "start": 0}, "target_timerange": {"duration": 1248000, "start": 306494000}, "volume": 1.0}, {"cartoon": false, "clip": "null", "common_keyframes": [], "enable_adjust": false, "enable_color_curves": true, "enable_color_match_adjust": false, "enable_color_wheels": true, "enable_lut": false, "enable_smart_color_adjust": false, "group_id": "", "hdr_settings": "null", "intensifies_audio": false, "is_placeholder": false, "is_tone_modify": false, "keyframe_refs": [], "last_nonzero_volume": 1.0, "render_index": 0, "reverse": false, "speed": 1.0, "template_id": "", "template_scene": "default", "track_attribute": 0, "track_render_index": 0, "uniform_scale": "null", "visible": true, "responsive_layout": {"enable": false, "horizontal_pos_layout": 0, "size_layout": 0, "target_follow": "", "vertical_pos_layout": 0}, "id": "408D7108-529A-EB71-F92E-F8E150B1C45E", "material_id": "BF771B32-F8B3-2A16-E7CE-9F086B66C494", "source_timerange": {"duration": 1824000, "start": 0}, "target_timerange": {"duration": 1824000, "start": 308745000}, "volume": 1.0}, {"cartoon": false, "clip": "null", "common_keyframes": [], "enable_adjust": false, "enable_color_curves": true, "enable_color_match_adjust": false, "enable_color_wheels": true, "enable_lut": false, "enable_smart_color_adjust": false, "group_id": "", "hdr_settings": "null", "intensifies_audio": false, "is_placeholder": false, "is_tone_modify": false, "keyframe_refs": [], "last_nonzero_volume": 1.0, "render_index": 0, "reverse": false, "speed": 1.0, "template_id": "", "template_scene": "default", "track_attribute": 0, "track_render_index": 0, "uniform_scale": "null", "visible": true, "responsive_layout": {"enable": false, "horizontal_pos_layout": 0, "size_layout": 0, "target_follow": "", "vertical_pos_layout": 0}, "id": "D7BD425A-3BC5-21B2-0A6F-040181C2E9B0", "material_id": "C30F6968-0D89-0DFD-DC80-9646382D22ED", "source_timerange": {"duration": 2832000, "start": 0}, "target_timerange": {"duration": 2832000, "start": 313918000}, "volume": 1.0}, {"cartoon": false, "clip": "null", "common_keyframes": [], "enable_adjust": false, "enable_color_curves": true, "enable_color_match_adjust": false, "enable_color_wheels": true, "enable_lut": false, "enable_smart_color_adjust": false, "group_id": "", "hdr_settings": "null", "intensifies_audio": false, "is_placeholder": false, "is_tone_modify": false, "keyframe_refs": [], "last_nonzero_volume": 1.0, "render_index": 0, "reverse": false, "speed": 1.0, "template_id": "", "template_scene": "default", "track_attribute": 0, "track_render_index": 0, "uniform_scale": "null", "visible": true, "responsive_layout": {"enable": false, "horizontal_pos_layout": 0, "size_layout": 0, "target_follow": "", "vertical_pos_layout": 0}, "id": "ACDEED1E-8C47-3B48-5E74-C9414D12C48B", "material_id": "8078715A-1A0B-8846-6F7E-B4C2E9A0B8B4", "source_timerange": {"duration": 1920000, "start": 0}, "target_timerange": {"duration": 1920000, "start": 321175000}, "volume": 1.0}, {"cartoon": false, "clip": "null", "common_keyframes": [], "enable_adjust": false, "enable_color_curves": true, "enable_color_match_adjust": false, "enable_color_wheels": true, "enable_lut": false, "enable_smart_color_adjust": false, "group_id": "", "hdr_settings": "null", "intensifies_audio": false, "is_placeholder": false, "is_tone_modify": false, "keyframe_refs": [], "last_nonzero_volume": 1.0, "render_index": 0, "reverse": false, "speed": 1.0, "template_id": "", "template_scene": "default", "track_attribute": 0, "track_render_index": 0, "uniform_scale": "null", "visible": true, "responsive_layout": {"enable": false, "horizontal_pos_layout": 0, "size_layout": 0, "target_follow": "", "vertical_pos_layout": 0}, "id": "105E559E-36B1-1AC6-FABB-6E1698E29931", "material_id": "36BCCEA7-A0C1-CF96-213E-38F63BD824EE", "source_timerange": {"duration": 2376000, "start": 0}, "target_timerange": {"duration": 2376000, "start": 325555000}, "volume": 1.0}, {"cartoon": false, "clip": "null", "common_keyframes": [], "enable_adjust": false, "enable_color_curves": true, "enable_color_match_adjust": false, "enable_color_wheels": true, "enable_lut": false, "enable_smart_color_adjust": false, "group_id": "", "hdr_settings": "null", "intensifies_audio": false, "is_placeholder": false, "is_tone_modify": false, "keyframe_refs": [], "last_nonzero_volume": 1.0, "render_index": 0, "reverse": false, "speed": 1.0, "template_id": "", "template_scene": "default", "track_attribute": 0, "track_render_index": 0, "uniform_scale": "null", "visible": true, "responsive_layout": {"enable": false, "horizontal_pos_layout": 0, "size_layout": 0, "target_follow": "", "vertical_pos_layout": 0}, "id": "A7CE807D-357F-A967-1E91-171D95914488", "material_id": "E3D6E4F9-B3B7-2A7F-5A09-0F5E5B07F2B1", "source_timerange": {"duration": 2016000, "start": 0}, "target_timerange": {"duration": 2016000, "start": 329850000}, "volume": 1.0}, {"cartoon": false, "clip": "null", "common_keyframes": [], "enable_adjust": false, "enable_color_curves": true, "enable_color_match_adjust": false, "enable_color_wheels": true, "enable_lut": false, "enable_smart_color_adjust": false, "group_id": "", "hdr_settings": "null", "intensifies_audio": false, "is_placeholder": false, "is_tone_modify": false, "keyframe_refs": [], "last_nonzero_volume": 1.0, "render_index": 0, "reverse": false, "speed": 1.0, "template_id": "", "template_scene": "default", "track_attribute": 0, "track_render_index": 0, "uniform_scale": "null", "visible": true, "responsive_layout": {"enable": false, "horizontal_pos_layout": 0, "size_layout": 0, "target_follow": "", "vertical_pos_layout": 0}, "id": "591B94F7-23E2-E659-B818-EAA3D4400EB9", "material_id": "94BDB093-BE78-9B2D-3690-EFAACB6B1F1D", "source_timerange": {"duration": 2832000, "start": 0}, "target_timerange": {"duration": 2832000, "start": 335939000}, "volume": 1.0}, {"cartoon": false, "clip": "null", "common_keyframes": [], "enable_adjust": false, "enable_color_curves": true, "enable_color_match_adjust": false, "enable_color_wheels": true, "enable_lut": false, "enable_smart_color_adjust": false, "group_id": "", "hdr_settings": "null", "intensifies_audio": false, "is_placeholder": false, "is_tone_modify": false, "keyframe_refs": [], "last_nonzero_volume": 1.0, "render_index": 0, "reverse": false, "speed": 1.0, "template_id": "", "template_scene": "default", "track_attribute": 0, "track_render_index": 0, "uniform_scale": "null", "visible": true, "responsive_layout": {"enable": false, "horizontal_pos_layout": 0, "size_layout": 0, "target_follow": "", "vertical_pos_layout": 0}, "id": "8DAF3043-9439-0CE2-3AB7-8788AAE11FC2", "material_id": "AD6F4F4D-9DB5-266B-883B-FBDF90E8049D", "source_timerange": {"duration": 2424000, "start": 0}, "target_timerange": {"duration": 2424000, "start": 340026000}, "volume": 1.0}, {"cartoon": false, "clip": "null", "common_keyframes": [], "enable_adjust": false, "enable_color_curves": true, "enable_color_match_adjust": false, "enable_color_wheels": true, "enable_lut": false, "enable_smart_color_adjust": false, "group_id": "", "hdr_settings": "null", "intensifies_audio": false, "is_placeholder": false, "is_tone_modify": false, "keyframe_refs": [], "last_nonzero_volume": 1.0, "render_index": 0, "reverse": false, "speed": 1.0, "template_id": "", "template_scene": "default", "track_attribute": 0, "track_render_index": 0, "uniform_scale": "null", "visible": true, "responsive_layout": {"enable": false, "horizontal_pos_layout": 0, "size_layout": 0, "target_follow": "", "vertical_pos_layout": 0}, "id": "2989A756-0070-E670-DF4F-C5730CFFE674", "material_id": "8B200E4E-9DB5-3C74-7906-C79BDDD6CB5E", "source_timerange": {"duration": 3192000, "start": 0}, "target_timerange": {"duration": 3192000, "start": 345783000}, "volume": 1.0}, {"cartoon": false, "clip": "null", "common_keyframes": [], "enable_adjust": false, "enable_color_curves": true, "enable_color_match_adjust": false, "enable_color_wheels": true, "enable_lut": false, "enable_smart_color_adjust": false, "group_id": "", "hdr_settings": "null", "intensifies_audio": false, "is_placeholder": false, "is_tone_modify": false, "keyframe_refs": [], "last_nonzero_volume": 1.0, "render_index": 0, "reverse": false, "speed": 1.0, "template_id": "", "template_scene": "default", "track_attribute": 0, "track_render_index": 0, "uniform_scale": "null", "visible": true, "responsive_layout": {"enable": false, "horizontal_pos_layout": 0, "size_layout": 0, "target_follow": "", "vertical_pos_layout": 0}, "id": "4ED4602C-8BD7-360F-A864-796600420E2A", "material_id": "8EEF1A26-4128-7BCC-E6A8-7F48EC43E840", "source_timerange": {"duration": 1872000, "start": 0}, "target_timerange": {"duration": 1872000, "start": 350870000}, "volume": 1.0}, {"cartoon": false, "clip": "null", "common_keyframes": [], "enable_adjust": false, "enable_color_curves": true, "enable_color_match_adjust": false, "enable_color_wheels": true, "enable_lut": false, "enable_smart_color_adjust": false, "group_id": "", "hdr_settings": "null", "intensifies_audio": false, "is_placeholder": false, "is_tone_modify": false, "keyframe_refs": [], "last_nonzero_volume": 1.0, "render_index": 0, "reverse": false, "speed": 1.0, "template_id": "", "template_scene": "default", "track_attribute": 0, "track_render_index": 0, "uniform_scale": "null", "visible": true, "responsive_layout": {"enable": false, "horizontal_pos_layout": 0, "size_layout": 0, "target_follow": "", "vertical_pos_layout": 0}, "id": "20E617E7-9419-E157-5EAD-B5F5401050F7", "material_id": "2786DD63-D839-E07B-D426-E41DFCCE57C4", "source_timerange": {"duration": 3960000, "start": 0}, "target_timerange": {"duration": 3960000, "start": 354500000}, "volume": 1.0}, {"cartoon": false, "clip": "null", "common_keyframes": [], "enable_adjust": false, "enable_color_curves": true, "enable_color_match_adjust": false, "enable_color_wheels": true, "enable_lut": false, "enable_smart_color_adjust": false, "group_id": "", "hdr_settings": "null", "intensifies_audio": false, "is_placeholder": false, "is_tone_modify": false, "keyframe_refs": [], "last_nonzero_volume": 1.0, "render_index": 0, "reverse": false, "speed": 1.0, "template_id": "", "template_scene": "default", "track_attribute": 0, "track_render_index": 0, "uniform_scale": "null", "visible": true, "responsive_layout": {"enable": false, "horizontal_pos_layout": 0, "size_layout": 0, "target_follow": "", "vertical_pos_layout": 0}, "id": "8D076A06-69CA-ECCC-4DE0-FBD8AD5D6904", "material_id": "7A491836-EB37-3C5E-F2A2-BDCAC85CA1CA", "source_timerange": {"duration": 1248000, "start": 0}, "target_timerange": {"duration": 1248000, "start": 361507000}, "volume": 1.0}, {"cartoon": false, "clip": "null", "common_keyframes": [], "enable_adjust": false, "enable_color_curves": true, "enable_color_match_adjust": false, "enable_color_wheels": true, "enable_lut": false, "enable_smart_color_adjust": false, "group_id": "", "hdr_settings": "null", "intensifies_audio": false, "is_placeholder": false, "is_tone_modify": false, "keyframe_refs": [], "last_nonzero_volume": 1.0, "render_index": 0, "reverse": false, "speed": 1.0, "template_id": "", "template_scene": "default", "track_attribute": 0, "track_render_index": 0, "uniform_scale": "null", "visible": true, "responsive_layout": {"enable": false, "horizontal_pos_layout": 0, "size_layout": 0, "target_follow": "", "vertical_pos_layout": 0}, "id": "6E6D3972-26A1-E8AD-F742-0F5F00A24D9F", "material_id": "1D7B85AA-03F9-969B-9B81-9D0A47F2EC8C", "source_timerange": {"duration": 2952000, "start": 0}, "target_timerange": {"duration": 2952000, "start": 365845000}, "volume": 1.0}, {"cartoon": false, "clip": "null", "common_keyframes": [], "enable_adjust": false, "enable_color_curves": true, "enable_color_match_adjust": false, "enable_color_wheels": true, "enable_lut": false, "enable_smart_color_adjust": false, "group_id": "", "hdr_settings": "null", "intensifies_audio": false, "is_placeholder": false, "is_tone_modify": false, "keyframe_refs": [], "last_nonzero_volume": 1.0, "render_index": 0, "reverse": false, "speed": 1.0, "template_id": "", "template_scene": "default", "track_attribute": 0, "track_render_index": 0, "uniform_scale": "null", "visible": true, "responsive_layout": {"enable": false, "horizontal_pos_layout": 0, "size_layout": 0, "target_follow": "", "vertical_pos_layout": 0}, "id": "08796185-55D2-4AE2-4837-B85E8A745070", "material_id": "DD2F783F-89D9-A6D3-19CB-5E47517F0AC0", "source_timerange": {"duration": 1872000, "start": 0}, "target_timerange": {"duration": 1872000, "start": 369889000}, "volume": 1.0}, {"cartoon": false, "clip": "null", "common_keyframes": [], "enable_adjust": false, "enable_color_curves": true, "enable_color_match_adjust": false, "enable_color_wheels": true, "enable_lut": false, "enable_smart_color_adjust": false, "group_id": "", "hdr_settings": "null", "intensifies_audio": false, "is_placeholder": false, "is_tone_modify": false, "keyframe_refs": [], "last_nonzero_volume": 1.0, "render_index": 0, "reverse": false, "speed": 1.0, "template_id": "", "template_scene": "default", "track_attribute": 0, "track_render_index": 0, "uniform_scale": "null", "visible": true, "responsive_layout": {"enable": false, "horizontal_pos_layout": 0, "size_layout": 0, "target_follow": "", "vertical_pos_layout": 0}, "id": "6A734C40-BE54-B0FC-0FF4-90DEA72C0E36", "material_id": "F6F1D267-7E15-D988-0696-23D622F828E3", "source_timerange": {"duration": 1656000, "start": 0}, "target_timerange": {"duration": 1656000, "start": 375228000}, "volume": 1.0}, {"cartoon": false, "clip": "null", "common_keyframes": [], "enable_adjust": false, "enable_color_curves": true, "enable_color_match_adjust": false, "enable_color_wheels": true, "enable_lut": false, "enable_smart_color_adjust": false, "group_id": "", "hdr_settings": "null", "intensifies_audio": false, "is_placeholder": false, "is_tone_modify": false, "keyframe_refs": [], "last_nonzero_volume": 1.0, "render_index": 0, "reverse": false, "speed": 1.0, "template_id": "", "template_scene": "default", "track_attribute": 0, "track_render_index": 0, "uniform_scale": "null", "visible": true, "responsive_layout": {"enable": false, "horizontal_pos_layout": 0, "size_layout": 0, "target_follow": "", "vertical_pos_layout": 0}, "id": "81E1E24C-0987-297B-8BAD-63207C8F3CF0", "material_id": "64662B63-AB79-C670-D180-D3C5BB7F755C", "source_timerange": {"duration": 2040000, "start": 0}, "target_timerange": {"duration": 2040000, "start": 381151000}, "volume": 1.0}, {"cartoon": false, "clip": "null", "common_keyframes": [], "enable_adjust": false, "enable_color_curves": true, "enable_color_match_adjust": false, "enable_color_wheels": true, "enable_lut": false, "enable_smart_color_adjust": false, "group_id": "", "hdr_settings": "null", "intensifies_audio": false, "is_placeholder": false, "is_tone_modify": false, "keyframe_refs": [], "last_nonzero_volume": 1.0, "render_index": 0, "reverse": false, "speed": 1.0, "template_id": "", "template_scene": "default", "track_attribute": 0, "track_render_index": 0, "uniform_scale": "null", "visible": true, "responsive_layout": {"enable": false, "horizontal_pos_layout": 0, "size_layout": 0, "target_follow": "", "vertical_pos_layout": 0}, "id": "0594B2A9-30E5-11D8-7A41-B9C8B5487687", "material_id": "EF5C38AE-B4F2-A225-9BB0-39A315508F97", "source_timerange": {"duration": 2208000, "start": 0}, "target_timerange": {"duration": 2208000, "start": 388033000}, "volume": 1.0}, {"cartoon": false, "clip": "null", "common_keyframes": [], "enable_adjust": false, "enable_color_curves": true, "enable_color_match_adjust": false, "enable_color_wheels": true, "enable_lut": false, "enable_smart_color_adjust": false, "group_id": "", "hdr_settings": "null", "intensifies_audio": false, "is_placeholder": false, "is_tone_modify": false, "keyframe_refs": [], "last_nonzero_volume": 1.0, "render_index": 0, "reverse": false, "speed": 1.0, "template_id": "", "template_scene": "default", "track_attribute": 0, "track_render_index": 0, "uniform_scale": "null", "visible": true, "responsive_layout": {"enable": false, "horizontal_pos_layout": 0, "size_layout": 0, "target_follow": "", "vertical_pos_layout": 0}, "id": "F06D0D3D-512D-40B2-ECAD-8175445BB1D6", "material_id": "B6860F58-D63B-8ADB-399A-9E66E1F3C005", "source_timerange": {"duration": 1992000, "start": 0}, "target_timerange": {"duration": 1992000, "start": 390661000}, "volume": 1.0}, {"cartoon": false, "clip": "null", "common_keyframes": [], "enable_adjust": false, "enable_color_curves": true, "enable_color_match_adjust": false, "enable_color_wheels": true, "enable_lut": false, "enable_smart_color_adjust": false, "group_id": "", "hdr_settings": "null", "intensifies_audio": false, "is_placeholder": false, "is_tone_modify": false, "keyframe_refs": [], "last_nonzero_volume": 1.0, "render_index": 0, "reverse": false, "speed": 1.0, "template_id": "", "template_scene": "default", "track_attribute": 0, "track_render_index": 0, "uniform_scale": "null", "visible": true, "responsive_layout": {"enable": false, "horizontal_pos_layout": 0, "size_layout": 0, "target_follow": "", "vertical_pos_layout": 0}, "id": "803D06D0-7743-E269-A067-D0DD507E2AA9", "material_id": "18B1C98D-E44F-BEBB-DCB9-23D2162507A6", "source_timerange": {"duration": 3456000, "start": 0}, "target_timerange": {"duration": 3456000, "start": 394956000}, "volume": 1.0}, {"cartoon": false, "clip": "null", "common_keyframes": [], "enable_adjust": false, "enable_color_curves": true, "enable_color_match_adjust": false, "enable_color_wheels": true, "enable_lut": false, "enable_smart_color_adjust": false, "group_id": "", "hdr_settings": "null", "intensifies_audio": false, "is_placeholder": false, "is_tone_modify": false, "keyframe_refs": [], "last_nonzero_volume": 1.0, "render_index": 0, "reverse": false, "speed": 1.0, "template_id": "", "template_scene": "default", "track_attribute": 0, "track_render_index": 0, "uniform_scale": "null", "visible": true, "responsive_layout": {"enable": false, "horizontal_pos_layout": 0, "size_layout": 0, "target_follow": "", "vertical_pos_layout": 0}, "id": "0F92D593-A8BD-8DF6-86BF-EC73443FB588", "material_id": "C3A552CC-66AE-962F-0815-D449F6F08ADB", "source_timerange": {"duration": 2760000, "start": 0}, "target_timerange": {"duration": 2760000, "start": 402048000}, "volume": 1.0}, {"cartoon": false, "clip": "null", "common_keyframes": [], "enable_adjust": false, "enable_color_curves": true, "enable_color_match_adjust": false, "enable_color_wheels": true, "enable_lut": false, "enable_smart_color_adjust": false, "group_id": "", "hdr_settings": "null", "intensifies_audio": false, "is_placeholder": false, "is_tone_modify": false, "keyframe_refs": [], "last_nonzero_volume": 1.0, "render_index": 0, "reverse": false, "speed": 1.0, "template_id": "", "template_scene": "default", "track_attribute": 0, "track_render_index": 0, "uniform_scale": "null", "visible": true, "responsive_layout": {"enable": false, "horizontal_pos_layout": 0, "size_layout": 0, "target_follow": "", "vertical_pos_layout": 0}, "id": "829E13A6-2E6C-54EC-0517-177478FA6D14", "material_id": "CAB0DF68-C636-5CA3-85D0-E78DB897D62B", "source_timerange": {"duration": 3240000, "start": 0}, "target_timerange": {"duration": 3240000, "start": 407762000}, "volume": 1.0}, {"cartoon": false, "clip": "null", "common_keyframes": [], "enable_adjust": false, "enable_color_curves": true, "enable_color_match_adjust": false, "enable_color_wheels": true, "enable_lut": false, "enable_smart_color_adjust": false, "group_id": "", "hdr_settings": "null", "intensifies_audio": false, "is_placeholder": false, "is_tone_modify": false, "keyframe_refs": [], "last_nonzero_volume": 1.0, "render_index": 0, "reverse": false, "speed": 1.0, "template_id": "", "template_scene": "default", "track_attribute": 0, "track_render_index": 0, "uniform_scale": "null", "visible": true, "responsive_layout": {"enable": false, "horizontal_pos_layout": 0, "size_layout": 0, "target_follow": "", "vertical_pos_layout": 0}, "id": "31CEA548-3333-1DC6-382D-8F4E7BDE6428", "material_id": "64C822BA-66AA-83CC-4F54-F184E6F78835", "source_timerange": {"duration": 5232000, "start": 0}, "target_timerange": {"duration": 5232000, "start": 413184000}, "volume": 1.0}, {"cartoon": false, "clip": "null", "common_keyframes": [], "enable_adjust": false, "enable_color_curves": true, "enable_color_match_adjust": false, "enable_color_wheels": true, "enable_lut": false, "enable_smart_color_adjust": false, "group_id": "", "hdr_settings": "null", "intensifies_audio": false, "is_placeholder": false, "is_tone_modify": false, "keyframe_refs": [], "last_nonzero_volume": 1.0, "render_index": 0, "reverse": false, "speed": 1.0, "template_id": "", "template_scene": "default", "track_attribute": 0, "track_render_index": 0, "uniform_scale": "null", "visible": true, "responsive_layout": {"enable": false, "horizontal_pos_layout": 0, "size_layout": 0, "target_follow": "", "vertical_pos_layout": 0}, "id": "67F42A2B-2208-246A-DCA3-6776FD40487E", "material_id": "8F97C1E2-1DEE-45EA-C696-7278C1426FCF", "source_timerange": {"duration": 3792000, "start": 0}, "target_timerange": {"duration": 3792000, "start": 419564000}, "volume": 1.0}, {"cartoon": false, "clip": "null", "common_keyframes": [], "enable_adjust": false, "enable_color_curves": true, "enable_color_match_adjust": false, "enable_color_wheels": true, "enable_lut": false, "enable_smart_color_adjust": false, "group_id": "", "hdr_settings": "null", "intensifies_audio": false, "is_placeholder": false, "is_tone_modify": false, "keyframe_refs": [], "last_nonzero_volume": 1.0, "render_index": 0, "reverse": false, "speed": 1.0, "template_id": "", "template_scene": "default", "track_attribute": 0, "track_render_index": 0, "uniform_scale": "null", "visible": true, "responsive_layout": {"enable": false, "horizontal_pos_layout": 0, "size_layout": 0, "target_follow": "", "vertical_pos_layout": 0}, "id": "13D0CA9E-FA11-F36C-7AC2-8888CE5D72EF", "material_id": "4F17BE42-C66A-FAEB-E6EA-B11F9B70975F", "source_timerange": {"duration": 3096000, "start": 0}, "target_timerange": {"duration": 3096000, "start": 424778000}, "volume": 1.0}, {"cartoon": false, "clip": "null", "common_keyframes": [], "enable_adjust": false, "enable_color_curves": true, "enable_color_match_adjust": false, "enable_color_wheels": true, "enable_lut": false, "enable_smart_color_adjust": false, "group_id": "", "hdr_settings": "null", "intensifies_audio": false, "is_placeholder": false, "is_tone_modify": false, "keyframe_refs": [], "last_nonzero_volume": 1.0, "render_index": 0, "reverse": false, "speed": 1.0, "template_id": "", "template_scene": "default", "track_attribute": 0, "track_render_index": 0, "uniform_scale": "null", "visible": true, "responsive_layout": {"enable": false, "horizontal_pos_layout": 0, "size_layout": 0, "target_follow": "", "vertical_pos_layout": 0}, "id": "82B898F2-E7E6-2721-91D8-65FF4314BB49", "material_id": "E5DD103F-F089-103B-9664-DAA56F3F2DC9", "source_timerange": {"duration": 2832000, "start": 0}, "target_timerange": {"duration": 2832000, "start": 430617000}, "volume": 1.0}, {"cartoon": false, "clip": "null", "common_keyframes": [], "enable_adjust": false, "enable_color_curves": true, "enable_color_match_adjust": false, "enable_color_wheels": true, "enable_lut": false, "enable_smart_color_adjust": false, "group_id": "", "hdr_settings": "null", "intensifies_audio": false, "is_placeholder": false, "is_tone_modify": false, "keyframe_refs": [], "last_nonzero_volume": 1.0, "render_index": 0, "reverse": false, "speed": 1.0, "template_id": "", "template_scene": "default", "track_attribute": 0, "track_render_index": 0, "uniform_scale": "null", "visible": true, "responsive_layout": {"enable": false, "horizontal_pos_layout": 0, "size_layout": 0, "target_follow": "", "vertical_pos_layout": 0}, "id": "8CC0B221-C1DA-6BAE-608D-FFC4012A3B67", "material_id": "274CBCA6-CFF7-250A-0845-CFBE0DA4BEF1", "source_timerange": {"duration": 5376000, "start": 0}, "target_timerange": {"duration": 5376000, "start": 435247000}, "volume": 1.0}, {"cartoon": false, "clip": "null", "common_keyframes": [], "enable_adjust": false, "enable_color_curves": true, "enable_color_match_adjust": false, "enable_color_wheels": true, "enable_lut": false, "enable_smart_color_adjust": false, "group_id": "", "hdr_settings": "null", "intensifies_audio": false, "is_placeholder": false, "is_tone_modify": false, "keyframe_refs": [], "last_nonzero_volume": 1.0, "render_index": 0, "reverse": false, "speed": 1.0, "template_id": "", "template_scene": "default", "track_attribute": 0, "track_render_index": 0, "uniform_scale": "null", "visible": true, "responsive_layout": {"enable": false, "horizontal_pos_layout": 0, "size_layout": 0, "target_follow": "", "vertical_pos_layout": 0}, "id": "4FE06794-8D97-7385-B9F2-F8E75B19A9C8", "material_id": "A15B864D-6DFC-2489-B3BD-AD9BB7F6C707", "source_timerange": {"duration": 2448000, "start": 0}, "target_timerange": {"duration": 2448000, "start": 443213000}, "volume": 1.0}, {"cartoon": false, "clip": "null", "common_keyframes": [], "enable_adjust": false, "enable_color_curves": true, "enable_color_match_adjust": false, "enable_color_wheels": true, "enable_lut": false, "enable_smart_color_adjust": false, "group_id": "", "hdr_settings": "null", "intensifies_audio": false, "is_placeholder": false, "is_tone_modify": false, "keyframe_refs": [], "last_nonzero_volume": 1.0, "render_index": 0, "reverse": false, "speed": 1.0, "template_id": "", "template_scene": "default", "track_attribute": 0, "track_render_index": 0, "uniform_scale": "null", "visible": true, "responsive_layout": {"enable": false, "horizontal_pos_layout": 0, "size_layout": 0, "target_follow": "", "vertical_pos_layout": 0}, "id": "BDF9ECF0-899D-1C1C-2D86-B343D3A7AF43", "material_id": "E536EB38-1CC6-0EBC-FA5B-FC2B5F90A1E9", "source_timerange": {"duration": 2928000, "start": 0}, "target_timerange": {"duration": 2928000, "start": 448052000}, "volume": 1.0}, {"cartoon": false, "clip": "null", "common_keyframes": [], "enable_adjust": false, "enable_color_curves": true, "enable_color_match_adjust": false, "enable_color_wheels": true, "enable_lut": false, "enable_smart_color_adjust": false, "group_id": "", "hdr_settings": "null", "intensifies_audio": false, "is_placeholder": false, "is_tone_modify": false, "keyframe_refs": [], "last_nonzero_volume": 1.0, "render_index": 0, "reverse": false, "speed": 1.0, "template_id": "", "template_scene": "default", "track_attribute": 0, "track_render_index": 0, "uniform_scale": "null", "visible": true, "responsive_layout": {"enable": false, "horizontal_pos_layout": 0, "size_layout": 0, "target_follow": "", "vertical_pos_layout": 0}, "id": "E7F3D6CB-4F04-6212-B411-9A80FFB20449", "material_id": "D24FF132-9BD0-0078-C885-48ED2B0BE844", "source_timerange": {"duration": 1224000, "start": 0}, "target_timerange": {"duration": 1224000, "start": 452682000}, "volume": 1.0}, {"cartoon": false, "clip": "null", "common_keyframes": [], "enable_adjust": false, "enable_color_curves": true, "enable_color_match_adjust": false, "enable_color_wheels": true, "enable_lut": false, "enable_smart_color_adjust": false, "group_id": "", "hdr_settings": "null", "intensifies_audio": false, "is_placeholder": false, "is_tone_modify": false, "keyframe_refs": [], "last_nonzero_volume": 1.0, "render_index": 0, "reverse": false, "speed": 1.0, "template_id": "", "template_scene": "default", "track_attribute": 0, "track_render_index": 0, "uniform_scale": "null", "visible": true, "responsive_layout": {"enable": false, "horizontal_pos_layout": 0, "size_layout": 0, "target_follow": "", "vertical_pos_layout": 0}, "id": "E744160D-35ED-FB1E-69DC-0892D6E3CA6E", "material_id": "248B0AD4-C631-79E7-2162-5C7576D95989", "source_timerange": {"duration": 1656000, "start": 0}, "target_timerange": {"duration": 1656000, "start": 456060000}, "volume": 1.0}, {"cartoon": false, "clip": "null", "common_keyframes": [], "enable_adjust": false, "enable_color_curves": true, "enable_color_match_adjust": false, "enable_color_wheels": true, "enable_lut": false, "enable_smart_color_adjust": false, "group_id": "", "hdr_settings": "null", "intensifies_audio": false, "is_placeholder": false, "is_tone_modify": false, "keyframe_refs": [], "last_nonzero_volume": 1.0, "render_index": 0, "reverse": false, "speed": 1.0, "template_id": "", "template_scene": "default", "track_attribute": 0, "track_render_index": 0, "uniform_scale": "null", "visible": true, "responsive_layout": {"enable": false, "horizontal_pos_layout": 0, "size_layout": 0, "target_follow": "", "vertical_pos_layout": 0}, "id": "5F518FA3-489E-9C27-57C7-FA9C2F585DB5", "material_id": "756EC982-223F-E7EE-21E8-FA9E71805927", "source_timerange": {"duration": 3264000, "start": 0}, "target_timerange": {"duration": 3264000, "start": 464985000}, "volume": 1.0}, {"cartoon": false, "clip": "null", "common_keyframes": [], "enable_adjust": false, "enable_color_curves": true, "enable_color_match_adjust": false, "enable_color_wheels": true, "enable_lut": false, "enable_smart_color_adjust": false, "group_id": "", "hdr_settings": "null", "intensifies_audio": false, "is_placeholder": false, "is_tone_modify": false, "keyframe_refs": [], "last_nonzero_volume": 1.0, "render_index": 0, "reverse": false, "speed": 1.0, "template_id": "", "template_scene": "default", "track_attribute": 0, "track_render_index": 0, "uniform_scale": "null", "visible": true, "responsive_layout": {"enable": false, "horizontal_pos_layout": 0, "size_layout": 0, "target_follow": "", "vertical_pos_layout": 0}, "id": "A7EE3499-0B4C-CED0-0EAE-82FCD91B5279", "material_id": "B5534D25-1AD1-694D-4307-925D32BE7392", "source_timerange": {"duration": 2544000, "start": 0}, "target_timerange": {"duration": 2544000, "start": 470199000}, "volume": 1.0}, {"cartoon": false, "clip": "null", "common_keyframes": [], "enable_adjust": false, "enable_color_curves": true, "enable_color_match_adjust": false, "enable_color_wheels": true, "enable_lut": false, "enable_smart_color_adjust": false, "group_id": "", "hdr_settings": "null", "intensifies_audio": false, "is_placeholder": false, "is_tone_modify": false, "keyframe_refs": [], "last_nonzero_volume": 1.0, "render_index": 0, "reverse": false, "speed": 1.0, "template_id": "", "template_scene": "default", "track_attribute": 0, "track_render_index": 0, "uniform_scale": "null", "visible": true, "responsive_layout": {"enable": false, "horizontal_pos_layout": 0, "size_layout": 0, "target_follow": "", "vertical_pos_layout": 0}, "id": "605C148F-323F-0BD8-B45A-30FD0F0919D4", "material_id": "9C09B467-2E36-752F-1E1A-8203F6B5CA42", "source_timerange": {"duration": 4176000, "start": 0}, "target_timerange": {"duration": 4176000, "start": 478833000}, "volume": 1.0}, {"cartoon": false, "clip": "null", "common_keyframes": [], "enable_adjust": false, "enable_color_curves": true, "enable_color_match_adjust": false, "enable_color_wheels": true, "enable_lut": false, "enable_smart_color_adjust": false, "group_id": "", "hdr_settings": "null", "intensifies_audio": false, "is_placeholder": false, "is_tone_modify": false, "keyframe_refs": [], "last_nonzero_volume": 1.0, "render_index": 0, "reverse": false, "speed": 1.0, "template_id": "", "template_scene": "default", "track_attribute": 0, "track_render_index": 0, "uniform_scale": "null", "visible": true, "responsive_layout": {"enable": false, "horizontal_pos_layout": 0, "size_layout": 0, "target_follow": "", "vertical_pos_layout": 0}, "id": "A751798A-40BB-09B2-69FF-6DC43D121656", "material_id": "0DDEEE0E-33A4-9B08-141F-42FB8CAFD48A", "source_timerange": {"duration": 2472000, "start": 0}, "target_timerange": {"duration": 2472000, "start": 487341000}, "volume": 1.0}, {"cartoon": false, "clip": "null", "common_keyframes": [], "enable_adjust": false, "enable_color_curves": true, "enable_color_match_adjust": false, "enable_color_wheels": true, "enable_lut": false, "enable_smart_color_adjust": false, "group_id": "", "hdr_settings": "null", "intensifies_audio": false, "is_placeholder": false, "is_tone_modify": false, "keyframe_refs": [], "last_nonzero_volume": 1.0, "render_index": 0, "reverse": false, "speed": 1.0, "template_id": "", "template_scene": "default", "track_attribute": 0, "track_render_index": 0, "uniform_scale": "null", "visible": true, "responsive_layout": {"enable": false, "horizontal_pos_layout": 0, "size_layout": 0, "target_follow": "", "vertical_pos_layout": 0}, "id": "B6A67B26-78DB-7E86-D946-39F0F9B5F999", "material_id": "70248276-C485-7FE7-E846-CC4B19B4E806", "source_timerange": {"duration": 3072000, "start": 0}, "target_timerange": {"duration": 3072000, "start": 501105000}, "volume": 1.0}, {"cartoon": false, "clip": "null", "common_keyframes": [], "enable_adjust": false, "enable_color_curves": true, "enable_color_match_adjust": false, "enable_color_wheels": true, "enable_lut": false, "enable_smart_color_adjust": false, "group_id": "", "hdr_settings": "null", "intensifies_audio": false, "is_placeholder": false, "is_tone_modify": false, "keyframe_refs": [], "last_nonzero_volume": 1.0, "render_index": 0, "reverse": false, "speed": 1.0, "template_id": "", "template_scene": "default", "track_attribute": 0, "track_render_index": 0, "uniform_scale": "null", "visible": true, "responsive_layout": {"enable": false, "horizontal_pos_layout": 0, "size_layout": 0, "target_follow": "", "vertical_pos_layout": 0}, "id": "185C83EC-1E10-E6DA-558D-C4EFC60C0C15", "material_id": "22D71124-D209-7E0F-F8F3-B3B2598FEDC9", "source_timerange": {"duration": 2712000, "start": 0}, "target_timerange": {"duration": 2712000, "start": 506985000}, "volume": 1.0}, {"cartoon": false, "clip": "null", "common_keyframes": [], "enable_adjust": false, "enable_color_curves": true, "enable_color_match_adjust": false, "enable_color_wheels": true, "enable_lut": false, "enable_smart_color_adjust": false, "group_id": "", "hdr_settings": "null", "intensifies_audio": false, "is_placeholder": false, "is_tone_modify": false, "keyframe_refs": [], "last_nonzero_volume": 1.0, "render_index": 0, "reverse": false, "speed": 1.0, "template_id": "", "template_scene": "default", "track_attribute": 0, "track_render_index": 0, "uniform_scale": "null", "visible": true, "responsive_layout": {"enable": false, "horizontal_pos_layout": 0, "size_layout": 0, "target_follow": "", "vertical_pos_layout": 0}, "id": "31164B5F-D3F6-3531-13D0-DF8488EB7870", "material_id": "C2F80BBB-C38B-6DC2-EBC2-34453B6D6003", "source_timerange": {"duration": 3144000, "start": 0}, "target_timerange": {"duration": 3144000, "start": 514701000}, "volume": 1.0}, {"cartoon": false, "clip": "null", "common_keyframes": [], "enable_adjust": false, "enable_color_curves": true, "enable_color_match_adjust": false, "enable_color_wheels": true, "enable_lut": false, "enable_smart_color_adjust": false, "group_id": "", "hdr_settings": "null", "intensifies_audio": false, "is_placeholder": false, "is_tone_modify": false, "keyframe_refs": [], "last_nonzero_volume": 1.0, "render_index": 0, "reverse": false, "speed": 1.0, "template_id": "", "template_scene": "default", "track_attribute": 0, "track_render_index": 0, "uniform_scale": "null", "visible": true, "responsive_layout": {"enable": false, "horizontal_pos_layout": 0, "size_layout": 0, "target_follow": "", "vertical_pos_layout": 0}, "id": "30CCF35F-2E4C-1130-E926-2482FF5B5DDB", "material_id": "C174388A-9C04-2DAE-50DB-C8E25CC4C90D", "source_timerange": {"duration": 4200000, "start": 0}, "target_timerange": {"duration": 4200000, "start": 519373000}, "volume": 1.0}, {"cartoon": false, "clip": "null", "common_keyframes": [], "enable_adjust": false, "enable_color_curves": true, "enable_color_match_adjust": false, "enable_color_wheels": true, "enable_lut": false, "enable_smart_color_adjust": false, "group_id": "", "hdr_settings": "null", "intensifies_audio": false, "is_placeholder": false, "is_tone_modify": false, "keyframe_refs": [], "last_nonzero_volume": 1.0, "render_index": 0, "reverse": false, "speed": 1.0, "template_id": "", "template_scene": "default", "track_attribute": 0, "track_render_index": 0, "uniform_scale": "null", "visible": true, "responsive_layout": {"enable": false, "horizontal_pos_layout": 0, "size_layout": 0, "target_follow": "", "vertical_pos_layout": 0}, "id": "CFEEE3B2-EC2E-358E-1742-437D982F5687", "material_id": "C79E937C-C4D7-9B6E-4B82-3B241079F2A1", "source_timerange": {"duration": 2928000, "start": 0}, "target_timerange": {"duration": 2928000, "start": 531760000}, "volume": 1.0}, {"cartoon": false, "clip": "null", "common_keyframes": [], "enable_adjust": false, "enable_color_curves": true, "enable_color_match_adjust": false, "enable_color_wheels": true, "enable_lut": false, "enable_smart_color_adjust": false, "group_id": "", "hdr_settings": "null", "intensifies_audio": false, "is_placeholder": false, "is_tone_modify": false, "keyframe_refs": [], "last_nonzero_volume": 1.0, "render_index": 0, "reverse": false, "speed": 1.0, "template_id": "", "template_scene": "default", "track_attribute": 0, "track_render_index": 0, "uniform_scale": "null", "visible": true, "responsive_layout": {"enable": false, "horizontal_pos_layout": 0, "size_layout": 0, "target_follow": "", "vertical_pos_layout": 0}, "id": "C1D62C69-42F2-CCE7-87E0-8B1C3F21ABD3", "material_id": "C7CF13A9-9432-3605-F6A3-184A43B27BA0", "source_timerange": {"duration": 2280000, "start": 0}, "target_timerange": {"duration": 2280000, "start": 542772000}, "volume": 1.0}, {"cartoon": false, "clip": "null", "common_keyframes": [], "enable_adjust": false, "enable_color_curves": true, "enable_color_match_adjust": false, "enable_color_wheels": true, "enable_lut": false, "enable_smart_color_adjust": false, "group_id": "", "hdr_settings": "null", "intensifies_audio": false, "is_placeholder": false, "is_tone_modify": false, "keyframe_refs": [], "last_nonzero_volume": 1.0, "render_index": 0, "reverse": false, "speed": 1.0, "template_id": "", "template_scene": "default", "track_attribute": 0, "track_render_index": 0, "uniform_scale": "null", "visible": true, "responsive_layout": {"enable": false, "horizontal_pos_layout": 0, "size_layout": 0, "target_follow": "", "vertical_pos_layout": 0}, "id": "9D446EAB-A172-0C24-FF51-FCF7B962E643", "material_id": "4047D689-654C-ED79-C5BA-0CF914980F9B", "source_timerange": {"duration": 1488000, "start": 0}, "target_timerange": {"duration": 1488000, "start": 560288000}, "volume": 1.0}, {"cartoon": false, "clip": "null", "common_keyframes": [], "enable_adjust": false, "enable_color_curves": true, "enable_color_match_adjust": false, "enable_color_wheels": true, "enable_lut": false, "enable_smart_color_adjust": false, "group_id": "", "hdr_settings": "null", "intensifies_audio": false, "is_placeholder": false, "is_tone_modify": false, "keyframe_refs": [], "last_nonzero_volume": 1.0, "render_index": 0, "reverse": false, "speed": 1.0, "template_id": "", "template_scene": "default", "track_attribute": 0, "track_render_index": 0, "uniform_scale": "null", "visible": true, "responsive_layout": {"enable": false, "horizontal_pos_layout": 0, "size_layout": 0, "target_follow": "", "vertical_pos_layout": 0}, "id": "2A3B759B-6285-ECF8-269B-ED0DC4D0E848", "material_id": "0FC8FB2F-8373-46D7-C025-C4DBD097B698", "source_timerange": {"duration": 2640000, "start": 0}, "target_timerange": {"duration": 2640000, "start": 567922000}, "volume": 1.0}, {"cartoon": false, "clip": "null", "common_keyframes": [], "enable_adjust": false, "enable_color_curves": true, "enable_color_match_adjust": false, "enable_color_wheels": true, "enable_lut": false, "enable_smart_color_adjust": false, "group_id": "", "hdr_settings": "null", "intensifies_audio": false, "is_placeholder": false, "is_tone_modify": false, "keyframe_refs": [], "last_nonzero_volume": 1.0, "render_index": 0, "reverse": false, "speed": 1.0, "template_id": "", "template_scene": "default", "track_attribute": 0, "track_render_index": 0, "uniform_scale": "null", "visible": true, "responsive_layout": {"enable": false, "horizontal_pos_layout": 0, "size_layout": 0, "target_follow": "", "vertical_pos_layout": 0}, "id": "D9687D74-AFD1-D345-0D8E-0708E229DD01", "material_id": "1839F0EC-FE8E-0EB7-10B1-B913DEC81B5C", "source_timerange": {"duration": 1656000, "start": 0}, "target_timerange": {"duration": 1656000, "start": 572384000}, "volume": 1.0}, {"cartoon": false, "clip": "null", "common_keyframes": [], "enable_adjust": false, "enable_color_curves": true, "enable_color_match_adjust": false, "enable_color_wheels": true, "enable_lut": false, "enable_smart_color_adjust": false, "group_id": "", "hdr_settings": "null", "intensifies_audio": false, "is_placeholder": false, "is_tone_modify": false, "keyframe_refs": [], "last_nonzero_volume": 1.0, "render_index": 0, "reverse": false, "speed": 1.0, "template_id": "", "template_scene": "default", "track_attribute": 0, "track_render_index": 0, "uniform_scale": "null", "visible": true, "responsive_layout": {"enable": false, "horizontal_pos_layout": 0, "size_layout": 0, "target_follow": "", "vertical_pos_layout": 0}, "id": "1F4246E8-01EC-3F8B-DF25-A01C398D6E2C", "material_id": "DE5D2B46-E7D6-93F0-9BDA-A47CA70D001A", "source_timerange": {"duration": 2616000, "start": 0}, "target_timerange": {"duration": 2616000, "start": 577181000}, "volume": 1.0}, {"cartoon": false, "clip": "null", "common_keyframes": [], "enable_adjust": false, "enable_color_curves": true, "enable_color_match_adjust": false, "enable_color_wheels": true, "enable_lut": false, "enable_smart_color_adjust": false, "group_id": "", "hdr_settings": "null", "intensifies_audio": false, "is_placeholder": false, "is_tone_modify": false, "keyframe_refs": [], "last_nonzero_volume": 1.0, "render_index": 0, "reverse": false, "speed": 1.0, "template_id": "", "template_scene": "default", "track_attribute": 0, "track_render_index": 0, "uniform_scale": "null", "visible": true, "responsive_layout": {"enable": false, "horizontal_pos_layout": 0, "size_layout": 0, "target_follow": "", "vertical_pos_layout": 0}, "id": "DD049150-B1E7-63CF-EE02-11455D09B2BC", "material_id": "254F28BC-04CE-281E-772E-8DBFF888D3F4", "source_timerange": {"duration": 4896000, "start": 0}, "target_timerange": {"duration": 4896000, "start": 599702000}, "volume": 1.0}, {"cartoon": false, "clip": "null", "common_keyframes": [], "enable_adjust": false, "enable_color_curves": true, "enable_color_match_adjust": false, "enable_color_wheels": true, "enable_lut": false, "enable_smart_color_adjust": false, "group_id": "", "hdr_settings": "null", "intensifies_audio": false, "is_placeholder": false, "is_tone_modify": false, "keyframe_refs": [], "last_nonzero_volume": 1.0, "render_index": 0, "reverse": false, "speed": 1.0, "template_id": "", "template_scene": "default", "track_attribute": 0, "track_render_index": 0, "uniform_scale": "null", "visible": true, "responsive_layout": {"enable": false, "horizontal_pos_layout": 0, "size_layout": 0, "target_follow": "", "vertical_pos_layout": 0}, "id": "C603859F-5C6D-DB5C-9363-71701B02D1C9", "material_id": "A40934AF-34F3-2E13-4ACE-A09B3388232A", "source_timerange": {"duration": 2952000, "start": 0}, "target_timerange": {"duration": 2952000, "start": 610548000}, "volume": 1.0}, {"cartoon": false, "clip": "null", "common_keyframes": [], "enable_adjust": false, "enable_color_curves": true, "enable_color_match_adjust": false, "enable_color_wheels": true, "enable_lut": false, "enable_smart_color_adjust": false, "group_id": "", "hdr_settings": "null", "intensifies_audio": false, "is_placeholder": false, "is_tone_modify": false, "keyframe_refs": [], "last_nonzero_volume": 1.0, "render_index": 0, "reverse": false, "speed": 1.0, "template_id": "", "template_scene": "default", "track_attribute": 0, "track_render_index": 0, "uniform_scale": "null", "visible": true, "responsive_layout": {"enable": false, "horizontal_pos_layout": 0, "size_layout": 0, "target_follow": "", "vertical_pos_layout": 0}, "id": "0A1A7AD7-AC6F-5A70-4EAF-4839CED28EBD", "material_id": "26D8A2E2-6168-4FE6-15AF-E2DC891B42ED", "source_timerange": {"duration": 2592000, "start": 0}, "target_timerange": {"duration": 2592000, "start": 616678000}, "volume": 1.0}, {"cartoon": false, "clip": "null", "common_keyframes": [], "enable_adjust": false, "enable_color_curves": true, "enable_color_match_adjust": false, "enable_color_wheels": true, "enable_lut": false, "enable_smart_color_adjust": false, "group_id": "", "hdr_settings": "null", "intensifies_audio": false, "is_placeholder": false, "is_tone_modify": false, "keyframe_refs": [], "last_nonzero_volume": 1.0, "render_index": 0, "reverse": false, "speed": 1.0, "template_id": "", "template_scene": "default", "track_attribute": 0, "track_render_index": 0, "uniform_scale": "null", "visible": true, "responsive_layout": {"enable": false, "horizontal_pos_layout": 0, "size_layout": 0, "target_follow": "", "vertical_pos_layout": 0}, "id": "D42A796B-F7E4-35A3-35F7-4361F8D6C709", "material_id": "4C3A9B39-028E-EB71-A01B-CBD4C2173CC8", "source_timerange": {"duration": 3504000, "start": 0}, "target_timerange": {"duration": 3504000, "start": 622225000}, "volume": 1.0}, {"cartoon": false, "clip": "null", "common_keyframes": [], "enable_adjust": false, "enable_color_curves": true, "enable_color_match_adjust": false, "enable_color_wheels": true, "enable_lut": false, "enable_smart_color_adjust": false, "group_id": "", "hdr_settings": "null", "intensifies_audio": false, "is_placeholder": false, "is_tone_modify": false, "keyframe_refs": [], "last_nonzero_volume": 1.0, "render_index": 0, "reverse": false, "speed": 1.0, "template_id": "", "template_scene": "default", "track_attribute": 0, "track_render_index": 0, "uniform_scale": "null", "visible": true, "responsive_layout": {"enable": false, "horizontal_pos_layout": 0, "size_layout": 0, "target_follow": "", "vertical_pos_layout": 0}, "id": "8DD20507-7223-A5E3-B9DB-BCCDAE48FF8D", "material_id": "B7850B0B-1ED3-EE1A-CE9C-2E9698410451", "source_timerange": {"duration": 3264000, "start": 0}, "target_timerange": {"duration": 3264000, "start": 628982000}, "volume": 1.0}, {"cartoon": false, "clip": "null", "common_keyframes": [], "enable_adjust": false, "enable_color_curves": true, "enable_color_match_adjust": false, "enable_color_wheels": true, "enable_lut": false, "enable_smart_color_adjust": false, "group_id": "", "hdr_settings": "null", "intensifies_audio": false, "is_placeholder": false, "is_tone_modify": false, "keyframe_refs": [], "last_nonzero_volume": 1.0, "render_index": 0, "reverse": false, "speed": 1.0, "template_id": "", "template_scene": "default", "track_attribute": 0, "track_render_index": 0, "uniform_scale": "null", "visible": true, "responsive_layout": {"enable": false, "horizontal_pos_layout": 0, "size_layout": 0, "target_follow": "", "vertical_pos_layout": 0}, "id": "C6B709DB-698F-EF5C-2FB9-CCED9F314993", "material_id": "1B49478D-C9D8-1728-2035-D6A25F9F35BC", "source_timerange": {"duration": 3336000, "start": 0}, "target_timerange": {"duration": 3336000, "start": 634196000}, "volume": 1.0}, {"cartoon": false, "clip": "null", "common_keyframes": [], "enable_adjust": false, "enable_color_curves": true, "enable_color_match_adjust": false, "enable_color_wheels": true, "enable_lut": false, "enable_smart_color_adjust": false, "group_id": "", "hdr_settings": "null", "intensifies_audio": false, "is_placeholder": false, "is_tone_modify": false, "keyframe_refs": [], "last_nonzero_volume": 1.0, "render_index": 0, "reverse": false, "speed": 1.0, "template_id": "", "template_scene": "default", "track_attribute": 0, "track_render_index": 0, "uniform_scale": "null", "visible": true, "responsive_layout": {"enable": false, "horizontal_pos_layout": 0, "size_layout": 0, "target_follow": "", "vertical_pos_layout": 0}, "id": "23281625-CC8D-AE73-4BBE-1B674E876F51", "material_id": "AAFCF39D-B678-1EBE-A082-59F6A182467C", "source_timerange": {"duration": 3912000, "start": 0}, "target_timerange": {"duration": 3912000, "start": 640244000}, "volume": 1.0}, {"cartoon": false, "clip": "null", "common_keyframes": [], "enable_adjust": false, "enable_color_curves": true, "enable_color_match_adjust": false, "enable_color_wheels": true, "enable_lut": false, "enable_smart_color_adjust": false, "group_id": "", "hdr_settings": "null", "intensifies_audio": false, "is_placeholder": false, "is_tone_modify": false, "keyframe_refs": [], "last_nonzero_volume": 1.0, "render_index": 0, "reverse": false, "speed": 1.0, "template_id": "", "template_scene": "default", "track_attribute": 0, "track_render_index": 0, "uniform_scale": "null", "visible": true, "responsive_layout": {"enable": false, "horizontal_pos_layout": 0, "size_layout": 0, "target_follow": "", "vertical_pos_layout": 0}, "id": "3488A07D-6694-B011-733A-8907D7B638C0", "material_id": "BD4900AA-592F-4C18-0810-11374F47CCA8", "source_timerange": {"duration": 2496000, "start": 0}, "target_timerange": {"duration": 2496000, "start": 652464000}, "volume": 1.0}, {"cartoon": false, "clip": "null", "common_keyframes": [], "enable_adjust": false, "enable_color_curves": true, "enable_color_match_adjust": false, "enable_color_wheels": true, "enable_lut": false, "enable_smart_color_adjust": false, "group_id": "", "hdr_settings": "null", "intensifies_audio": false, "is_placeholder": false, "is_tone_modify": false, "keyframe_refs": [], "last_nonzero_volume": 1.0, "render_index": 0, "reverse": false, "speed": 1.0, "template_id": "", "template_scene": "default", "track_attribute": 0, "track_render_index": 0, "uniform_scale": "null", "visible": true, "responsive_layout": {"enable": false, "horizontal_pos_layout": 0, "size_layout": 0, "target_follow": "", "vertical_pos_layout": 0}, "id": "313A576E-AEA0-0C40-0BDC-04F79075A235", "material_id": "95613971-1F9D-C060-B112-244653794BB1", "source_timerange": {"duration": 2064000, "start": 0}, "target_timerange": {"duration": 2064000, "start": 655676000}, "volume": 1.0}, {"cartoon": false, "clip": "null", "common_keyframes": [], "enable_adjust": false, "enable_color_curves": true, "enable_color_match_adjust": false, "enable_color_wheels": true, "enable_lut": false, "enable_smart_color_adjust": false, "group_id": "", "hdr_settings": "null", "intensifies_audio": false, "is_placeholder": false, "is_tone_modify": false, "keyframe_refs": [], "last_nonzero_volume": 1.0, "render_index": 0, "reverse": false, "speed": 1.0, "template_id": "", "template_scene": "default", "track_attribute": 0, "track_render_index": 0, "uniform_scale": "null", "visible": true, "responsive_layout": {"enable": false, "horizontal_pos_layout": 0, "size_layout": 0, "target_follow": "", "vertical_pos_layout": 0}, "id": "722ED7C7-E26F-EF70-04C9-D66678911879", "material_id": "22910A45-7E40-2976-6427-095C23BC21D7", "source_timerange": {"duration": 3888000, "start": 0}, "target_timerange": {"duration": 3888000, "start": 659889000}, "volume": 1.0}, {"cartoon": false, "clip": "null", "common_keyframes": [], "enable_adjust": false, "enable_color_curves": true, "enable_color_match_adjust": false, "enable_color_wheels": true, "enable_lut": false, "enable_smart_color_adjust": false, "group_id": "", "hdr_settings": "null", "intensifies_audio": false, "is_placeholder": false, "is_tone_modify": false, "keyframe_refs": [], "last_nonzero_volume": 1.0, "render_index": 0, "reverse": false, "speed": 1.0, "template_id": "", "template_scene": "default", "track_attribute": 0, "track_render_index": 0, "uniform_scale": "null", "visible": true, "responsive_layout": {"enable": false, "horizontal_pos_layout": 0, "size_layout": 0, "target_follow": "", "vertical_pos_layout": 0}, "id": "46A3C5B6-DC5E-59CC-C7E3-5AF5A1104625", "material_id": "08804031-36B0-3E83-61FD-5AA33A639A0C", "source_timerange": {"duration": 4056000, "start": 0}, "target_timerange": {"duration": 4056000, "start": 667770000}, "volume": 1.0}, {"cartoon": false, "clip": "null", "common_keyframes": [], "enable_adjust": false, "enable_color_curves": true, "enable_color_match_adjust": false, "enable_color_wheels": true, "enable_lut": false, "enable_smart_color_adjust": false, "group_id": "", "hdr_settings": "null", "intensifies_audio": false, "is_placeholder": false, "is_tone_modify": false, "keyframe_refs": [], "last_nonzero_volume": 1.0, "render_index": 0, "reverse": false, "speed": 1.0, "template_id": "", "template_scene": "default", "track_attribute": 0, "track_render_index": 0, "uniform_scale": "null", "visible": true, "responsive_layout": {"enable": false, "horizontal_pos_layout": 0, "size_layout": 0, "target_follow": "", "vertical_pos_layout": 0}, "id": "E327107F-61F8-132D-DB3D-1C793057DFEA", "material_id": "49D07061-F867-C38E-2C3B-F3E3EF6FD937", "source_timerange": {"duration": 2712000, "start": 0}, "target_timerange": {"duration": 2712000, "start": 672025000}, "volume": 1.0}, {"cartoon": false, "clip": "null", "common_keyframes": [], "enable_adjust": false, "enable_color_curves": true, "enable_color_match_adjust": false, "enable_color_wheels": true, "enable_lut": false, "enable_smart_color_adjust": false, "group_id": "", "hdr_settings": "null", "intensifies_audio": false, "is_placeholder": false, "is_tone_modify": false, "keyframe_refs": [], "last_nonzero_volume": 1.0, "render_index": 0, "reverse": false, "speed": 1.0, "template_id": "", "template_scene": "default", "track_attribute": 0, "track_render_index": 0, "uniform_scale": "null", "visible": true, "responsive_layout": {"enable": false, "horizontal_pos_layout": 0, "size_layout": 0, "target_follow": "", "vertical_pos_layout": 0}, "id": "344D03C2-BED4-16D7-8E32-705FD8499B96", "material_id": "4E3E0D78-3356-F006-87B2-3819861A0652", "source_timerange": {"duration": 3312000, "start": 0}, "target_timerange": {"duration": 3312000, "start": 682201000}, "volume": 1.0}, {"cartoon": false, "clip": "null", "common_keyframes": [], "enable_adjust": false, "enable_color_curves": true, "enable_color_match_adjust": false, "enable_color_wheels": true, "enable_lut": false, "enable_smart_color_adjust": false, "group_id": "", "hdr_settings": "null", "intensifies_audio": false, "is_placeholder": false, "is_tone_modify": false, "keyframe_refs": [], "last_nonzero_volume": 1.0, "render_index": 0, "reverse": false, "speed": 1.0, "template_id": "", "template_scene": "default", "track_attribute": 0, "track_render_index": 0, "uniform_scale": "null", "visible": true, "responsive_layout": {"enable": false, "horizontal_pos_layout": 0, "size_layout": 0, "target_follow": "", "vertical_pos_layout": 0}, "id": "66876D95-1355-3DF6-DEC8-CF63CC49976A", "material_id": "50594CDD-7E2B-39DF-FDED-86DDB22C399E", "source_timerange": {"duration": 2784000, "start": 0}, "target_timerange": {"duration": 2784000, "start": 687707000}, "volume": 1.0}, {"cartoon": false, "clip": "null", "common_keyframes": [], "enable_adjust": false, "enable_color_curves": true, "enable_color_match_adjust": false, "enable_color_wheels": true, "enable_lut": false, "enable_smart_color_adjust": false, "group_id": "", "hdr_settings": "null", "intensifies_audio": false, "is_placeholder": false, "is_tone_modify": false, "keyframe_refs": [], "last_nonzero_volume": 1.0, "render_index": 0, "reverse": false, "speed": 1.0, "template_id": "", "template_scene": "default", "track_attribute": 0, "track_render_index": 0, "uniform_scale": "null", "visible": true, "responsive_layout": {"enable": false, "horizontal_pos_layout": 0, "size_layout": 0, "target_follow": "", "vertical_pos_layout": 0}, "id": "E0396970-8E42-06DC-E0F1-D8C2E6BB0D8F", "material_id": "3E193F0D-0805-72AB-750C-AB75ADA0303E", "source_timerange": {"duration": 1896000, "start": 0}, "target_timerange": {"duration": 1896000, "start": 694214000}, "volume": 1.0}, {"cartoon": false, "clip": "null", "common_keyframes": [], "enable_adjust": false, "enable_color_curves": true, "enable_color_match_adjust": false, "enable_color_wheels": true, "enable_lut": false, "enable_smart_color_adjust": false, "group_id": "", "hdr_settings": "null", "intensifies_audio": false, "is_placeholder": false, "is_tone_modify": false, "keyframe_refs": [], "last_nonzero_volume": 1.0, "render_index": 0, "reverse": false, "speed": 1.0, "template_id": "", "template_scene": "default", "track_attribute": 0, "track_render_index": 0, "uniform_scale": "null", "visible": true, "responsive_layout": {"enable": false, "horizontal_pos_layout": 0, "size_layout": 0, "target_follow": "", "vertical_pos_layout": 0}, "id": "DC7617D0-BCB9-F1AC-5E0B-15F6A539DE02", "material_id": "D203E21D-E839-8708-E3C8-C42252BAA9CB", "source_timerange": {"duration": 3000000, "start": 0}, "target_timerange": {"duration": 3000000, "start": 701388000}, "volume": 1.0}, {"cartoon": false, "clip": "null", "common_keyframes": [], "enable_adjust": false, "enable_color_curves": true, "enable_color_match_adjust": false, "enable_color_wheels": true, "enable_lut": false, "enable_smart_color_adjust": false, "group_id": "", "hdr_settings": "null", "intensifies_audio": false, "is_placeholder": false, "is_tone_modify": false, "keyframe_refs": [], "last_nonzero_volume": 1.0, "render_index": 0, "reverse": false, "speed": 1.0, "template_id": "", "template_scene": "default", "track_attribute": 0, "track_render_index": 0, "uniform_scale": "null", "visible": true, "responsive_layout": {"enable": false, "horizontal_pos_layout": 0, "size_layout": 0, "target_follow": "", "vertical_pos_layout": 0}, "id": "03F7F194-D498-381A-2CD0-C67BBE1A46FC", "material_id": "63989C33-3711-6EAD-3BD8-A1EF5D7769F8", "source_timerange": {"duration": 1872000, "start": 0}, "target_timerange": {"duration": 1872000, "start": 707311000}, "volume": 1.0}, {"cartoon": false, "clip": "null", "common_keyframes": [], "enable_adjust": false, "enable_color_curves": true, "enable_color_match_adjust": false, "enable_color_wheels": true, "enable_lut": false, "enable_smart_color_adjust": false, "group_id": "", "hdr_settings": "null", "intensifies_audio": false, "is_placeholder": false, "is_tone_modify": false, "keyframe_refs": [], "last_nonzero_volume": 1.0, "render_index": 0, "reverse": false, "speed": 1.0, "template_id": "", "template_scene": "default", "track_attribute": 0, "track_render_index": 0, "uniform_scale": "null", "visible": true, "responsive_layout": {"enable": false, "horizontal_pos_layout": 0, "size_layout": 0, "target_follow": "", "vertical_pos_layout": 0}, "id": "22B08605-AB21-6930-EED2-612970E4C769", "material_id": "87FADA08-DF2D-477D-721A-0F42386AE7B9", "source_timerange": {"duration": 1824000, "start": 0}, "target_timerange": {"duration": 1824000, "start": 710898000}, "volume": 1.0}, {"cartoon": false, "clip": "null", "common_keyframes": [], "enable_adjust": false, "enable_color_curves": true, "enable_color_match_adjust": false, "enable_color_wheels": true, "enable_lut": false, "enable_smart_color_adjust": false, "group_id": "", "hdr_settings": "null", "intensifies_audio": false, "is_placeholder": false, "is_tone_modify": false, "keyframe_refs": [], "last_nonzero_volume": 1.0, "render_index": 0, "reverse": false, "speed": 1.0, "template_id": "", "template_scene": "default", "track_attribute": 0, "track_render_index": 0, "uniform_scale": "null", "visible": true, "responsive_layout": {"enable": false, "horizontal_pos_layout": 0, "size_layout": 0, "target_follow": "", "vertical_pos_layout": 0}, "id": "439D0390-8896-EF09-4807-CFCC98AB49D0", "material_id": "3C7D05E5-9DCD-2F80-76DF-E3FDF0CDBABF", "source_timerange": {"duration": 2520000, "start": 0}, "target_timerange": {"duration": 2520000, "start": 714525000}, "volume": 1.0}, {"cartoon": false, "clip": "null", "common_keyframes": [], "enable_adjust": false, "enable_color_curves": true, "enable_color_match_adjust": false, "enable_color_wheels": true, "enable_lut": false, "enable_smart_color_adjust": false, "group_id": "", "hdr_settings": "null", "intensifies_audio": false, "is_placeholder": false, "is_tone_modify": false, "keyframe_refs": [], "last_nonzero_volume": 1.0, "render_index": 0, "reverse": false, "speed": 1.0, "template_id": "", "template_scene": "default", "track_attribute": 0, "track_render_index": 0, "uniform_scale": "null", "visible": true, "responsive_layout": {"enable": false, "horizontal_pos_layout": 0, "size_layout": 0, "target_follow": "", "vertical_pos_layout": 0}, "id": "D974A354-5D21-C22B-FD9B-5FA9930D82C2", "material_id": "C18504A5-EEAE-D6F6-1970-4A88DFF786FE", "source_timerange": {"duration": 5136000, "start": 0}, "target_timerange": {"duration": 5136000, "start": 718989000}, "volume": 1.0}, {"cartoon": false, "clip": "null", "common_keyframes": [], "enable_adjust": false, "enable_color_curves": true, "enable_color_match_adjust": false, "enable_color_wheels": true, "enable_lut": false, "enable_smart_color_adjust": false, "group_id": "", "hdr_settings": "null", "intensifies_audio": false, "is_placeholder": false, "is_tone_modify": false, "keyframe_refs": [], "last_nonzero_volume": 1.0, "render_index": 0, "reverse": false, "speed": 1.0, "template_id": "", "template_scene": "default", "track_attribute": 0, "track_render_index": 0, "uniform_scale": "null", "visible": true, "responsive_layout": {"enable": false, "horizontal_pos_layout": 0, "size_layout": 0, "target_follow": "", "vertical_pos_layout": 0}, "id": "AE356D4C-8610-2C79-87E0-34012F3C6D80", "material_id": "7D655A93-C7D2-C035-F3D9-59E03F06DC94", "source_timerange": {"duration": 1632000, "start": 0}, "target_timerange": {"duration": 1632000, "start": 725370000}, "volume": 1.0}, {"cartoon": false, "clip": "null", "common_keyframes": [], "enable_adjust": false, "enable_color_curves": true, "enable_color_match_adjust": false, "enable_color_wheels": true, "enable_lut": false, "enable_smart_color_adjust": false, "group_id": "", "hdr_settings": "null", "intensifies_audio": false, "is_placeholder": false, "is_tone_modify": false, "keyframe_refs": [], "last_nonzero_volume": 1.0, "render_index": 0, "reverse": false, "speed": 1.0, "template_id": "", "template_scene": "default", "track_attribute": 0, "track_render_index": 0, "uniform_scale": "null", "visible": true, "responsive_layout": {"enable": false, "horizontal_pos_layout": 0, "size_layout": 0, "target_follow": "", "vertical_pos_layout": 0}, "id": "950A94E0-C642-B511-99F4-0B88B1687C1A", "material_id": "B1C91B91-0835-4889-9C83-63B60E1800CB", "source_timerange": {"duration": 2688000, "start": 0}, "target_timerange": {"duration": 2688000, "start": 727998000}, "volume": 1.0}, {"cartoon": false, "clip": "null", "common_keyframes": [], "enable_adjust": false, "enable_color_curves": true, "enable_color_match_adjust": false, "enable_color_wheels": true, "enable_lut": false, "enable_smart_color_adjust": false, "group_id": "", "hdr_settings": "null", "intensifies_audio": false, "is_placeholder": false, "is_tone_modify": false, "keyframe_refs": [], "last_nonzero_volume": 1.0, "render_index": 0, "reverse": false, "speed": 1.0, "template_id": "", "template_scene": "default", "track_attribute": 0, "track_render_index": 0, "uniform_scale": "null", "visible": true, "responsive_layout": {"enable": false, "horizontal_pos_layout": 0, "size_layout": 0, "target_follow": "", "vertical_pos_layout": 0}, "id": "29507391-62FB-E5BF-6E32-E787EF8C0543", "material_id": "656FA986-0D98-6E10-05F6-FD09AEF8ABD8", "source_timerange": {"duration": 3240000, "start": 0}, "target_timerange": {"duration": 3240000, "start": 732794000}, "volume": 1.0}, {"cartoon": false, "clip": "null", "common_keyframes": [], "enable_adjust": false, "enable_color_curves": true, "enable_color_match_adjust": false, "enable_color_wheels": true, "enable_lut": false, "enable_smart_color_adjust": false, "group_id": "", "hdr_settings": "null", "intensifies_audio": false, "is_placeholder": false, "is_tone_modify": false, "keyframe_refs": [], "last_nonzero_volume": 1.0, "render_index": 0, "reverse": false, "speed": 1.0, "template_id": "", "template_scene": "default", "track_attribute": 0, "track_render_index": 0, "uniform_scale": "null", "visible": true, "responsive_layout": {"enable": false, "horizontal_pos_layout": 0, "size_layout": 0, "target_follow": "", "vertical_pos_layout": 0}, "id": "04EAF7EA-558C-D430-5F86-D279AC8C9C25", "material_id": "2CC4FED1-ADAC-F1FF-91D5-98003DAB5935", "source_timerange": {"duration": 2568000, "start": 0}, "target_timerange": {"duration": 2568000, "start": 738759000}, "volume": 1.0}, {"cartoon": false, "clip": "null", "common_keyframes": [], "enable_adjust": false, "enable_color_curves": true, "enable_color_match_adjust": false, "enable_color_wheels": true, "enable_lut": false, "enable_smart_color_adjust": false, "group_id": "", "hdr_settings": "null", "intensifies_audio": false, "is_placeholder": false, "is_tone_modify": false, "keyframe_refs": [], "last_nonzero_volume": 1.0, "render_index": 0, "reverse": false, "speed": 1.0, "template_id": "", "template_scene": "default", "track_attribute": 0, "track_render_index": 0, "uniform_scale": "null", "visible": true, "responsive_layout": {"enable": false, "horizontal_pos_layout": 0, "size_layout": 0, "target_follow": "", "vertical_pos_layout": 0}, "id": "0DC16DA7-8F59-F2D5-94E0-0557FDC8BAA3", "material_id": "0905F1AF-47CB-80EA-2FB9-0DCE902F9F4A", "source_timerange": {"duration": 2688000, "start": 0}, "target_timerange": {"duration": 2688000, "start": 744264000}, "volume": 1.0}, {"cartoon": false, "clip": "null", "common_keyframes": [], "enable_adjust": false, "enable_color_curves": true, "enable_color_match_adjust": false, "enable_color_wheels": true, "enable_lut": false, "enable_smart_color_adjust": false, "group_id": "", "hdr_settings": "null", "intensifies_audio": false, "is_placeholder": false, "is_tone_modify": false, "keyframe_refs": [], "last_nonzero_volume": 1.0, "render_index": 0, "reverse": false, "speed": 1.0, "template_id": "", "template_scene": "default", "track_attribute": 0, "track_render_index": 0, "uniform_scale": "null", "visible": true, "responsive_layout": {"enable": false, "horizontal_pos_layout": 0, "size_layout": 0, "target_follow": "", "vertical_pos_layout": 0}, "id": "F88067BD-B6CB-7DF4-F01F-4705A1E5885E", "material_id": "B5E8B4F4-6C1F-C554-F3C7-C2098ACA3D59", "source_timerange": {"duration": 4344000, "start": 0}, "target_timerange": {"duration": 4344000, "start": 748351000}, "volume": 1.0}, {"cartoon": false, "clip": "null", "common_keyframes": [], "enable_adjust": false, "enable_color_curves": true, "enable_color_match_adjust": false, "enable_color_wheels": true, "enable_lut": false, "enable_smart_color_adjust": false, "group_id": "", "hdr_settings": "null", "intensifies_audio": false, "is_placeholder": false, "is_tone_modify": false, "keyframe_refs": [], "last_nonzero_volume": 1.0, "render_index": 0, "reverse": false, "speed": 1.0, "template_id": "", "template_scene": "default", "track_attribute": 0, "track_render_index": 0, "uniform_scale": "null", "visible": true, "responsive_layout": {"enable": false, "horizontal_pos_layout": 0, "size_layout": 0, "target_follow": "", "vertical_pos_layout": 0}, "id": "6BBABC77-59F6-CF1E-17B9-5B71692C970D", "material_id": "6F61F076-6244-8B76-CADA-DFF17ED94395", "source_timerange": {"duration": 1632000, "start": 0}, "target_timerange": {"duration": 1632000, "start": 755525000}, "volume": 1.0}, {"cartoon": false, "clip": "null", "common_keyframes": [], "enable_adjust": false, "enable_color_curves": true, "enable_color_match_adjust": false, "enable_color_wheels": true, "enable_lut": false, "enable_smart_color_adjust": false, "group_id": "", "hdr_settings": "null", "intensifies_audio": false, "is_placeholder": false, "is_tone_modify": false, "keyframe_refs": [], "last_nonzero_volume": 1.0, "render_index": 0, "reverse": false, "speed": 1.0, "template_id": "", "template_scene": "default", "track_attribute": 0, "track_render_index": 0, "uniform_scale": "null", "visible": true, "responsive_layout": {"enable": false, "horizontal_pos_layout": 0, "size_layout": 0, "target_follow": "", "vertical_pos_layout": 0}, "id": "832468C0-9275-6643-2AE4-6821587B1D78", "material_id": "A0F76028-82C6-18C8-AAE1-1573533459C2", "source_timerange": {"duration": 3312000, "start": 0}, "target_timerange": {"duration": 3312000, "start": 758821000}, "volume": 1.0}, {"cartoon": false, "clip": "null", "common_keyframes": [], "enable_adjust": false, "enable_color_curves": true, "enable_color_match_adjust": false, "enable_color_wheels": true, "enable_lut": false, "enable_smart_color_adjust": false, "group_id": "", "hdr_settings": "null", "intensifies_audio": false, "is_placeholder": false, "is_tone_modify": false, "keyframe_refs": [], "last_nonzero_volume": 1.0, "render_index": 0, "reverse": false, "speed": 1.0, "template_id": "", "template_scene": "default", "track_attribute": 0, "track_render_index": 0, "uniform_scale": "null", "visible": true, "responsive_layout": {"enable": false, "horizontal_pos_layout": 0, "size_layout": 0, "target_follow": "", "vertical_pos_layout": 0}, "id": "AEF0B27D-D3F5-28EA-7665-F2882197DDE9", "material_id": "7AF5329E-3A8B-D708-FDC8-B427DDE560D5", "source_timerange": {"duration": 1728000, "start": 0}, "target_timerange": {"duration": 1728000, "start": 762825000}, "volume": 1.0}, {"cartoon": false, "clip": "null", "common_keyframes": [], "enable_adjust": false, "enable_color_curves": true, "enable_color_match_adjust": false, "enable_color_wheels": true, "enable_lut": false, "enable_smart_color_adjust": false, "group_id": "", "hdr_settings": "null", "intensifies_audio": false, "is_placeholder": false, "is_tone_modify": false, "keyframe_refs": [], "last_nonzero_volume": 1.0, "render_index": 0, "reverse": false, "speed": 1.0, "template_id": "", "template_scene": "default", "track_attribute": 0, "track_render_index": 0, "uniform_scale": "null", "visible": true, "responsive_layout": {"enable": false, "horizontal_pos_layout": 0, "size_layout": 0, "target_follow": "", "vertical_pos_layout": 0}, "id": "65547AFF-0337-4E2C-59B7-9A7BB3FCC15A", "material_id": "0F7A1B06-0B28-44DF-5FA4-3CE34D1E5E0B", "source_timerange": {"duration": 1656000, "start": 0}, "target_timerange": {"duration": 1656000, "start": 765201000}, "volume": 1.0}, {"cartoon": false, "clip": "null", "common_keyframes": [], "enable_adjust": false, "enable_color_curves": true, "enable_color_match_adjust": false, "enable_color_wheels": true, "enable_lut": false, "enable_smart_color_adjust": false, "group_id": "", "hdr_settings": "null", "intensifies_audio": false, "is_placeholder": false, "is_tone_modify": false, "keyframe_refs": [], "last_nonzero_volume": 1.0, "render_index": 0, "reverse": false, "speed": 1.0, "template_id": "", "template_scene": "default", "track_attribute": 0, "track_render_index": 0, "uniform_scale": "null", "visible": true, "responsive_layout": {"enable": false, "horizontal_pos_layout": 0, "size_layout": 0, "target_follow": "", "vertical_pos_layout": 0}, "id": "C4415E21-5EDF-91FB-A535-57BC5DB7C004", "material_id": "542B8519-6C3C-8E2A-22AA-C5BA44512AEF", "source_timerange": {"duration": 2040000, "start": 0}, "target_timerange": {"duration": 2040000, "start": 767453000}, "volume": 1.0}, {"cartoon": false, "clip": "null", "common_keyframes": [], "enable_adjust": false, "enable_color_curves": true, "enable_color_match_adjust": false, "enable_color_wheels": true, "enable_lut": false, "enable_smart_color_adjust": false, "group_id": "", "hdr_settings": "null", "intensifies_audio": false, "is_placeholder": false, "is_tone_modify": false, "keyframe_refs": [], "last_nonzero_volume": 1.0, "render_index": 0, "reverse": false, "speed": 1.0, "template_id": "", "template_scene": "default", "track_attribute": 0, "track_render_index": 0, "uniform_scale": "null", "visible": true, "responsive_layout": {"enable": false, "horizontal_pos_layout": 0, "size_layout": 0, "target_follow": "", "vertical_pos_layout": 0}, "id": "556330B0-830C-DAC5-2A67-3814D8710EC2", "material_id": "4073F635-E15E-BF89-C3E5-EA53A0C94505", "source_timerange": {"duration": 1224000, "start": 0}, "target_timerange": {"duration": 1224000, "start": 769498000}, "volume": 1.0}, {"cartoon": false, "clip": "null", "common_keyframes": [], "enable_adjust": false, "enable_color_curves": true, "enable_color_match_adjust": false, "enable_color_wheels": true, "enable_lut": false, "enable_smart_color_adjust": false, "group_id": "", "hdr_settings": "null", "intensifies_audio": false, "is_placeholder": false, "is_tone_modify": false, "keyframe_refs": [], "last_nonzero_volume": 1.0, "render_index": 0, "reverse": false, "speed": 1.0, "template_id": "", "template_scene": "default", "track_attribute": 0, "track_render_index": 0, "uniform_scale": "null", "visible": true, "responsive_layout": {"enable": false, "horizontal_pos_layout": 0, "size_layout": 0, "target_follow": "", "vertical_pos_layout": 0}, "id": "60AF0261-A697-5ED1-C109-7E242DCD67DB", "material_id": "44CEA3EE-4F32-843E-4A26-DE1E03838054", "source_timerange": {"duration": 1632000, "start": 0}, "target_timerange": {"duration": 1632000, "start": 771792000}, "volume": 1.0}, {"cartoon": false, "clip": "null", "common_keyframes": [], "enable_adjust": false, "enable_color_curves": true, "enable_color_match_adjust": false, "enable_color_wheels": true, "enable_lut": false, "enable_smart_color_adjust": false, "group_id": "", "hdr_settings": "null", "intensifies_audio": false, "is_placeholder": false, "is_tone_modify": false, "keyframe_refs": [], "last_nonzero_volume": 1.0, "render_index": 0, "reverse": false, "speed": 1.0, "template_id": "", "template_scene": "default", "track_attribute": 0, "track_render_index": 0, "uniform_scale": "null", "visible": true, "responsive_layout": {"enable": false, "horizontal_pos_layout": 0, "size_layout": 0, "target_follow": "", "vertical_pos_layout": 0}, "id": "7C2F19F9-7673-A914-5F90-6F29930C1F13", "material_id": "0AC9A747-5EF4-CFA8-10C2-FC09AA28DE9D", "source_timerange": {"duration": 2976000, "start": 0}, "target_timerange": {"duration": 2976000, "start": 774128000}, "volume": 1.0}, {"cartoon": false, "clip": "null", "common_keyframes": [], "enable_adjust": false, "enable_color_curves": true, "enable_color_match_adjust": false, "enable_color_wheels": true, "enable_lut": false, "enable_smart_color_adjust": false, "group_id": "", "hdr_settings": "null", "intensifies_audio": false, "is_placeholder": false, "is_tone_modify": false, "keyframe_refs": [], "last_nonzero_volume": 1.0, "render_index": 0, "reverse": false, "speed": 1.0, "template_id": "", "template_scene": "default", "track_attribute": 0, "track_render_index": 0, "uniform_scale": "null", "visible": true, "responsive_layout": {"enable": false, "horizontal_pos_layout": 0, "size_layout": 0, "target_follow": "", "vertical_pos_layout": 0}, "id": "7391214A-2A53-AF75-0AC8-E4C727A05BF0", "material_id": "22916500-E14B-EFED-A3F5-80F41FA5317D", "source_timerange": {"duration": 2592000, "start": 0}, "target_timerange": {"duration": 2592000, "start": 781384000}, "volume": 1.0}, {"cartoon": false, "clip": "null", "common_keyframes": [], "enable_adjust": false, "enable_color_curves": true, "enable_color_match_adjust": false, "enable_color_wheels": true, "enable_lut": false, "enable_smart_color_adjust": false, "group_id": "", "hdr_settings": "null", "intensifies_audio": false, "is_placeholder": false, "is_tone_modify": false, "keyframe_refs": [], "last_nonzero_volume": 1.0, "render_index": 0, "reverse": false, "speed": 1.0, "template_id": "", "template_scene": "default", "track_attribute": 0, "track_render_index": 0, "uniform_scale": "null", "visible": true, "responsive_layout": {"enable": false, "horizontal_pos_layout": 0, "size_layout": 0, "target_follow": "", "vertical_pos_layout": 0}, "id": "E1A01452-97DF-C9E8-1520-6CC1C0620F15", "material_id": "FFF70D2F-8213-991C-04EB-7954905AF42D", "source_timerange": {"duration": 1488000, "start": 0}, "target_timerange": {"duration": 1488000, "start": 784221000}, "volume": 1.0}, {"cartoon": false, "clip": "null", "common_keyframes": [], "enable_adjust": false, "enable_color_curves": true, "enable_color_match_adjust": false, "enable_color_wheels": true, "enable_lut": false, "enable_smart_color_adjust": false, "group_id": "", "hdr_settings": "null", "intensifies_audio": false, "is_placeholder": false, "is_tone_modify": false, "keyframe_refs": [], "last_nonzero_volume": 1.0, "render_index": 0, "reverse": false, "speed": 1.0, "template_id": "", "template_scene": "default", "track_attribute": 0, "track_render_index": 0, "uniform_scale": "null", "visible": true, "responsive_layout": {"enable": false, "horizontal_pos_layout": 0, "size_layout": 0, "target_follow": "", "vertical_pos_layout": 0}, "id": "4FEBEDAC-3118-B32F-5696-93A4CB37F394", "material_id": "5A0F55EC-D4D4-4C44-94EA-6D1A5108A070", "source_timerange": {"duration": 1488000, "start": 0}, "target_timerange": {"duration": 1488000, "start": 792145000}, "volume": 1.0}, {"cartoon": false, "clip": "null", "common_keyframes": [], "enable_adjust": false, "enable_color_curves": true, "enable_color_match_adjust": false, "enable_color_wheels": true, "enable_lut": false, "enable_smart_color_adjust": false, "group_id": "", "hdr_settings": "null", "intensifies_audio": false, "is_placeholder": false, "is_tone_modify": false, "keyframe_refs": [], "last_nonzero_volume": 1.0, "render_index": 0, "reverse": false, "speed": 1.0, "template_id": "", "template_scene": "default", "track_attribute": 0, "track_render_index": 0, "uniform_scale": "null", "visible": true, "responsive_layout": {"enable": false, "horizontal_pos_layout": 0, "size_layout": 0, "target_follow": "", "vertical_pos_layout": 0}, "id": "5EDEE49E-9135-FA15-9B87-B0417969877F", "material_id": "3F0CC135-EF25-FFBC-B8C6-A6B66B52FA25", "source_timerange": {"duration": 3384000, "start": 0}, "target_timerange": {"duration": 3384000, "start": 795149000}, "volume": 1.0}, {"cartoon": false, "clip": "null", "common_keyframes": [], "enable_adjust": false, "enable_color_curves": true, "enable_color_match_adjust": false, "enable_color_wheels": true, "enable_lut": false, "enable_smart_color_adjust": false, "group_id": "", "hdr_settings": "null", "intensifies_audio": false, "is_placeholder": false, "is_tone_modify": false, "keyframe_refs": [], "last_nonzero_volume": 1.0, "render_index": 0, "reverse": false, "speed": 1.0, "template_id": "", "template_scene": "default", "track_attribute": 0, "track_render_index": 0, "uniform_scale": "null", "visible": true, "responsive_layout": {"enable": false, "horizontal_pos_layout": 0, "size_layout": 0, "target_follow": "", "vertical_pos_layout": 0}, "id": "18B7C8BC-E4C7-527E-CBE1-F533EDA29860", "material_id": "2CFCAA94-0443-947D-B332-EB328B4FA542", "source_timerange": {"duration": 3312000, "start": 0}, "target_timerange": {"duration": 3312000, "start": 799861000}, "volume": 1.0}, {"cartoon": false, "clip": "null", "common_keyframes": [], "enable_adjust": false, "enable_color_curves": true, "enable_color_match_adjust": false, "enable_color_wheels": true, "enable_lut": false, "enable_smart_color_adjust": false, "group_id": "", "hdr_settings": "null", "intensifies_audio": false, "is_placeholder": false, "is_tone_modify": false, "keyframe_refs": [], "last_nonzero_volume": 1.0, "render_index": 0, "reverse": false, "speed": 1.0, "template_id": "", "template_scene": "default", "track_attribute": 0, "track_render_index": 0, "uniform_scale": "null", "visible": true, "responsive_layout": {"enable": false, "horizontal_pos_layout": 0, "size_layout": 0, "target_follow": "", "vertical_pos_layout": 0}, "id": "79D4F2AF-E06E-7501-24AB-BF3A2AA8032F", "material_id": "9854C9D0-BB80-055D-DEA3-7F151240C2BE", "source_timerange": {"duration": 1608000, "start": 0}, "target_timerange": {"duration": 1608000, "start": 806576000}, "volume": 1.0}, {"cartoon": false, "clip": "null", "common_keyframes": [], "enable_adjust": false, "enable_color_curves": true, "enable_color_match_adjust": false, "enable_color_wheels": true, "enable_lut": false, "enable_smart_color_adjust": false, "group_id": "", "hdr_settings": "null", "intensifies_audio": false, "is_placeholder": false, "is_tone_modify": false, "keyframe_refs": [], "last_nonzero_volume": 1.0, "render_index": 0, "reverse": false, "speed": 1.0, "template_id": "", "template_scene": "default", "track_attribute": 0, "track_render_index": 0, "uniform_scale": "null", "visible": true, "responsive_layout": {"enable": false, "horizontal_pos_layout": 0, "size_layout": 0, "target_follow": "", "vertical_pos_layout": 0}, "id": "FF0DDE95-948B-FCFF-710F-2F5B50110C09", "material_id": "1D5F8658-F3A9-68EB-9202-CEF05D10D2F2", "source_timerange": {"duration": 1920000, "start": 0}, "target_timerange": {"duration": 1920000, "start": 824802000}, "volume": 1.0}, {"cartoon": false, "clip": "null", "common_keyframes": [], "enable_adjust": false, "enable_color_curves": true, "enable_color_match_adjust": false, "enable_color_wheels": true, "enable_lut": false, "enable_smart_color_adjust": false, "group_id": "", "hdr_settings": "null", "intensifies_audio": false, "is_placeholder": false, "is_tone_modify": false, "keyframe_refs": [], "last_nonzero_volume": 1.0, "render_index": 0, "reverse": false, "speed": 1.0, "template_id": "", "template_scene": "default", "track_attribute": 0, "track_render_index": 0, "uniform_scale": "null", "visible": true, "responsive_layout": {"enable": false, "horizontal_pos_layout": 0, "size_layout": 0, "target_follow": "", "vertical_pos_layout": 0}, "id": "7F2F562E-FAC5-FEC0-0DF9-47DB18997007", "material_id": "998DDDD6-F148-91A5-B0F8-50076D1ADE9A", "source_timerange": {"duration": 2232000, "start": 0}, "target_timerange": {"duration": 2232000, "start": 831976000}, "volume": 1.0}, {"cartoon": false, "clip": "null", "common_keyframes": [], "enable_adjust": false, "enable_color_curves": true, "enable_color_match_adjust": false, "enable_color_wheels": true, "enable_lut": false, "enable_smart_color_adjust": false, "group_id": "", "hdr_settings": "null", "intensifies_audio": false, "is_placeholder": false, "is_tone_modify": false, "keyframe_refs": [], "last_nonzero_volume": 1.0, "render_index": 0, "reverse": false, "speed": 1.0, "template_id": "", "template_scene": "default", "track_attribute": 0, "track_render_index": 0, "uniform_scale": "null", "visible": true, "responsive_layout": {"enable": false, "horizontal_pos_layout": 0, "size_layout": 0, "target_follow": "", "vertical_pos_layout": 0}, "id": "44EBD723-C3F0-5A7D-C2F4-0E332AB52A4A", "material_id": "470A0AE6-917E-0BDE-1168-96AFCB66499D", "source_timerange": {"duration": 2448000, "start": 0}, "target_timerange": {"duration": 2448000, "start": 836731000}, "volume": 1.0}, {"cartoon": false, "clip": "null", "common_keyframes": [], "enable_adjust": false, "enable_color_curves": true, "enable_color_match_adjust": false, "enable_color_wheels": true, "enable_lut": false, "enable_smart_color_adjust": false, "group_id": "", "hdr_settings": "null", "intensifies_audio": false, "is_placeholder": false, "is_tone_modify": false, "keyframe_refs": [], "last_nonzero_volume": 1.0, "render_index": 0, "reverse": false, "speed": 1.0, "template_id": "", "template_scene": "default", "track_attribute": 0, "track_render_index": 0, "uniform_scale": "null", "visible": true, "responsive_layout": {"enable": false, "horizontal_pos_layout": 0, "size_layout": 0, "target_follow": "", "vertical_pos_layout": 0}, "id": "59F2D51F-C574-6F9B-21D7-458777CD456C", "material_id": "4FC568A3-9974-603B-122B-EA9F46D3E6BE", "source_timerange": {"duration": 3792000, "start": 0}, "target_timerange": {"duration": 3792000, "start": 842738000}, "volume": 1.0}, {"cartoon": false, "clip": "null", "common_keyframes": [], "enable_adjust": false, "enable_color_curves": true, "enable_color_match_adjust": false, "enable_color_wheels": true, "enable_lut": false, "enable_smart_color_adjust": false, "group_id": "", "hdr_settings": "null", "intensifies_audio": false, "is_placeholder": false, "is_tone_modify": false, "keyframe_refs": [], "last_nonzero_volume": 1.0, "render_index": 0, "reverse": false, "speed": 1.0, "template_id": "", "template_scene": "default", "track_attribute": 0, "track_render_index": 0, "uniform_scale": "null", "visible": true, "responsive_layout": {"enable": false, "horizontal_pos_layout": 0, "size_layout": 0, "target_follow": "", "vertical_pos_layout": 0}, "id": "66F83825-E889-BEDC-E733-1F6B643617CB", "material_id": "F464C9ED-C81B-AF67-6782-E650F81C92B9", "source_timerange": {"duration": 2040000, "start": 0}, "target_timerange": {"duration": 2040000, "start": 850245000}, "volume": 1.0}, {"cartoon": false, "clip": "null", "common_keyframes": [], "enable_adjust": false, "enable_color_curves": true, "enable_color_match_adjust": false, "enable_color_wheels": true, "enable_lut": false, "enable_smart_color_adjust": false, "group_id": "", "hdr_settings": "null", "intensifies_audio": false, "is_placeholder": false, "is_tone_modify": false, "keyframe_refs": [], "last_nonzero_volume": 1.0, "render_index": 0, "reverse": false, "speed": 1.0, "template_id": "", "template_scene": "default", "track_attribute": 0, "track_render_index": 0, "uniform_scale": "null", "visible": true, "responsive_layout": {"enable": false, "horizontal_pos_layout": 0, "size_layout": 0, "target_follow": "", "vertical_pos_layout": 0}, "id": "06186168-4350-B5A7-7045-ADEB2550184E", "material_id": "73CF0806-8E5C-015A-FF49-E674B4AB0879", "source_timerange": {"duration": 3360000, "start": 0}, "target_timerange": {"duration": 3360000, "start": 853791000}, "volume": 1.0}, {"cartoon": false, "clip": "null", "common_keyframes": [], "enable_adjust": false, "enable_color_curves": true, "enable_color_match_adjust": false, "enable_color_wheels": true, "enable_lut": false, "enable_smart_color_adjust": false, "group_id": "", "hdr_settings": "null", "intensifies_audio": false, "is_placeholder": false, "is_tone_modify": false, "keyframe_refs": [], "last_nonzero_volume": 1.0, "render_index": 0, "reverse": false, "speed": 1.0, "template_id": "", "template_scene": "default", "track_attribute": 0, "track_render_index": 0, "uniform_scale": "null", "visible": true, "responsive_layout": {"enable": false, "horizontal_pos_layout": 0, "size_layout": 0, "target_follow": "", "vertical_pos_layout": 0}, "id": "11344D82-A91A-E886-B6A4-C8228741B3FF", "material_id": "F58CFD3A-4175-1F19-75B9-47F420B92821", "source_timerange": {"duration": 2832000, "start": 0}, "target_timerange": {"duration": 2832000, "start": 864301000}, "volume": 1.0}, {"cartoon": false, "clip": "null", "common_keyframes": [], "enable_adjust": false, "enable_color_curves": true, "enable_color_match_adjust": false, "enable_color_wheels": true, "enable_lut": false, "enable_smart_color_adjust": false, "group_id": "", "hdr_settings": "null", "intensifies_audio": false, "is_placeholder": false, "is_tone_modify": false, "keyframe_refs": [], "last_nonzero_volume": 1.0, "render_index": 0, "reverse": false, "speed": 1.0, "template_id": "", "template_scene": "default", "track_attribute": 0, "track_render_index": 0, "uniform_scale": "null", "visible": true, "responsive_layout": {"enable": false, "horizontal_pos_layout": 0, "size_layout": 0, "target_follow": "", "vertical_pos_layout": 0}, "id": "8741E90C-6109-CA20-6FE0-7B660247D7C7", "material_id": "B3A40D5C-9FF3-C0D5-9A7A-9D261168C459", "source_timerange": {"duration": 3288000, "start": 0}, "target_timerange": {"duration": 3288000, "start": 871892000}, "volume": 1.0}, {"cartoon": false, "clip": "null", "common_keyframes": [], "enable_adjust": false, "enable_color_curves": true, "enable_color_match_adjust": false, "enable_color_wheels": true, "enable_lut": false, "enable_smart_color_adjust": false, "group_id": "", "hdr_settings": "null", "intensifies_audio": false, "is_placeholder": false, "is_tone_modify": false, "keyframe_refs": [], "last_nonzero_volume": 1.0, "render_index": 0, "reverse": false, "speed": 1.0, "template_id": "", "template_scene": "default", "track_attribute": 0, "track_render_index": 0, "uniform_scale": "null", "visible": true, "responsive_layout": {"enable": false, "horizontal_pos_layout": 0, "size_layout": 0, "target_follow": "", "vertical_pos_layout": 0}, "id": "ADB6E81E-30F1-0F44-6321-B9E304AE121A", "material_id": "791A0226-4BCC-CDD7-072E-38F5536E6BE4", "source_timerange": {"duration": 1296000, "start": 0}, "target_timerange": {"duration": 1296000, "start": 897750000}, "volume": 1.0}, {"cartoon": false, "clip": "null", "common_keyframes": [], "enable_adjust": false, "enable_color_curves": true, "enable_color_match_adjust": false, "enable_color_wheels": true, "enable_lut": false, "enable_smart_color_adjust": false, "group_id": "", "hdr_settings": "null", "intensifies_audio": false, "is_placeholder": false, "is_tone_modify": false, "keyframe_refs": [], "last_nonzero_volume": 1.0, "render_index": 0, "reverse": false, "speed": 1.0, "template_id": "", "template_scene": "default", "track_attribute": 0, "track_render_index": 0, "uniform_scale": "null", "visible": true, "responsive_layout": {"enable": false, "horizontal_pos_layout": 0, "size_layout": 0, "target_follow": "", "vertical_pos_layout": 0}, "id": "74B56A85-35D1-629B-6EC0-6DD78AD1A0F8", "material_id": "64536ADD-EE96-5EA0-AAC1-77AF4BDB0F86", "source_timerange": {"duration": 1848000, "start": 0}, "target_timerange": {"duration": 1848000, "start": 900086000}, "volume": 1.0}, {"cartoon": false, "clip": "null", "common_keyframes": [], "enable_adjust": false, "enable_color_curves": true, "enable_color_match_adjust": false, "enable_color_wheels": true, "enable_lut": false, "enable_smart_color_adjust": false, "group_id": "", "hdr_settings": "null", "intensifies_audio": false, "is_placeholder": false, "is_tone_modify": false, "keyframe_refs": [], "last_nonzero_volume": 1.0, "render_index": 0, "reverse": false, "speed": 1.0, "template_id": "", "template_scene": "default", "track_attribute": 0, "track_render_index": 0, "uniform_scale": "null", "visible": true, "responsive_layout": {"enable": false, "horizontal_pos_layout": 0, "size_layout": 0, "target_follow": "", "vertical_pos_layout": 0}, "id": "B58422AC-1D0B-293F-A178-833084C92DE1", "material_id": "EEF02AAD-C374-29F0-7E8F-443241EE4A9D", "source_timerange": {"duration": 2088000, "start": 0}, "target_timerange": {"duration": 2088000, "start": 902464000}, "volume": 1.0}, {"cartoon": false, "clip": "null", "common_keyframes": [], "enable_adjust": false, "enable_color_curves": true, "enable_color_match_adjust": false, "enable_color_wheels": true, "enable_lut": false, "enable_smart_color_adjust": false, "group_id": "", "hdr_settings": "null", "intensifies_audio": false, "is_placeholder": false, "is_tone_modify": false, "keyframe_refs": [], "last_nonzero_volume": 1.0, "render_index": 0, "reverse": false, "speed": 1.0, "template_id": "", "template_scene": "default", "track_attribute": 0, "track_render_index": 0, "uniform_scale": "null", "visible": true, "responsive_layout": {"enable": false, "horizontal_pos_layout": 0, "size_layout": 0, "target_follow": "", "vertical_pos_layout": 0}, "id": "BCE01391-EB7F-927C-531F-601301CA8B76", "material_id": "F4D432D6-96E0-8F0D-0C76-58A4E74773C2", "source_timerange": {"duration": 2112000, "start": 0}, "target_timerange": {"duration": 2112000, "start": 904758000}, "volume": 1.0}, {"cartoon": false, "clip": "null", "common_keyframes": [], "enable_adjust": false, "enable_color_curves": true, "enable_color_match_adjust": false, "enable_color_wheels": true, "enable_lut": false, "enable_smart_color_adjust": false, "group_id": "", "hdr_settings": "null", "intensifies_audio": false, "is_placeholder": false, "is_tone_modify": false, "keyframe_refs": [], "last_nonzero_volume": 1.0, "render_index": 0, "reverse": false, "speed": 1.0, "template_id": "", "template_scene": "default", "track_attribute": 0, "track_render_index": 0, "uniform_scale": "null", "visible": true, "responsive_layout": {"enable": false, "horizontal_pos_layout": 0, "size_layout": 0, "target_follow": "", "vertical_pos_layout": 0}, "id": "4FA823F2-2CCA-0810-DD30-B4C76BEFA6A8", "material_id": "2937D3DD-8C77-2EDC-36E7-5EBE0CA2100F", "source_timerange": {"duration": 4392000, "start": 0}, "target_timerange": {"duration": 4392000, "start": 907677000}, "volume": 1.0}, {"cartoon": false, "clip": "null", "common_keyframes": [], "enable_adjust": false, "enable_color_curves": true, "enable_color_match_adjust": false, "enable_color_wheels": true, "enable_lut": false, "enable_smart_color_adjust": false, "group_id": "", "hdr_settings": "null", "intensifies_audio": false, "is_placeholder": false, "is_tone_modify": false, "keyframe_refs": [], "last_nonzero_volume": 1.0, "render_index": 0, "reverse": false, "speed": 1.0, "template_id": "", "template_scene": "default", "track_attribute": 0, "track_render_index": 0, "uniform_scale": "null", "visible": true, "responsive_layout": {"enable": false, "horizontal_pos_layout": 0, "size_layout": 0, "target_follow": "", "vertical_pos_layout": 0}, "id": "B9E53739-AC10-C49C-D473-9355183EFAC8", "material_id": "9861F48F-7C5E-325A-1707-9199FA6E55A0", "source_timerange": {"duration": 2664000, "start": 0}, "target_timerange": {"duration": 2664000, "start": 916687000}, "volume": 1.0}, {"cartoon": false, "clip": "null", "common_keyframes": [], "enable_adjust": false, "enable_color_curves": true, "enable_color_match_adjust": false, "enable_color_wheels": true, "enable_lut": false, "enable_smart_color_adjust": false, "group_id": "", "hdr_settings": "null", "intensifies_audio": false, "is_placeholder": false, "is_tone_modify": false, "keyframe_refs": [], "last_nonzero_volume": 1.0, "render_index": 0, "reverse": false, "speed": 1.0, "template_id": "", "template_scene": "default", "track_attribute": 0, "track_render_index": 0, "uniform_scale": "null", "visible": true, "responsive_layout": {"enable": false, "horizontal_pos_layout": 0, "size_layout": 0, "target_follow": "", "vertical_pos_layout": 0}, "id": "E4094BCB-D937-F7E8-1F0D-F3D07D3863E7", "material_id": "F57D9C7F-3032-0215-30F8-583E315E713B", "source_timerange": {"duration": 2208000, "start": 0}, "target_timerange": {"duration": 2208000, "start": 923985000}, "volume": 1.0}, {"cartoon": false, "clip": "null", "common_keyframes": [], "enable_adjust": false, "enable_color_curves": true, "enable_color_match_adjust": false, "enable_color_wheels": true, "enable_lut": false, "enable_smart_color_adjust": false, "group_id": "", "hdr_settings": "null", "intensifies_audio": false, "is_placeholder": false, "is_tone_modify": false, "keyframe_refs": [], "last_nonzero_volume": 1.0, "render_index": 0, "reverse": false, "speed": 1.0, "template_id": "", "template_scene": "default", "track_attribute": 0, "track_render_index": 0, "uniform_scale": "null", "visible": true, "responsive_layout": {"enable": false, "horizontal_pos_layout": 0, "size_layout": 0, "target_follow": "", "vertical_pos_layout": 0}, "id": "09C6A6F2-36E6-4469-A29E-CA42DCCCF226", "material_id": "6AF4B13E-DCEE-FAB1-C4D0-3F81330F72FA", "source_timerange": {"duration": 2736000, "start": 0}, "target_timerange": {"duration": 2736000, "start": 928657000}, "volume": 1.0}, {"cartoon": false, "clip": "null", "common_keyframes": [], "enable_adjust": false, "enable_color_curves": true, "enable_color_match_adjust": false, "enable_color_wheels": true, "enable_lut": false, "enable_smart_color_adjust": false, "group_id": "", "hdr_settings": "null", "intensifies_audio": false, "is_placeholder": false, "is_tone_modify": false, "keyframe_refs": [], "last_nonzero_volume": 1.0, "render_index": 0, "reverse": false, "speed": 1.0, "template_id": "", "template_scene": "default", "track_attribute": 0, "track_render_index": 0, "uniform_scale": "null", "visible": true, "responsive_layout": {"enable": false, "horizontal_pos_layout": 0, "size_layout": 0, "target_follow": "", "vertical_pos_layout": 0}, "id": "DB19FA11-8AE2-208E-6C77-06E589987AF8", "material_id": "6A28008C-915D-C6A0-B6A0-F4A722709D9D", "source_timerange": {"duration": 1944000, "start": 0}, "target_timerange": {"duration": 1944000, "start": 933077000}, "volume": 1.0}, {"cartoon": false, "clip": "null", "common_keyframes": [], "enable_adjust": false, "enable_color_curves": true, "enable_color_match_adjust": false, "enable_color_wheels": true, "enable_lut": false, "enable_smart_color_adjust": false, "group_id": "", "hdr_settings": "null", "intensifies_audio": false, "is_placeholder": false, "is_tone_modify": false, "keyframe_refs": [], "last_nonzero_volume": 1.0, "render_index": 0, "reverse": false, "speed": 1.0, "template_id": "", "template_scene": "default", "track_attribute": 0, "track_render_index": 0, "uniform_scale": "null", "visible": true, "responsive_layout": {"enable": false, "horizontal_pos_layout": 0, "size_layout": 0, "target_follow": "", "vertical_pos_layout": 0}, "id": "3F84C480-59EF-3942-8CC0-8F198066EDFA", "material_id": "EF9F82A7-AD76-E1EF-0A9B-F3210B556A9D", "source_timerange": {"duration": 2640000, "start": 0}, "target_timerange": {"duration": 2640000, "start": 938792000}, "volume": 1.0}, {"cartoon": false, "clip": "null", "common_keyframes": [], "enable_adjust": false, "enable_color_curves": true, "enable_color_match_adjust": false, "enable_color_wheels": true, "enable_lut": false, "enable_smart_color_adjust": false, "group_id": "", "hdr_settings": "null", "intensifies_audio": false, "is_placeholder": false, "is_tone_modify": false, "keyframe_refs": [], "last_nonzero_volume": 1.0, "render_index": 0, "reverse": false, "speed": 1.0, "template_id": "", "template_scene": "default", "track_attribute": 0, "track_render_index": 0, "uniform_scale": "null", "visible": true, "responsive_layout": {"enable": false, "horizontal_pos_layout": 0, "size_layout": 0, "target_follow": "", "vertical_pos_layout": 0}, "id": "B735594E-F5FF-736C-2CD7-68B36AD46B43", "material_id": "368086C8-F979-DEEC-2AB6-7DC3B07480D7", "source_timerange": {"duration": 2376000, "start": 0}, "target_timerange": {"duration": 2376000, "start": 945381000}, "volume": 1.0}, {"cartoon": false, "clip": "null", "common_keyframes": [], "enable_adjust": false, "enable_color_curves": true, "enable_color_match_adjust": false, "enable_color_wheels": true, "enable_lut": false, "enable_smart_color_adjust": false, "group_id": "", "hdr_settings": "null", "intensifies_audio": false, "is_placeholder": false, "is_tone_modify": false, "keyframe_refs": [], "last_nonzero_volume": 1.0, "render_index": 0, "reverse": false, "speed": 1.0, "template_id": "", "template_scene": "default", "track_attribute": 0, "track_render_index": 0, "uniform_scale": "null", "visible": true, "responsive_layout": {"enable": false, "horizontal_pos_layout": 0, "size_layout": 0, "target_follow": "", "vertical_pos_layout": 0}, "id": "89856E72-8198-34A7-8668-DA40B8085E88", "material_id": "BC46079E-4758-40BA-4DBE-E5ACA6114553", "source_timerange": {"duration": 4704000, "start": 0}, "target_timerange": {"duration": 4704000, "start": 950470000}, "volume": 1.0}, {"cartoon": false, "clip": "null", "common_keyframes": [], "enable_adjust": false, "enable_color_curves": true, "enable_color_match_adjust": false, "enable_color_wheels": true, "enable_lut": false, "enable_smart_color_adjust": false, "group_id": "", "hdr_settings": "null", "intensifies_audio": false, "is_placeholder": false, "is_tone_modify": false, "keyframe_refs": [], "last_nonzero_volume": 1.0, "render_index": 0, "reverse": false, "speed": 1.0, "template_id": "", "template_scene": "default", "track_attribute": 0, "track_render_index": 0, "uniform_scale": "null", "visible": true, "responsive_layout": {"enable": false, "horizontal_pos_layout": 0, "size_layout": 0, "target_follow": "", "vertical_pos_layout": 0}, "id": "5BE5532D-F7B5-9F96-3E04-19D7E012DDC7", "material_id": "DB578462-3DFA-89BE-88D2-C6636C07D26E", "source_timerange": {"duration": 2064000, "start": 0}, "target_timerange": {"duration": 2064000, "start": 958144000}, "volume": 1.0}, {"cartoon": false, "clip": "null", "common_keyframes": [], "enable_adjust": false, "enable_color_curves": true, "enable_color_match_adjust": false, "enable_color_wheels": true, "enable_lut": false, "enable_smart_color_adjust": false, "group_id": "", "hdr_settings": "null", "intensifies_audio": false, "is_placeholder": false, "is_tone_modify": false, "keyframe_refs": [], "last_nonzero_volume": 1.0, "render_index": 0, "reverse": false, "speed": 1.0, "template_id": "", "template_scene": "default", "track_attribute": 0, "track_render_index": 0, "uniform_scale": "null", "visible": true, "responsive_layout": {"enable": false, "horizontal_pos_layout": 0, "size_layout": 0, "target_follow": "", "vertical_pos_layout": 0}, "id": "4E3753A9-D522-8180-D60C-7F00BD47BCE0", "material_id": "DBEC525F-F9E3-82FF-2245-70CA9BF3B3BC", "source_timerange": {"duration": 2040000, "start": 0}, "target_timerange": {"duration": 2040000, "start": 961731000}, "volume": 1.0}, {"cartoon": false, "clip": "null", "common_keyframes": [], "enable_adjust": false, "enable_color_curves": true, "enable_color_match_adjust": false, "enable_color_wheels": true, "enable_lut": false, "enable_smart_color_adjust": false, "group_id": "", "hdr_settings": "null", "intensifies_audio": false, "is_placeholder": false, "is_tone_modify": false, "keyframe_refs": [], "last_nonzero_volume": 1.0, "render_index": 0, "reverse": false, "speed": 1.0, "template_id": "", "template_scene": "default", "track_attribute": 0, "track_render_index": 0, "uniform_scale": "null", "visible": true, "responsive_layout": {"enable": false, "horizontal_pos_layout": 0, "size_layout": 0, "target_follow": "", "vertical_pos_layout": 0}, "id": "A540D187-3999-5CFA-7FD6-85D424B3FF19", "material_id": "C2C602BD-8035-F6FA-BA30-00A0DB4DA11B", "source_timerange": {"duration": 1416000, "start": 0}, "target_timerange": {"duration": 1416000, "start": 965110000}, "volume": 1.0}, {"cartoon": false, "clip": "null", "common_keyframes": [], "enable_adjust": false, "enable_color_curves": true, "enable_color_match_adjust": false, "enable_color_wheels": true, "enable_lut": false, "enable_smart_color_adjust": false, "group_id": "", "hdr_settings": "null", "intensifies_audio": false, "is_placeholder": false, "is_tone_modify": false, "keyframe_refs": [], "last_nonzero_volume": 1.0, "render_index": 0, "reverse": false, "speed": 1.0, "template_id": "", "template_scene": "default", "track_attribute": 0, "track_render_index": 0, "uniform_scale": "null", "visible": true, "responsive_layout": {"enable": false, "horizontal_pos_layout": 0, "size_layout": 0, "target_follow": "", "vertical_pos_layout": 0}, "id": "32314F83-7EB9-E8F4-C406-64B0207C9891", "material_id": "16BD4119-9CA9-D91E-4B95-E8669D13369E", "source_timerange": {"duration": 3336000, "start": 0}, "target_timerange": {"duration": 3336000, "start": 968154000}, "volume": 1.0}, {"cartoon": false, "clip": "null", "common_keyframes": [], "enable_adjust": false, "enable_color_curves": true, "enable_color_match_adjust": false, "enable_color_wheels": true, "enable_lut": false, "enable_smart_color_adjust": false, "group_id": "", "hdr_settings": "null", "intensifies_audio": false, "is_placeholder": false, "is_tone_modify": false, "keyframe_refs": [], "last_nonzero_volume": 1.0, "render_index": 0, "reverse": false, "speed": 1.0, "template_id": "", "template_scene": "default", "track_attribute": 0, "track_render_index": 0, "uniform_scale": "null", "visible": true, "responsive_layout": {"enable": false, "horizontal_pos_layout": 0, "size_layout": 0, "target_follow": "", "vertical_pos_layout": 0}, "id": "0DC39814-792D-2283-49E8-CAED7F595159", "material_id": "17CE0D0D-5BB7-657A-3C90-1E34917B5003", "source_timerange": {"duration": 1320000, "start": 0}, "target_timerange": {"duration": 1320000, "start": 972951000}, "volume": 1.0}, {"cartoon": false, "clip": "null", "common_keyframes": [], "enable_adjust": false, "enable_color_curves": true, "enable_color_match_adjust": false, "enable_color_wheels": true, "enable_lut": false, "enable_smart_color_adjust": false, "group_id": "", "hdr_settings": "null", "intensifies_audio": false, "is_placeholder": false, "is_tone_modify": false, "keyframe_refs": [], "last_nonzero_volume": 1.0, "render_index": 0, "reverse": false, "speed": 1.0, "template_id": "", "template_scene": "default", "track_attribute": 0, "track_render_index": 0, "uniform_scale": "null", "visible": true, "responsive_layout": {"enable": false, "horizontal_pos_layout": 0, "size_layout": 0, "target_follow": "", "vertical_pos_layout": 0}, "id": "2BF5DC32-3E7E-BAEB-46CB-46C4BA26CADA", "material_id": "33E75866-AF91-8EB9-E138-2E929667C09D", "source_timerange": {"duration": 2976000, "start": 0}, "target_timerange": {"duration": 2976000, "start": 976788000}, "volume": 1.0}, {"cartoon": false, "clip": "null", "common_keyframes": [], "enable_adjust": false, "enable_color_curves": true, "enable_color_match_adjust": false, "enable_color_wheels": true, "enable_lut": false, "enable_smart_color_adjust": false, "group_id": "", "hdr_settings": "null", "intensifies_audio": false, "is_placeholder": false, "is_tone_modify": false, "keyframe_refs": [], "last_nonzero_volume": 1.0, "render_index": 0, "reverse": false, "speed": 1.0, "template_id": "", "template_scene": "default", "track_attribute": 0, "track_render_index": 0, "uniform_scale": "null", "visible": true, "responsive_layout": {"enable": false, "horizontal_pos_layout": 0, "size_layout": 0, "target_follow": "", "vertical_pos_layout": 0}, "id": "68D167B0-7600-1B6B-C274-5566BF24E40E", "material_id": "E925BEF8-6666-17E2-2FF7-FE4F5F34327A", "source_timerange": {"duration": 3744000, "start": 0}, "target_timerange": {"duration": 3744000, "start": 980958000}, "volume": 1.0}, {"cartoon": false, "clip": "null", "common_keyframes": [], "enable_adjust": false, "enable_color_curves": true, "enable_color_match_adjust": false, "enable_color_wheels": true, "enable_lut": false, "enable_smart_color_adjust": false, "group_id": "", "hdr_settings": "null", "intensifies_audio": false, "is_placeholder": false, "is_tone_modify": false, "keyframe_refs": [], "last_nonzero_volume": 1.0, "render_index": 0, "reverse": false, "speed": 1.0, "template_id": "", "template_scene": "default", "track_attribute": 0, "track_render_index": 0, "uniform_scale": "null", "visible": true, "responsive_layout": {"enable": false, "horizontal_pos_layout": 0, "size_layout": 0, "target_follow": "", "vertical_pos_layout": 0}, "id": "A2342C5B-AB99-FFC0-11B5-B277ACBE7C4C", "material_id": "B8ACDD8B-35C2-1C1A-7D16-71B765FA5D60", "source_timerange": {"duration": 2088000, "start": 0}, "target_timerange": {"duration": 2088000, "start": 986715000}, "volume": 1.0}, {"cartoon": false, "clip": "null", "common_keyframes": [], "enable_adjust": false, "enable_color_curves": true, "enable_color_match_adjust": false, "enable_color_wheels": true, "enable_lut": false, "enable_smart_color_adjust": false, "group_id": "", "hdr_settings": "null", "intensifies_audio": false, "is_placeholder": false, "is_tone_modify": false, "keyframe_refs": [], "last_nonzero_volume": 1.0, "render_index": 0, "reverse": false, "speed": 1.0, "template_id": "", "template_scene": "default", "track_attribute": 0, "track_render_index": 0, "uniform_scale": "null", "visible": true, "responsive_layout": {"enable": false, "horizontal_pos_layout": 0, "size_layout": 0, "target_follow": "", "vertical_pos_layout": 0}, "id": "E27C5828-72B7-52F9-A3F6-38569FEE719B", "material_id": "7E5885DD-C5D9-EA2A-5F2C-830B2BC377ED", "source_timerange": {"duration": 2136000, "start": 0}, "target_timerange": {"duration": 2136000, "start": 993304000}, "volume": 1.0}, {"cartoon": false, "clip": "null", "common_keyframes": [], "enable_adjust": false, "enable_color_curves": true, "enable_color_match_adjust": false, "enable_color_wheels": true, "enable_lut": false, "enable_smart_color_adjust": false, "group_id": "", "hdr_settings": "null", "intensifies_audio": false, "is_placeholder": false, "is_tone_modify": false, "keyframe_refs": [], "last_nonzero_volume": 1.0, "render_index": 0, "reverse": false, "speed": 1.0, "template_id": "", "template_scene": "default", "track_attribute": 0, "track_render_index": 0, "uniform_scale": "null", "visible": true, "responsive_layout": {"enable": false, "horizontal_pos_layout": 0, "size_layout": 0, "target_follow": "", "vertical_pos_layout": 0}, "id": "B2F3CF9A-06CC-B2E9-5CAA-227C6607F0FD", "material_id": "5D09AAC9-EA19-C508-05C1-A38A7C74C79B", "source_timerange": {"duration": 1224000, "start": 0}, "target_timerange": {"duration": 1224000, "start": 996432000}, "volume": 1.0}, {"cartoon": false, "clip": "null", "common_keyframes": [], "enable_adjust": false, "enable_color_curves": true, "enable_color_match_adjust": false, "enable_color_wheels": true, "enable_lut": false, "enable_smart_color_adjust": false, "group_id": "", "hdr_settings": "null", "intensifies_audio": false, "is_placeholder": false, "is_tone_modify": false, "keyframe_refs": [], "last_nonzero_volume": 1.0, "render_index": 0, "reverse": false, "speed": 1.0, "template_id": "", "template_scene": "default", "track_attribute": 0, "track_render_index": 0, "uniform_scale": "null", "visible": true, "responsive_layout": {"enable": false, "horizontal_pos_layout": 0, "size_layout": 0, "target_follow": "", "vertical_pos_layout": 0}, "id": "1952380D-1C23-7D96-E703-0573FF05B893", "material_id": "8F7F37D5-84F5-812F-B662-DCBB82F7EEDF", "source_timerange": {"duration": 3024000, "start": 0}, "target_timerange": {"duration": 3024000, "start": 999019000}, "volume": 1.0}, {"cartoon": false, "clip": "null", "common_keyframes": [], "enable_adjust": false, "enable_color_curves": true, "enable_color_match_adjust": false, "enable_color_wheels": true, "enable_lut": false, "enable_smart_color_adjust": false, "group_id": "", "hdr_settings": "null", "intensifies_audio": false, "is_placeholder": false, "is_tone_modify": false, "keyframe_refs": [], "last_nonzero_volume": 1.0, "render_index": 0, "reverse": false, "speed": 1.0, "template_id": "", "template_scene": "default", "track_attribute": 0, "track_render_index": 0, "uniform_scale": "null", "visible": true, "responsive_layout": {"enable": false, "horizontal_pos_layout": 0, "size_layout": 0, "target_follow": "", "vertical_pos_layout": 0}, "id": "EE87EF10-E714-E363-56A5-B98EF1FAB4C1", "material_id": "0A3734FF-C0E6-5E0C-43FB-235C5F6B46A7", "source_timerange": {"duration": 2304000, "start": 0}, "target_timerange": {"duration": 2304000, "start": 1003481000}, "volume": 1.0}, {"cartoon": false, "clip": "null", "common_keyframes": [], "enable_adjust": false, "enable_color_curves": true, "enable_color_match_adjust": false, "enable_color_wheels": true, "enable_lut": false, "enable_smart_color_adjust": false, "group_id": "", "hdr_settings": "null", "intensifies_audio": false, "is_placeholder": false, "is_tone_modify": false, "keyframe_refs": [], "last_nonzero_volume": 1.0, "render_index": 0, "reverse": false, "speed": 1.0, "template_id": "", "template_scene": "default", "track_attribute": 0, "track_render_index": 0, "uniform_scale": "null", "visible": true, "responsive_layout": {"enable": false, "horizontal_pos_layout": 0, "size_layout": 0, "target_follow": "", "vertical_pos_layout": 0}, "id": "71C233A5-7E61-70C3-D11F-26CEA27497D3", "material_id": "DD296191-6BEC-F45E-630F-319772E7766D", "source_timerange": {"duration": 1776000, "start": 0}, "target_timerange": {"duration": 1776000, "start": 1009403000}, "volume": 1.0}, {"cartoon": false, "clip": "null", "common_keyframes": [], "enable_adjust": false, "enable_color_curves": true, "enable_color_match_adjust": false, "enable_color_wheels": true, "enable_lut": false, "enable_smart_color_adjust": false, "group_id": "", "hdr_settings": "null", "intensifies_audio": false, "is_placeholder": false, "is_tone_modify": false, "keyframe_refs": [], "last_nonzero_volume": 1.0, "render_index": 0, "reverse": false, "speed": 1.0, "template_id": "", "template_scene": "default", "track_attribute": 0, "track_render_index": 0, "uniform_scale": "null", "visible": true, "responsive_layout": {"enable": false, "horizontal_pos_layout": 0, "size_layout": 0, "target_follow": "", "vertical_pos_layout": 0}, "id": "90A05E7D-E4A2-F14F-A5B0-FF64816C696F", "material_id": "6CB9A3E9-BBE8-3A2A-7C9B-FC71248C7F7F", "source_timerange": {"duration": 3792000, "start": 0}, "target_timerange": {"duration": 3792000, "start": 1017078000}, "volume": 1.0}, {"cartoon": false, "clip": "null", "common_keyframes": [], "enable_adjust": false, "enable_color_curves": true, "enable_color_match_adjust": false, "enable_color_wheels": true, "enable_lut": false, "enable_smart_color_adjust": false, "group_id": "", "hdr_settings": "null", "intensifies_audio": false, "is_placeholder": false, "is_tone_modify": false, "keyframe_refs": [], "last_nonzero_volume": 1.0, "render_index": 0, "reverse": false, "speed": 1.0, "template_id": "", "template_scene": "default", "track_attribute": 0, "track_render_index": 0, "uniform_scale": "null", "visible": true, "responsive_layout": {"enable": false, "horizontal_pos_layout": 0, "size_layout": 0, "target_follow": "", "vertical_pos_layout": 0}, "id": "B411234E-4B69-C266-8DDE-83E992D1B399", "material_id": "07C894A8-5B8D-190D-5F82-0C75CC5AFB1D", "source_timerange": {"duration": 3336000, "start": 0}, "target_timerange": {"duration": 3336000, "start": 1024086000}, "volume": 1.0}, {"cartoon": false, "clip": "null", "common_keyframes": [], "enable_adjust": false, "enable_color_curves": true, "enable_color_match_adjust": false, "enable_color_wheels": true, "enable_lut": false, "enable_smart_color_adjust": false, "group_id": "", "hdr_settings": "null", "intensifies_audio": false, "is_placeholder": false, "is_tone_modify": false, "keyframe_refs": [], "last_nonzero_volume": 1.0, "render_index": 0, "reverse": false, "speed": 1.0, "template_id": "", "template_scene": "default", "track_attribute": 0, "track_render_index": 0, "uniform_scale": "null", "visible": true, "responsive_layout": {"enable": false, "horizontal_pos_layout": 0, "size_layout": 0, "target_follow": "", "vertical_pos_layout": 0}, "id": "3D0B4D67-4E2D-04C4-3A1A-C4496D2903FB", "material_id": "2776EA2D-A4E5-7292-CE79-8A4D97FE1C67", "source_timerange": {"duration": 3720000, "start": 0}, "target_timerange": {"duration": 3720000, "start": 1030259000}, "volume": 1.0}, {"cartoon": false, "clip": "null", "common_keyframes": [], "enable_adjust": false, "enable_color_curves": true, "enable_color_match_adjust": false, "enable_color_wheels": true, "enable_lut": false, "enable_smart_color_adjust": false, "group_id": "", "hdr_settings": "null", "intensifies_audio": false, "is_placeholder": false, "is_tone_modify": false, "keyframe_refs": [], "last_nonzero_volume": 1.0, "render_index": 0, "reverse": false, "speed": 1.0, "template_id": "", "template_scene": "default", "track_attribute": 0, "track_render_index": 0, "uniform_scale": "null", "visible": true, "responsive_layout": {"enable": false, "horizontal_pos_layout": 0, "size_layout": 0, "target_follow": "", "vertical_pos_layout": 0}, "id": "F307918B-3480-42F8-1D49-BF1968EE4001", "material_id": "A2DE3A13-39AC-E986-37BA-DBE430C8B205", "source_timerange": {"duration": 2712000, "start": 0}, "target_timerange": {"duration": 2712000, "start": 1035471000}, "volume": 1.0}, {"cartoon": false, "clip": "null", "common_keyframes": [], "enable_adjust": false, "enable_color_curves": true, "enable_color_match_adjust": false, "enable_color_wheels": true, "enable_lut": false, "enable_smart_color_adjust": false, "group_id": "", "hdr_settings": "null", "intensifies_audio": false, "is_placeholder": false, "is_tone_modify": false, "keyframe_refs": [], "last_nonzero_volume": 1.0, "render_index": 0, "reverse": false, "speed": 1.0, "template_id": "", "template_scene": "default", "track_attribute": 0, "track_render_index": 0, "uniform_scale": "null", "visible": true, "responsive_layout": {"enable": false, "horizontal_pos_layout": 0, "size_layout": 0, "target_follow": "", "vertical_pos_layout": 0}, "id": "213BF201-A95A-E98C-2A18-B61132F92F0F", "material_id": "6210307E-9497-23AE-E8DF-76AF7BFCCA67", "source_timerange": {"duration": 1872000, "start": 0}, "target_timerange": {"duration": 1872000, "start": 1039601000}, "volume": 1.0}, {"cartoon": false, "clip": "null", "common_keyframes": [], "enable_adjust": false, "enable_color_curves": true, "enable_color_match_adjust": false, "enable_color_wheels": true, "enable_lut": false, "enable_smart_color_adjust": false, "group_id": "", "hdr_settings": "null", "intensifies_audio": false, "is_placeholder": false, "is_tone_modify": false, "keyframe_refs": [], "last_nonzero_volume": 1.0, "render_index": 0, "reverse": false, "speed": 1.0, "template_id": "", "template_scene": "default", "track_attribute": 0, "track_render_index": 0, "uniform_scale": "null", "visible": true, "responsive_layout": {"enable": false, "horizontal_pos_layout": 0, "size_layout": 0, "target_follow": "", "vertical_pos_layout": 0}, "id": "DE56A3BF-0394-943B-1B63-50E1E759E083", "material_id": "A60AB88C-298F-6695-A735-2FF4546344BC", "source_timerange": {"duration": 2616000, "start": 0}, "target_timerange": {"duration": 2616000, "start": 1042436000}, "volume": 1.0}, {"cartoon": false, "clip": "null", "common_keyframes": [], "enable_adjust": false, "enable_color_curves": true, "enable_color_match_adjust": false, "enable_color_wheels": true, "enable_lut": false, "enable_smart_color_adjust": false, "group_id": "", "hdr_settings": "null", "intensifies_audio": false, "is_placeholder": false, "is_tone_modify": false, "keyframe_refs": [], "last_nonzero_volume": 1.0, "render_index": 0, "reverse": false, "speed": 1.0, "template_id": "", "template_scene": "default", "track_attribute": 0, "track_render_index": 0, "uniform_scale": "null", "visible": true, "responsive_layout": {"enable": false, "horizontal_pos_layout": 0, "size_layout": 0, "target_follow": "", "vertical_pos_layout": 0}, "id": "AB0C80F4-4E5F-444C-6AB7-5FF8BB09CF8E", "material_id": "41E6E87B-1583-15B8-1A4F-D91B290B625B", "source_timerange": {"duration": 2376000, "start": 0}, "target_timerange": {"duration": 2376000, "start": 1054950000}, "volume": 1.0}, {"cartoon": false, "clip": "null", "common_keyframes": [], "enable_adjust": false, "enable_color_curves": true, "enable_color_match_adjust": false, "enable_color_wheels": true, "enable_lut": false, "enable_smart_color_adjust": false, "group_id": "", "hdr_settings": "null", "intensifies_audio": false, "is_placeholder": false, "is_tone_modify": false, "keyframe_refs": [], "last_nonzero_volume": 1.0, "render_index": 0, "reverse": false, "speed": 1.0, "template_id": "", "template_scene": "default", "track_attribute": 0, "track_render_index": 0, "uniform_scale": "null", "visible": true, "responsive_layout": {"enable": false, "horizontal_pos_layout": 0, "size_layout": 0, "target_follow": "", "vertical_pos_layout": 0}, "id": "9D98C0EE-C653-1700-76B3-32E40F8F9891", "material_id": "42802562-82ED-573A-2ED3-1FB8119B2345", "source_timerange": {"duration": 3168000, "start": 0}, "target_timerange": {"duration": 3168000, "start": 1058412000}, "volume": 1.0}, {"cartoon": false, "clip": "null", "common_keyframes": [], "enable_adjust": false, "enable_color_curves": true, "enable_color_match_adjust": false, "enable_color_wheels": true, "enable_lut": false, "enable_smart_color_adjust": false, "group_id": "", "hdr_settings": "null", "intensifies_audio": false, "is_placeholder": false, "is_tone_modify": false, "keyframe_refs": [], "last_nonzero_volume": 1.0, "render_index": 0, "reverse": false, "speed": 1.0, "template_id": "", "template_scene": "default", "track_attribute": 0, "track_render_index": 0, "uniform_scale": "null", "visible": true, "responsive_layout": {"enable": false, "horizontal_pos_layout": 0, "size_layout": 0, "target_follow": "", "vertical_pos_layout": 0}, "id": "48A869AE-C869-ED42-BF39-CECCEE06C796", "material_id": "C248B8A3-62A4-B4F1-EE40-A00E89B547B7", "source_timerange": {"duration": 2088000, "start": 0}, "target_timerange": {"duration": 2088000, "start": 1071883000}, "volume": 1.0}, {"cartoon": false, "clip": "null", "common_keyframes": [], "enable_adjust": false, "enable_color_curves": true, "enable_color_match_adjust": false, "enable_color_wheels": true, "enable_lut": false, "enable_smart_color_adjust": false, "group_id": "", "hdr_settings": "null", "intensifies_audio": false, "is_placeholder": false, "is_tone_modify": false, "keyframe_refs": [], "last_nonzero_volume": 1.0, "render_index": 0, "reverse": false, "speed": 1.0, "template_id": "", "template_scene": "default", "track_attribute": 0, "track_render_index": 0, "uniform_scale": "null", "visible": true, "responsive_layout": {"enable": false, "horizontal_pos_layout": 0, "size_layout": 0, "target_follow": "", "vertical_pos_layout": 0}, "id": "226D75CF-8DDD-3341-D349-D243982A8522", "material_id": "88C37B70-4D22-1077-BD73-9386FE72D540", "source_timerange": {"duration": 2952000, "start": 0}, "target_timerange": {"duration": 2952000, "start": 1081643000}, "volume": 1.0}, {"cartoon": false, "clip": "null", "common_keyframes": [], "enable_adjust": false, "enable_color_curves": true, "enable_color_match_adjust": false, "enable_color_wheels": true, "enable_lut": false, "enable_smart_color_adjust": false, "group_id": "", "hdr_settings": "null", "intensifies_audio": false, "is_placeholder": false, "is_tone_modify": false, "keyframe_refs": [], "last_nonzero_volume": 1.0, "render_index": 0, "reverse": false, "speed": 1.0, "template_id": "", "template_scene": "default", "track_attribute": 0, "track_render_index": 0, "uniform_scale": "null", "visible": true, "responsive_layout": {"enable": false, "horizontal_pos_layout": 0, "size_layout": 0, "target_follow": "", "vertical_pos_layout": 0}, "id": "E8FFD89D-765A-272A-A2A5-1C1032602B65", "material_id": "FC265E25-F180-1070-5A97-E5AD977A7887", "source_timerange": {"duration": 1488000, "start": 0}, "target_timerange": {"duration": 1488000, "start": 1085855000}, "volume": 1.0}, {"cartoon": false, "clip": "null", "common_keyframes": [], "enable_adjust": false, "enable_color_curves": true, "enable_color_match_adjust": false, "enable_color_wheels": true, "enable_lut": false, "enable_smart_color_adjust": false, "group_id": "", "hdr_settings": "null", "intensifies_audio": false, "is_placeholder": false, "is_tone_modify": false, "keyframe_refs": [], "last_nonzero_volume": 1.0, "render_index": 0, "reverse": false, "speed": 1.0, "template_id": "", "template_scene": "default", "track_attribute": 0, "track_render_index": 0, "uniform_scale": "null", "visible": true, "responsive_layout": {"enable": false, "horizontal_pos_layout": 0, "size_layout": 0, "target_follow": "", "vertical_pos_layout": 0}, "id": "F9A2410F-2D6F-2DDD-8B51-41B6E727C3B2", "material_id": "671D6296-6251-50ED-58E0-391EE3D80A21", "source_timerange": {"duration": 3024000, "start": 0}, "target_timerange": {"duration": 3024000, "start": 1088900000}, "volume": 1.0}, {"cartoon": false, "clip": "null", "common_keyframes": [], "enable_adjust": false, "enable_color_curves": true, "enable_color_match_adjust": false, "enable_color_wheels": true, "enable_lut": false, "enable_smart_color_adjust": false, "group_id": "", "hdr_settings": "null", "intensifies_audio": false, "is_placeholder": false, "is_tone_modify": false, "keyframe_refs": [], "last_nonzero_volume": 1.0, "render_index": 0, "reverse": false, "speed": 1.0, "template_id": "", "template_scene": "default", "track_attribute": 0, "track_render_index": 0, "uniform_scale": "null", "visible": true, "responsive_layout": {"enable": false, "horizontal_pos_layout": 0, "size_layout": 0, "target_follow": "", "vertical_pos_layout": 0}, "id": "C2C11736-CA8C-AF32-DA89-5191A43B6F89", "material_id": "813B07D7-C076-2D17-52A8-631F0D3BD7C9", "source_timerange": {"duration": 2592000, "start": 0}, "target_timerange": {"duration": 2592000, "start": 1095324000}, "volume": 1.0}, {"cartoon": false, "clip": "null", "common_keyframes": [], "enable_adjust": false, "enable_color_curves": true, "enable_color_match_adjust": false, "enable_color_wheels": true, "enable_lut": false, "enable_smart_color_adjust": false, "group_id": "", "hdr_settings": "null", "intensifies_audio": false, "is_placeholder": false, "is_tone_modify": false, "keyframe_refs": [], "last_nonzero_volume": 1.0, "render_index": 0, "reverse": false, "speed": 1.0, "template_id": "", "template_scene": "default", "track_attribute": 0, "track_render_index": 0, "uniform_scale": "null", "visible": true, "responsive_layout": {"enable": false, "horizontal_pos_layout": 0, "size_layout": 0, "target_follow": "", "vertical_pos_layout": 0}, "id": "9BBFB151-53EE-3D4E-6010-5F7495605237", "material_id": "975FE9E9-1194-29C7-4755-1FBA792F1521", "source_timerange": {"duration": 1392000, "start": 0}, "target_timerange": {"duration": 1392000, "start": 1098160000}, "volume": 1.0}, {"cartoon": false, "clip": "null", "common_keyframes": [], "enable_adjust": false, "enable_color_curves": true, "enable_color_match_adjust": false, "enable_color_wheels": true, "enable_lut": false, "enable_smart_color_adjust": false, "group_id": "", "hdr_settings": "null", "intensifies_audio": false, "is_placeholder": false, "is_tone_modify": false, "keyframe_refs": [], "last_nonzero_volume": 1.0, "render_index": 0, "reverse": false, "speed": 1.0, "template_id": "", "template_scene": "default", "track_attribute": 0, "track_render_index": 0, "uniform_scale": "null", "visible": true, "responsive_layout": {"enable": false, "horizontal_pos_layout": 0, "size_layout": 0, "target_follow": "", "vertical_pos_layout": 0}, "id": "6D0A21BC-0646-0CBB-345B-0B8D3620CE0E", "material_id": "F7525470-F84D-DAE8-D8A1-14DFCDE5B0F8", "source_timerange": {"duration": 1944000, "start": 0}, "target_timerange": {"duration": 1944000, "start": 1101747000}, "volume": 1.0}, {"cartoon": false, "clip": "null", "common_keyframes": [], "enable_adjust": false, "enable_color_curves": true, "enable_color_match_adjust": false, "enable_color_wheels": true, "enable_lut": false, "enable_smart_color_adjust": false, "group_id": "", "hdr_settings": "null", "intensifies_audio": false, "is_placeholder": false, "is_tone_modify": false, "keyframe_refs": [], "last_nonzero_volume": 1.0, "render_index": 0, "reverse": false, "speed": 1.0, "template_id": "", "template_scene": "default", "track_attribute": 0, "track_render_index": 0, "uniform_scale": "null", "visible": true, "responsive_layout": {"enable": false, "horizontal_pos_layout": 0, "size_layout": 0, "target_follow": "", "vertical_pos_layout": 0}, "id": "27B17161-C242-85D5-87C2-A61FA219C1E9", "material_id": "C1EB6FCC-05E5-EB34-AADA-64A66C8DBCA1", "source_timerange": {"duration": 2424000, "start": 0}, "target_timerange": {"duration": 2424000, "start": 1104958000}, "volume": 1.0}, {"cartoon": false, "clip": "null", "common_keyframes": [], "enable_adjust": false, "enable_color_curves": true, "enable_color_match_adjust": false, "enable_color_wheels": true, "enable_lut": false, "enable_smart_color_adjust": false, "group_id": "", "hdr_settings": "null", "intensifies_audio": false, "is_placeholder": false, "is_tone_modify": false, "keyframe_refs": [], "last_nonzero_volume": 1.0, "render_index": 0, "reverse": false, "speed": 1.0, "template_id": "", "template_scene": "default", "track_attribute": 0, "track_render_index": 0, "uniform_scale": "null", "visible": true, "responsive_layout": {"enable": false, "horizontal_pos_layout": 0, "size_layout": 0, "target_follow": "", "vertical_pos_layout": 0}, "id": "D86D0428-83FC-A3F6-3DB1-F8555676F0C2", "material_id": "5232A1B1-7750-C5EA-928C-9F5ADB8540CC", "source_timerange": {"duration": 3696000, "start": 0}, "target_timerange": {"duration": 3696000, "start": 1110756000}, "volume": 1.0}, {"cartoon": false, "clip": "null", "common_keyframes": [], "enable_adjust": false, "enable_color_curves": true, "enable_color_match_adjust": false, "enable_color_wheels": true, "enable_lut": false, "enable_smart_color_adjust": false, "group_id": "", "hdr_settings": "null", "intensifies_audio": false, "is_placeholder": false, "is_tone_modify": false, "keyframe_refs": [], "last_nonzero_volume": 1.0, "render_index": 0, "reverse": false, "speed": 1.0, "template_id": "", "template_scene": "default", "track_attribute": 0, "track_render_index": 0, "uniform_scale": "null", "visible": true, "responsive_layout": {"enable": false, "horizontal_pos_layout": 0, "size_layout": 0, "target_follow": "", "vertical_pos_layout": 0}, "id": "20757EB9-2AF6-0A4C-3DF5-7778EA1EA507", "material_id": "01DD397B-ED64-1031-305C-170A9C3FF587", "source_timerange": {"duration": 2712000, "start": 0}, "target_timerange": {"duration": 2712000, "start": 1116345000}, "volume": 1.0}, {"cartoon": false, "clip": "null", "common_keyframes": [], "enable_adjust": false, "enable_color_curves": true, "enable_color_match_adjust": false, "enable_color_wheels": true, "enable_lut": false, "enable_smart_color_adjust": false, "group_id": "", "hdr_settings": "null", "intensifies_audio": false, "is_placeholder": false, "is_tone_modify": false, "keyframe_refs": [], "last_nonzero_volume": 1.0, "render_index": 0, "reverse": false, "speed": 1.0, "template_id": "", "template_scene": "default", "track_attribute": 0, "track_render_index": 0, "uniform_scale": "null", "visible": true, "responsive_layout": {"enable": false, "horizontal_pos_layout": 0, "size_layout": 0, "target_follow": "", "vertical_pos_layout": 0}, "id": "C616DD44-48E7-C8F7-5BD6-0CE29C42C257", "material_id": "A48145C0-000C-19E9-122A-89D758E4AE9A", "source_timerange": {"duration": 2328000, "start": 0}, "target_timerange": {"duration": 2328000, "start": 1121307000}, "volume": 1.0}, {"cartoon": false, "clip": "null", "common_keyframes": [], "enable_adjust": false, "enable_color_curves": true, "enable_color_match_adjust": false, "enable_color_wheels": true, "enable_lut": false, "enable_smart_color_adjust": false, "group_id": "", "hdr_settings": "null", "intensifies_audio": false, "is_placeholder": false, "is_tone_modify": false, "keyframe_refs": [], "last_nonzero_volume": 1.0, "render_index": 0, "reverse": false, "speed": 1.0, "template_id": "", "template_scene": "default", "track_attribute": 0, "track_render_index": 0, "uniform_scale": "null", "visible": true, "responsive_layout": {"enable": false, "horizontal_pos_layout": 0, "size_layout": 0, "target_follow": "", "vertical_pos_layout": 0}, "id": "65CB16BA-D1F6-B5BD-1983-680E2A348088", "material_id": "BBAD45A3-1A2D-D3BF-E325-97A60FD099D2", "source_timerange": {"duration": 2544000, "start": 0}, "target_timerange": {"duration": 2544000, "start": 1124810000}, "volume": 1.0}, {"cartoon": false, "clip": "null", "common_keyframes": [], "enable_adjust": false, "enable_color_curves": true, "enable_color_match_adjust": false, "enable_color_wheels": true, "enable_lut": false, "enable_smart_color_adjust": false, "group_id": "", "hdr_settings": "null", "intensifies_audio": false, "is_placeholder": false, "is_tone_modify": false, "keyframe_refs": [], "last_nonzero_volume": 1.0, "render_index": 0, "reverse": false, "speed": 1.0, "template_id": "", "template_scene": "default", "track_attribute": 0, "track_render_index": 0, "uniform_scale": "null", "visible": true, "responsive_layout": {"enable": false, "horizontal_pos_layout": 0, "size_layout": 0, "target_follow": "", "vertical_pos_layout": 0}, "id": "51D8D8F5-4322-402B-905E-9D55D5DF4522", "material_id": "DE8CACB7-B631-25E7-FC1B-9D7A93091735", "source_timerange": {"duration": 2496000, "start": 0}, "target_timerange": {"duration": 2496000, "start": 1129148000}, "volume": 1.0}, {"cartoon": false, "clip": "null", "common_keyframes": [], "enable_adjust": false, "enable_color_curves": true, "enable_color_match_adjust": false, "enable_color_wheels": true, "enable_lut": false, "enable_smart_color_adjust": false, "group_id": "", "hdr_settings": "null", "intensifies_audio": false, "is_placeholder": false, "is_tone_modify": false, "keyframe_refs": [], "last_nonzero_volume": 1.0, "render_index": 0, "reverse": false, "speed": 1.0, "template_id": "", "template_scene": "default", "track_attribute": 0, "track_render_index": 0, "uniform_scale": "null", "visible": true, "responsive_layout": {"enable": false, "horizontal_pos_layout": 0, "size_layout": 0, "target_follow": "", "vertical_pos_layout": 0}, "id": "9E6B30BD-E0B4-A4D7-94AB-707044A674AF", "material_id": "0317B8C8-BB3B-CB74-E4FE-592F15759677", "source_timerange": {"duration": 2832000, "start": 0}, "target_timerange": {"duration": 2832000, "start": 1137281000}, "volume": 1.0}, {"cartoon": false, "clip": "null", "common_keyframes": [], "enable_adjust": false, "enable_color_curves": true, "enable_color_match_adjust": false, "enable_color_wheels": true, "enable_lut": false, "enable_smart_color_adjust": false, "group_id": "", "hdr_settings": "null", "intensifies_audio": false, "is_placeholder": false, "is_tone_modify": false, "keyframe_refs": [], "last_nonzero_volume": 1.0, "render_index": 0, "reverse": false, "speed": 1.0, "template_id": "", "template_scene": "default", "track_attribute": 0, "track_render_index": 0, "uniform_scale": "null", "visible": true, "responsive_layout": {"enable": false, "horizontal_pos_layout": 0, "size_layout": 0, "target_follow": "", "vertical_pos_layout": 0}, "id": "6F646F99-14CE-9150-6992-9547D5F01A69", "material_id": "3A077F8D-FFAA-9B85-FAED-8C34FB0E0350", "source_timerange": {"duration": 2448000, "start": 0}, "target_timerange": {"duration": 2448000, "start": 1143163000}, "volume": 1.0}, {"cartoon": false, "clip": "null", "common_keyframes": [], "enable_adjust": false, "enable_color_curves": true, "enable_color_match_adjust": false, "enable_color_wheels": true, "enable_lut": false, "enable_smart_color_adjust": false, "group_id": "", "hdr_settings": "null", "intensifies_audio": false, "is_placeholder": false, "is_tone_modify": false, "keyframe_refs": [], "last_nonzero_volume": 1.0, "render_index": 0, "reverse": false, "speed": 1.0, "template_id": "", "template_scene": "default", "track_attribute": 0, "track_render_index": 0, "uniform_scale": "null", "visible": true, "responsive_layout": {"enable": false, "horizontal_pos_layout": 0, "size_layout": 0, "target_follow": "", "vertical_pos_layout": 0}, "id": "DCB95DD6-E294-9A50-1E78-99073CDDC4BF", "material_id": "DE97B0A7-C13D-765E-6BC6-63820CC9EA8B", "source_timerange": {"duration": 2976000, "start": 0}, "target_timerange": {"duration": 2976000, "start": 1147459000}, "volume": 1.0}, {"cartoon": false, "clip": "null", "common_keyframes": [], "enable_adjust": false, "enable_color_curves": true, "enable_color_match_adjust": false, "enable_color_wheels": true, "enable_lut": false, "enable_smart_color_adjust": false, "group_id": "", "hdr_settings": "null", "intensifies_audio": false, "is_placeholder": false, "is_tone_modify": false, "keyframe_refs": [], "last_nonzero_volume": 1.0, "render_index": 0, "reverse": false, "speed": 1.0, "template_id": "", "template_scene": "default", "track_attribute": 0, "track_render_index": 0, "uniform_scale": "null", "visible": true, "responsive_layout": {"enable": false, "horizontal_pos_layout": 0, "size_layout": 0, "target_follow": "", "vertical_pos_layout": 0}, "id": "292D0D7F-6104-560B-141A-89D842DD4671", "material_id": "68AC888D-DF5D-FA0E-2848-945C22B6E2D7", "source_timerange": {"duration": 3024000, "start": 0}, "target_timerange": {"duration": 3024000, "start": 1151421000}, "volume": 1.0}, {"cartoon": false, "clip": "null", "common_keyframes": [], "enable_adjust": false, "enable_color_curves": true, "enable_color_match_adjust": false, "enable_color_wheels": true, "enable_lut": false, "enable_smart_color_adjust": false, "group_id": "", "hdr_settings": "null", "intensifies_audio": false, "is_placeholder": false, "is_tone_modify": false, "keyframe_refs": [], "last_nonzero_volume": 1.0, "render_index": 0, "reverse": false, "speed": 1.0, "template_id": "", "template_scene": "default", "track_attribute": 0, "track_render_index": 0, "uniform_scale": "null", "visible": true, "responsive_layout": {"enable": false, "horizontal_pos_layout": 0, "size_layout": 0, "target_follow": "", "vertical_pos_layout": 0}, "id": "BAA2B0B9-66D2-CD18-69F6-D0995547C7C2", "material_id": "1F328536-B9D7-A5C9-84FD-2A73A397314A", "source_timerange": {"duration": 1872000, "start": 0}, "target_timerange": {"duration": 1872000, "start": 1157094000}, "volume": 1.0}, {"cartoon": false, "clip": "null", "common_keyframes": [], "enable_adjust": false, "enable_color_curves": true, "enable_color_match_adjust": false, "enable_color_wheels": true, "enable_lut": false, "enable_smart_color_adjust": false, "group_id": "", "hdr_settings": "null", "intensifies_audio": false, "is_placeholder": false, "is_tone_modify": false, "keyframe_refs": [], "last_nonzero_volume": 1.0, "render_index": 0, "reverse": false, "speed": 1.0, "template_id": "", "template_scene": "default", "track_attribute": 0, "track_render_index": 0, "uniform_scale": "null", "visible": true, "responsive_layout": {"enable": false, "horizontal_pos_layout": 0, "size_layout": 0, "target_follow": "", "vertical_pos_layout": 0}, "id": "F51C80B1-2C98-66A1-CF2E-E89F5FC3C0D0", "material_id": "A6920246-887E-93B4-D9D1-AEA5D660B176", "source_timerange": {"duration": 1632000, "start": 0}, "target_timerange": {"duration": 1632000, "start": 1177405000}, "volume": 1.0}, {"cartoon": false, "clip": "null", "common_keyframes": [], "enable_adjust": false, "enable_color_curves": true, "enable_color_match_adjust": false, "enable_color_wheels": true, "enable_lut": false, "enable_smart_color_adjust": false, "group_id": "", "hdr_settings": "null", "intensifies_audio": false, "is_placeholder": false, "is_tone_modify": false, "keyframe_refs": [], "last_nonzero_volume": 1.0, "render_index": 0, "reverse": false, "speed": 1.0, "template_id": "", "template_scene": "default", "track_attribute": 0, "track_render_index": 0, "uniform_scale": "null", "visible": true, "responsive_layout": {"enable": false, "horizontal_pos_layout": 0, "size_layout": 0, "target_follow": "", "vertical_pos_layout": 0}, "id": "EC38C092-7573-337E-480C-A182F1619A67", "material_id": "AFDCAA19-7FE2-3BA7-26BC-A92C1978B37F", "source_timerange": {"duration": 3000000, "start": 0}, "target_timerange": {"duration": 3000000, "start": 1179657000}, "volume": 1.0}, {"cartoon": false, "clip": "null", "common_keyframes": [], "enable_adjust": false, "enable_color_curves": true, "enable_color_match_adjust": false, "enable_color_wheels": true, "enable_lut": false, "enable_smart_color_adjust": false, "group_id": "", "hdr_settings": "null", "intensifies_audio": false, "is_placeholder": false, "is_tone_modify": false, "keyframe_refs": [], "last_nonzero_volume": 1.0, "render_index": 0, "reverse": false, "speed": 1.0, "template_id": "", "template_scene": "default", "track_attribute": 0, "track_render_index": 0, "uniform_scale": "null", "visible": true, "responsive_layout": {"enable": false, "horizontal_pos_layout": 0, "size_layout": 0, "target_follow": "", "vertical_pos_layout": 0}, "id": "0A4CD20A-12D4-8464-8B20-89214D09D7C9", "material_id": "101E0548-7FA2-7416-D1FF-6397DCB79C9C", "source_timerange": {"duration": 1512000, "start": 0}, "target_timerange": {"duration": 1512000, "start": 1186330000}, "volume": 1.0}, {"cartoon": false, "clip": "null", "common_keyframes": [], "enable_adjust": false, "enable_color_curves": true, "enable_color_match_adjust": false, "enable_color_wheels": true, "enable_lut": false, "enable_smart_color_adjust": false, "group_id": "", "hdr_settings": "null", "intensifies_audio": false, "is_placeholder": false, "is_tone_modify": false, "keyframe_refs": [], "last_nonzero_volume": 1.0, "render_index": 0, "reverse": false, "speed": 1.0, "template_id": "", "template_scene": "default", "track_attribute": 0, "track_render_index": 0, "uniform_scale": "null", "visible": true, "responsive_layout": {"enable": false, "horizontal_pos_layout": 0, "size_layout": 0, "target_follow": "", "vertical_pos_layout": 0}, "id": "82841E7D-ADEF-C56B-2310-879A806B8FF8", "material_id": "FD3DA0C6-A7C7-85B7-C98B-BDC203158989", "source_timerange": {"duration": 2472000, "start": 0}, "target_timerange": {"duration": 2472000, "start": 1192461000}, "volume": 1.0}, {"cartoon": false, "clip": "null", "common_keyframes": [], "enable_adjust": false, "enable_color_curves": true, "enable_color_match_adjust": false, "enable_color_wheels": true, "enable_lut": false, "enable_smart_color_adjust": false, "group_id": "", "hdr_settings": "null", "intensifies_audio": false, "is_placeholder": false, "is_tone_modify": false, "keyframe_refs": [], "last_nonzero_volume": 1.0, "render_index": 0, "reverse": false, "speed": 1.0, "template_id": "", "template_scene": "default", "track_attribute": 0, "track_render_index": 0, "uniform_scale": "null", "visible": true, "responsive_layout": {"enable": false, "horizontal_pos_layout": 0, "size_layout": 0, "target_follow": "", "vertical_pos_layout": 0}, "id": "BBFA1880-BDD8-B037-C416-989AEB98A765", "material_id": "D62F1A3D-A0A7-A36C-DC52-CEDC8F126FBD", "source_timerange": {"duration": 2448000, "start": 0}, "target_timerange": {"duration": 2448000, "start": 1196842000}, "volume": 1.0}, {"cartoon": false, "clip": "null", "common_keyframes": [], "enable_adjust": false, "enable_color_curves": true, "enable_color_match_adjust": false, "enable_color_wheels": true, "enable_lut": false, "enable_smart_color_adjust": false, "group_id": "", "hdr_settings": "null", "intensifies_audio": false, "is_placeholder": false, "is_tone_modify": false, "keyframe_refs": [], "last_nonzero_volume": 1.0, "render_index": 0, "reverse": false, "speed": 1.0, "template_id": "", "template_scene": "default", "track_attribute": 0, "track_render_index": 0, "uniform_scale": "null", "visible": true, "responsive_layout": {"enable": false, "horizontal_pos_layout": 0, "size_layout": 0, "target_follow": "", "vertical_pos_layout": 0}, "id": "F4E29795-C92C-A818-8F29-8D4A88639C60", "material_id": "118E78B1-CBFC-0940-9BE8-D6A067E69EEF", "source_timerange": {"duration": 2520000, "start": 0}, "target_timerange": {"duration": 2520000, "start": 1200971000}, "volume": 1.0}, {"cartoon": false, "clip": "null", "common_keyframes": [], "enable_adjust": false, "enable_color_curves": true, "enable_color_match_adjust": false, "enable_color_wheels": true, "enable_lut": false, "enable_smart_color_adjust": false, "group_id": "", "hdr_settings": "null", "intensifies_audio": false, "is_placeholder": false, "is_tone_modify": false, "keyframe_refs": [], "last_nonzero_volume": 1.0, "render_index": 0, "reverse": false, "speed": 1.0, "template_id": "", "template_scene": "default", "track_attribute": 0, "track_render_index": 0, "uniform_scale": "null", "visible": true, "responsive_layout": {"enable": false, "horizontal_pos_layout": 0, "size_layout": 0, "target_follow": "", "vertical_pos_layout": 0}, "id": "21C55FF5-322D-2327-6BF2-75ACE8C111E0", "material_id": "A10E8AE9-BD3A-913D-9E43-4FA7F1EC4B8D", "source_timerange": {"duration": 4248000, "start": 0}, "target_timerange": {"duration": 4248000, "start": 1218363000}, "volume": 1.0}, {"cartoon": false, "clip": "null", "common_keyframes": [], "enable_adjust": false, "enable_color_curves": true, "enable_color_match_adjust": false, "enable_color_wheels": true, "enable_lut": false, "enable_smart_color_adjust": false, "group_id": "", "hdr_settings": "null", "intensifies_audio": false, "is_placeholder": false, "is_tone_modify": false, "keyframe_refs": [], "last_nonzero_volume": 1.0, "render_index": 0, "reverse": false, "speed": 1.0, "template_id": "", "template_scene": "default", "track_attribute": 0, "track_render_index": 0, "uniform_scale": "null", "visible": true, "responsive_layout": {"enable": false, "horizontal_pos_layout": 0, "size_layout": 0, "target_follow": "", "vertical_pos_layout": 0}, "id": "FE15C37A-ACB5-EBB6-43F9-6B75F6563AC5", "material_id": "078D1C3D-4B60-28AA-140A-19C1B690CB8A", "source_timerange": {"duration": 3456000, "start": 0}, "target_timerange": {"duration": 3456000, "start": 1227079000}, "volume": 1.0}, {"cartoon": false, "clip": "null", "common_keyframes": [], "enable_adjust": false, "enable_color_curves": true, "enable_color_match_adjust": false, "enable_color_wheels": true, "enable_lut": false, "enable_smart_color_adjust": false, "group_id": "", "hdr_settings": "null", "intensifies_audio": false, "is_placeholder": false, "is_tone_modify": false, "keyframe_refs": [], "last_nonzero_volume": 1.0, "render_index": 0, "reverse": false, "speed": 1.0, "template_id": "", "template_scene": "default", "track_attribute": 0, "track_render_index": 0, "uniform_scale": "null", "visible": true, "responsive_layout": {"enable": false, "horizontal_pos_layout": 0, "size_layout": 0, "target_follow": "", "vertical_pos_layout": 0}, "id": "9D05C963-83E4-E475-B2D4-3E86438ED37C", "material_id": "7A2E05E0-C717-6EC1-BF98-FFC95A3FF828", "source_timerange": {"duration": 2784000, "start": 0}, "target_timerange": {"duration": 2784000, "start": 1234503000}, "volume": 1.0}, {"cartoon": false, "clip": "null", "common_keyframes": [], "enable_adjust": false, "enable_color_curves": true, "enable_color_match_adjust": false, "enable_color_wheels": true, "enable_lut": false, "enable_smart_color_adjust": false, "group_id": "", "hdr_settings": "null", "intensifies_audio": false, "is_placeholder": false, "is_tone_modify": false, "keyframe_refs": [], "last_nonzero_volume": 1.0, "render_index": 0, "reverse": false, "speed": 1.0, "template_id": "", "template_scene": "default", "track_attribute": 0, "track_render_index": 0, "uniform_scale": "null", "visible": true, "responsive_layout": {"enable": false, "horizontal_pos_layout": 0, "size_layout": 0, "target_follow": "", "vertical_pos_layout": 0}, "id": "53348C76-FCA5-F770-5FBB-C85163537610", "material_id": "702E088C-4165-0587-93C9-D76006ACFBA5", "source_timerange": {"duration": 4872000, "start": 0}, "target_timerange": {"duration": 4872000, "start": 1240050000}, "volume": 1.0}, {"cartoon": false, "clip": "null", "common_keyframes": [], "enable_adjust": false, "enable_color_curves": true, "enable_color_match_adjust": false, "enable_color_wheels": true, "enable_lut": false, "enable_smart_color_adjust": false, "group_id": "", "hdr_settings": "null", "intensifies_audio": false, "is_placeholder": false, "is_tone_modify": false, "keyframe_refs": [], "last_nonzero_volume": 1.0, "render_index": 0, "reverse": false, "speed": 1.0, "template_id": "", "template_scene": "default", "track_attribute": 0, "track_render_index": 0, "uniform_scale": "null", "visible": true, "responsive_layout": {"enable": false, "horizontal_pos_layout": 0, "size_layout": 0, "target_follow": "", "vertical_pos_layout": 0}, "id": "5BE5090E-D19B-7F8D-E4C0-873A0598E2BE", "material_id": "62933F2A-00CF-0BCC-B3A9-B74F69ABEB08", "source_timerange": {"duration": 3288000, "start": 0}, "target_timerange": {"duration": 3288000, "start": 1249019000}, "volume": 1.0}, {"cartoon": false, "clip": "null", "common_keyframes": [], "enable_adjust": false, "enable_color_curves": true, "enable_color_match_adjust": false, "enable_color_wheels": true, "enable_lut": false, "enable_smart_color_adjust": false, "group_id": "", "hdr_settings": "null", "intensifies_audio": false, "is_placeholder": false, "is_tone_modify": false, "keyframe_refs": [], "last_nonzero_volume": 1.0, "render_index": 0, "reverse": false, "speed": 1.0, "template_id": "", "template_scene": "default", "track_attribute": 0, "track_render_index": 0, "uniform_scale": "null", "visible": true, "responsive_layout": {"enable": false, "horizontal_pos_layout": 0, "size_layout": 0, "target_follow": "", "vertical_pos_layout": 0}, "id": "36696655-64E9-4ED1-0D1C-99A88F69E548", "material_id": "9A7404DF-C2CF-97C8-6B36-51D1C2CBA530", "source_timerange": {"duration": 2376000, "start": 0}, "target_timerange": {"duration": 2376000, "start": 1256567000}, "volume": 1.0}, {"cartoon": false, "clip": "null", "common_keyframes": [], "enable_adjust": false, "enable_color_curves": true, "enable_color_match_adjust": false, "enable_color_wheels": true, "enable_lut": false, "enable_smart_color_adjust": false, "group_id": "", "hdr_settings": "null", "intensifies_audio": false, "is_placeholder": false, "is_tone_modify": false, "keyframe_refs": [], "last_nonzero_volume": 1.0, "render_index": 0, "reverse": false, "speed": 1.0, "template_id": "", "template_scene": "default", "track_attribute": 0, "track_render_index": 0, "uniform_scale": "null", "visible": true, "responsive_layout": {"enable": false, "horizontal_pos_layout": 0, "size_layout": 0, "target_follow": "", "vertical_pos_layout": 0}, "id": "9B335E2B-B02B-696F-4682-5399E52C7BB9", "material_id": "D32108B7-C1B3-17F1-3730-6B3A5328B6A7", "source_timerange": {"duration": 2544000, "start": 0}, "target_timerange": {"duration": 2544000, "start": 1265660000}, "volume": 1.0}, {"cartoon": false, "clip": "null", "common_keyframes": [], "enable_adjust": false, "enable_color_curves": true, "enable_color_match_adjust": false, "enable_color_wheels": true, "enable_lut": false, "enable_smart_color_adjust": false, "group_id": "", "hdr_settings": "null", "intensifies_audio": false, "is_placeholder": false, "is_tone_modify": false, "keyframe_refs": [], "last_nonzero_volume": 1.0, "render_index": 0, "reverse": false, "speed": 1.0, "template_id": "", "template_scene": "default", "track_attribute": 0, "track_render_index": 0, "uniform_scale": "null", "visible": true, "responsive_layout": {"enable": false, "horizontal_pos_layout": 0, "size_layout": 0, "target_follow": "", "vertical_pos_layout": 0}, "id": "4D104595-226B-B0E8-CBBA-27214200062D", "material_id": "87113C55-597C-A84C-8ED3-F902C3236DEB", "source_timerange": {"duration": 4560000, "start": 0}, "target_timerange": {"duration": 4560000, "start": 1270624000}, "volume": 1.0}, {"cartoon": false, "clip": "null", "common_keyframes": [], "enable_adjust": false, "enable_color_curves": true, "enable_color_match_adjust": false, "enable_color_wheels": true, "enable_lut": false, "enable_smart_color_adjust": false, "group_id": "", "hdr_settings": "null", "intensifies_audio": false, "is_placeholder": false, "is_tone_modify": false, "keyframe_refs": [], "last_nonzero_volume": 1.0, "render_index": 0, "reverse": false, "speed": 1.0, "template_id": "", "template_scene": "default", "track_attribute": 0, "track_render_index": 0, "uniform_scale": "null", "visible": true, "responsive_layout": {"enable": false, "horizontal_pos_layout": 0, "size_layout": 0, "target_follow": "", "vertical_pos_layout": 0}, "id": "972FAD1E-C267-3E44-D50B-C445F98B598D", "material_id": "4E5A6D8C-0794-0068-894F-B87564395D6C", "source_timerange": {"duration": 3528000, "start": 0}, "target_timerange": {"duration": 3528000, "start": 1276880000}, "volume": 1.0}, {"cartoon": false, "clip": "null", "common_keyframes": [], "enable_adjust": false, "enable_color_curves": true, "enable_color_match_adjust": false, "enable_color_wheels": true, "enable_lut": false, "enable_smart_color_adjust": false, "group_id": "", "hdr_settings": "null", "intensifies_audio": false, "is_placeholder": false, "is_tone_modify": false, "keyframe_refs": [], "last_nonzero_volume": 1.0, "render_index": 0, "reverse": false, "speed": 1.0, "template_id": "", "template_scene": "default", "track_attribute": 0, "track_render_index": 0, "uniform_scale": "null", "visible": true, "responsive_layout": {"enable": false, "horizontal_pos_layout": 0, "size_layout": 0, "target_follow": "", "vertical_pos_layout": 0}, "id": "3877048B-C59D-2D84-7064-381E15BFF89F", "material_id": "0635B9E6-4811-1FC2-0423-C49A7E90B4F9", "source_timerange": {"duration": 1776000, "start": 0}, "target_timerange": {"duration": 1776000, "start": 1296650000}, "volume": 1.0}, {"cartoon": false, "clip": "null", "common_keyframes": [], "enable_adjust": false, "enable_color_curves": true, "enable_color_match_adjust": false, "enable_color_wheels": true, "enable_lut": false, "enable_smart_color_adjust": false, "group_id": "", "hdr_settings": "null", "intensifies_audio": false, "is_placeholder": false, "is_tone_modify": false, "keyframe_refs": [], "last_nonzero_volume": 1.0, "render_index": 0, "reverse": false, "speed": 1.0, "template_id": "", "template_scene": "default", "track_attribute": 0, "track_render_index": 0, "uniform_scale": "null", "visible": true, "responsive_layout": {"enable": false, "horizontal_pos_layout": 0, "size_layout": 0, "target_follow": "", "vertical_pos_layout": 0}, "id": "CEF9841C-756A-430D-CCA5-65E4EA041A4F", "material_id": "6711F80D-AE9B-22B2-5D84-DC46F2161B15", "source_timerange": {"duration": 2280000, "start": 0}, "target_timerange": {"duration": 2280000, "start": 1298652000}, "volume": 1.0}, {"cartoon": false, "clip": "null", "common_keyframes": [], "enable_adjust": false, "enable_color_curves": true, "enable_color_match_adjust": false, "enable_color_wheels": true, "enable_lut": false, "enable_smart_color_adjust": false, "group_id": "", "hdr_settings": "null", "intensifies_audio": false, "is_placeholder": false, "is_tone_modify": false, "keyframe_refs": [], "last_nonzero_volume": 1.0, "render_index": 0, "reverse": false, "speed": 1.0, "template_id": "", "template_scene": "default", "track_attribute": 0, "track_render_index": 0, "uniform_scale": "null", "visible": true, "responsive_layout": {"enable": false, "horizontal_pos_layout": 0, "size_layout": 0, "target_follow": "", "vertical_pos_layout": 0}, "id": "E06415F7-9C47-B718-B3A0-64217BBE8DC5", "material_id": "E38E2D16-6D13-3B3A-4F8D-4F6A394B10A1", "source_timerange": {"duration": 1632000, "start": 0}, "target_timerange": {"duration": 1632000, "start": 1300819000}, "volume": 1.0}, {"cartoon": false, "clip": "null", "common_keyframes": [], "enable_adjust": false, "enable_color_curves": true, "enable_color_match_adjust": false, "enable_color_wheels": true, "enable_lut": false, "enable_smart_color_adjust": false, "group_id": "", "hdr_settings": "null", "intensifies_audio": false, "is_placeholder": false, "is_tone_modify": false, "keyframe_refs": [], "last_nonzero_volume": 1.0, "render_index": 0, "reverse": false, "speed": 1.0, "template_id": "", "template_scene": "default", "track_attribute": 0, "track_render_index": 0, "uniform_scale": "null", "visible": true, "responsive_layout": {"enable": false, "horizontal_pos_layout": 0, "size_layout": 0, "target_follow": "", "vertical_pos_layout": 0}, "id": "561BD060-08E1-7837-CF93-9761A248C77E", "material_id": "69059C01-A04C-3F78-3F6E-A9DC84450CBF", "source_timerange": {"duration": 1872000, "start": 0}, "target_timerange": {"duration": 1872000, "start": 1304531000}, "volume": 1.0}, {"cartoon": false, "clip": "null", "common_keyframes": [], "enable_adjust": false, "enable_color_curves": true, "enable_color_match_adjust": false, "enable_color_wheels": true, "enable_lut": false, "enable_smart_color_adjust": false, "group_id": "", "hdr_settings": "null", "intensifies_audio": false, "is_placeholder": false, "is_tone_modify": false, "keyframe_refs": [], "last_nonzero_volume": 1.0, "render_index": 0, "reverse": false, "speed": 1.0, "template_id": "", "template_scene": "default", "track_attribute": 0, "track_render_index": 0, "uniform_scale": "null", "visible": true, "responsive_layout": {"enable": false, "horizontal_pos_layout": 0, "size_layout": 0, "target_follow": "", "vertical_pos_layout": 0}, "id": "4D2F233F-D052-F518-2A97-14A8837FC26D", "material_id": "E1C3BE65-6476-B08B-B806-A85BB72003A8", "source_timerange": {"duration": 2376000, "start": 0}, "target_timerange": {"duration": 2376000, "start": 1308452000}, "volume": 1.0}, {"cartoon": false, "clip": "null", "common_keyframes": [], "enable_adjust": false, "enable_color_curves": true, "enable_color_match_adjust": false, "enable_color_wheels": true, "enable_lut": false, "enable_smart_color_adjust": false, "group_id": "", "hdr_settings": "null", "intensifies_audio": false, "is_placeholder": false, "is_tone_modify": false, "keyframe_refs": [], "last_nonzero_volume": 1.0, "render_index": 0, "reverse": false, "speed": 1.0, "template_id": "", "template_scene": "default", "track_attribute": 0, "track_render_index": 0, "uniform_scale": "null", "visible": true, "responsive_layout": {"enable": false, "horizontal_pos_layout": 0, "size_layout": 0, "target_follow": "", "vertical_pos_layout": 0}, "id": "7B3F2E97-4770-02AE-414E-45A8C7AA5DDC", "material_id": "27E6D0F5-23A9-0B10-84DC-63C754D07A4F", "source_timerange": {"duration": 1416000, "start": 0}, "target_timerange": {"duration": 1416000, "start": 1314750000}, "volume": 1.0}, {"cartoon": false, "clip": "null", "common_keyframes": [], "enable_adjust": false, "enable_color_curves": true, "enable_color_match_adjust": false, "enable_color_wheels": true, "enable_lut": false, "enable_smart_color_adjust": false, "group_id": "", "hdr_settings": "null", "intensifies_audio": false, "is_placeholder": false, "is_tone_modify": false, "keyframe_refs": [], "last_nonzero_volume": 1.0, "render_index": 0, "reverse": false, "speed": 1.0, "template_id": "", "template_scene": "default", "track_attribute": 0, "track_render_index": 0, "uniform_scale": "null", "visible": true, "responsive_layout": {"enable": false, "horizontal_pos_layout": 0, "size_layout": 0, "target_follow": "", "vertical_pos_layout": 0}, "id": "471428F8-7DEB-9F8E-26FD-86CBF3588B3B", "material_id": "DE446090-7D5E-8F02-7938-04B22DE5B6B4", "source_timerange": {"duration": 2328000, "start": 0}, "target_timerange": {"duration": 2328000, "start": 1317086000}, "volume": 1.0}], "type": "audio"}], "update_time": 0, "version": 360000}